<svg width="1820" height="1024" viewBox="0 0 1820 1024" fill="none" xmlns="http://www.w3.org/2000/svg">
<g clip-path="url(#clip0_232_2544)">
<path d="M1820 0H0V1024H1820V0Z" fill="#867EA8"/>
<path d="M1820 756.622H0V1024H1820V756.622Z" fill="#3D251F"/>
<path d="M1012.38 724.385H0V756.622H1012.38V724.385Z" fill="#775A4D"/>
<path d="M1820 724.385H1374.48V756.622H1820V724.385Z" fill="#775A4D"/>
<path d="M1167.66 108.212H960.562V756.774H1167.66V108.212Z" fill="#5E4237"/>
<path d="M1138.99 164.333H990.449V246.092H1138.99V164.333Z" fill="#7C605B"/>
<path d="M1137.78 508.018H989.245V589.777H1137.78V508.018Z" fill="#7C605B"/>
<path d="M1137.78 618.885H989.245V700.644H1137.78V618.885Z" fill="#7C605B"/>
<path d="M1137.78 275.2H989.245V478.919H1137.78V275.2Z" fill="#7C605B"/>
<path d="M1167.95 756.651H1375.05V108.089H1167.95V756.651Z" fill="#5E4237"/>
<path d="M1196.62 245.978L1345.16 245.978V164.219H1196.62V245.978Z" fill="#7C605B"/>
<path d="M1197.83 589.663H1346.37V507.904H1197.83V589.663Z" fill="#7C605B"/>
<path d="M1197.83 700.53H1346.37V618.771H1197.83V700.53Z" fill="#7C605B"/>
<path d="M1197.83 478.796H1346.37V275.077H1197.83V478.796Z" fill="#7C605B"/>
<path d="M1143.78 501.324C1148.62 501.324 1152.53 497.406 1152.53 492.572C1152.53 487.739 1148.62 483.821 1143.78 483.821C1138.95 483.821 1135.04 487.739 1135.04 492.572C1135.04 497.406 1138.95 501.324 1143.78 501.324Z" fill="#3D251F"/>
<path d="M1188.19 501.324C1193.03 501.324 1196.94 497.406 1196.94 492.572C1196.94 487.739 1193.03 483.821 1188.19 483.821C1183.36 483.821 1179.45 487.739 1179.45 492.572C1179.45 497.406 1183.36 501.324 1188.19 501.324Z" fill="#3D251F"/>
<path d="M239.129 578.784C237.497 578.784 236.513 577.812 236.513 576.672C236.513 575.688 237.101 574.992 238.061 574.584L238.049 574.548C237.185 574.14 236.813 573.468 236.813 572.796C236.813 571.56 237.857 570.72 239.225 570.72C240.737 570.72 241.493 571.668 241.493 572.64C241.493 573.3 241.169 574.008 240.209 574.464V574.5C241.181 574.884 241.781 575.568 241.781 576.516C241.781 577.872 240.617 578.784 239.129 578.784ZM239.153 578.016C240.101 578.016 240.713 577.428 240.713 576.624C240.713 575.676 240.053 575.22 238.997 574.92C238.085 575.184 237.593 575.784 237.593 576.528C237.557 577.32 238.157 578.016 239.153 578.016ZM239.165 571.476C238.289 571.476 237.809 572.052 237.809 572.724C237.809 573.504 238.397 573.924 239.297 574.164C239.969 573.936 240.485 573.456 240.485 572.748C240.485 572.124 240.113 571.476 239.165 571.476ZM245.054 578.652V571.836H245.03L243.674 572.568L243.47 571.764L245.174 570.852H246.074V578.652H245.054ZM249.526 578.772V577.908C249.754 577.932 250.018 577.908 250.378 577.872C250.99 577.788 251.566 577.536 252.01 577.116C252.526 576.648 252.898 575.964 253.042 575.04H253.006C252.574 575.568 251.95 575.88 251.17 575.88C249.766 575.88 248.866 574.824 248.866 573.492C248.866 572.016 249.934 570.72 251.53 570.72C253.126 570.72 254.11 572.016 254.11 574.008C254.11 575.724 253.534 576.924 252.766 577.668C252.166 578.256 251.338 578.616 250.498 578.712C250.114 578.772 249.778 578.784 249.526 578.772ZM251.446 571.524C250.546 571.524 249.91 572.316 249.91 573.42C249.91 574.392 250.498 575.076 251.41 575.076C252.118 575.076 252.67 574.728 252.946 574.26C253.006 574.164 253.042 574.044 253.042 573.876C253.042 572.544 252.55 571.524 251.446 571.524ZM257.67 570.72C259.314 570.72 260.25 572.184 260.25 574.668C260.25 577.32 259.266 578.784 257.538 578.784C256.014 578.784 254.982 577.356 254.958 574.776C254.958 572.16 256.086 570.72 257.67 570.72ZM257.61 571.536C256.686 571.536 256.014 572.664 256.014 574.788C256.014 576.816 256.638 577.968 257.598 577.968C258.678 577.968 259.194 576.708 259.194 574.716C259.194 572.796 258.702 571.536 257.61 571.536ZM237.221 592.772V591.908C237.449 591.932 237.713 591.908 238.073 591.872C238.685 591.788 239.261 591.536 239.705 591.116C240.221 590.648 240.593 589.964 240.737 589.04H240.701C240.269 589.568 239.645 589.88 238.865 589.88C237.461 589.88 236.561 588.824 236.561 587.492C236.561 586.016 237.629 584.72 239.225 584.72C240.821 584.72 241.805 586.016 241.805 588.008C241.805 589.724 241.229 590.924 240.461 591.668C239.861 592.256 239.033 592.616 238.193 592.712C237.809 592.772 237.473 592.784 237.221 592.772ZM239.141 585.524C238.241 585.524 237.605 586.316 237.605 587.42C237.605 588.392 238.193 589.076 239.105 589.076C239.813 589.076 240.365 588.728 240.641 588.26C240.701 588.164 240.737 588.044 240.737 587.876C240.737 586.544 240.245 585.524 239.141 585.524ZM243.554 592.784C243.134 592.784 242.846 592.46 242.846 592.028C242.846 591.584 243.146 591.272 243.566 591.272C243.986 591.272 244.274 591.584 244.274 592.028C244.274 592.46 243.998 592.784 243.554 592.784ZM247.85 584.72C249.494 584.72 250.43 586.184 250.43 588.668C250.43 591.32 249.446 592.784 247.718 592.784C246.194 592.784 245.162 591.356 245.138 588.776C245.138 586.16 246.266 584.72 247.85 584.72ZM247.79 585.536C246.866 585.536 246.194 586.664 246.194 588.788C246.194 590.816 246.818 591.968 247.778 591.968C248.858 591.968 249.374 590.708 249.374 588.716C249.374 586.796 248.882 585.536 247.79 585.536Z" fill="black"/>
<path d="M801.937 489.652H189.583V852.556H801.937V489.652Z" fill="white"/>
<path d="M189.583 489.652L218.021 457.007H783.927L801.937 489.652H189.583Z" fill="#E8E8E8"/>
<path d="M782.979 504.955H208.541V838.163H782.979V504.955Z" fill="#E8E8E8"/>
<path d="M241.719 493.985V479.213H304.66V493.985L327.486 455.642V444.274H270.469L241.719 479.213" fill="#759B5D"/>
<path d="M304.66 479.213H241.719V493.985H304.66V479.213Z" fill="#EDE4B7"/>
<path d="M241.719 477.554V462.781H304.66V477.554L327.979 441.941V429.615H270.469L241.719 462.781" fill="#45447F"/>
<path d="M304.66 462.781H241.719V477.554H304.66V462.781Z" fill="#EDE4B7"/>
<path d="M327.486 444.274V455.642L304.66 493.985V479.213L327.486 444.274Z" fill="#6C8750"/>
<path d="M714.729 375.467H692.927V470.281H714.729V375.467Z" fill="#AA3F3F"/>
<path d="M729.222 389.717V417.346H586.286V389.717H574.939V478.445H739.375V389.717H729.222ZM729.592 435.522H586.286V424.04H729.592V435.522Z" fill="white"/>
<path d="M1643.69 1024L1506.24 756.622V0H1643.69V1024Z" fill="#35211A"/>
<path d="M1506.24 756.622H1643.69V1024L1506.24 756.622Z" fill="#261714"/>
<path d="M1570.04 850.28L1570.72 711.111H1643.69V850.28H1570.04Z" fill="#759B5D"/>
<path d="M1570.04 850.28L1560.55 831.222L1561.22 693.096L1570.99 711.111L1570.04 850.28Z" fill="#6C8750"/>
<path d="M1589 890.102L1589.62 745.244H1643.69V890.102H1589Z" fill="#BA4F4F"/>
<path d="M1589 890.103L1579.5 870.267L1579.23 724.385L1589.95 745.245L1589 890.103Z" fill="#AA3F3F"/>
<path d="M1506.24 593.541H1643.69V843.255L1506.24 593.541Z" fill="#261714"/>
<path d="M1546.05 617.244L1546.97 497.778L1602.93 498.726V617.244H1546.05Z" fill="#45447F"/>
<path d="M1546.05 617.245L1537.52 598.282V480.711L1547 497.778L1546.05 617.245Z" fill="#333372"/>
<path d="M1578.28 679.822L1579.2 560.356L1635.16 561.304V679.822H1578.28Z" fill="#BA4F4F"/>
<path d="M1578.28 679.822L1569.75 660.859V543.289L1579.23 560.356L1578.28 679.822Z" fill="#AA3F3F"/>
<path d="M1592.5 703.526L1593.4 584.059L1643.69 585.007V703.526H1592.5Z" fill="#45447F"/>
<path d="M1592.5 703.526L1583.97 684.563V566.993L1593.45 584.059L1592.5 703.526Z" fill="#333372"/>
<path d="M1506.24 425.719H1643.69V675.432L1506.24 425.719Z" fill="#261714"/>
<path d="M1656.01 523.378V527.038L1594.4 526.222C1589.78 506.273 1582.95 493.947 1574.19 486.903C1573.77 486.571 1573.47 486.116 1573.31 485.613C1567.79 467.371 1561.62 455.576 1551.74 448.474H1623.78L1656.01 511.052V523.378Z" fill="#BA4F4F"/>
<path d="M1661.77 483.556L1574.49 485.452C1570.48 469.665 1564.85 456.192 1554.58 449.413H1636.09L1661.77 483.556Z" fill="#EDE4B7"/>
<path d="M1574.49 485.452C1585.23 492.279 1591.77 506.131 1596.29 523.378H1695.82L1661.77 483.556L1574.49 485.452Z" fill="#EDE4B7"/>
<path d="M1574.49 485.452H1644.65L1639.9 475.904C1619.05 483.394 1596.28 483.224 1571.73 475.904C1571.73 475.904 1572.59 478.815 1574.49 485.452Z" fill="#E2D7AA"/>
<path d="M1574.49 485.452H1644.65L1649.38 493.985C1626.74 487.87 1604.61 486.21 1583.53 493.985C1580.86 490.657 1577.91 487.718 1574.49 485.452Z" fill="#E2D7AA"/>
<path d="M1574.49 485.452H1641.2L1640.42 484.02L1574.28 484.731L1574.49 485.452Z" fill="#BAAE7F"/>
<path d="M1506.24 262.637H1643.69V512.351L1506.24 262.637Z" fill="#261714"/>
<path d="M1586.81 361.244L1587.73 241.778L1643.69 242.726V361.244H1586.81Z" fill="#BA4F4F"/>
<path d="M1586.81 361.245L1577.32 342.547V224.711L1587.76 241.778L1586.81 361.245Z" fill="#AA3F3F"/>
<path d="M1627.57 434.252L1627.83 314.785L1643.69 315.733V434.252H1627.57Z" fill="#45447F"/>
<path d="M1627.57 434.252L1618.08 415.554V297.719L1628.52 314.785L1627.57 434.252Z" fill="#333372"/>
<path d="M1506.24 94.9287H1643.69V344.633L1506.24 94.9287Z" fill="#261714"/>
<path d="M1541.31 109.985L1542.26 0H1643.69V109.985H1541.31Z" fill="#759B5D"/>
<path d="M1541.31 109.985L1531.82 94.9286V0H1542.26L1541.31 109.985Z" fill="#6C8750"/>
<path d="M1560.27 149.807L1561.22 0H1643.69V149.807H1560.27Z" fill="#BA4F4F"/>
<path d="M1560.27 149.807L1550.78 129.289V0H1561.22L1560.27 149.807Z" fill="#AA3F3F"/>
<path d="M1820 0H1643.69V1024H1820V0Z" fill="#5E4237"/>
<path d="M507.136 226.607H114.698V251.259H507.136V226.607Z" fill="#7C605B"/>
<path d="M114.698 226.607L142.188 205.748H485.334L507.136 226.607H114.698Z" fill="#5E4237"/>
<path d="M184.958 138.43H165.886V219.97H184.958V138.43Z" fill="#333372"/>
<path d="M165.886 138.43H184.958L202.854 128H184.958L165.886 138.43H184.958L202.854 128V205.748L184.958 219.97V138.43" fill="#45447F"/>
<path d="M165.886 138.43L184.844 128H202.854L184.958 138.43H165.886Z" fill="#EDE4B7"/>
<path d="M208.656 138.43H189.584V219.97H208.656V138.43Z" fill="#AA3F3F"/>
<path d="M189.584 138.43H208.656L226.553 128H208.656L189.584 138.43H208.656L226.553 128V205.748L208.656 219.97V138.43" fill="#BA4F4F"/>
<path d="M189.584 138.43L208.542 128H226.553L208.656 138.43H189.584Z" fill="#EDE4B7"/>
<path d="M377.167 184.159H371.517C369.638 184.159 368.114 185.683 368.114 187.563V193.839C368.114 195.719 369.638 197.243 371.517 197.243H377.167C379.046 197.243 380.57 195.719 380.57 193.839V187.563C380.57 185.683 379.046 184.159 377.167 184.159Z" fill="#8BC985"/>
<path d="M393.774 184.159H388.125C386.245 184.159 384.722 185.683 384.722 187.563V193.839C384.722 195.719 386.245 197.243 388.125 197.243H393.774C395.654 197.243 397.177 195.719 397.177 193.839V187.563C397.177 185.683 395.654 184.159 393.774 184.159Z" fill="#8BC985"/>
<path d="M385.471 175.436H379.821C377.942 175.436 376.418 176.96 376.418 178.84V193.839C376.418 195.719 377.942 197.243 379.821 197.243H385.471C387.35 197.243 388.874 195.719 388.874 193.839V178.84C388.874 176.96 387.35 175.436 385.471 175.436Z" fill="#8BC985"/>
<path d="M368.114 194.333V201.605C368.114 209.636 374.617 216.14 382.646 216.14C390.675 216.14 397.177 209.636 397.177 201.605V194.333H368.114Z" fill="#F6EEDA"/>
<path d="M269.777 662.243C267.559 664.557 265.568 665.856 263.805 666.131V666.69C265.938 666.88 268.156 668.406 270.469 671.27C271.303 672.654 271.806 673.953 271.995 675.157C272.175 676.361 272.27 677.243 272.27 677.793V755.295C272.27 758.073 271.711 760.756 270.602 763.354C270.043 764.738 269.351 766.085 268.516 767.384C267.777 768.313 266.99 769.185 266.156 770.019C264.213 771.963 262.033 773.442 259.634 774.466C257.966 775.111 256.762 775.528 256.023 775.718C255.378 775.993 253.937 776.135 251.719 776.135C250.335 776.135 248.714 775.945 246.856 775.576C245.283 775.111 244.174 774.741 243.52 774.466C241.017 773.357 238.799 771.878 236.856 770.019C235.008 768.076 233.519 765.857 232.41 763.354C231.301 760.766 230.742 758.073 230.742 755.295V677.793C230.742 677.234 230.837 676.361 231.017 675.157C231.197 673.953 231.709 672.654 232.543 671.27C235.045 668.312 237.406 666.776 239.624 666.69V666.273C237.681 665.998 235.548 664.652 233.235 662.243C232.126 660.764 231.434 659.352 231.15 658.005C230.875 656.659 230.732 655.711 230.732 655.161L231.007 592.943C231.007 590.165 231.519 587.482 232.533 584.884C233.643 582.381 235.121 580.162 236.979 578.219C238.922 576.275 241.141 574.796 243.643 573.772C244.382 573.497 245.491 573.127 246.98 572.662C248.828 572.293 250.449 572.103 251.843 572.103C253.236 572.103 254.715 572.293 256.288 572.662C258.506 573.402 259.663 573.772 259.758 573.772C260.033 573.867 260.355 574.009 260.734 574.189C262.867 575.213 264.763 576.55 266.431 578.219C268.279 580.162 269.768 582.381 270.877 584.884C271.891 587.482 272.403 590.165 272.403 592.943L272.261 655.161C272.261 655.72 272.118 656.668 271.844 658.005C271.569 659.352 270.867 660.764 269.758 662.243H269.777ZM253.255 755.437L253.397 676.826C253.302 675.717 252.838 674.93 252.013 674.465L251.596 674.323H251.454C251.264 674.418 251.084 674.465 250.895 674.465C250.06 675.024 249.643 675.811 249.643 676.826C249.643 677.471 249.691 703.63 249.786 755.295C249.786 756.224 250.383 756.821 251.587 757.096C252.146 757.096 252.601 756.869 252.971 756.404C253.151 756.034 253.245 755.712 253.245 755.427L253.255 755.437ZM253.255 655.161L253.397 592.801C253.397 592.062 253.075 591.55 252.421 591.275C252.231 591.18 252.004 591.132 251.729 591.132C250.8 591.132 250.203 591.739 249.928 592.934L249.786 655.151C249.786 655.986 250.108 656.536 250.762 656.82H252.288C252.563 656.64 252.8 656.403 252.98 656.128C253.16 655.758 253.255 655.436 253.255 655.151V655.161Z" fill="#867EA8"/>
<path d="M294.831 575.298V574.739H313.855V774.324H294.831V593.91H289.134V584.467C289.598 584.097 290.11 583.68 290.66 583.215C291.219 582.751 291.722 582.201 292.186 581.546C293.854 579.043 294.726 576.967 294.821 575.298H294.831Z" fill="#867EA8"/>
<path d="M371.251 584.884C372.36 587.482 372.92 590.165 372.92 592.943V755.304C372.92 755.949 372.777 757.485 372.502 759.884C372.228 761.088 371.858 762.245 371.393 763.354C370.284 765.857 368.796 768.076 366.948 770.02C365.004 771.878 362.786 773.357 360.284 774.466C357.687 775.576 355.004 776.135 352.227 776.135C349.449 776.135 346.767 775.576 344.169 774.466C341.667 773.357 339.449 771.878 337.505 770.02C335.657 768.076 334.169 765.857 333.06 763.354C332.036 760.766 331.534 758.073 331.534 755.295V696.965H350.416V755.295C350.416 756.224 351.013 756.821 352.217 757.096C353.231 757.096 353.838 756.499 354.018 755.295V680.988H352.909V682.515C351.705 687.796 349.07 691.077 344.994 692.376C344.16 692.565 343.468 692.651 342.909 692.651C341.24 692.651 340.131 692.47 339.572 692.091C337.069 690.982 335.079 688.896 333.6 685.843C332.121 682.79 331.382 679.225 331.382 675.148V592.924C331.382 592.185 331.562 590.658 331.941 588.345C332.216 587.141 332.586 585.984 333.05 584.875C334.064 582.372 335.553 580.2 337.496 578.351C339.439 576.408 341.61 574.929 344.018 573.905C346.605 572.795 349.335 572.236 352.208 572.236C355.08 572.236 357.668 572.795 360.265 573.905C362.673 574.929 364.843 576.408 366.787 578.351C368.73 580.21 370.209 582.381 371.232 584.875L371.251 584.884ZM353.762 673.071L353.904 592.792C353.904 591.957 353.345 591.407 352.236 591.123H351.961C351.127 591.123 350.615 591.682 350.435 592.792V672.929C350.805 673.858 351.411 674.313 352.236 674.313C352.975 674.313 353.487 673.896 353.762 673.062V673.071Z" fill="#867EA8"/>
<path d="M425.88 578.351C427.824 580.21 429.302 582.381 430.326 584.875C431.435 587.473 431.994 590.156 431.994 592.934V755.295C431.994 758.073 431.435 760.756 430.326 763.354C429.302 765.857 427.824 768.076 425.88 770.02C423.937 771.878 421.757 773.357 419.359 774.466C416.676 775.481 413.946 775.993 411.169 775.993C408.391 775.993 405.709 775.481 403.111 774.466C400.609 773.357 398.438 771.878 396.59 770.02C394.646 768.076 393.168 765.857 392.144 763.354C391.035 760.766 390.476 758.073 390.476 755.295V592.934C390.476 590.156 391.035 587.473 392.144 584.875C393.158 582.372 394.646 580.2 396.59 578.351C398.438 576.408 400.618 574.929 403.111 573.905C405.699 572.795 408.391 572.236 411.169 572.236C413.946 572.236 416.676 572.795 419.359 573.905C421.766 574.929 423.937 576.408 425.88 578.351ZM412.97 753.218V595.304C412.97 594.29 412.363 593.683 411.169 593.503C410.24 593.503 409.69 594.11 409.5 595.304V753.218C409.5 754.328 410.06 754.934 411.169 755.02C412.183 755.02 412.79 754.422 412.97 753.218Z" fill="#867EA8"/>
<path d="M489.391 584.884C490.5 587.482 491.059 590.165 491.059 592.943V755.304C491.059 755.949 490.917 757.485 490.642 759.884C490.367 761.088 489.998 762.245 489.533 763.354C488.424 765.857 486.936 768.076 485.087 770.02C483.144 771.878 480.926 773.357 478.423 774.466C475.826 775.576 473.144 776.135 470.366 776.135C467.589 776.135 464.906 775.576 462.309 774.466C459.806 773.357 457.588 771.878 455.645 770.02C453.797 768.076 452.308 765.857 451.199 763.354C450.176 760.766 449.673 758.073 449.673 755.295V696.965H468.556V755.295C468.556 756.224 469.153 756.821 470.357 757.096C471.371 757.096 471.978 756.499 472.158 755.295V680.988H471.049V682.515C469.845 687.796 467.21 691.077 463.134 692.376C462.299 692.565 461.607 692.651 461.048 692.651C459.38 692.651 458.271 692.47 457.711 692.091C455.209 690.982 453.218 688.896 451.74 685.843C450.261 682.79 449.521 679.225 449.521 675.148V592.924C449.521 592.185 449.702 590.658 450.081 588.345C450.356 587.141 450.725 585.984 451.19 584.875C452.204 582.372 453.692 580.2 455.636 578.351C457.579 576.408 459.749 574.929 462.157 573.905C464.745 572.795 467.475 572.236 470.347 572.236C473.219 572.236 475.807 572.795 478.405 573.905C480.812 574.929 482.983 576.408 484.926 578.351C486.869 580.21 488.348 582.381 489.372 584.875L489.391 584.884ZM471.902 673.071L472.044 592.792C472.044 591.957 471.485 591.407 470.376 591.123H470.101C469.267 591.123 468.755 591.682 468.575 592.792V672.929C468.944 673.858 469.551 674.313 470.376 674.313C471.115 674.313 471.627 673.896 471.902 673.062V673.071Z" fill="#867EA8"/>
<path d="M516.074 606.416V579.11C516.074 578.209 516.69 577.593 517.591 577.593C518.397 577.593 519.108 578.209 519.108 579.11V604.899H527.07C527.876 604.899 528.587 605.516 528.587 606.416C528.587 607.317 527.876 607.934 527.07 607.934H517.591C516.69 607.934 516.074 607.317 516.074 606.416Z" fill="#867EA8"/>
<path d="M534.559 580.532C534.559 579.442 535.364 578.636 536.454 578.636C537.545 578.636 538.35 579.442 538.35 580.532C538.35 581.622 537.545 582.428 536.454 582.428C535.364 582.428 534.559 581.622 534.559 580.532ZM536.454 608.028C535.696 608.028 535.033 607.412 535.033 606.606V587.643C535.033 586.837 535.696 586.221 536.454 586.221C537.26 586.221 537.876 586.837 537.876 587.643V606.606C537.876 607.412 537.26 608.028 536.454 608.028Z" fill="#867EA8"/>
<path d="M546.266 586.268C546.977 586.079 547.782 586.505 548.019 587.217L549.583 592.479C550.484 595.465 551.527 599.021 552.332 601.676C553.091 599.021 554.181 595.465 555.081 592.479L556.645 587.217C556.882 586.505 557.688 586.079 558.446 586.268C559.205 586.505 559.631 587.311 559.394 588.07L553.707 607.033C553.517 607.602 552.949 608.028 552.332 608.028C551.716 608.028 551.148 607.602 550.958 607.033L545.27 588.07C545.081 587.311 545.507 586.505 546.266 586.268Z" fill="#867EA8"/>
<path d="M566.788 606.606V587.833C566.788 587.027 567.404 586.411 568.21 586.411H572.95C574.04 586.411 575.035 586.695 576.03 587.217C576.741 587.643 576.931 588.449 576.552 589.16C576.172 589.871 575.319 590.108 574.608 589.682C574.087 589.397 573.518 589.255 572.95 589.255H569.632V606.606C569.632 607.412 569.016 608.028 568.21 608.028C567.404 608.028 566.788 607.412 566.788 606.606Z" fill="#867EA8"/>
<path d="M582.761 601.865V592.384C582.761 588.971 585.51 586.221 588.922 586.221C592.335 586.221 595.084 588.971 595.084 592.384V597.125C595.084 597.931 594.468 598.547 593.662 598.547H585.604V601.865C585.604 603.193 586.363 604.425 587.642 604.947C588.922 605.468 590.297 605.184 591.245 604.236C591.529 603.951 591.861 603.809 592.24 603.809C592.666 603.809 592.998 603.951 593.283 604.236C593.567 604.473 593.709 604.805 593.709 605.231C593.709 605.611 593.567 605.942 593.283 606.227C591.529 607.981 588.875 608.502 586.552 607.554C584.23 606.606 582.761 604.378 582.761 601.865ZM585.604 592.384V595.702H592.24V592.384C592.24 590.535 590.771 589.065 588.922 589.065C587.074 589.065 585.604 590.535 585.604 592.384Z" fill="#867EA8"/>
<path d="M610.345 601.96C610.297 601.012 609.871 600.253 609.065 599.685L604.657 596.556C603.188 595.56 602.382 593.996 602.24 592.289C602.098 590.535 602.809 588.876 604.089 587.738C605.368 586.553 607.075 586.031 608.781 586.268C610.487 586.6 611.956 587.548 612.857 589.065C613.236 589.776 613.046 590.63 612.335 591.009C611.625 591.388 610.771 591.199 610.392 590.488C609.966 589.729 609.255 589.255 608.354 589.113C607.454 588.971 606.648 589.208 605.984 589.824C605.321 590.44 605.037 591.199 605.084 592.099C605.131 593 605.558 593.711 606.316 594.233L610.724 597.314C612.193 598.405 613.046 599.922 613.189 601.771C613.331 603.619 612.62 605.279 611.293 606.464C609.966 607.744 608.212 608.218 606.458 607.981C604.61 607.649 603.141 606.653 602.24 605.089C601.861 604.378 602.051 603.525 602.762 603.145C603.472 602.766 604.326 602.956 604.705 603.667C605.226 604.473 605.937 604.994 606.885 605.136C607.785 605.279 608.639 605.042 609.397 604.378C610.108 603.714 610.44 602.908 610.345 601.96Z" fill="#867EA8"/>
<path d="M632.005 601.676V592.574C632.005 589.16 634.754 586.411 638.166 586.411H641.484V578.162C641.484 577.356 642.1 576.74 642.906 576.74C643.664 576.74 644.328 577.356 644.328 578.162V606.417C644.328 607.222 643.664 607.839 642.906 607.839H638.166C634.754 607.839 632.005 605.089 632.005 601.676ZM634.849 592.574V601.676C634.849 603.525 636.318 604.994 638.166 604.994H641.484V589.255H638.166C636.318 589.255 634.849 590.725 634.849 592.574Z" fill="#867EA8"/>
<path d="M652.764 601.866V592.384C652.764 588.971 655.56 586.221 658.925 586.221C662.29 586.221 665.087 588.971 665.087 592.384V597.125C665.087 597.931 664.47 598.547 663.665 598.547H655.607V601.866C655.607 603.193 656.366 604.426 657.645 604.947C658.925 605.468 660.347 605.184 661.295 604.236C661.532 603.951 661.864 603.809 662.243 603.809C662.669 603.809 663.001 603.951 663.286 604.236C663.57 604.473 663.712 604.805 663.712 605.231C663.712 605.611 663.57 605.943 663.286 606.227C661.532 607.981 658.878 608.503 656.603 607.554C654.28 606.606 652.764 604.378 652.764 601.866ZM662.385 577.214C662.906 577.783 662.859 578.683 662.243 579.205L657.503 583.471C656.935 583.993 656.034 583.946 655.513 583.377C654.991 582.808 655.039 581.907 655.607 581.385L660.347 577.119C660.963 576.597 661.816 576.645 662.385 577.214ZM655.607 592.384V595.703H662.243V592.384C662.243 590.535 660.774 589.066 658.925 589.066C657.077 589.066 655.607 590.535 655.607 592.384Z" fill="#867EA8"/>
<path d="M673.145 616.088V587.833C673.145 587.027 673.761 586.411 674.566 586.411H679.306C682.671 586.411 685.467 589.16 685.467 592.574V601.676C685.467 605.089 682.671 607.839 679.306 607.839H675.988V616.088C675.988 616.894 675.325 617.51 674.566 617.51C673.761 617.51 673.145 616.894 673.145 616.088ZM679.306 589.255H675.988V604.994H679.306C681.154 604.994 682.624 603.525 682.624 601.676V592.574C682.624 590.725 681.154 589.255 679.306 589.255Z" fill="#867EA8"/>
<path d="M693.335 601.865V592.384C693.335 588.971 696.084 586.221 699.496 586.221C702.909 586.221 705.658 588.971 705.658 592.384V601.865C705.658 605.279 702.862 608.028 699.496 608.028C696.131 608.028 693.335 605.279 693.335 601.865ZM696.179 592.384V601.865C696.179 603.714 697.648 605.184 699.496 605.184C701.345 605.184 702.814 603.714 702.814 601.865V592.384C702.814 590.535 701.345 589.065 699.496 589.065C697.648 589.065 696.179 590.535 696.179 592.384Z" fill="#867EA8"/>
<path d="M721.298 601.96C721.251 601.012 720.824 600.253 720.018 599.685L715.611 596.556C714.141 595.56 713.336 593.996 713.193 592.289C713.051 590.535 713.762 588.876 715.042 587.738C716.321 586.553 718.028 586.031 719.734 586.268C721.44 586.6 722.909 587.548 723.81 589.065C724.189 589.776 724 590.63 723.289 591.009C722.578 591.388 721.725 591.199 721.345 590.488C720.919 589.729 720.208 589.255 719.307 589.113C718.407 588.971 717.601 589.208 716.938 589.824C716.274 590.44 715.99 591.199 716.037 592.099C716.084 593 716.511 593.711 717.269 594.233L721.677 597.314C723.146 598.405 724 599.922 724.142 601.771C724.284 603.619 723.573 605.279 722.246 606.464C720.919 607.744 719.165 608.218 717.412 607.981C715.563 607.649 714.094 606.653 713.193 605.089C712.814 604.378 713.004 603.525 713.715 603.145C714.426 602.766 715.279 602.956 715.658 603.667C716.179 604.473 716.89 604.994 717.838 605.136C718.739 605.279 719.592 605.042 720.35 604.378C721.061 603.714 721.393 602.908 721.298 601.96Z" fill="#867EA8"/>
<path d="M731.488 601.866V592.384C731.488 588.971 734.285 586.221 737.65 586.221C741.015 586.221 743.811 588.971 743.811 592.384V597.125C743.811 597.931 743.195 598.547 742.389 598.547H734.332V601.866C734.332 603.193 735.09 604.426 736.37 604.947C737.65 605.468 739.072 605.184 740.02 604.236C740.257 603.951 740.588 603.809 740.967 603.809C741.394 603.809 741.726 603.951 742.01 604.236C742.295 604.473 742.437 604.805 742.437 605.231C742.437 605.611 742.295 605.943 742.01 606.227C740.257 607.981 737.602 608.503 735.327 607.554C733.005 606.606 731.488 604.378 731.488 601.866ZM741.11 577.214C741.631 577.783 741.584 578.683 740.967 579.205L736.228 583.471C735.659 583.993 734.759 583.946 734.237 583.377C733.716 582.808 733.763 581.907 734.332 581.385L739.072 577.119C739.688 576.597 740.541 576.645 741.11 577.214ZM734.332 592.384V595.703H740.967V592.384C740.967 590.535 739.498 589.066 737.65 589.066C735.801 589.066 734.332 590.535 734.332 592.384Z" fill="#867EA8"/>
<path d="M759.073 601.96C759.026 601.012 758.599 600.253 757.794 599.685L753.386 596.556C751.917 595.56 751.111 593.996 750.969 592.289C750.827 590.535 751.537 588.876 752.817 587.738C754.097 586.553 755.803 586.031 757.509 586.268C759.216 586.6 760.685 587.548 761.585 589.065C761.965 589.776 761.775 590.63 761.064 591.009C760.353 591.388 759.5 591.199 759.121 590.488C758.694 589.729 757.983 589.255 757.083 589.113C756.182 588.971 755.377 589.208 754.713 589.824C754.049 590.44 753.765 591.199 753.812 592.099C753.86 593 754.286 593.711 755.045 594.233L759.453 597.314C760.922 598.405 761.775 599.922 761.917 601.771C762.059 603.619 761.348 605.279 760.021 606.464C758.694 607.744 756.941 608.218 755.187 607.981C753.339 607.649 751.869 606.653 750.969 605.089C750.59 604.378 750.779 603.525 751.49 603.145C752.201 602.766 753.054 602.956 753.433 603.667C753.955 604.473 754.666 604.994 755.614 605.136C756.514 605.279 757.367 605.042 758.126 604.378C758.836 603.714 759.168 602.908 759.073 601.96Z" fill="#867EA8"/>
<path d="M515.601 658.754V649.273C515.601 645.859 518.35 643.11 521.762 643.11C525.175 643.11 527.924 645.859 527.924 649.273V654.014C527.924 654.819 527.307 655.436 526.502 655.436H518.444V658.754C518.444 660.082 519.203 661.314 520.482 661.836C521.762 662.357 523.137 662.073 524.084 661.125C524.369 660.84 524.701 660.698 525.08 660.698C525.506 660.698 525.838 660.84 526.122 661.125C526.407 661.362 526.549 661.694 526.549 662.12C526.549 662.499 526.407 662.831 526.122 663.116C524.369 664.87 521.715 665.391 519.392 664.443C517.07 663.495 515.601 661.267 515.601 658.754ZM518.444 649.273V652.591H525.08V649.273C525.08 647.424 523.61 645.954 521.762 645.954C519.914 645.954 518.444 647.424 518.444 649.273Z" fill="#867EA8"/>
<path d="M535.98 663.495V644.722C535.98 643.916 536.597 643.3 537.402 643.3H542.142C545.507 643.3 548.303 646.049 548.303 649.463V663.495C548.303 664.301 547.64 664.917 546.882 664.917C546.076 664.917 545.46 664.301 545.46 663.495V649.463C545.46 647.614 543.99 646.144 542.142 646.144H538.824V663.495C538.824 664.301 538.161 664.917 537.402 664.917C536.597 664.917 535.98 664.301 535.98 663.495Z" fill="#867EA8"/>
<path d="M568.115 638.085C569.11 636.33 570.532 635.24 572.428 634.766C574.276 634.245 576.172 634.482 577.831 635.382C579.49 636.283 580.722 637.753 581.244 639.602C581.812 641.451 581.623 643.299 580.722 645.053C579.395 647.566 578.163 649.889 577.025 652.117C575.035 655.91 572.855 660.082 571.954 661.788H580.059C580.864 661.788 581.575 662.405 581.575 663.305C581.575 664.206 580.864 664.822 580.059 664.822H569.442C568.826 664.822 568.399 664.585 568.162 664.111C567.831 663.59 567.831 663.068 568.115 662.594L578.068 643.631C578.589 642.636 578.684 641.593 578.352 640.502C578.021 639.412 577.357 638.559 576.362 638.037C575.367 637.516 574.324 637.373 573.234 637.658C572.144 637.99 571.29 638.653 570.769 639.602C570.343 640.313 569.395 640.597 568.684 640.17C567.973 639.744 567.688 638.796 568.115 638.085Z" fill="#867EA8"/>
<path d="M589.822 657.806V641.688C589.822 637.705 593.045 634.482 597.026 634.482C601.008 634.482 604.231 637.705 604.231 641.688V657.806C604.231 661.788 600.96 665.012 597.026 665.012C593.093 665.012 589.822 661.788 589.822 657.806ZM592.856 641.688V657.806C592.856 660.129 594.704 661.978 597.026 661.978C599.349 661.978 601.197 660.129 601.197 657.806V641.688C601.197 639.412 599.301 637.516 597.026 637.516C594.751 637.516 592.856 639.412 592.856 641.688Z" fill="#867EA8"/>
<path d="M612.288 638.085C613.283 636.33 614.705 635.24 616.601 634.766C618.449 634.245 620.345 634.482 622.004 635.382C623.663 636.283 624.895 637.753 625.416 639.602C625.985 641.451 625.796 643.299 624.895 645.053C623.568 647.566 622.336 649.889 621.198 652.117C619.208 655.91 617.027 660.082 616.127 661.788H624.232C625.037 661.788 625.748 662.405 625.748 663.305C625.748 664.206 625.037 664.822 624.232 664.822H613.615C612.999 664.822 612.572 664.585 612.335 664.111C612.003 663.59 612.003 663.068 612.288 662.594L622.241 643.631C622.762 642.636 622.857 641.593 622.525 640.502C622.193 639.412 621.53 638.559 620.535 638.037C619.539 637.516 618.497 637.373 617.407 637.658C616.316 637.99 615.463 638.653 614.942 639.602C614.515 640.313 613.568 640.597 612.857 640.17C612.146 639.744 611.861 638.796 612.288 638.085Z" fill="#867EA8"/>
<path d="M634.375 638.085C635.37 636.33 636.792 635.24 638.688 634.766C640.536 634.245 642.432 634.482 644.091 635.382C645.75 636.283 646.982 637.753 647.503 639.602C648.072 641.451 647.883 643.299 646.982 645.053C645.655 647.566 644.423 649.889 643.285 652.117C641.294 655.91 639.114 660.082 638.214 661.788H646.318C647.124 661.788 647.835 662.405 647.835 663.305C647.835 664.206 647.124 664.822 646.318 664.822H635.702C635.086 664.822 634.659 664.585 634.422 664.111C634.09 663.59 634.09 663.068 634.375 662.594L644.328 643.631C644.849 642.636 644.944 641.593 644.612 640.502C644.28 639.412 643.617 638.559 642.622 638.037C641.626 637.516 640.584 637.373 639.493 637.658C638.403 637.99 637.55 638.653 637.029 639.602C636.602 640.313 635.654 640.597 634.943 640.17C634.233 639.744 633.948 638.796 634.375 638.085Z" fill="#867EA8"/>
<path d="M525.98 706.257C526.122 704.977 525.649 703.744 524.748 702.843L517.165 695.068C515.695 693.599 514.984 691.56 515.174 689.522C515.316 687.436 516.359 685.587 518.018 684.307C519.677 683.027 521.762 682.553 523.8 682.98C525.838 683.406 527.497 684.591 528.587 686.44C529.014 687.151 528.777 688.1 528.018 688.526C527.307 688.953 526.359 688.668 525.98 687.957C525.364 686.867 524.416 686.203 523.184 685.966C521.952 685.729 520.814 685.966 519.819 686.725C518.824 687.436 518.302 688.431 518.207 689.711C518.113 690.944 518.492 692.034 519.345 692.935L526.928 700.757C528.397 702.274 529.156 704.36 529.014 706.494C528.824 708.627 527.781 710.571 526.075 711.851C524.369 713.131 522.189 713.652 520.103 713.225C518.018 712.799 516.217 711.519 515.127 709.67C514.747 708.911 514.984 708.011 515.695 707.584C516.406 707.157 517.354 707.394 517.781 708.153C518.397 709.243 519.44 710.002 520.719 710.239C521.999 710.476 523.184 710.239 524.227 709.433C525.317 708.627 525.886 707.584 525.98 706.257Z" fill="#867EA8"/>
<path d="M536.075 707.11V697.628C536.075 694.215 538.824 691.465 542.237 691.465C545.649 691.465 548.398 694.215 548.398 697.628V707.11C548.398 710.523 545.602 713.273 542.237 713.273C538.872 713.273 536.075 710.523 536.075 707.11ZM538.919 697.628V707.11C538.919 708.959 540.388 710.428 542.237 710.428C544.085 710.428 545.554 708.959 545.554 707.11V697.628C545.554 695.779 544.085 694.31 542.237 694.31C540.388 694.31 538.919 695.779 538.919 697.628Z" fill="#867EA8"/>
<path d="M556.361 685.776C556.361 684.686 557.167 683.88 558.257 683.88C559.347 683.88 560.153 684.686 560.153 685.776C560.153 686.867 559.347 687.673 558.257 687.673C557.167 687.673 556.361 686.867 556.361 685.776ZM558.257 713.273C557.499 713.273 556.835 712.656 556.835 711.85V692.888C556.835 692.082 557.499 691.465 558.257 691.465C559.063 691.465 559.679 692.082 559.679 692.888V711.85C559.679 712.656 559.063 713.273 558.257 713.273Z" fill="#867EA8"/>
<path d="M566.599 693.077C566.599 692.271 567.215 691.655 568.021 691.655H570.39V683.406C570.39 682.6 571.006 681.984 571.812 681.984C572.618 681.984 573.234 682.6 573.234 683.406V691.655H576.552C577.357 691.655 577.974 692.271 577.974 693.077C577.974 693.883 577.357 694.499 576.552 694.499H573.234V707.11C573.234 708.959 574.703 710.428 576.552 710.428C577.357 710.428 577.974 711.045 577.974 711.851C577.974 712.656 577.357 713.273 576.552 713.273C573.139 713.273 570.39 710.523 570.39 707.11V694.499H568.021C567.215 694.499 566.599 693.883 566.599 693.077Z" fill="#867EA8"/>
<path d="M596.174 706.92V692.888C596.174 692.082 596.79 691.465 597.596 691.465C598.401 691.465 599.018 692.082 599.018 692.888V706.92C599.018 708.769 600.487 710.239 602.335 710.239H605.653V692.888C605.653 692.082 606.269 691.465 607.075 691.465C607.881 691.465 608.497 692.082 608.497 692.888V711.661C608.497 712.467 607.881 713.083 607.075 713.083H602.335C598.923 713.083 596.174 710.333 596.174 706.92Z" fill="#867EA8"/>
<path d="M617.502 711.851V693.077C617.502 692.271 618.118 691.655 618.924 691.655H623.663C627.029 691.655 629.825 694.405 629.825 697.818V711.851C629.825 712.657 629.161 713.273 628.403 713.273C627.597 713.273 626.981 712.657 626.981 711.851V697.818C626.981 695.969 625.512 694.499 623.663 694.499H620.346V711.851C620.346 712.657 619.682 713.273 618.924 713.273C618.118 713.273 617.502 712.657 617.502 711.851Z" fill="#867EA8"/>
<path d="M637.882 707.11V697.628C637.882 694.215 640.631 691.465 644.043 691.465C647.456 691.465 650.205 694.215 650.205 697.628V702.369C650.205 703.175 649.589 703.791 648.783 703.791H640.726V707.11C640.726 708.437 641.484 709.67 642.764 710.191C644.043 710.713 645.418 710.428 646.366 709.48C646.65 709.196 646.982 709.053 647.361 709.053C647.788 709.053 648.119 709.196 648.404 709.48C648.688 709.717 648.83 710.049 648.83 710.476C648.83 710.855 648.688 711.187 648.404 711.471C646.65 713.225 643.996 713.747 641.674 712.799C639.351 711.851 637.882 709.622 637.882 707.11ZM640.726 697.628V700.947H647.361V697.628C647.361 695.779 645.892 694.31 644.043 694.31C642.195 694.31 640.726 695.779 640.726 697.628Z" fill="#867EA8"/>
<path d="M669.731 711.661V683.406C669.731 682.6 670.348 681.984 671.153 681.984C671.912 681.984 672.575 682.6 672.575 683.406V691.655H675.893C679.258 691.655 682.054 694.405 682.054 697.818V706.92C682.054 710.334 679.258 713.083 675.893 713.083H671.153C670.348 713.083 669.731 712.467 669.731 711.661ZM672.575 710.239H675.893C677.741 710.239 679.211 708.769 679.211 706.92V697.818C679.211 695.969 677.741 694.499 675.893 694.499H672.575V710.239Z" fill="#867EA8"/>
<path d="M698.075 697.534C698.075 696.206 697.269 695.068 696.084 694.547C694.805 694.025 693.477 694.31 692.577 695.258C692.293 695.542 691.961 695.685 691.534 695.685C691.155 695.685 690.823 695.542 690.539 695.258C690.255 694.974 690.112 694.642 690.112 694.262C690.112 693.836 690.255 693.504 690.539 693.267C692.293 691.513 694.899 690.991 697.174 691.939C699.449 692.888 700.919 695.068 700.919 697.534V711.661C700.919 712.467 700.255 713.083 699.497 713.083H694.757C691.345 713.083 688.596 710.334 688.596 706.92C688.596 703.507 691.345 700.757 694.757 700.757H698.075V697.534ZM694.757 710.239H698.075V703.602H694.757C692.909 703.602 691.439 705.071 691.439 706.92C691.439 708.769 692.909 710.239 694.757 710.239Z" fill="#867EA8"/>
<path d="M709.07 685.776C709.07 684.686 709.876 683.88 710.966 683.88C712.056 683.88 712.862 684.686 712.862 685.776C712.862 686.867 712.056 687.673 710.966 687.673C709.876 687.673 709.07 686.867 709.07 685.776ZM710.966 713.273C710.208 713.273 709.544 712.656 709.544 711.85V692.888C709.544 692.082 710.208 691.465 710.966 691.465C711.772 691.465 712.388 692.082 712.388 692.888V711.85C712.388 712.656 711.772 713.273 710.966 713.273Z" fill="#867EA8"/>
<path d="M728.598 707.205C728.55 706.256 728.124 705.498 727.318 704.929L722.91 701.8C721.441 700.805 720.635 699.24 720.493 697.533C720.351 695.779 721.062 694.12 722.342 692.982C723.621 691.797 725.327 691.276 727.034 691.513C728.74 691.845 730.209 692.793 731.11 694.31C731.489 695.021 731.299 695.874 730.588 696.253C729.877 696.633 729.024 696.443 728.645 695.732C728.219 694.973 727.508 694.499 726.607 694.357C725.707 694.215 724.901 694.452 724.237 695.068C723.574 695.685 723.289 696.443 723.337 697.344C723.384 698.245 723.811 698.956 724.569 699.477L728.977 702.559C730.446 703.649 731.299 705.166 731.442 707.015C731.584 708.864 730.873 710.523 729.546 711.708C728.219 712.988 726.465 713.462 724.711 713.225C722.863 712.893 721.394 711.898 720.493 710.333C720.114 709.622 720.304 708.769 721.014 708.39C721.725 708.01 722.579 708.2 722.958 708.911C723.479 709.717 724.19 710.239 725.138 710.381C726.038 710.523 726.892 710.286 727.65 709.622C728.361 708.959 728.693 708.153 728.598 707.205Z" fill="#867EA8"/>
<path d="M746.561 707.205C746.513 706.256 746.087 705.498 745.281 704.929L740.873 701.8C739.404 700.805 738.598 699.24 738.456 697.533C738.314 695.779 739.025 694.12 740.304 692.982C741.584 691.797 743.29 691.276 744.997 691.513C746.703 691.845 748.172 692.793 749.073 694.31C749.452 695.021 749.262 695.874 748.551 696.253C747.84 696.633 746.987 696.443 746.608 695.732C746.182 694.973 745.471 694.499 744.57 694.357C743.67 694.215 742.864 694.452 742.2 695.068C741.537 695.685 741.252 696.443 741.3 697.344C741.347 698.245 741.774 698.956 742.532 699.477L746.94 702.559C748.409 703.649 749.262 705.166 749.404 707.015C749.547 708.864 748.836 710.523 747.509 711.708C746.182 712.988 744.428 713.462 742.674 713.225C740.826 712.893 739.357 711.898 738.456 710.333C738.077 709.622 738.266 708.769 738.977 708.39C739.688 708.01 740.541 708.2 740.921 708.911C741.442 709.717 742.153 710.239 743.101 710.381C744.001 710.523 744.854 710.286 745.613 709.622C746.324 708.959 746.655 708.153 746.561 707.205Z" fill="#867EA8"/>
<path d="M756.751 707.11V697.628C756.751 694.215 759.5 691.465 762.912 691.465C766.325 691.465 769.074 694.215 769.074 697.628V702.369C769.074 703.175 768.458 703.791 767.652 703.791H759.595V707.11C759.595 708.437 760.353 709.67 761.633 710.191C762.912 710.713 764.287 710.428 765.235 709.48C765.519 709.196 765.851 709.053 766.23 709.053C766.657 709.053 766.988 709.196 767.273 709.48C767.557 709.717 767.699 710.049 767.699 710.476C767.699 710.855 767.557 711.187 767.273 711.471C765.519 713.225 762.865 713.747 760.543 712.799C758.22 711.851 756.751 709.622 756.751 707.11ZM759.595 697.628V700.947H766.23V697.628C766.23 695.779 764.761 694.31 762.912 694.31C761.064 694.31 759.595 695.779 759.595 697.628Z" fill="#867EA8"/>
<path d="M515.601 763.809V754.707C515.601 751.293 518.35 748.544 521.762 748.544H525.08V740.295C525.08 739.489 525.696 738.873 526.502 738.873C527.26 738.873 527.924 739.489 527.924 740.295V768.55C527.924 769.356 527.26 769.972 526.502 769.972H521.762C518.35 769.972 515.601 767.222 515.601 763.809ZM518.444 754.707V763.809C518.444 765.658 519.914 767.128 521.762 767.128H525.08V751.388H521.762C519.914 751.388 518.444 752.858 518.444 754.707Z" fill="#867EA8"/>
<path d="M536.36 763.999V754.517C536.36 751.104 539.109 748.354 542.522 748.354C545.934 748.354 548.683 751.104 548.683 754.517V759.258C548.683 760.064 548.067 760.68 547.261 760.68H539.204V763.999C539.204 765.326 539.962 766.559 541.242 767.08C542.522 767.602 543.896 767.317 544.844 766.369C545.129 766.085 545.46 765.942 545.84 765.942C546.266 765.942 546.598 766.085 546.882 766.369C547.167 766.606 547.309 766.938 547.309 767.365C547.309 767.744 547.167 768.076 546.882 768.36C545.129 770.114 542.474 770.636 540.152 769.688C537.83 768.739 536.36 766.511 536.36 763.999ZM539.204 754.517V757.836H545.84V754.517C545.84 752.668 544.37 751.199 542.522 751.199C540.673 751.199 539.204 752.668 539.204 754.517Z" fill="#867EA8"/>
<path d="M567.262 742.95C568.352 741.101 569.916 739.868 572.049 739.252C574.087 738.683 576.172 738.968 578.021 739.963C579.917 740.959 581.196 742.523 581.812 744.657C582.381 746.695 582.192 748.781 581.244 750.63C580.154 752.763 579.064 754.802 578.021 756.745C576.267 760.111 574.134 763.999 572.997 766.274H579.869C581.149 766.274 582.144 767.27 582.144 768.55C582.144 769.83 581.149 770.825 579.869 770.825H569.253C568.447 770.825 567.783 770.446 567.309 769.735C566.883 769.024 566.883 768.313 567.215 767.507L577.215 748.544C577.642 747.691 577.689 746.837 577.452 745.937C577.168 745.036 576.646 744.372 575.841 743.945C575.035 743.519 574.134 743.424 573.234 743.661C572.381 743.898 571.717 744.419 571.196 745.225C570.58 746.316 569.205 746.695 568.115 746.079C567.025 745.368 566.646 744.04 567.262 742.95Z" fill="#867EA8"/>
<path d="M588.732 745.225V741.433C588.732 740.153 589.728 739.157 591.007 739.157H602.382C603.093 739.157 603.709 739.442 604.183 740.011C604.61 740.579 604.752 741.243 604.61 741.954L597.975 769.261C597.643 770.541 596.505 771.299 595.226 770.968C594.136 770.636 593.472 769.83 593.472 768.739C593.472 768.55 593.519 768.408 593.567 768.218C594.467 764.473 595.32 760.965 596.126 757.694C597.406 752.099 598.875 745.984 599.491 743.708H593.282V745.225C593.282 746.505 592.287 747.501 591.007 747.501C589.728 747.501 588.732 746.505 588.732 745.225Z" fill="#867EA8"/>
<path d="M612.241 770.067V769.877C611.341 769.545 610.725 768.739 610.725 767.791C610.725 766.606 611.672 765.658 612.857 765.658H614.374C615.559 765.658 616.554 766.606 616.554 767.791V770.067C616.554 771.963 615.417 773.622 613.71 774.333C612.573 774.855 611.388 774.286 610.867 773.196C610.345 772.058 610.914 770.873 612.052 770.351C612.194 770.304 612.241 770.209 612.241 770.067Z" fill="#867EA8"/>
<path d="M622.289 745.225V741.433C622.289 740.153 623.284 739.157 624.564 739.157H635.939C636.65 739.157 637.266 739.442 637.74 740.011C638.167 740.579 638.309 741.243 638.167 741.954L631.531 769.261C631.199 770.541 630.062 771.299 628.782 770.968C627.692 770.636 627.029 769.83 627.029 768.739C627.029 768.55 627.076 768.408 627.123 768.218C628.024 764.473 628.877 760.965 629.683 757.694C630.963 752.099 632.432 745.984 633.048 743.708H626.839V745.225C626.839 746.505 625.844 747.501 624.564 747.501C623.284 747.501 622.289 746.505 622.289 745.225Z" fill="#867EA8"/>
<path d="M645.228 754.991V741.433C645.228 740.153 646.224 739.157 647.504 739.157H657.362C658.641 739.157 659.637 740.153 659.637 741.433C659.637 742.713 658.641 743.708 657.362 743.708H649.778V750.345C651.343 749.824 652.907 749.729 654.518 750.156C657.978 751.056 660.395 754.233 660.395 757.836V763.051C660.395 766.701 657.978 769.83 654.518 770.731C650.963 771.679 647.409 770.209 645.56 767.033C644.849 765.942 645.276 764.615 646.366 763.904C647.456 763.288 648.783 763.667 649.494 764.757C650.252 766.085 651.816 766.748 653.333 766.369C654.802 765.942 655.845 764.615 655.845 763.051V757.836C655.845 756.319 654.802 754.944 653.333 754.565C651.816 754.138 650.252 754.802 649.494 756.129C648.973 757.03 647.93 757.504 646.935 757.172C645.939 756.935 645.228 756.082 645.228 754.991Z" fill="#867EA8"/>
<path d="M672.149 751.815C668.642 751.815 665.846 749.018 665.846 745.51C665.846 742.002 668.642 739.205 672.149 739.205C675.657 739.205 678.453 742.049 678.453 745.51C678.453 748.971 675.609 751.815 672.149 751.815ZM687.458 742.239L674.187 769.735C673.666 770.873 672.292 771.347 671.154 770.778C670.017 770.257 669.543 768.882 670.111 767.744L683.382 740.248C683.904 739.11 685.278 738.636 686.416 739.205C687.553 739.726 688.027 741.101 687.458 742.239ZM672.149 747.738C673.429 747.738 674.377 746.79 674.377 745.51C674.377 744.23 673.429 743.282 672.149 743.282C670.87 743.282 669.922 744.23 669.922 745.51C669.922 746.79 670.87 747.738 672.149 747.738ZM691.724 764.473C691.724 767.981 688.88 770.778 685.42 770.778C681.96 770.778 679.117 767.981 679.117 764.473C679.117 760.965 681.913 758.168 685.42 758.168C688.927 758.168 691.724 761.012 691.724 764.473ZM687.648 764.473C687.648 763.193 686.7 762.245 685.42 762.245C684.141 762.245 683.193 763.193 683.193 764.473C683.193 765.753 684.141 766.701 685.42 766.701C686.7 766.701 687.648 765.753 687.648 764.473Z" fill="#867EA8"/>
</g>
<defs>
<clipPath id="clip0_232_2544">
<rect width="1820" height="1024" fill="white"/>
</clipPath>
</defs>
</svg>
