<svg width="1818" height="1023" viewBox="0 0 1818 1023" fill="none" xmlns="http://www.w3.org/2000/svg">
<path d="M1817.6 0.653076H0.0977783V1023H1817.6V0.653076Z" fill="#EA5959"/>
<path d="M144.93 255.767C144.93 251.845 141.752 248.667 137.831 248.667C133.91 248.667 130.731 251.845 130.731 255.767V327.709C130.731 331.63 133.91 334.809 137.831 334.809C141.752 334.809 144.93 331.63 144.93 327.709V255.767Z" fill="#F97D7D"/>
<path d="M213.087 138.386C213.087 134.465 209.908 131.286 205.987 131.286C202.066 131.286 198.887 134.465 198.887 138.386V283.218C198.887 287.139 202.066 290.318 205.987 290.318C209.908 290.318 213.087 287.139 213.087 283.218V138.386Z" fill="#F97D7D"/>
<path d="M305.855 660.919C305.855 656.998 302.677 653.819 298.756 653.819C294.835 653.819 291.656 656.998 291.656 660.919V805.751C291.656 809.672 294.835 812.851 298.756 812.851C302.677 812.851 305.855 809.672 305.855 805.751V660.919Z" fill="#F97D7D"/>
<path d="M406.197 453.61C406.197 449.689 403.018 446.51 399.097 446.51C395.176 446.51 391.998 449.689 391.998 453.61V555.844C391.998 559.765 395.176 562.944 399.097 562.944C403.018 562.944 406.197 559.765 406.197 555.844V453.61Z" fill="#F97D7D"/>
<path d="M1314 165.838C1314 161.917 1310.82 158.738 1306.9 158.738C1302.98 158.738 1299.8 161.917 1299.8 165.838V233.048C1299.8 236.969 1302.98 240.147 1306.9 240.147C1310.82 240.147 1314 236.969 1314 233.048V165.838Z" fill="#F97D7D"/>
<path d="M1402.04 116.614C1402.04 112.693 1398.86 109.514 1394.94 109.514C1391.02 109.514 1387.84 112.693 1387.84 116.614V139.333C1387.84 143.254 1391.02 146.432 1394.94 146.432C1398.86 146.432 1402.04 143.254 1402.04 139.333V116.614Z" fill="#F97D7D"/>
<path d="M1744.71 517.98C1744.71 514.058 1741.54 510.88 1737.61 510.88C1733.69 510.88 1730.51 514.058 1730.51 517.98V710.143C1730.51 714.064 1733.69 717.242 1737.61 717.242C1741.54 717.242 1744.71 714.064 1744.71 710.143V517.98Z" fill="#F97D7D"/>
<path d="M1647.21 540.698C1647.21 536.777 1644.03 533.599 1640.11 533.599C1636.19 533.599 1633.01 536.777 1633.01 540.698V579.51C1633.01 583.431 1636.19 586.609 1640.11 586.609C1644.03 586.609 1647.21 583.431 1647.21 579.51V540.698Z" fill="#F97D7D"/>
<path d="M71.0942 832.256C71.0942 828.335 67.9155 825.157 63.9945 825.157C60.0735 825.157 56.8949 828.335 56.8949 832.256V954.37C56.8949 958.291 60.0735 961.47 63.9945 961.47C67.9155 961.47 71.0942 958.291 71.0942 954.37V832.256Z" fill="#F97D7D"/>
<path d="M1575.27 903.253C1575.27 899.332 1572.09 896.153 1568.17 896.153C1564.25 896.153 1561.07 899.332 1561.07 903.253V942.064C1561.07 945.985 1564.25 949.164 1568.17 949.164C1572.09 949.164 1575.27 945.985 1575.27 942.064V903.253Z" fill="#F97D7D"/>
<path d="M1402.04 684.584C1402.04 680.663 1398.86 677.485 1394.94 677.485C1391.02 677.485 1387.84 680.663 1387.84 684.584V815.217C1387.84 819.138 1391.02 822.317 1394.94 822.317C1398.86 822.317 1402.04 819.138 1402.04 815.217V684.584Z" fill="#F97D7D"/>
<path d="M1438.01 628.734C1438.01 624.813 1434.83 621.634 1430.91 621.634C1426.99 621.634 1423.81 624.813 1423.81 628.734V694.05C1423.81 697.971 1426.99 701.15 1430.91 701.15C1434.83 701.15 1438.01 697.971 1438.01 694.05V628.734Z" fill="#F97D7D"/>
<path d="M1633.01 199.916C1633.01 195.995 1629.83 192.816 1625.91 192.816C1621.99 192.816 1618.81 195.995 1618.81 199.916V265.233C1618.81 269.154 1621.99 272.332 1625.91 272.332C1629.83 272.332 1633.01 269.154 1633.01 265.233V199.916Z" fill="#F97D7D"/>
<path d="M382.531 578.563C382.531 574.642 379.353 571.464 375.432 571.464C371.511 571.464 368.332 574.642 368.332 578.563V614.535C368.332 618.456 371.511 621.634 375.432 621.634C379.353 621.634 382.531 618.456 382.531 614.535V578.563Z" fill="#F97D7D"/>
<path d="M897.955 492.516C893.714 498.555 892.701 506.469 895.873 513.133C898.618 518.907 906.02 522.306 912.647 517.686C937.363 500.477 965.847 463.379 979.071 446.567C983.321 441.171 986.322 432.831 981.854 427.606C977.376 422.362 971.971 419.635 957.185 430.55C924.754 454.49 910.725 474.369 897.955 492.525V492.516Z" fill="#8E6857"/>
<path d="M897.046 515.925C897.046 515.925 891.243 509.697 894.112 496.539C896.516 485.52 911.236 474.255 921.374 458.844C922.037 457.841 923.817 457.708 924.214 458.844C925.994 463.89 945.115 492.563 937.107 515.073C936.87 515.745 936.009 515.963 935.498 515.452C932.942 512.925 925.88 507.832 917.692 517.885C912.788 523.905 902.565 521.738 897.217 516.105L897.046 515.916V515.925Z" fill="#F4F77C"/>
<path d="M997.767 618.813C1001.68 620.461 1043.36 664.185 1053.75 681.347C1064.38 698.916 1039.98 715.823 1019.03 701.576C1010.03 695.461 976.212 656.015 967.475 645.934C965.894 644.116 963.215 639.819 963.594 637.244C964.985 627.929 969.359 606.858 997.757 618.804L997.767 618.813Z" fill="#8E6857"/>
<path d="M1020.54 708.288C1020.54 708.288 1005.21 690.785 992.371 677.39C990.534 675.468 990.506 672.468 992.314 670.518C998.647 663.692 1012.96 648.859 1022.02 643.937C1024.1 642.81 1026.7 643.416 1028.08 645.347L1043.48 666.759C1045.76 669.931 1048.69 672.591 1052.07 674.56L1064.57 681.82C1066.92 683.183 1067.3 686.421 1065.33 688.295L1038.63 713.683C1034.83 717.309 1028.8 717.129 1025.21 713.286L1020.53 708.288H1020.54Z" fill="#56423C"/>
<path d="M1042.66 709.869L1064.02 689.819C1064.02 689.819 1070.31 685.209 1064.58 681.82L1050.24 673.376C1050.24 673.376 1031.49 668.454 1032.99 691.57C1033.74 702.977 1042.66 709.869 1042.66 709.869Z" fill="#513E3A"/>
<path d="M891.509 693.672C890.808 697.77 904.421 751.112 913.196 769.145C922.17 787.595 949.139 777.258 948.372 752.296C948.041 741.58 933.501 691.939 929.752 679.217C929.07 676.917 924.972 672.231 922.633 671.104C914.152 667.024 896.601 663.957 891.518 693.672H891.509Z" fill="#8E6857"/>
<path d="M911.122 769.288C911.122 769.288 903.729 747.231 897.065 729.927C896.109 727.438 897.245 724.655 899.668 723.547C908.14 719.694 927.016 711.563 937.277 710.503C939.653 710.257 941.831 711.809 942.37 714.138L948.315 739.829C949.195 743.644 950.871 747.222 953.237 750.336L961.965 761.866C963.603 764.034 962.704 767.158 960.167 768.133L925.918 781.187C920.91 783.099 915.306 780.552 913.442 775.535L911.122 769.297V769.288Z" fill="#56423C"/>
<path d="M930.916 779.274L958.368 769.023C958.368 769.023 965.941 767.196 961.965 761.857L951.997 748.528C951.997 748.528 936.596 736.743 929.061 758.657C925.341 769.458 930.916 779.265 930.916 779.265V779.274Z" fill="#513E3A"/>
<path d="M924.072 585.218C926.382 581.659 977.036 603.743 993.914 614.601C1011.19 625.714 996.687 651.623 971.602 648.026C959.059 646.227 901.136 621.341 901.136 621.341C901.136 621.341 911.047 605.277 924.072 585.218Z" fill="#8E6857"/>
<path d="M928.285 580.816L988.234 608.931C989.086 609.328 989.285 610.445 988.613 611.098C984.305 615.301 971.375 629.103 966.878 647.543C966.679 648.367 965.79 648.821 965.013 648.48L900.861 621.151L928.285 580.816Z" fill="#7D93C9"/>
<path d="M874.895 628.052C871.043 629.624 886.453 682.53 894.973 700.686C903.691 719.259 930.793 709.291 930.376 684.319C930.168 671.833 913.016 611.505 913.016 611.505C913.016 611.505 899.299 618.103 874.895 628.052Z" fill="#8E6857"/>
<path d="M871.459 630.731L889.899 694.325C890.164 695.224 891.234 695.593 891.982 695.035C896.8 691.428 912.457 680.807 931.37 679.236C932.222 679.17 932.809 678.365 932.582 677.541L913.006 605.172L871.459 630.731Z" fill="#7D93C9"/>
<path d="M924.224 552.56C940.354 586.032 955.121 577.228 963.982 592.318C964.852 594.154 965.969 595.11 963.982 596.104C921.384 591.371 890.865 640.462 859.854 661.421C857.307 662.689 856.417 662.131 856.067 659.527C852.508 627.342 853.227 589.478 836.188 541.2L924.224 552.56Z" fill="#F4F77C"/>
<path d="M854.978 501.367C854.978 501.367 803.369 519.561 862.031 577.806C894.812 610.36 931.304 587.206 923.277 545.933C916.651 511.855 914.748 477.739 889.028 487.906C866.335 496.88 854.988 501.367 854.988 501.367H854.978Z" fill="#F4F77C"/>
<path d="M857.023 483.703C857.023 483.703 863.139 495.971 859.523 499.398L885.053 489.307C885.053 489.307 878.332 485.34 877.357 478.061L857.023 483.712V483.703Z" fill="#7C5B4E"/>
<path d="M859.522 499.397C865.59 494.096 874.896 491.257 884.996 489.165C884.996 489.165 885.564 500.297 875.672 504.206C866.982 507.643 859.522 499.397 859.522 499.397Z" fill="#7C5B4E"/>
<path d="M848.03 510.87C855.017 513.256 860.479 519.078 861.832 526.329C863.006 532.614 859.011 539.714 850.937 539.875C820.834 540.481 764.965 527.058 744.385 521.226C737.778 519.352 729.287 516.73 727.678 510.047C726.106 503.477 723.938 496.349 734.616 494.731C772.651 488.985 827.025 503.686 848.03 510.87Z" fill="#8E6857"/>
<path d="M862.533 529.273C862.533 529.273 863.564 520.819 853.511 511.864C845.096 504.367 827.886 505.106 810.63 498.602C809.494 498.176 807.449 498.385 807.79 499.549C809.285 504.585 813.138 532.188 811.775 546.965C811.709 547.722 812.494 548.252 813.176 547.902C818.07 545.346 833.367 538.389 846.98 542.999C854.335 545.488 861.482 537.224 862.504 529.528L862.533 529.273Z" fill="#F4F77C"/>
<path d="M907.8 406.648C907.8 406.648 915.979 411.608 916.774 420.923C917.569 430.238 913.839 434.488 913.839 434.488L906.058 414.798L907.809 406.639L907.8 406.648Z" fill="#7C5B4E"/>
<path d="M793.562 453.591C793.562 453.591 774.904 452.01 779.58 470.573C784.948 491.862 805.045 482.633 805.045 482.633C805.045 482.633 882.686 517.857 912.93 446.34C914.757 442.014 914.776 436.911 913.214 432.216C911.094 425.845 908.33 415.972 907.8 406.657C907.298 397.74 904.922 388.842 899.933 381.373C896.223 375.817 878.209 359.838 871.8 358.475C855.982 355.095 833.396 340.423 793.676 373.318C756.587 404.035 793.562 453.61 793.562 453.61V453.591Z" fill="#8E6857"/>
<path d="M800.813 469.087C801.135 468.841 801.182 468.349 800.917 467.998C799.157 465.689 792.918 458.21 789.662 463.417L785.847 469.522C785.847 469.522 787.248 471.567 788.431 470.8C789.444 470.138 790.05 466.626 792.369 466.824C794.897 467.042 796.099 468.33 796.667 469.56C797.15 470.601 798.314 471.037 799.138 470.393L800.804 469.087H800.813Z" fill="#7C5B4E"/>
<path d="M810.251 437.328C810.251 437.328 803.757 450.098 805.215 461.107C805.215 461.107 787.315 457.898 786.832 442.96C786.832 442.96 799.214 431.487 810.251 437.328Z" fill="#56423C"/>
<path d="M819.424 434.687C819.424 434.687 890.307 425.599 907.933 405.086C907.933 405.086 910.006 396.51 903.54 387.479L825.369 424.179L819.424 434.687Z" fill="#56423C"/>
<path d="M855.13 290.848C862.372 299.907 869.604 301.413 873.172 305.483C874.375 306.856 874.28 308.957 872.917 310.178C831.909 346.756 749.62 349.993 731.199 350.258C729.183 350.286 727.602 348.545 727.857 346.538C728.567 340.896 734.361 332.111 735.212 324.557C735.212 324.557 818.988 324.368 855.13 290.848Z" fill="#F4F77C"/>
<path d="M735.212 324.567C735.212 324.567 724.099 287.497 730.971 269.341C733.016 263.926 760.222 239.447 821.771 240.838C826.968 240.952 831.834 243.451 835.005 247.569C841.101 255.483 850.671 270.439 855.13 290.858C855.13 290.858 829.325 325.968 735.212 324.567Z" fill="#F4F77C"/>
<path d="M730.971 269.332C730.971 269.332 790.211 271.641 830.357 243.385C830.357 243.385 819.66 235.206 776.428 245.108C733.196 255 730.971 269.332 730.971 269.332Z" fill="#F4DF62"/>
<path d="M735.213 324.567C734.228 321.566 733.121 318.688 732.789 315.176C732.789 315.176 820.976 312.194 852.29 280.123C853.956 284.307 854.96 288.065 855.13 290.858C855.13 290.858 823.39 322.702 735.213 324.567Z" fill="#F4DF62"/>
<path d="M786.832 442.96C786.832 442.96 757.326 397.4 791.688 372.702C821.98 350.93 831.446 350.93 857.004 352.823C879.808 354.508 894.216 368.177 903.54 387.479L819.424 434.687L810.251 437.328L786.832 442.96Z" fill="#56423C"/>
<path d="M777.214 420.573C777.214 420.573 779.391 444.655 769.925 444.655C769.925 444.655 780.091 450.751 786.841 442.97C786.841 442.97 782.619 422.059 777.214 420.573Z" fill="#56423C"/>
<path d="M827.404 354.016C827.404 354.016 803.539 357.907 802.867 348.469C802.867 348.469 797.509 359.043 805.754 365.224C805.754 365.224 826.315 359.516 827.404 354.026V354.016Z" fill="#56423C"/>
<path d="M893.998 372.702C893.998 372.702 911.719 389.145 917.512 381.657C917.512 381.657 916.121 393.424 905.84 394.011C905.84 394.011 891.878 377.88 894.008 372.702H893.998Z" fill="#56423C"/>
<path d="M903.388 385.841C903.388 385.841 909.201 399.056 915.287 396.765C915.287 396.765 905.282 402.994 900.549 395.421C895.815 387.848 903.379 385.832 903.379 385.832L903.388 385.841Z" fill="#56423C"/>
<path d="M851.893 438.625C848.437 438.284 844.708 438.587 841.735 440.556C839.056 442.335 837.305 445.166 837.343 448.432C837.381 451.754 838.981 454.992 840.988 457.576C843.08 460.274 846.043 461.911 849.517 461.675C855.48 461.268 863.536 455.9 861.255 448.962C859.2 442.714 850.141 440.329 846.298 446.254C844.424 449.132 845.266 452.928 848.021 454.906C849.356 455.863 851.154 456.251 852.716 455.654C854.401 455.011 855.565 453.43 855.111 451.603C854.666 449.833 851.931 450.58 852.375 452.36C852.536 453.013 851.145 453.146 850.766 453.079C849.82 452.909 849.034 452.199 848.57 451.385C847.595 449.672 848.333 447.703 849.829 446.567C853.407 443.859 859.342 447.457 858.727 451.858C858.102 456.336 852.129 459.318 847.993 458.825C845.645 458.551 843.932 456.951 842.654 455.067C841.376 453.184 840.221 450.836 840.192 448.451C840.164 446.065 841.518 444.011 843.562 442.78C846.061 441.275 849.072 441.199 851.902 441.474C853.72 441.654 853.71 438.814 851.902 438.634L851.893 438.625Z" fill="#56423C"/>
<path d="M880.471 433.399C883.311 429.935 888.603 426.016 893.004 429.433C894.727 430.777 895.702 432.916 896.27 434.971C896.904 437.252 897.293 439.903 896.071 442.061C895.04 443.869 893.175 445.118 891.272 445.866C889 446.756 886.245 447.248 883.955 446.141C881.74 445.071 880.821 442.771 881.162 440.395C881.456 438.341 882.734 436.324 884.797 435.709C886.861 435.094 889.275 435.889 889.862 438.132C890.098 439.022 890.013 440.073 889.464 440.84C889.237 441.152 888.177 442.013 887.836 441.427C886.918 439.846 884.466 441.275 885.384 442.856C887.003 445.639 890.837 444.285 892.115 441.938C893.478 439.439 892.815 436.012 890.619 434.204C888.167 432.178 884.4 432.188 881.844 434.033C879.335 435.842 878.038 439.041 878.294 442.099C878.597 445.62 880.888 448.375 884.314 449.283C887.665 450.173 891.471 449.198 894.415 447.485C897.359 445.772 899.261 443.272 899.631 439.997C900 436.722 899.015 433.011 897.34 430.219C895.437 427.038 892.133 425.041 888.356 425.4C884.267 425.788 880.992 428.316 878.464 431.402C877.319 432.803 879.316 434.829 880.471 433.409V433.399Z" fill="#56423C"/>
<path d="M285.787 89.6758C289.022 92.6802 291.565 96.378 293.182 100.538C295.031 104.698 295.956 109.32 295.956 113.942V220.252H295.724C295.493 223.718 294.569 226.954 293.182 230.189C291.565 234.349 289.022 238.047 285.787 241.051C283.707 243.362 281.627 244.749 280.934 245.211C277.467 247.754 271.458 252.376 260.596 260.927C260.134 261.389 259.441 261.851 258.978 263.007C258.978 263.007 258.516 263.931 258.516 265.087C258.516 265.087 258.285 267.629 258.285 386.649H264.294L264.063 266.473H295.724V415.769H226.854L226.623 269.709H226.854V265.087C226.854 260.233 227.779 255.842 229.628 251.451C230.321 249.602 231.245 247.754 232.401 246.136C232.401 246.136 234.25 243.362 237.023 240.589C240.259 237.123 249.965 229.034 263.138 219.096C263.369 218.865 263.601 218.634 263.832 218.172C264.063 217.71 264.294 217.016 264.294 216.785V113.942C264.294 112.324 263.138 110.938 261.521 110.938C259.903 110.938 258.516 112.324 258.516 113.942V212.163H226.854V113.942C226.854 109.32 227.779 104.698 229.628 100.538C231.477 96.378 233.788 92.6802 237.023 89.6758C240.259 86.4403 243.956 83.8981 248.116 82.2804C252.276 80.4315 256.898 79.5071 261.521 79.5071C266.143 79.5071 270.534 80.4315 274.925 82.2804C279.085 83.8981 282.782 86.4403 285.787 89.6758ZM366.443 229.496C363.208 233.656 359.048 235.274 356.506 235.967V236.891C359.51 237.585 364.364 239.434 367.599 244.518C370.603 248.909 370.603 253.531 370.603 255.38V384.338C370.603 388.96 369.679 393.583 367.83 397.742C366.906 400.054 365.75 402.365 364.364 404.445C363.208 406.062 361.821 407.449 360.435 408.836C357.199 412.071 353.501 414.613 349.573 416.231C346.799 417.387 344.719 417.849 343.564 418.311C342.639 418.542 340.097 419.004 336.399 419.004C334.088 419.004 331.315 418.773 328.311 418.08C325.769 417.387 323.689 416.693 322.764 416.231C318.604 414.382 314.906 412.071 311.671 408.836C308.435 405.6 306.124 401.902 304.275 397.742C302.427 393.583 301.502 388.96 301.502 384.338V255.38C301.502 253.531 301.502 248.909 304.507 244.518C307.973 239.203 313.289 237.354 316.293 236.891V236.198C313.52 235.505 309.129 233.887 305.662 229.496C301.733 224.643 301.502 219.558 301.502 217.71L301.964 114.173C301.964 109.551 302.889 104.929 304.507 100.769C306.355 96.6091 308.898 92.9113 311.902 89.6758C315.138 86.4403 318.835 84.1292 322.995 82.2804C324.151 81.8182 326.231 81.1248 328.542 80.4315C328.542 80.4315 332.008 79.5071 336.631 79.5071C338.942 79.5071 341.484 79.7382 344.026 80.4315C346.799 81.1248 349.573 82.2804 349.804 82.2804C350.266 82.5115 350.728 82.7426 351.421 82.9737C354.888 84.5915 358.124 86.9025 360.897 89.6758C363.901 92.9113 366.443 96.6091 368.292 100.769C369.91 104.929 370.835 109.551 370.835 114.173L370.603 217.71C370.603 219.558 370.372 224.643 366.443 229.496ZM338.942 384.569L339.173 253.762C338.942 252.145 338.248 250.527 336.862 249.834C336.862 249.834 336.399 249.834 336.168 249.602H335.937C335.475 249.834 335.244 249.834 335.013 249.834C333.857 250.527 332.933 252.145 332.933 253.762C332.933 254.918 332.933 255.842 333.164 384.338C333.164 385.956 334.551 387.343 336.168 387.343C337.093 387.343 338.017 386.88 338.479 386.187C338.711 385.725 338.942 385.032 338.942 384.569ZM338.942 217.71L339.173 113.942C339.173 112.787 338.479 111.862 337.555 111.4C337.093 111.169 336.862 111.169 336.399 111.169C334.782 111.169 333.395 112.555 333.395 114.173L333.164 217.71C333.164 219.096 333.857 220.021 334.782 220.483H337.324C337.786 220.252 338.248 219.79 338.479 219.327C338.942 218.634 338.942 218.172 338.942 217.71ZM376.381 415.769V378.792H408.043V415.769C404.345 425.707 400.879 435.413 397.181 445.351H376.381L387.243 415.769H376.381ZM412.434 115.56V83.8981H481.535V115.56L444.096 416H412.434L450.104 115.56H412.434ZM590.849 416H559.187V131.737H558.263L549.25 416H528.912L519.899 131.737H518.975V416H487.313V83.8981H529.374L537.925 351.521H540.468L548.788 83.8981H590.849V416Z" fill="#B23030"/>
<path d="M1274.15 818.079C1276.58 819.05 1278.17 822.378 1278.17 826.468V867.513C1278.17 867.86 1278.17 868.761 1277.96 869.801C1277.83 870.425 1277.62 870.98 1277.34 871.534C1276.85 872.782 1276.09 873.892 1275.12 874.862C1274.22 875.833 1273.11 876.526 1271.86 877.081C1270.55 877.636 1269.23 877.913 1267.84 877.913C1266.45 877.913 1265.07 877.636 1263.82 877.081C1262.57 876.526 1261.46 875.833 1260.49 874.862C1259.52 873.892 1258.83 872.782 1258.27 871.534C1257.72 870.286 1257.44 868.9 1257.44 867.513V786.464C1257.44 786.186 1257.44 785.285 1257.72 784.176C1257.86 783.621 1258 782.997 1258.27 782.442C1258.76 781.194 1259.52 780.085 1260.49 779.184C1261.39 778.213 1262.5 777.45 1263.75 776.965C1265.07 776.411 1266.39 776.133 1267.77 776.133C1269.23 776.133 1270.55 776.411 1271.86 776.965C1273.04 777.45 1274.15 778.213 1275.12 779.184C1276.09 780.085 1276.79 781.194 1277.34 782.442C1277.89 783.76 1278.17 785.077 1278.17 786.464V815.653H1268.67V786.464C1268.67 785.978 1268.26 785.632 1267.77 785.632C1267.29 785.632 1266.94 785.978 1266.94 786.464V823.556H1267.43V822.863C1267.98 820.298 1269.44 818.426 1271.45 817.871C1271.79 817.802 1272.14 817.733 1272.49 817.733C1273.32 817.733 1273.94 818.01 1274.15 818.079ZM1268.74 867.652V827.647C1268.6 827.231 1268.26 826.884 1267.84 826.884C1267.43 826.954 1267.15 827.162 1267.01 827.578L1266.94 867.652C1267.01 868.137 1267.43 868.484 1267.91 868.484C1268.33 868.415 1268.67 868.068 1268.74 867.652ZM1297.58 779.184C1298.56 780.085 1299.25 781.194 1299.8 782.442C1300.36 783.76 1300.64 785.077 1300.64 786.464V867.513C1300.64 868.9 1300.36 870.286 1299.8 871.534C1299.25 872.782 1298.56 873.892 1297.58 874.862C1296.61 875.764 1295.5 876.526 1294.33 877.081C1293.01 877.566 1291.62 877.844 1290.24 877.844C1288.85 877.844 1287.53 877.566 1286.21 877.081C1284.97 876.526 1283.86 875.764 1282.96 874.862C1281.99 873.892 1281.22 872.782 1280.74 871.534C1280.18 870.286 1279.91 868.9 1279.91 867.513V786.464C1279.91 785.077 1280.18 783.76 1280.74 782.442C1281.22 781.194 1281.99 780.085 1282.96 779.184C1283.86 778.213 1284.97 777.45 1286.21 776.965C1287.53 776.411 1288.85 776.133 1290.24 776.133C1291.62 776.133 1293.01 776.411 1294.33 776.965C1295.5 777.45 1296.61 778.213 1297.58 779.184ZM1291.14 866.473V787.642C1291.14 787.157 1290.72 786.741 1290.24 786.741C1289.75 786.741 1289.4 787.157 1289.4 787.642V866.473C1289.4 867.028 1289.75 867.375 1290.24 867.375C1290.72 867.375 1291.14 867.028 1291.14 866.473ZM1302.37 876.942V865.849H1311.87V876.942C1310.76 879.924 1309.72 882.836 1308.61 885.817H1302.37L1305.63 876.942H1302.37ZM1330.31 817.733C1332.74 818.703 1334.33 822.031 1334.33 826.122V867.513C1334.33 868.9 1334.05 870.286 1333.5 871.534C1333.01 872.782 1332.25 873.892 1331.28 874.862C1330.38 875.833 1329.27 876.526 1328.02 877.081C1326.7 877.636 1325.39 877.913 1324 877.913C1322.61 877.913 1321.23 877.636 1319.98 877.081C1318.73 876.526 1317.62 875.833 1316.65 874.862C1315.68 873.892 1314.99 872.782 1314.43 871.534C1314.29 871.188 1314.02 870.564 1313.88 869.801C1313.67 868.761 1313.6 867.86 1313.6 867.513V829.242H1323.1V867.513C1323.1 867.999 1323.52 868.415 1324 868.415C1324.49 868.415 1324.9 867.999 1324.9 867.513V827.647C1324.83 826.815 1324.14 826.191 1323.52 826.191H1323.45C1322.96 826.26 1322.54 826.676 1322.34 827.162H1313.6V777.381C1320.53 777.381 1327.4 777.381 1334.33 777.45V815.722H1324.83V786.117H1323.1V823.21H1323.58V822.517C1324.14 819.951 1325.6 818.01 1327.61 817.525C1327.95 817.455 1328.3 817.386 1328.65 817.386C1329.48 817.386 1330.1 817.663 1330.31 817.733ZM1352.77 817.733C1355.2 818.703 1356.79 822.031 1356.79 826.122V867.513C1356.79 868.9 1356.52 870.286 1355.96 871.534C1355.48 872.782 1354.71 873.892 1353.74 874.862C1352.84 875.833 1351.73 876.526 1350.49 877.081C1349.17 877.636 1347.85 877.913 1346.46 877.913C1345.08 877.913 1343.69 877.636 1342.44 877.081C1341.19 876.526 1340.09 875.833 1339.11 874.862C1338.14 873.892 1337.45 872.782 1336.9 871.534C1336.76 871.188 1336.48 870.564 1336.34 869.801C1336.13 868.761 1336.06 867.86 1336.06 867.513V829.242H1345.56V867.513C1345.56 867.999 1345.98 868.415 1346.46 868.415C1346.95 868.415 1347.37 867.999 1347.37 867.513V827.647C1347.3 826.815 1346.6 826.191 1345.98 826.191H1345.91C1345.42 826.26 1345.01 826.676 1344.8 827.162H1336.06V777.381C1343 777.381 1349.86 777.381 1356.79 777.45V815.722H1347.3V786.117H1345.56V823.21H1346.05V822.517C1346.6 819.951 1348.06 818.01 1350.07 817.525C1350.42 817.455 1350.76 817.386 1351.11 817.386C1351.94 817.386 1352.57 817.663 1352.77 817.733ZM1394.23 777.312H1400.75L1387.16 876.942H1380.64L1394.23 777.312ZM1385.01 819.743C1384.11 820.645 1383.14 821.269 1382.03 821.754C1380.85 822.239 1379.6 822.517 1378.36 822.517C1377.11 822.517 1375.86 822.239 1374.68 821.754C1373.57 821.269 1372.53 820.645 1371.7 819.743C1370.8 818.911 1370.18 817.871 1369.69 816.762C1369.21 815.583 1368.93 814.335 1368.93 813.087V785.493C1368.93 784.245 1369.21 782.997 1369.69 781.818C1370.18 780.709 1370.8 779.738 1371.7 778.837C1372.53 778.005 1373.57 777.312 1374.68 776.826C1375.86 776.341 1377.11 776.133 1378.36 776.133C1379.6 776.133 1380.85 776.341 1382.03 776.826C1383.14 777.312 1384.11 778.005 1385.01 778.837C1385.84 779.738 1386.54 780.709 1387.02 781.818C1387.51 782.997 1387.79 784.245 1387.79 785.493V813.087C1387.79 814.335 1387.51 815.583 1387.02 816.762C1386.54 817.871 1385.84 818.911 1385.01 819.743ZM1379.12 813.087V785.493C1379.12 785.077 1378.77 784.73 1378.36 784.73C1377.87 784.73 1377.52 785.077 1377.52 785.493V813.087C1377.52 813.503 1377.87 813.919 1378.36 813.919C1378.77 813.919 1379.12 813.503 1379.12 813.087ZM1409.7 834.65C1410.6 835.551 1411.22 836.522 1411.71 837.631C1412.19 838.81 1412.47 840.058 1412.47 841.306V868.9C1412.47 870.148 1412.19 871.396 1411.71 872.574C1411.22 873.684 1410.6 874.654 1409.7 875.556C1408.86 876.388 1407.82 877.081 1406.71 877.566C1405.54 878.052 1404.29 878.329 1403.04 878.329C1401.79 878.329 1400.54 878.052 1399.36 877.566C1398.26 877.081 1397.22 876.388 1396.38 875.556C1395.55 874.654 1394.86 873.684 1394.37 872.574C1393.89 871.396 1393.61 870.148 1393.61 868.9V841.306C1393.61 840.058 1393.89 838.81 1394.37 837.631C1394.86 836.522 1395.55 835.551 1396.38 834.65C1397.22 833.818 1398.26 833.124 1399.36 832.639C1400.54 832.154 1401.79 831.876 1403.04 831.876C1404.29 831.876 1405.54 832.154 1406.71 832.639C1407.82 833.124 1408.86 833.818 1409.7 834.65ZM1403.87 868.9V841.306C1403.87 840.89 1403.46 840.543 1403.04 840.543C1402.62 840.543 1402.21 840.89 1402.21 841.306V868.9C1402.21 869.316 1402.62 869.662 1403.04 869.662C1403.46 869.662 1403.87 869.316 1403.87 868.9Z" fill="#B23030"/>
<path d="M235.881 506.411V473.923C235.881 472.901 236.676 472.106 237.699 472.106H249.058C250.081 472.106 250.876 472.901 250.876 473.923C250.876 474.946 250.081 475.741 249.058 475.741H239.516V487.782H247.922C248.945 487.782 249.74 488.577 249.74 489.599C249.74 490.622 248.945 491.417 247.922 491.417H239.516V504.594H249.058C250.081 504.594 250.876 505.389 250.876 506.411C250.876 507.434 250.081 508.229 249.058 508.229H237.699C236.676 508.229 235.881 507.434 235.881 506.411ZM258.609 508.342C257.644 508.342 256.905 507.604 256.905 506.638V484.147C256.905 483.181 257.644 482.443 258.609 482.443H264.289C268.322 482.443 271.673 485.737 271.673 489.827V506.638C271.673 507.604 270.878 508.342 269.969 508.342C269.003 508.342 268.265 507.604 268.265 506.638V489.827C268.265 487.611 266.447 485.851 264.289 485.851H260.313V506.638C260.313 507.604 259.518 508.342 258.609 508.342ZM278.352 485.851C277.387 485.851 276.648 485.112 276.648 484.147C276.648 483.181 277.387 482.443 278.352 482.443H281.192V472.56C281.192 471.595 281.93 470.856 282.896 470.856C283.861 470.856 284.6 471.595 284.6 472.56V482.443H288.576C289.541 482.443 290.28 483.181 290.28 484.147C290.28 485.112 289.541 485.851 288.576 485.851H284.6V500.959C284.6 503.174 286.361 504.935 288.576 504.935C289.541 504.935 290.28 505.673 290.28 506.638C290.28 507.604 289.541 508.342 288.576 508.342C284.486 508.342 281.192 505.048 281.192 500.959V485.851H278.352ZM297.657 508.342C296.692 508.342 295.953 507.604 295.953 506.638V484.147C295.953 483.181 296.692 482.443 297.657 482.443H303.337C304.643 482.443 305.893 482.784 307.029 483.408C307.824 483.92 308.108 484.942 307.654 485.737C307.199 486.589 306.12 486.873 305.325 486.362C304.7 486.021 304.019 485.851 303.337 485.851H299.361V506.638C299.361 507.604 298.623 508.342 297.657 508.342ZM316.845 507.774C314.062 506.638 312.244 503.969 312.244 500.959V489.599C312.244 485.51 315.595 482.216 319.628 482.216C323.717 482.216 327.012 485.51 327.012 489.599V495.279C327.012 496.245 326.273 496.983 325.308 496.983H315.652V500.959C315.652 502.549 316.618 504.026 318.095 504.651C319.628 505.275 321.332 504.935 322.468 503.799C323.093 503.117 324.172 503.117 324.853 503.799C325.535 504.423 325.535 505.503 324.853 506.184C322.752 508.286 319.571 508.91 316.845 507.774ZM319.628 485.624C317.47 485.624 315.652 487.384 315.652 489.599V493.575C317.924 493.575 321.9 493.575 323.604 493.575C323.604 491.928 323.604 489.599 323.604 489.599C323.604 487.384 321.843 485.624 319.628 485.624ZM321.332 471.311C322.07 470.686 323.093 470.743 323.774 471.424C324.399 472.106 324.342 473.185 323.604 473.81L317.924 478.921C317.243 479.546 316.163 479.489 315.539 478.808C314.914 478.126 314.971 477.047 315.652 476.422L321.332 471.311ZM337.699 507.774C334.916 506.638 333.155 503.969 333.155 500.959V489.599C333.155 485.51 336.449 482.216 340.539 482.216C344.628 482.216 347.922 485.51 347.922 489.599V495.279C347.922 496.245 347.184 496.983 346.218 496.983H336.563V500.959C336.563 502.549 337.528 504.026 339.005 504.651C340.482 505.275 342.186 504.935 343.322 503.799C344.003 503.117 345.082 503.117 345.764 503.799C346.446 504.423 346.446 505.503 345.764 506.184C343.663 508.286 340.482 508.91 337.699 507.774ZM340.539 485.624C338.324 485.624 336.563 487.384 336.563 489.599V493.575C338.835 493.575 342.811 493.575 344.514 493.575C344.514 491.928 344.514 489.599 344.514 489.599C344.514 487.384 342.754 485.624 340.539 485.624ZM362.244 503.969C363.04 503.231 363.494 502.151 363.38 501.072C363.324 499.936 362.756 498.971 361.847 498.346L356.565 494.597C354.861 493.405 353.839 491.53 353.668 489.486C353.555 487.384 354.35 485.396 355.883 484.033C357.417 482.613 359.461 481.989 361.506 482.273C363.551 482.613 365.368 483.806 366.391 485.624C366.845 486.419 366.561 487.498 365.766 487.952C364.971 488.407 363.892 488.123 363.437 487.327C362.926 486.419 362.017 485.851 360.995 485.68C359.973 485.51 358.95 485.794 358.155 486.532C357.417 487.214 357.019 488.236 357.076 489.259C357.133 490.281 357.701 491.246 358.553 491.814L363.835 495.506C365.595 496.756 366.675 498.687 366.788 500.845C366.959 503.003 366.107 505.048 364.516 506.468C362.926 507.945 360.825 508.57 358.723 508.286C356.565 507.945 354.747 506.695 353.668 504.821C353.214 504.026 353.498 502.947 354.293 502.492C355.088 502.038 356.167 502.322 356.622 503.117C357.19 504.083 358.098 504.707 359.234 504.878C360.313 505.048 361.393 504.707 362.244 503.969ZM391.068 508.115C386.979 508.115 383.684 504.821 383.684 500.732V489.827C383.684 485.737 386.979 482.443 391.068 482.443H395.044V472.56C395.044 471.595 395.782 470.856 396.748 470.856C397.657 470.856 398.452 471.595 398.452 472.56V506.411C398.452 507.377 397.657 508.115 396.748 508.115H391.068ZM391.068 485.851C388.853 485.851 387.092 487.611 387.092 489.827V500.732C387.092 502.947 388.853 504.707 391.068 504.707H395.044V485.851H391.068ZM410.248 507.774C407.465 506.638 405.704 503.969 405.704 500.959V489.599C405.704 485.51 408.999 482.216 413.088 482.216C417.177 482.216 420.472 485.51 420.472 489.599V495.279C420.472 496.245 419.733 496.983 418.768 496.983H409.112V500.959C409.112 502.549 410.078 504.026 411.555 504.651C413.031 505.275 414.735 504.935 415.871 503.799C416.553 503.117 417.632 503.117 418.313 503.799C418.995 504.423 418.995 505.503 418.313 506.184C416.212 508.286 413.031 508.91 410.248 507.774ZM413.088 485.624C410.873 485.624 409.112 487.384 409.112 489.599V493.575C411.384 493.575 415.36 493.575 417.064 493.575C417.064 491.928 417.064 489.599 417.064 489.599C417.064 487.384 415.303 485.624 413.088 485.624ZM442.086 507.774C439.303 506.638 437.542 503.969 437.542 500.959V489.599C437.542 486.589 439.303 483.92 442.086 482.784C444.869 481.648 447.992 482.273 450.151 484.374C450.776 485.056 450.776 486.135 450.151 486.816C449.469 487.441 448.39 487.441 447.709 486.816C446.573 485.624 444.869 485.34 443.392 485.908C441.915 486.532 440.95 488.009 440.95 489.599V500.959C440.95 502.549 441.915 504.026 443.392 504.651C444.869 505.275 446.573 504.935 447.709 503.799C448.39 503.117 449.469 503.117 450.151 503.799C450.776 504.423 450.776 505.503 450.151 506.184C447.992 508.286 444.869 508.91 442.086 507.774ZM458.564 477.672C457.314 477.672 456.292 476.65 456.292 475.4C456.292 474.151 457.314 473.128 458.564 473.128C459.813 473.128 460.836 474.151 460.836 475.4C460.836 476.65 459.813 477.672 458.564 477.672ZM460.268 506.638C460.268 507.604 459.529 508.342 458.564 508.342C457.655 508.342 456.86 507.604 456.86 506.638V483.92C456.86 482.954 457.655 482.216 458.564 482.216C459.529 482.216 460.268 482.954 460.268 483.92V506.638ZM469.934 508.342C468.969 508.342 468.23 507.604 468.23 506.638V484.147C468.23 483.181 468.969 482.443 469.934 482.443H475.614C479.647 482.443 482.998 485.737 482.998 489.827V506.638C482.998 507.604 482.203 508.342 481.294 508.342C480.328 508.342 479.59 507.604 479.59 506.638V489.827C479.59 487.611 477.772 485.851 475.614 485.851H471.638V506.638C471.638 507.604 470.843 508.342 469.934 508.342ZM494.391 507.774C491.608 506.638 489.791 503.969 489.791 500.959V489.599C489.791 485.51 493.142 482.216 497.174 482.216C501.264 482.216 504.558 485.51 504.558 489.599V495.279C504.558 496.245 503.82 496.983 502.854 496.983H493.198V500.959C493.198 502.549 494.164 504.026 495.641 504.651C497.174 505.275 498.878 504.935 500.014 503.799C500.639 503.117 501.718 503.117 502.4 503.799C503.081 504.423 503.081 505.503 502.4 506.184C500.298 508.286 497.117 508.91 494.391 507.774ZM497.174 485.624C495.016 485.624 493.198 487.384 493.198 489.599V493.575C495.47 493.575 499.446 493.575 501.15 493.575C501.15 491.928 501.15 489.599 501.15 489.599C501.15 487.384 499.389 485.624 497.174 485.624ZM498.878 471.311C499.617 470.686 500.639 470.743 501.32 471.424C501.945 472.106 501.888 473.185 501.15 473.81L495.47 478.921C494.789 479.546 493.71 479.489 493.085 478.808C492.46 478.126 492.517 477.047 493.198 476.422L498.878 471.311ZM522.742 485.851H514.791V506.638C514.791 507.604 513.996 508.342 513.087 508.342C512.121 508.342 511.383 507.604 511.383 506.638V484.147C511.383 483.181 512.121 482.443 513.087 482.443H530.126C534.158 482.443 537.51 485.737 537.51 489.827V506.638C537.51 507.604 536.714 508.342 535.806 508.342C534.84 508.342 534.102 507.604 534.102 506.638V489.827C534.102 487.611 532.284 485.851 530.126 485.851H526.15V506.638C526.15 507.604 525.355 508.342 524.446 508.342C523.481 508.342 522.742 507.604 522.742 506.638V485.851ZM550.107 493.348H554.083V489.486C554.083 487.895 553.117 486.532 551.697 485.908C550.221 485.34 548.573 485.624 547.494 486.759C546.813 487.441 545.734 487.441 545.052 486.759C544.37 486.078 544.37 484.999 545.052 484.374C547.153 482.273 550.277 481.648 553.004 482.784C555.73 483.92 557.491 486.532 557.491 489.486V506.411C557.491 507.377 556.695 508.115 555.787 508.115H550.107C546.018 508.115 542.723 504.821 542.723 500.732C542.723 496.642 546.018 493.348 550.107 493.348ZM546.131 500.732C546.131 502.947 547.892 504.707 550.107 504.707H554.083V496.756H550.107C547.892 496.756 546.131 498.516 546.131 500.732Z" fill="#B23030"/>
<path d="M930.727 864.867C931.977 863.958 932.715 862.595 932.829 861.062C932.942 859.585 932.431 858.051 931.352 856.972L922.264 847.657C920.561 845.897 919.652 843.454 919.879 841.012C920.049 838.513 921.299 836.241 923.287 834.765C925.218 833.288 927.774 832.663 930.216 833.174C932.602 833.685 934.703 835.162 935.953 837.32C936.464 838.172 936.18 839.308 935.271 839.819C934.419 840.331 933.283 839.99 932.829 839.138C932.09 837.888 930.898 837.036 929.478 836.752C928.058 836.468 926.581 836.809 925.445 837.661C924.309 838.513 923.628 839.819 923.514 841.239C923.4 842.716 923.912 844.079 924.877 845.102L933.965 854.473C935.725 856.291 936.634 858.79 936.464 861.346C936.237 863.901 934.987 866.23 932.942 867.764C930.898 869.297 928.285 869.922 925.786 869.411C923.287 868.9 921.129 867.366 919.822 865.151C919.368 864.242 919.652 863.163 920.504 862.652C921.356 862.141 922.492 862.425 923.003 863.333C923.741 864.64 925.048 865.549 926.524 865.833C928.001 866.117 929.535 865.776 930.727 864.867ZM949.461 869.468C945.372 869.468 942.077 866.173 942.077 862.084V850.725C942.077 846.635 945.372 843.341 949.461 843.341C953.494 843.341 956.845 846.635 956.845 850.725V862.084C956.845 866.173 953.494 869.468 949.461 869.468ZM949.461 846.749C947.246 846.749 945.485 848.509 945.485 850.725V862.084C945.485 864.299 947.246 866.06 949.461 866.06C951.619 866.06 953.437 864.299 953.437 862.084V850.725C953.437 848.509 951.619 846.749 949.461 846.749ZM965.817 838.797C964.568 838.797 963.545 837.775 963.545 836.525C963.545 835.276 964.568 834.253 965.817 834.253C967.067 834.253 968.089 835.276 968.089 836.525C968.089 837.775 967.067 838.797 965.817 838.797ZM967.521 867.764C967.521 868.729 966.783 869.468 965.817 869.468C964.908 869.468 964.113 868.729 964.113 867.764V845.045C964.113 844.079 964.908 843.341 965.817 843.341C966.783 843.341 967.521 844.079 967.521 845.045V867.764ZM974.689 846.976C973.723 846.976 972.985 846.238 972.985 845.272C972.985 844.306 973.723 843.568 974.689 843.568H977.528V833.685C977.528 832.72 978.267 831.981 979.232 831.981C980.198 831.981 980.936 832.72 980.936 833.685V843.568H984.912C985.878 843.568 986.616 844.306 986.616 845.272C986.616 846.238 985.878 846.976 984.912 846.976H980.936V862.084C980.936 864.299 982.697 866.06 984.912 866.06C985.878 866.06 986.616 866.798 986.616 867.764C986.616 868.729 985.878 869.468 984.912 869.468C980.823 869.468 977.528 866.173 977.528 862.084V846.976H974.689ZM1010.15 869.24C1006.06 869.24 1002.76 865.946 1002.76 861.857V845.045C1002.76 844.079 1003.5 843.341 1004.47 843.341C1005.43 843.341 1006.17 844.079 1006.17 845.045V861.857C1006.17 864.072 1007.93 865.833 1010.15 865.833H1014.12V845.045C1014.12 844.079 1014.86 843.341 1015.83 843.341C1016.79 843.341 1017.53 844.079 1017.53 845.045V867.536C1017.53 868.502 1016.79 869.24 1015.83 869.24H1010.15ZM1027.16 869.468C1026.2 869.468 1025.46 868.729 1025.46 867.764V845.272C1025.46 844.306 1026.2 843.568 1027.16 843.568H1032.84C1036.87 843.568 1040.23 846.862 1040.23 850.952V867.764C1040.23 868.729 1039.43 869.468 1038.52 869.468C1037.56 869.468 1036.82 868.729 1036.82 867.764V850.952C1036.82 848.737 1035 846.976 1032.84 846.976H1028.87V867.764C1028.87 868.729 1028.07 869.468 1027.16 869.468ZM1051.56 868.9C1048.78 867.764 1047.02 865.094 1047.02 862.084V850.725C1047.02 846.635 1050.31 843.341 1054.4 843.341C1058.49 843.341 1061.79 846.635 1061.79 850.725V856.404C1061.79 857.37 1061.05 858.108 1060.08 858.108H1050.43V862.084C1050.43 863.674 1051.39 865.151 1052.87 865.776C1054.35 866.4 1056.05 866.06 1057.19 864.924C1057.87 864.242 1058.95 864.242 1059.63 864.924C1060.31 865.549 1060.31 866.628 1059.63 867.309C1057.53 869.411 1054.35 870.036 1051.56 868.9ZM1054.4 846.749C1052.19 846.749 1050.43 848.509 1050.43 850.725V854.7C1052.7 854.7 1056.67 854.7 1058.38 854.7C1058.38 853.053 1058.38 850.725 1058.38 850.725C1058.38 848.509 1056.62 846.749 1054.4 846.749ZM1081.24 869.24C1080.28 869.24 1079.54 868.502 1079.54 867.536V833.685C1079.54 832.72 1080.28 831.981 1081.24 831.981C1082.15 831.981 1082.95 832.72 1082.95 833.685V843.568H1086.92C1090.95 843.568 1094.3 846.862 1094.3 850.952V861.857C1094.3 865.946 1090.95 869.24 1086.92 869.24H1081.24ZM1086.92 846.976H1082.95V865.833H1086.92C1089.08 865.833 1090.9 864.072 1090.9 861.857V850.952C1090.9 848.737 1089.08 846.976 1086.92 846.976ZM1106.67 854.473H1110.65V850.611C1110.65 849.021 1109.68 847.657 1108.26 847.033C1106.78 846.465 1105.14 846.749 1104.06 847.885C1103.38 848.566 1102.3 848.566 1101.61 847.885C1100.93 847.203 1100.93 846.124 1101.61 845.499C1103.72 843.398 1106.84 842.773 1109.57 843.909C1112.29 845.045 1114.05 847.657 1114.05 850.611V867.536C1114.05 868.502 1113.26 869.24 1112.35 869.24H1106.67C1102.58 869.24 1099.29 865.946 1099.29 861.857C1099.29 857.767 1102.58 854.473 1106.67 854.473ZM1102.69 861.857C1102.69 864.072 1104.45 865.833 1106.67 865.833H1110.65V857.881H1106.67C1104.45 857.881 1102.69 859.642 1102.69 861.857ZM1123.23 838.797C1121.98 838.797 1120.96 837.775 1120.96 836.525C1120.96 835.276 1121.98 834.253 1123.23 834.253C1124.48 834.253 1125.5 835.276 1125.5 836.525C1125.5 837.775 1124.48 838.797 1123.23 838.797ZM1124.93 867.764C1124.93 868.729 1124.19 869.468 1123.23 869.468C1122.32 869.468 1121.53 868.729 1121.53 867.764V845.045C1121.53 844.079 1122.32 843.341 1123.23 843.341C1124.19 843.341 1124.93 844.079 1124.93 845.045V867.764ZM1140.39 865.094C1141.19 864.356 1141.64 863.277 1141.53 862.198C1141.47 861.062 1140.9 860.096 1140 859.471L1134.71 855.723C1133.01 854.53 1131.99 852.656 1131.82 850.611C1131.7 848.509 1132.5 846.522 1134.03 845.158C1135.57 843.738 1137.61 843.114 1139.65 843.398C1141.7 843.738 1143.52 844.931 1144.54 846.749C1144.99 847.544 1144.71 848.623 1143.91 849.077C1143.12 849.532 1142.04 849.248 1141.59 848.453C1141.07 847.544 1140.17 846.976 1139.14 846.806C1138.12 846.635 1137.1 846.919 1136.3 847.657C1135.57 848.339 1135.17 849.361 1135.22 850.384C1135.28 851.406 1135.85 852.372 1136.7 852.94L1141.98 856.631C1143.74 857.881 1144.82 859.812 1144.94 861.97C1145.11 864.129 1144.26 866.173 1142.66 867.593C1141.07 869.07 1138.97 869.695 1136.87 869.411C1134.71 869.07 1132.9 867.82 1131.82 865.946C1131.36 865.151 1131.65 864.072 1132.44 863.617C1133.24 863.163 1134.32 863.447 1134.77 864.242C1135.34 865.208 1136.25 865.833 1137.38 866.003C1138.46 866.173 1139.54 865.833 1140.39 865.094ZM1159.09 865.094C1159.88 864.356 1160.33 863.277 1160.22 862.198C1160.16 861.062 1159.6 860.096 1158.69 859.471L1153.41 855.723C1151.7 854.53 1150.68 852.656 1150.51 850.611C1150.4 848.509 1151.19 846.522 1152.72 845.158C1154.26 843.738 1156.3 843.114 1158.35 843.398C1160.39 843.738 1162.21 844.931 1163.23 846.749C1163.69 847.544 1163.4 848.623 1162.61 849.077C1161.81 849.532 1160.73 849.248 1160.28 848.453C1159.77 847.544 1158.86 846.976 1157.84 846.806C1156.81 846.635 1155.79 846.919 1155 847.657C1154.26 848.339 1153.86 849.361 1153.92 850.384C1153.97 851.406 1154.54 852.372 1155.39 852.94L1160.68 856.631C1162.44 857.881 1163.52 859.812 1163.63 861.97C1163.8 864.129 1162.95 866.173 1161.36 867.593C1159.77 869.07 1157.67 869.695 1155.56 869.411C1153.41 869.07 1151.59 867.82 1150.51 865.946C1150.05 865.151 1150.34 864.072 1151.13 863.617C1151.93 863.163 1153.01 863.447 1153.46 864.242C1154.03 865.208 1154.94 865.833 1156.07 866.003C1157.15 866.173 1158.23 865.833 1159.09 865.094ZM1174.14 868.9C1171.36 867.764 1169.6 865.094 1169.6 862.084V850.725C1169.6 846.635 1172.89 843.341 1176.98 843.341C1181.07 843.341 1184.37 846.635 1184.37 850.725V856.404C1184.37 857.37 1183.63 858.108 1182.66 858.108H1173.01V862.084C1173.01 863.674 1173.97 865.151 1175.45 865.776C1176.93 866.4 1178.63 866.06 1179.76 864.924C1180.45 864.242 1181.53 864.242 1182.21 864.924C1182.89 865.549 1182.89 866.628 1182.21 867.309C1180.11 869.411 1176.93 870.036 1174.14 868.9ZM1176.98 846.749C1174.77 846.749 1173.01 848.509 1173.01 850.725V854.7C1175.28 854.7 1179.25 854.7 1180.96 854.7C1180.96 853.053 1180.96 850.725 1180.96 850.725C1180.96 848.509 1179.2 846.749 1176.98 846.749ZM1208.82 869.24C1204.73 869.24 1201.44 865.946 1201.44 861.857V850.952C1201.44 846.862 1204.73 843.568 1208.82 843.568H1212.8V833.685C1212.8 832.72 1213.53 831.981 1214.5 831.981C1215.41 831.981 1216.2 832.72 1216.2 833.685V867.536C1216.2 868.502 1215.41 869.24 1214.5 869.24H1208.82ZM1208.82 846.976C1206.6 846.976 1204.84 848.737 1204.84 850.952V861.857C1204.84 864.072 1206.6 865.833 1208.82 865.833H1212.8V846.976H1208.82ZM1228 868.9C1225.22 867.764 1223.46 865.094 1223.46 862.084V850.725C1223.46 846.635 1226.75 843.341 1230.84 843.341C1234.93 843.341 1238.22 846.635 1238.22 850.725V856.404C1238.22 857.37 1237.48 858.108 1236.52 858.108H1226.86V862.084C1226.86 863.674 1227.83 865.151 1229.31 865.776C1230.78 866.4 1232.49 866.06 1233.62 864.924C1234.3 864.242 1235.38 864.242 1236.06 864.924C1236.75 865.549 1236.75 866.628 1236.06 867.309C1233.96 869.411 1230.78 870.036 1228 868.9ZM1230.84 846.749C1228.62 846.749 1226.86 848.509 1226.86 850.725V854.7C1229.14 854.7 1233.11 854.7 1234.82 854.7C1234.82 853.053 1234.82 850.725 1234.82 850.725C1234.82 848.509 1233.05 846.749 1230.84 846.749Z" fill="#B23030"/>
</svg>
