<svg width="1821" height="1025" viewBox="0 0 1821 1025" fill="none" xmlns="http://www.w3.org/2000/svg">
<g clip-path="url(#clip0_204_304)">
<path d="M1820.67 0H0V758.611H1820.67V0Z" fill="#A02E2E"/>
<path d="M1784.1 143.321H-36.5713V900.035H1784.1V143.321Z" fill="#A02E2E"/>
<path d="M324.136 0.0568958V177.202C898.48 339.478 1496.53 177.202 1496.53 177.202V0" fill="#870B0B"/>
<path d="M1821 727H1V761H1821V727Z" fill="white"/>
<path d="M344.201 768.094V507.321C344.201 507.321 941.303 703.166 1516.6 507.321V768.094" fill="#870B0B"/>
<path d="M1820.67 758.611H0V1024.12H1820.67V758.611Z" fill="#ED2E2E"/>
<path d="M186 110H-148V642H186V110Z" fill="white"/>
<path d="M1516.91 523.053C1516.91 543.128 1227.43 610.682 918.697 610.682C609.961 610.682 343.907 538.15 343.907 518.075C343.907 498 609.051 579.807 917.796 579.807C1226.54 579.807 1516.91 502.978 1516.91 523.053Z" fill="#700909"/>
<path d="M1547.73 507.321C1547.73 526.438 1243.04 590.768 918.081 590.768C593.12 590.768 313.088 521.697 313.088 502.58C313.088 483.463 592.172 561.372 917.132 561.372C1242.09 561.372 1547.73 488.204 1547.73 507.321Z" fill="black"/>
<path d="M344.201 758.611C344.201 758.611 756.733 910.333 1516.6 758.611H344.201Z" fill="#870B0B"/>
<path d="M822.514 31.2927H357.125V286.802H822.514V31.2927Z" fill="#EFEFEF" stroke="black" stroke-width="5.68958" stroke-miterlimit="10"/>
<path d="M1046.57 465.598H814.246V583.182H1046.57V465.598Z" fill="#191113"/>
<path d="M938.943 445.902H921.874V563.487H938.943V445.902Z" fill="#191113"/>
<path d="M964.745 418.402H896.062V446.632H964.745V418.402Z" fill="#191113"/>
<path d="M546.219 97.3676V139.85C546.219 140.21 546.219 141.139 545.953 142.221C545.773 142.865 545.508 143.444 545.147 144.013C544.521 145.302 543.526 146.45 542.274 147.455C541.108 148.46 539.666 149.181 538.054 149.75C536.347 150.328 534.64 150.613 532.839 150.613C531.037 150.613 529.245 150.328 527.623 149.75C526.002 149.171 524.57 148.46 523.309 147.455C522.048 146.45 521.156 145.302 520.436 144.013C519.715 142.723 519.354 141.282 519.354 139.85V55.9664C519.354 55.682 519.354 54.7432 519.715 53.5958C519.895 53.0173 520.075 52.3725 520.436 51.8036C521.061 50.5139 522.057 49.3665 523.309 48.4277C524.475 47.4226 525.916 46.6355 527.529 46.1329C529.235 45.5545 530.942 45.27 532.744 45.27C534.631 45.27 536.338 45.5545 538.045 46.1329C539.571 46.6355 541.013 47.4226 542.265 48.4277C543.526 49.357 544.417 50.5044 545.138 51.8036C545.858 53.1691 546.219 54.5346 546.219 55.9664V86.1781H533.91V55.9664C533.91 55.4639 533.37 55.1035 532.744 55.1035C532.118 55.1035 531.663 55.4639 531.663 55.9664V94.3522H532.289V93.6315C533.01 90.9763 534.897 89.0419 537.504 88.4634C537.95 88.3876 538.405 88.3212 538.851 88.3212C539.932 88.3212 540.738 88.6057 541.003 88.6815C544.152 89.6867 546.219 93.1289 546.219 97.3676ZM534.005 98.5814C533.825 98.1547 533.379 97.7944 532.839 97.7944C532.298 97.8702 531.938 98.0788 531.758 98.515L531.672 139.992C531.758 140.495 532.298 140.855 532.934 140.855C533.474 140.779 533.92 140.428 534.015 139.992V98.5909L534.005 98.5814Z" fill="#2D90CF"/>
<path d="M578.763 51.8036C579.484 53.1691 579.844 54.5346 579.844 55.9664V139.85C579.844 141.282 579.484 142.723 578.763 144.013C578.043 145.302 577.142 146.45 575.89 147.455C574.629 148.384 573.197 149.181 571.67 149.75C569.963 150.252 568.162 150.537 566.369 150.537C564.577 150.537 562.861 150.252 561.154 149.75C559.532 149.171 558.101 148.384 556.934 147.455C555.673 146.45 554.687 145.302 554.061 144.013C553.34 142.723 552.98 141.282 552.98 139.85V55.9664C552.98 54.5346 553.34 53.1691 554.061 51.8036C554.687 50.5139 555.683 49.3665 556.934 48.4277C558.101 47.4226 559.542 46.6355 561.154 46.1329C562.861 45.5545 564.568 45.27 566.369 45.27C568.171 45.27 569.963 45.5545 571.67 46.1329C573.197 46.6355 574.638 47.4226 575.89 48.4277C577.151 49.357 578.043 50.5044 578.763 51.8036ZM567.536 57.1802C567.536 56.6776 566.995 56.2509 566.369 56.2509C565.744 56.2509 565.288 56.6776 565.288 57.1802V138.769C565.288 139.338 565.734 139.698 566.369 139.698C567.005 139.698 567.536 139.338 567.536 138.769V57.1802Z" fill="#2D90CF"/>
<path d="M586.605 138.124H598.914V149.608C597.473 152.689 596.126 155.705 594.694 158.796H586.605L590.825 149.608H586.605V138.124Z" fill="#2D90CF"/>
<path d="M632.529 55.9664V139.85C632.529 140.21 632.529 141.139 632.264 142.221C632.084 142.865 631.818 143.444 631.543 144.013C630.822 145.302 629.836 146.45 628.67 147.455C627.409 148.46 625.977 149.181 624.355 149.75C622.734 150.319 620.942 150.613 619.14 150.613C617.338 150.613 615.546 150.328 613.924 149.75C612.303 149.171 610.871 148.46 609.61 147.455C608.443 146.45 607.457 145.302 606.737 144.013C606.111 142.723 605.75 141.282 605.75 139.85V109.714H617.973V139.85C617.973 140.352 618.514 140.779 619.14 140.779C619.766 140.779 620.306 140.352 620.306 139.85V101.464H619.586V102.251C618.96 104.83 616.978 106.841 614.465 107.343C614.019 107.419 613.479 107.486 613.118 107.486C612.037 107.486 611.231 107.268 610.966 107.201C607.732 106.13 605.665 102.678 605.665 98.4487V55.9664C605.665 55.6061 605.665 54.7432 606.025 53.5958C606.206 53.0173 606.386 52.3725 606.746 51.8036C607.372 50.5139 608.368 49.3665 609.619 48.4277C610.88 47.4226 612.312 46.6355 613.839 46.1329C615.546 45.5545 617.253 45.27 619.14 45.27C621.027 45.27 622.648 45.5545 624.355 46.1329C625.882 46.6355 627.323 47.4226 628.575 48.4277C629.836 49.357 630.822 50.5044 631.448 51.8036C632.169 53.1691 632.529 54.5346 632.529 55.9664ZM620.221 55.8906C620.221 55.4639 619.68 55.0277 619.14 55.0277H618.96C618.419 55.0277 617.973 55.388 617.973 55.8906V97.2918C618.059 97.7185 618.599 98.0125 619.14 98.0125C619.586 98.0125 620.041 97.728 620.126 97.3676L620.211 55.8906H620.221Z" fill="#2D90CF"/>
<path d="M667.237 149.674V61.4191H666.877L663.368 149.674H655.46L651.951 61.4191H651.591V149.674H639.282V46.5598H655.64L658.968 129.647H659.954L663.188 46.5598H679.546V149.674H667.237Z" fill="#2D90CF"/>
<path d="M407.953 198.547V189.065C407.953 185.651 410.703 182.901 414.116 182.901C417.53 182.901 420.28 185.651 420.28 189.065V193.806C420.28 194.612 419.664 195.229 418.858 195.229H410.797V198.547C410.797 199.875 411.603 201.108 412.836 201.629C414.069 202.151 415.491 201.866 416.44 200.918C417.009 200.349 417.909 200.349 418.478 200.918C419.047 201.44 419.047 202.341 418.478 202.909C416.724 204.664 414.069 205.185 411.746 204.237C409.422 203.289 407.953 201.06 407.953 198.547ZM410.797 189.065V192.384H417.435V189.065C417.435 187.216 415.965 185.746 414.116 185.746C412.267 185.746 410.797 187.216 410.797 189.065Z" fill="#2D90CF"/>
<path d="M425.97 203.289V184.513C425.97 183.707 426.586 183.091 427.392 183.091H432.133C435.5 183.091 438.297 185.841 438.297 189.255V203.289C438.297 204.095 437.633 204.711 436.875 204.711C436.069 204.711 435.452 204.095 435.452 203.289V189.255C435.452 187.405 433.935 185.936 432.133 185.936H428.815V203.289C428.815 204.095 428.151 204.711 427.392 204.711C426.586 204.711 425.97 204.095 425.97 203.289Z" fill="#2D90CF"/>
<path d="M442.47 184.513C442.47 183.707 443.086 183.091 443.892 183.091H446.263V174.841C446.263 174.035 446.879 173.418 447.685 173.418C448.491 173.418 449.108 174.035 449.108 174.841V183.091H452.426C453.233 183.091 453.849 183.707 453.849 184.513C453.849 185.319 453.233 185.936 452.426 185.936H449.108V198.547C449.108 200.397 450.577 201.866 452.426 201.866C453.233 201.866 453.849 202.483 453.849 203.289C453.849 204.095 453.233 204.711 452.426 204.711C449.013 204.711 446.263 201.961 446.263 198.547V185.936H443.892C443.086 185.936 442.47 185.319 442.47 184.513Z" fill="#2D90CF"/>
<path d="M458.581 203.289V184.513C458.581 183.707 459.197 183.091 460.003 183.091H464.744C465.835 183.091 466.878 183.375 467.826 183.897C468.49 184.324 468.727 185.177 468.348 185.841C467.968 186.552 467.068 186.789 466.404 186.362C465.882 186.078 465.313 185.936 464.744 185.936H461.425V203.289C461.425 204.095 460.809 204.711 460.003 204.711C459.197 204.711 458.581 204.095 458.581 203.289Z" fill="#2D90CF"/>
<path d="M472.198 198.547V189.065C472.198 185.651 474.995 182.901 478.361 182.901C481.728 182.901 484.525 185.651 484.525 189.065V193.806C484.525 194.612 483.909 195.228 483.103 195.228H475.043V198.547C475.043 199.875 475.849 201.108 477.081 201.629C478.361 202.151 479.784 201.866 480.732 200.918C481.254 200.349 482.155 200.349 482.723 200.918C483.292 201.439 483.292 202.34 482.723 202.909C480.969 204.664 478.314 205.185 476.038 204.237C473.715 203.289 472.198 201.06 472.198 198.547ZM481.823 173.892C482.344 174.461 482.297 175.362 481.68 175.884L476.939 180.151C476.37 180.672 475.469 180.625 474.948 180.056C474.426 179.487 474.474 178.586 475.043 178.065L479.784 173.798C480.4 173.276 481.254 173.323 481.823 173.892ZM475.043 189.065V192.384H481.68V189.065C481.68 187.216 480.211 185.746 478.361 185.746C476.512 185.746 475.043 187.216 475.043 189.065Z" fill="#2D90CF"/>
<path d="M489.636 198.547V189.065C489.636 185.651 492.386 182.901 495.8 182.901C499.214 182.901 501.964 185.651 501.964 189.065V193.806C501.964 194.612 501.347 195.229 500.541 195.229H492.481V198.547C492.481 199.875 493.287 201.108 494.52 201.629C495.753 202.151 497.175 201.866 498.123 200.918C498.692 200.349 499.593 200.349 500.162 200.918C500.731 201.44 500.731 202.341 500.162 202.909C498.408 204.664 495.753 205.185 493.429 204.237C491.106 203.289 489.636 201.06 489.636 198.547ZM492.481 189.065V192.384H499.119V189.065C499.119 187.216 497.649 185.746 495.8 185.746C493.951 185.746 492.481 187.216 492.481 189.065Z" fill="#2D90CF"/>
<path d="M516.188 198.358V189.254C516.188 185.841 518.938 183.091 522.352 183.091H525.671V174.841C525.671 174.035 526.287 173.418 527.093 173.418C527.852 173.418 528.515 174.035 528.515 174.841V203.099C528.515 203.905 527.852 204.522 527.093 204.522H522.352C518.938 204.522 516.188 201.772 516.188 198.358ZM519.033 189.254V198.358C519.033 200.207 520.503 201.677 522.352 201.677H525.671V185.936H522.352C520.503 185.936 519.033 187.405 519.033 189.254Z" fill="#2D90CF"/>
<path d="M534.584 198.547V189.065C534.584 185.651 537.334 182.901 540.748 182.901C544.161 182.901 546.911 185.651 546.911 189.065V193.806C546.911 194.612 546.295 195.229 545.489 195.229H537.429V198.547C537.429 199.875 538.235 201.108 539.468 201.629C540.7 202.151 542.123 201.866 543.071 200.918C543.64 200.349 544.541 200.349 545.11 200.918C545.679 201.44 545.679 202.341 545.11 202.909C543.355 204.664 540.7 205.185 538.377 204.237C536.054 203.289 534.584 201.06 534.584 198.547ZM537.429 189.065V192.384H544.067V189.065C544.067 187.216 542.597 185.746 540.748 185.746C538.899 185.746 537.429 187.216 537.429 189.065Z" fill="#2D90CF"/>
<path d="M561.041 197.599V181.479C561.041 178.207 563.221 175.362 566.398 174.509C569.527 173.655 572.846 175.078 574.506 177.875C574.885 178.586 574.648 179.535 573.937 179.961C573.226 180.388 572.277 180.104 571.851 179.392C570.902 177.78 569.006 176.974 567.157 177.448C565.355 177.923 564.075 179.582 564.075 181.479V197.599C564.075 199.496 565.355 201.155 567.157 201.629C569.006 202.103 570.902 201.297 571.851 199.685C572.277 198.974 573.226 198.737 573.937 199.116C574.648 199.543 574.885 200.491 574.506 201.202C572.846 204.047 569.527 205.422 566.398 204.569C563.221 203.715 561.041 200.871 561.041 197.599Z" fill="#2D90CF"/>
<path d="M579.484 177.211C579.484 176.168 580.338 175.315 581.381 175.315C582.424 175.315 583.277 176.168 583.277 177.211C583.277 178.255 582.424 179.108 581.381 179.108C580.338 179.108 579.484 178.255 579.484 177.211ZM581.381 204.711C580.622 204.711 579.959 204.095 579.959 203.289V184.323C579.959 183.517 580.622 182.901 581.381 182.901C582.187 182.901 582.803 183.517 582.803 184.323V203.289C582.803 204.095 582.187 204.711 581.381 204.711Z" fill="#2D90CF"/>
<path d="M589.441 203.289V184.513C589.441 183.707 590.057 183.091 590.863 183.091H595.605C598.971 183.091 601.768 185.841 601.768 189.255V203.289C601.768 204.095 601.105 204.711 600.346 204.711C599.54 204.711 598.924 204.095 598.924 203.289V189.255C598.924 187.405 597.406 185.936 595.605 185.936H592.286V203.289C592.286 204.095 591.622 204.711 590.863 204.711C590.057 204.711 589.441 204.095 589.441 203.289Z" fill="#2D90CF"/>
<path d="M607.458 198.547V189.065C607.458 185.651 610.255 182.901 613.622 182.901C616.988 182.901 619.785 185.651 619.785 189.065V193.806C619.785 194.612 619.169 195.228 618.363 195.228H610.303V198.547C610.303 199.875 611.109 201.108 612.342 201.629C613.622 202.151 615.044 201.866 615.992 200.918C616.514 200.349 617.415 200.349 617.984 200.918C618.553 201.439 618.553 202.34 617.984 202.909C616.229 204.664 613.574 205.185 611.299 204.237C608.975 203.289 607.458 201.06 607.458 198.547ZM617.083 173.892C617.604 174.461 617.557 175.362 616.941 175.884L612.199 180.151C611.63 180.672 610.73 180.625 610.208 180.056C609.686 179.487 609.734 178.586 610.303 178.065L615.044 173.798C615.66 173.276 616.514 173.323 617.083 173.892ZM610.303 189.065V192.384H616.941V189.065C616.941 187.216 615.471 185.746 613.622 185.746C611.773 185.746 610.303 187.216 610.303 189.065Z" fill="#2D90CF"/>
<path d="M628.32 185.936V203.289C628.32 204.095 627.657 204.711 626.898 204.711C626.092 204.711 625.476 204.095 625.476 203.289V184.513C625.476 183.707 626.092 183.091 626.898 183.091H641.122C644.488 183.091 647.286 185.841 647.286 189.255V203.289C647.286 204.095 646.622 204.711 645.863 204.711C645.057 204.711 644.441 204.095 644.441 203.289V189.255C644.441 187.405 642.924 185.936 641.122 185.936H637.803V203.289C637.803 204.095 637.139 204.711 636.381 204.711C635.575 204.711 634.958 204.095 634.958 203.289V185.936H628.32Z" fill="#2D90CF"/>
<path d="M661.13 192.194V188.97C661.13 187.642 660.324 186.504 659.139 185.983C657.906 185.509 656.531 185.746 655.63 186.694C655.061 187.263 654.16 187.263 653.591 186.694C653.022 186.125 653.022 185.224 653.591 184.703C655.346 182.948 657.953 182.427 660.229 183.375C662.505 184.323 663.975 186.504 663.975 188.97V203.099C663.975 203.905 663.311 204.521 662.552 204.521H657.811C654.397 204.521 651.647 201.771 651.647 198.358C651.647 194.944 654.397 192.194 657.811 192.194H661.13ZM657.811 201.677H661.13V195.039H657.811C655.962 195.039 654.492 196.509 654.492 198.358C654.492 200.207 655.962 201.677 657.811 201.677Z" fill="#2D90CF"/>
<path d="M678.768 198.547V189.065C678.768 185.651 681.518 182.901 684.931 182.901C688.345 182.901 691.095 185.651 691.095 189.065V193.806C691.095 194.612 690.479 195.229 689.673 195.229H681.612V198.547C681.612 199.875 682.418 201.108 683.651 201.629C684.884 202.151 686.306 201.866 687.255 200.918C687.824 200.349 688.724 200.349 689.293 200.918C689.862 201.44 689.862 202.341 689.293 202.909C687.539 204.664 684.884 205.185 682.561 204.237C680.237 203.289 678.768 201.06 678.768 198.547ZM681.612 189.065V192.384H688.25V189.065C688.25 187.216 686.78 185.746 684.931 185.746C683.082 185.746 681.612 187.216 681.612 189.065Z" fill="#2D90CF"/>
<path d="M696.784 203.289V184.513C696.784 183.707 697.401 183.091 698.207 183.091H702.948C706.314 183.091 709.112 185.841 709.112 189.255V203.289C709.112 204.095 708.448 204.711 707.689 204.711C706.883 204.711 706.267 204.095 706.267 203.289V189.255C706.267 187.405 704.75 185.936 702.948 185.936H699.629V203.289C699.629 204.095 698.965 204.711 698.207 204.711C697.401 204.711 696.784 204.095 696.784 203.289Z" fill="#2D90CF"/>
<path d="M724.19 177.875C725.138 176.216 726.655 175.03 728.504 174.556C730.353 174.035 732.25 174.272 733.909 175.172C735.569 176.073 736.802 177.591 737.323 179.392C737.892 181.241 737.703 183.138 736.802 184.845C736.802 184.845 729.832 198.12 728.03 201.582H736.138C736.944 201.582 737.655 202.245 737.655 203.099C737.655 203.952 736.944 204.616 736.138 204.616H725.517C724.996 204.616 724.474 204.332 724.237 203.905C723.953 203.431 723.905 202.862 724.19 202.388L734.147 183.422C734.668 182.427 734.763 181.336 734.431 180.293C734.099 179.25 733.435 178.349 732.44 177.828C731.491 177.306 730.401 177.164 729.31 177.448C728.267 177.78 727.366 178.444 726.845 179.392C726.418 180.103 725.47 180.388 724.759 179.961C724.047 179.534 723.763 178.586 724.19 177.875Z" fill="#2D90CF"/>
<path d="M743.534 197.599V181.479C743.534 177.496 746.758 174.272 750.741 174.272C754.724 174.272 757.948 177.496 757.948 181.479V197.599C757.948 201.582 754.676 204.806 750.741 204.806C746.806 204.806 743.534 201.582 743.534 197.599ZM746.569 181.479V197.599C746.569 199.922 748.418 201.771 750.741 201.771C753.064 201.771 754.913 199.922 754.913 197.599V181.479C754.913 179.203 753.017 177.306 750.741 177.306C748.465 177.306 746.569 179.203 746.569 181.479Z" fill="#2D90CF"/>
<path d="M763.637 177.875C764.585 176.216 766.102 175.03 767.952 174.556C769.801 174.035 771.697 174.272 773.357 175.172C775.016 176.073 776.249 177.591 776.77 179.392C777.339 181.241 777.15 183.138 776.249 184.845C776.249 184.845 769.279 198.12 767.477 201.582H775.585C776.391 201.582 777.102 202.245 777.102 203.099C777.102 203.952 776.391 204.616 775.585 204.616H764.965C764.443 204.616 763.921 204.332 763.684 203.905C763.4 203.431 763.353 202.862 763.637 202.388L773.594 183.422C774.115 182.427 774.21 181.336 773.878 180.293C773.546 179.25 772.883 178.349 771.887 177.828C770.939 177.306 769.848 177.164 768.758 177.448C767.715 177.78 766.814 178.444 766.292 179.392C765.865 180.103 764.917 180.388 764.206 179.961C763.495 179.534 763.21 178.586 763.637 177.875Z" fill="#2D90CF"/>
<path d="M783.361 177.875C784.309 176.216 785.826 175.03 787.675 174.556C789.524 174.035 791.421 174.272 793.08 175.172C794.74 176.073 795.973 177.591 796.494 179.392C797.063 181.241 796.873 183.138 795.973 184.845C795.973 184.845 789.003 198.12 787.201 201.582H795.309C796.115 201.582 796.826 202.245 796.826 203.099C796.826 203.952 796.115 204.616 795.309 204.616H784.688C784.167 204.616 783.645 204.332 783.408 203.905C783.124 203.431 783.076 202.862 783.361 202.388L793.317 183.422C793.839 182.427 793.934 181.336 793.602 180.293C793.27 179.25 792.606 178.349 791.611 177.828C790.662 177.306 789.572 177.164 788.481 177.448C787.438 177.78 786.537 178.444 786.016 179.392C785.589 180.103 784.641 180.388 783.93 179.961C783.218 179.534 782.934 178.586 783.361 177.875Z" fill="#2D90CF"/>
<path d="M426.254 224.34C427.202 222.68 428.72 221.495 430.569 221.021C432.418 220.499 434.314 220.736 435.974 221.637C437.633 222.538 438.866 224.055 439.388 225.857C439.957 227.706 439.767 229.603 438.866 231.31C438.866 231.31 431.896 244.585 430.095 248.046H438.202C439.008 248.046 439.72 248.71 439.72 249.564C439.72 250.417 439.008 251.081 438.202 251.081H427.582C427.06 251.081 426.539 250.796 426.302 250.37C426.017 249.896 425.97 249.327 426.254 248.852L436.211 229.887C436.733 228.892 436.827 227.801 436.495 226.758C436.164 225.715 435.5 224.814 434.504 224.292C433.556 223.771 432.465 223.629 431.375 223.913C430.332 224.245 429.431 224.909 428.909 225.857C428.483 226.568 427.534 226.853 426.823 226.426C426.112 225.999 425.827 225.051 426.254 224.34Z" fill="#2D90CF"/>
<path d="M453.27 230.978C453.27 230.172 453.886 229.556 454.692 229.556H457.063V226.047C457.063 222.633 459.813 219.883 463.227 219.883C464.033 219.883 464.649 220.5 464.649 221.306C464.649 222.112 464.033 222.728 463.227 222.728C461.378 222.728 459.908 224.198 459.908 226.047V229.556H463.227C464.033 229.556 464.649 230.172 464.649 230.978C464.649 231.784 464.033 232.4 463.227 232.4H459.908V249.754C459.908 250.56 459.291 251.176 458.485 251.176C457.679 251.176 457.063 250.56 457.063 249.754V232.4H454.692C453.886 232.4 453.27 231.784 453.27 230.978Z" fill="#2D90CF"/>
<path d="M468.822 245.012V235.53C468.822 232.116 471.572 229.366 474.986 229.366C478.4 229.366 481.15 232.116 481.15 235.53V245.012C481.15 248.426 478.352 251.176 474.986 251.176C471.62 251.176 468.822 248.426 468.822 245.012ZM471.667 235.53V245.012C471.667 246.861 473.137 248.331 474.986 248.331C476.835 248.331 478.305 246.861 478.305 245.012V235.53C478.305 233.681 476.788 232.211 474.986 232.211C473.184 232.211 471.667 233.681 471.667 235.53Z" fill="#2D90CF"/>
<path d="M486.744 223.676C486.744 222.633 487.598 221.78 488.641 221.78C489.684 221.78 490.537 222.633 490.537 223.676C490.537 224.719 489.684 225.573 488.641 225.573C487.598 225.573 486.744 224.719 486.744 223.676ZM488.641 251.176C487.882 251.176 487.218 250.56 487.218 249.754V230.788C487.218 229.982 487.882 229.366 488.641 229.366C489.447 229.366 490.063 229.982 490.063 230.788V249.754C490.063 250.56 489.447 251.176 488.641 251.176Z" fill="#2D90CF"/>
<path d="M503.908 245.107C503.86 244.159 503.386 243.353 502.628 242.831L498.218 239.702C496.796 238.706 495.942 237.142 495.8 235.435C495.705 233.681 496.369 232.021 497.649 230.883C498.929 229.698 500.636 229.176 502.343 229.413C504.05 229.698 505.567 230.694 506.421 232.211C506.8 232.875 506.563 233.775 505.899 234.155C505.235 234.534 504.335 234.297 503.955 233.633C503.529 232.875 502.77 232.4 501.916 232.258C501.063 232.116 500.21 232.353 499.546 232.969C498.929 233.538 498.598 234.392 498.645 235.245C498.692 236.099 499.167 236.905 499.878 237.379L504.287 240.461C505.757 241.504 506.658 243.116 506.753 244.917C506.895 246.719 506.184 248.426 504.856 249.611C503.529 250.844 501.774 251.366 500.02 251.129C498.218 250.844 496.701 249.801 495.8 248.236C495.421 247.573 495.658 246.672 496.322 246.292C496.986 245.913 497.886 246.15 498.266 246.814C498.74 247.62 499.498 248.142 500.447 248.284C501.348 248.426 502.248 248.142 502.96 247.525C503.623 246.909 504.003 246.008 503.908 245.107Z" fill="#2D90CF"/>
<path d="M521.403 259.236V230.978C521.403 230.172 522.019 229.556 522.825 229.556H527.567C530.933 229.556 533.73 232.306 533.73 235.719V244.823C533.73 248.236 530.933 250.986 527.567 250.986H524.248V259.236C524.248 260.042 523.584 260.659 522.825 260.659C522.019 260.659 521.403 260.042 521.403 259.236ZM527.567 232.4H524.248V248.142H527.567C529.368 248.142 530.885 246.672 530.885 244.823V235.719C530.885 233.87 529.368 232.4 527.567 232.4Z" fill="#2D90CF"/>
<path d="M539.657 246.482V221.306C539.657 220.5 540.321 219.883 541.08 219.883C541.886 219.883 542.502 220.5 542.502 221.306V246.482C542.502 247.336 542.976 248.094 543.687 248.521C544.399 248.9 544.636 249.801 544.209 250.465C543.83 251.129 542.976 251.366 542.265 250.986C540.7 250.038 539.657 248.331 539.657 246.482Z" fill="#2D90CF"/>
<path d="M548.903 244.823V230.788C548.903 229.982 549.519 229.366 550.325 229.366C551.131 229.366 551.748 229.982 551.748 230.788V244.823C551.748 246.672 553.217 248.142 555.067 248.142H558.385V230.788C558.385 229.982 559.002 229.366 559.808 229.366C560.614 229.366 561.23 229.982 561.23 230.788V249.564C561.23 250.37 560.614 250.986 559.808 250.986H555.067C551.653 250.986 548.903 248.236 548.903 244.823Z" fill="#2D90CF"/>
<path d="M575.075 245.107C575.028 244.159 574.554 243.353 573.795 242.831L569.386 239.702C567.963 238.706 567.11 237.142 566.968 235.435C566.873 233.681 567.537 232.021 568.817 230.883C570.097 229.698 571.804 229.176 573.511 229.413C575.218 229.698 576.735 230.694 577.588 232.211C577.967 232.875 577.73 233.775 577.067 234.155C576.403 234.534 575.502 234.297 575.123 233.633C574.696 232.875 573.937 232.4 573.084 232.258C572.23 232.116 571.377 232.353 570.713 232.969C570.097 233.538 569.765 234.392 569.812 235.245C569.86 236.099 570.334 236.905 571.045 237.379L575.455 240.461C576.924 241.504 577.825 243.116 577.92 244.917C578.062 246.719 577.351 248.426 576.024 249.611C574.696 250.844 572.942 251.366 571.187 251.129C569.386 250.844 567.868 249.801 566.968 248.236C566.588 247.573 566.825 246.672 567.489 246.292C568.153 245.913 569.054 246.15 569.433 246.814C569.907 247.62 570.666 248.142 571.614 248.284C572.515 248.426 573.416 248.142 574.127 247.525C574.791 246.909 575.17 246.008 575.075 245.107Z" fill="#2D90CF"/>
<path d="M592.001 244.823V235.719C592.001 232.306 594.751 229.556 598.165 229.556H602.906C603.665 229.556 604.328 230.172 604.328 230.978V259.236C604.328 260.042 603.665 260.659 602.906 260.659C602.1 260.659 601.484 260.042 601.484 259.236V250.986H598.165C594.751 250.986 592.001 248.236 592.001 244.823ZM594.846 235.719V244.823C594.846 246.672 596.316 248.142 598.165 248.142H601.484V232.4H598.165C596.316 232.4 594.846 233.87 594.846 235.719Z" fill="#2D90CF"/>
<path d="M610.588 244.823V230.788C610.588 229.982 611.204 229.366 612.01 229.366C612.816 229.366 613.433 229.982 613.433 230.788V244.823C613.433 246.672 614.902 248.142 616.752 248.142H620.071V230.788C620.071 229.982 620.687 229.366 621.493 229.366C622.299 229.366 622.915 229.982 622.915 230.788V249.564C622.915 250.37 622.299 250.986 621.493 250.986H616.752C613.338 250.986 610.588 248.236 610.588 244.823Z" fill="#2D90CF"/>
<path d="M628.983 245.012V235.53C628.983 232.116 631.733 229.366 635.147 229.366C638.561 229.366 641.311 232.116 641.311 235.53V240.271C641.311 241.077 640.694 241.693 639.888 241.693H631.828V245.012C631.828 246.34 632.634 247.573 633.867 248.094C635.1 248.616 636.522 248.331 637.47 247.383C638.039 246.814 638.94 246.814 639.509 247.383C640.078 247.905 640.078 248.805 639.509 249.374C637.755 251.129 635.1 251.65 632.776 250.702C630.453 249.754 628.983 247.525 628.983 245.012ZM631.828 235.53V238.849H638.466V235.53C638.466 233.681 636.996 232.211 635.147 232.211C633.298 232.211 631.828 233.681 631.828 235.53Z" fill="#2D90CF"/>
<path d="M655.535 245.012V235.53C655.535 232.116 658.285 229.366 661.699 229.366C665.113 229.366 667.863 232.116 667.863 235.53V240.271C667.863 241.077 667.246 241.693 666.44 241.693H658.38V245.012C658.38 246.34 659.186 247.573 660.419 248.094C661.651 248.616 663.074 248.331 664.022 247.383C664.591 246.814 665.492 246.814 666.061 247.383C666.63 247.905 666.63 248.805 666.061 249.374C664.307 251.129 661.651 251.65 659.328 250.702C657.005 249.754 655.535 247.525 655.535 245.012ZM658.38 235.53V238.849H665.018V235.53C665.018 233.681 663.548 232.211 661.699 232.211C659.85 232.211 658.38 233.681 658.38 235.53Z" fill="#2D90CF"/>
<path d="M673.552 249.754V230.978C673.552 230.172 674.168 229.556 674.974 229.556H679.715C683.082 229.556 685.879 232.306 685.879 235.719V249.754C685.879 250.56 685.215 251.176 684.457 251.176C683.651 251.176 683.034 250.56 683.034 249.754V235.719C683.034 233.87 681.517 232.4 679.715 232.4H676.397V249.754C676.397 250.56 675.733 251.176 674.974 251.176C674.168 251.176 673.552 250.56 673.552 249.754Z" fill="#2D90CF"/>
<path d="M700.956 224.34C701.905 222.68 703.422 221.495 705.271 221.021C707.12 220.499 709.017 220.736 710.676 221.637C712.336 222.538 713.568 224.055 714.09 225.857C714.659 227.706 714.469 229.603 713.568 231.31C713.568 231.31 706.599 244.585 704.797 248.046H712.904C713.71 248.046 714.422 248.71 714.422 249.564C714.422 250.417 713.71 251.081 712.904 251.081H702.284C701.762 251.081 701.241 250.796 701.004 250.37C700.719 249.896 700.672 249.327 700.956 248.852L710.913 229.887C711.435 228.892 711.529 227.801 711.198 226.758C710.866 225.715 710.202 224.814 709.206 224.292C708.258 223.771 707.167 223.629 706.077 223.913C705.034 224.245 704.133 224.909 703.611 225.857C703.185 226.568 702.236 226.853 701.525 226.426C700.814 225.999 700.53 225.051 700.956 224.34Z" fill="#2D90CF"/>
<path d="M720.301 244.064V227.943C720.301 223.961 723.525 220.737 727.508 220.737C731.49 220.737 734.714 223.961 734.714 227.943V244.064C734.714 248.047 731.443 251.271 727.508 251.271C723.572 251.271 720.301 248.047 720.301 244.064ZM723.335 227.943V244.064C723.335 246.387 725.184 248.236 727.508 248.236C729.831 248.236 731.68 246.387 731.68 244.064V227.943C731.68 225.668 729.783 223.771 727.508 223.771C725.232 223.771 723.335 225.668 723.335 227.943Z" fill="#2D90CF"/>
<path d="M740.405 224.34C741.353 222.68 742.87 221.495 744.719 221.021C746.568 220.499 748.465 220.736 750.124 221.637C751.784 222.538 753.017 224.055 753.538 225.857C754.107 227.706 753.917 229.603 753.016 231.31C753.016 231.31 746.047 244.585 744.245 248.046H752.353C753.159 248.046 753.87 248.71 753.87 249.564C753.87 250.417 753.159 251.081 752.353 251.081H741.732C741.211 251.081 740.689 250.796 740.452 250.37C740.168 249.896 740.12 249.327 740.405 248.852L750.361 229.887C750.883 228.892 750.978 227.801 750.646 226.758C750.314 225.715 749.65 224.814 748.654 224.292C747.706 223.771 746.616 223.629 745.525 223.913C744.482 224.245 743.581 224.909 743.06 225.857C742.633 226.568 741.685 226.853 740.974 226.426C740.262 225.999 739.978 225.051 740.405 224.34Z" fill="#2D90CF"/>
<path d="M759.749 244.064V227.943C759.749 223.961 762.973 220.737 766.956 220.737C770.939 220.737 774.163 223.961 774.163 227.943V244.064C774.163 248.047 770.891 251.271 766.956 251.271C763.021 251.271 759.749 248.047 759.749 244.064ZM762.783 227.943V244.064C762.783 246.387 764.633 248.236 766.956 248.236C769.279 248.236 771.128 246.387 771.128 244.064V227.943C771.128 225.668 769.232 223.771 766.956 223.771C764.68 223.771 762.783 225.668 762.783 227.943Z" fill="#2D90CF"/>
<path d="M825.938 290.226H353.702V302.771H825.938V290.226Z" fill="black"/>
<path d="M1462.59 31.2927H997.203V286.802H1462.59V31.2927Z" fill="#EFEFEF" stroke="black" stroke-width="5.68958" stroke-miterlimit="10"/>
<path d="M1466.02 290.226H993.78V302.771H1466.02V290.226Z" fill="black"/>
<path d="M1147.63 93.3471V93.6316C1148.71 93.8497 1150.68 94.4187 1151.94 95.9264C1152.84 97.0738 1153.02 98.1548 1153.02 98.866V99.2927L1153.11 139.831C1153.11 141.263 1152.75 142.704 1152.03 143.994C1151.67 144.715 1151.13 145.426 1150.59 146.071C1150.14 146.573 1149.68 147 1149.14 147.436C1147.88 148.441 1146.45 149.228 1144.83 149.731C1143.84 150.091 1143.03 150.233 1142.58 150.376C1142.22 150.452 1141.24 150.594 1139.79 150.594C1138.89 150.594 1137.82 150.518 1136.65 150.309C1135.56 150.091 1134.85 149.883 1134.4 149.731C1132.78 149.152 1131.35 148.441 1130.18 147.436C1128.92 146.431 1127.93 145.284 1127.31 143.994C1126.58 142.704 1126.22 141.263 1126.22 139.831V100.222H1138.53V139.831C1138.53 140.334 1138.98 140.76 1139.61 140.76C1140.06 140.76 1140.33 140.618 1140.6 140.4C1140.69 140.258 1140.78 140.04 1140.78 139.897C1140.78 137.963 1140.87 99.2833 1140.78 98.8565C1140.6 97.8514 1139.97 97.6333 1139.97 97.6333C1139.89 97.6333 1139.79 97.5574 1139.71 97.5574H1132.52V88.5205H1140.07C1140.25 88.4446 1140.43 88.3024 1140.61 88.1601C1140.79 87.942 1140.79 87.7334 1140.79 87.6575V55.8717C1140.79 55.5114 1140.51 55.2269 1140.07 55.0847C1139.98 55.0088 1139.8 55.0088 1139.62 55.0088C1139 55.0088 1138.54 55.4355 1138.54 55.9381V86.3584H1126.23V55.9381C1126.23 54.5062 1126.59 53.0649 1127.32 51.7752C1127.94 50.4856 1128.94 49.3382 1130.19 48.333C1131.35 47.3279 1132.8 46.6072 1134.41 46.0382C1134.85 45.896 1135.67 45.6779 1136.66 45.4598C1136.66 45.4598 1138 45.2417 1139.8 45.2417C1140.61 45.2417 1141.6 45.3176 1142.59 45.4598C1144.84 45.8201 1146.45 46.6072 1147.09 46.9675C1148.07 47.4701 1148.71 47.9727 1149.15 48.333C1150.41 49.3382 1151.31 50.4856 1152.03 51.7752C1152.75 53.0649 1153.11 54.5062 1153.11 55.9381L1153.02 87.6575C1153.02 88.1601 1152.93 89.8101 1151.5 91.3178C1150.23 92.5411 1148.62 93.1101 1147.64 93.3282L1147.63 93.3471Z" fill="#2D90CF"/>
<path d="M1186.73 55.9664V139.85C1186.73 140.21 1186.73 141.139 1186.46 142.221C1186.28 142.865 1186.01 143.444 1185.74 144.013C1185.02 145.302 1184.03 146.45 1182.86 147.455C1181.6 148.46 1180.17 149.181 1178.55 149.75C1176.93 150.319 1175.14 150.613 1173.33 150.613C1171.53 150.613 1169.74 150.328 1168.12 149.75C1166.5 149.171 1165.07 148.46 1163.8 147.455C1162.64 146.45 1161.65 145.302 1160.93 144.013C1160.31 142.723 1159.94 141.282 1159.94 139.85V109.714H1172.17V139.85C1172.17 140.352 1172.71 140.779 1173.33 140.779C1173.96 140.779 1174.5 140.352 1174.5 139.85V101.464H1173.78V102.251C1173.15 104.83 1171.17 106.841 1168.66 107.343C1168.21 107.419 1167.67 107.486 1167.31 107.486C1166.23 107.486 1165.43 107.268 1165.16 107.201C1161.93 106.13 1159.86 102.678 1159.86 98.4487V55.9664C1159.86 55.6061 1159.86 54.7432 1160.22 53.5958C1160.4 53.0173 1160.58 52.3725 1160.94 51.8036C1161.57 50.5139 1162.56 49.3665 1163.81 48.4277C1165.07 47.4226 1166.51 46.6355 1168.03 46.1329C1169.74 45.5545 1171.45 45.27 1173.33 45.27C1175.22 45.27 1176.84 45.5545 1178.55 46.1329C1180.08 46.6355 1181.52 47.4226 1182.77 48.4277C1184.03 49.357 1185.02 50.5044 1185.64 51.8036C1186.36 53.1691 1186.72 54.5346 1186.72 55.9664H1186.73ZM1174.42 55.8906C1174.42 55.4639 1173.88 55.0277 1173.34 55.0277H1173.16C1172.62 55.0277 1172.18 55.388 1172.18 55.8906V97.2918C1172.27 97.7185 1172.8 98.0125 1173.34 98.0125C1173.79 98.0125 1174.24 97.728 1174.33 97.3676L1174.42 55.8906H1174.42Z" fill="#2D90CF"/>
<path d="M1214.88 93.7737V94.0581C1216.04 94.2762 1217.93 94.8452 1219.19 96.4288C1220.36 97.7943 1220.36 99.2262 1220.36 99.8046V139.84C1220.36 141.272 1220 142.714 1219.28 144.003C1218.92 144.724 1218.47 145.435 1217.93 146.08C1217.48 146.582 1216.94 147.009 1216.4 147.445C1215.14 148.451 1213.71 149.238 1212.18 149.74C1211.1 150.101 1210.3 150.243 1209.85 150.385C1209.49 150.461 1208.5 150.603 1207.06 150.603C1206.16 150.603 1205.09 150.527 1203.92 150.319C1202.93 150.101 1202.12 149.892 1201.76 149.74C1200.14 149.162 1198.71 148.451 1197.45 147.445C1196.19 146.44 1195.3 145.293 1194.57 144.003C1193.85 142.714 1193.49 141.272 1193.49 139.84V99.8046C1193.49 99.2262 1193.49 97.7943 1194.66 96.4288C1196.01 94.7788 1198.07 94.2004 1199.24 94.0581V93.84C1198.16 93.6219 1196.45 93.1193 1195.11 91.7633C1193.58 90.2556 1193.48 88.6815 1193.48 88.103L1193.66 55.9569C1193.66 54.525 1194.02 53.0836 1194.65 51.794C1195.37 50.5044 1196.36 49.357 1197.52 48.3518C1198.79 47.3467 1200.22 46.626 1201.84 46.057C1202.28 45.9148 1203.1 45.6967 1203.99 45.4786C1203.99 45.4786 1205.34 45.1941 1207.14 45.1941C1208.04 45.1941 1209.03 45.27 1210.01 45.4786C1211.09 45.6967 1212.17 46.057 1212.26 46.057C1212.44 46.1329 1212.62 46.1993 1212.89 46.2751C1214.23 46.7777 1215.49 47.4984 1216.57 48.3518C1217.74 49.357 1218.73 50.5044 1219.45 51.794C1220.07 53.0836 1220.43 54.525 1220.43 55.9569L1220.34 88.103C1220.34 88.6815 1220.25 90.2556 1218.72 91.7633C1217.46 93.053 1215.84 93.5555 1214.86 93.7737H1214.88ZM1208.14 99.302C1208.05 98.7994 1207.77 98.2969 1207.23 98.0788C1207.23 98.0788 1207.05 98.0788 1206.97 98.0029H1206.88C1206.7 98.0788 1206.62 98.0788 1206.52 98.0788C1206.08 98.2969 1205.72 98.7994 1205.72 99.302C1205.72 99.6624 1205.72 99.9468 1205.81 139.84C1205.81 140.343 1206.35 140.77 1206.98 140.77C1207.34 140.77 1207.7 140.627 1207.88 140.409C1207.96 140.267 1208.06 140.049 1208.06 139.907L1208.14 99.2925L1208.14 99.302ZM1208.14 55.8905C1208.14 55.5302 1207.87 55.2457 1207.51 55.1034C1207.33 55.0276 1207.24 55.0276 1207.06 55.0276C1206.44 55.0276 1205.9 55.4543 1205.9 55.9569L1205.81 88.103C1205.81 88.5298 1206.08 88.8237 1206.44 88.966H1207.42C1207.6 88.8901 1207.78 88.7479 1207.87 88.6056C1208.05 88.3875 1208.05 88.2453 1208.05 88.103L1208.14 55.881V55.8905Z" fill="#2D90CF"/>
<path d="M1227.21 138.124H1239.51V149.608C1238.07 152.689 1236.73 155.705 1235.29 158.796H1227.21L1231.42 149.608H1227.21V138.124Z" fill="#2D90CF"/>
<path d="M1273.14 97.3676V139.85C1273.14 140.21 1273.14 141.139 1272.87 142.221C1272.69 142.865 1272.43 143.444 1272.07 144.013C1271.44 145.302 1270.45 146.45 1269.19 147.455C1268.03 148.46 1266.59 149.181 1264.98 149.75C1263.27 150.328 1261.56 150.613 1259.76 150.613C1257.96 150.613 1256.17 150.328 1254.54 149.75C1252.92 149.171 1251.49 148.46 1250.23 147.455C1248.97 146.45 1248.08 145.302 1247.36 144.013C1246.64 142.723 1246.28 141.282 1246.28 139.85V55.9664C1246.28 55.682 1246.28 54.7432 1246.64 53.5958C1246.82 53.0173 1247 52.3725 1247.36 51.8036C1247.98 50.5139 1248.98 49.3665 1250.23 48.4277C1251.4 47.4226 1252.84 46.6355 1254.45 46.1329C1256.16 45.5545 1257.86 45.27 1259.66 45.27C1261.55 45.27 1263.26 45.5545 1264.97 46.1329C1266.49 46.6355 1267.93 47.4226 1269.19 48.4277C1270.45 49.357 1271.34 50.5044 1272.06 51.8036C1272.78 53.1691 1273.14 54.5346 1273.14 55.9664V86.1781H1260.83V55.9664C1260.83 55.4639 1260.29 55.1035 1259.66 55.1035C1259.04 55.1035 1258.58 55.4639 1258.58 55.9664V94.3522H1259.21V93.6315C1259.93 90.9763 1261.82 89.0419 1264.43 88.4634C1264.87 88.3876 1265.33 88.3212 1265.77 88.3212C1266.85 88.3212 1267.66 88.6057 1267.92 88.6815C1271.07 89.6867 1273.14 93.1289 1273.14 97.3676ZM1260.92 98.5814C1260.74 98.1547 1260.29 97.7944 1259.75 97.7944C1259.21 97.8702 1258.85 98.0788 1258.67 98.515L1258.58 139.992C1258.67 140.495 1259.21 140.855 1259.84 140.855C1260.39 140.779 1260.83 140.428 1260.93 139.992V98.5909L1260.92 98.5814Z" fill="#2D90CF"/>
<path d="M1307.84 149.674V61.4189H1307.48L1303.97 149.674H1296.06L1292.55 61.4189H1292.19V149.674H1279.88V46.5596H1296.24L1299.57 129.646H1300.55L1303.79 46.5596H1320.14V149.674H1307.84Z" fill="#2D90CF"/>
<path d="M1342.18 57.2559V89.6866H1350.63V97.3675H1342.18V98.7994H1350.63V106.48H1342.18V138.987C1342.28 139.129 1342.28 139.414 1342.54 139.632C1342.81 139.85 1343.17 139.85 1343.35 139.85H1357.54V149.683H1343.35C1342.18 149.683 1341.1 149.541 1340.38 149.465C1340.11 149.389 1339.21 149.247 1338.13 148.82C1336.51 148.318 1335.08 147.531 1333.91 146.592C1332.65 145.587 1331.67 144.439 1331.04 143.15C1330.59 142.429 1330.41 141.784 1330.23 141.357C1329.96 140.21 1329.96 139.347 1329.96 138.987V106.48H1326.91V98.7994H1329.96V97.3675H1326.91V89.6866H1329.96V57.2559C1329.96 56.8956 1329.96 55.9663 1330.23 54.8853C1330.41 54.4586 1330.59 53.8138 1331.04 53.0172C1331.67 51.7939 1332.66 50.6465 1333.91 49.6414C1335.08 48.6362 1336.52 47.9155 1338.13 47.3466C1339.21 46.9863 1340.11 46.844 1340.38 46.7681C1341.01 46.6259 1341.82 46.55 1342.71 46.55H1357.53V56.3077H1343.34C1342.71 56.3077 1342.26 56.7344 1342.17 57.237L1342.18 57.2559Z" fill="#2D90CF"/>
<path d="M1058.88 191.549L1063.07 202.843C1063.34 203.573 1062.98 204.436 1062.21 204.711C1061.48 204.986 1060.61 204.616 1060.34 203.848L1055.97 192.061H1052.23V203.346C1052.23 204.161 1051.6 204.806 1050.77 204.806C1049.99 204.806 1049.31 204.171 1049.31 203.346V177.126C1049.31 176.311 1049.99 175.666 1050.77 175.666H1056.23C1060.05 175.666 1063.16 178.757 1063.16 182.588V185.139C1063.16 188.05 1061.38 190.506 1058.88 191.559V191.549ZM1060.24 185.129V182.579C1060.24 180.398 1058.47 178.577 1056.24 178.577H1052.24V189.141H1056.24C1058.47 189.141 1060.24 187.367 1060.24 185.139V185.129Z" fill="#2D90CF"/>
<path d="M1067.8 198.784V189.681C1067.8 186.4 1070.44 183.764 1073.72 183.764C1077 183.764 1079.64 186.4 1079.64 189.681V194.233C1079.64 195.01 1079.05 195.598 1078.27 195.598H1070.53V198.784C1070.53 200.055 1071.31 201.24 1072.49 201.743C1073.67 202.246 1075.04 201.971 1075.95 201.06C1076.5 200.51 1077.36 200.51 1077.9 201.06C1078.45 201.563 1078.45 202.426 1077.9 202.976C1076.21 204.664 1073.67 205.157 1071.43 204.246C1069.2 203.336 1067.79 201.193 1067.79 198.784H1067.8ZM1070.53 189.681V192.867H1076.9V189.681C1076.9 187.908 1075.49 186.495 1073.72 186.495C1071.95 186.495 1070.53 187.908 1070.53 189.681Z" fill="#2D90CF"/>
<path d="M1084.55 198.784V189.681C1084.55 187.273 1085.96 185.129 1088.19 184.219C1090.42 183.309 1092.92 183.811 1094.66 185.49C1095.16 186.04 1095.16 186.903 1094.66 187.443C1094.11 187.946 1093.24 187.946 1092.7 187.443C1091.79 186.486 1090.43 186.258 1089.24 186.713C1088.06 187.216 1087.29 188.401 1087.29 189.672V198.775C1087.29 200.046 1088.07 201.231 1089.24 201.734C1090.43 202.236 1091.79 201.961 1092.7 201.051C1093.25 200.501 1094.12 200.501 1094.66 201.051C1095.16 201.553 1095.16 202.416 1094.66 202.966C1092.93 204.654 1090.43 205.147 1088.19 204.237C1085.96 203.327 1084.55 201.184 1084.55 198.775V198.784Z" fill="#2D90CF"/>
<path d="M1099.47 198.784V189.681C1099.47 186.4 1102.11 183.764 1105.39 183.764C1108.67 183.764 1111.31 186.4 1111.31 189.681V194.233C1111.31 195.01 1110.72 195.598 1109.94 195.598H1102.21V198.784C1102.21 200.055 1102.98 201.24 1104.16 201.743C1105.34 202.246 1106.71 201.971 1107.62 201.06C1108.17 200.51 1109.03 200.51 1109.57 201.06C1110.12 201.563 1110.12 202.426 1109.57 202.976C1107.89 204.664 1105.34 205.157 1103.11 204.246C1100.88 203.336 1099.46 201.193 1099.46 198.784H1099.47ZM1102.21 189.681V192.867H1108.58V189.681C1108.58 187.908 1107.16 186.495 1105.39 186.495C1103.62 186.495 1102.21 187.908 1102.21 189.681Z" fill="#2D90CF"/>
<path d="M1114.77 185.31C1114.77 184.532 1115.36 183.944 1116.14 183.944H1118.41V176.026C1118.41 175.249 1119 174.661 1119.78 174.661C1120.55 174.661 1121.14 175.249 1121.14 176.026V183.944H1124.33C1125.11 183.944 1125.69 184.532 1125.69 185.31C1125.69 186.087 1125.11 186.675 1124.33 186.675H1121.14V198.784C1121.14 200.558 1122.55 201.971 1124.33 201.971C1125.11 201.971 1125.69 202.559 1125.69 203.336C1125.69 204.114 1125.11 204.702 1124.33 204.702C1121.05 204.702 1118.41 202.065 1118.41 198.784V186.675H1116.14C1115.36 186.675 1114.77 186.087 1114.77 185.31Z" fill="#2D90CF"/>
<path d="M1128.24 185.31C1128.24 184.532 1128.83 183.944 1129.61 183.944H1131.89V176.026C1131.89 175.249 1132.47 174.661 1133.25 174.661C1134.03 174.661 1134.62 175.249 1134.62 176.026V183.944H1137.8C1138.58 183.944 1139.17 184.532 1139.17 185.31C1139.17 186.087 1138.58 186.675 1137.8 186.675H1134.62V198.784C1134.62 200.558 1136.03 201.971 1137.8 201.971C1138.58 201.971 1139.17 202.559 1139.17 203.336C1139.17 204.114 1138.58 204.702 1137.8 204.702C1134.52 204.702 1131.89 202.065 1131.89 198.784V186.675H1129.61C1128.83 186.675 1128.24 186.087 1128.24 185.31Z" fill="#2D90CF"/>
<path d="M1143.17 198.784V189.681C1143.17 186.4 1145.81 183.764 1149.09 183.764C1152.37 183.764 1155 186.4 1155 189.681V194.233C1155 195.01 1154.42 195.598 1153.64 195.598H1145.9V198.784C1145.9 200.055 1146.68 201.24 1147.85 201.743C1149.04 202.246 1150.4 201.971 1151.32 201.06C1151.87 200.51 1152.73 200.51 1153.27 201.06C1153.82 201.563 1153.82 202.426 1153.27 202.976C1151.58 204.664 1149.04 205.157 1146.8 204.246C1144.57 203.336 1143.16 201.193 1143.16 198.784H1143.17ZM1145.9 189.681V192.867H1152.27V189.681C1152.27 187.908 1150.86 186.495 1149.09 186.495C1147.31 186.495 1145.9 187.908 1145.9 189.681Z" fill="#2D90CF"/>
<path d="M1168.66 198.604V189.861C1168.66 186.58 1171.3 183.944 1174.58 183.944H1177.76V176.026C1177.76 175.249 1178.35 174.661 1179.13 174.661C1179.86 174.661 1180.49 175.249 1180.49 176.026V203.156C1180.49 203.934 1179.86 204.521 1179.13 204.521H1174.58C1171.3 204.521 1168.66 201.885 1168.66 198.604ZM1171.39 189.861V198.604C1171.39 200.378 1172.8 201.79 1174.58 201.79H1177.76V186.675H1174.58C1172.8 186.675 1171.39 188.088 1171.39 189.861Z" fill="#2D90CF"/>
<path d="M1186.32 198.784V189.681C1186.32 186.4 1188.96 183.764 1192.24 183.764C1195.52 183.764 1198.16 186.4 1198.16 189.681V194.233C1198.16 195.01 1197.57 195.598 1196.79 195.598H1189.06V198.784C1189.06 200.055 1189.83 201.24 1191.01 201.743C1192.19 202.246 1193.56 201.971 1194.47 201.06C1195.02 200.51 1195.88 200.51 1196.42 201.06C1196.97 201.563 1196.97 202.426 1196.42 202.976C1194.74 204.664 1192.19 205.157 1189.96 204.246C1187.73 203.336 1186.32 201.193 1186.32 198.784H1186.32ZM1189.06 189.681V192.867H1195.43V189.681C1195.43 187.908 1194.02 186.495 1192.24 186.495C1190.47 186.495 1189.06 187.908 1189.06 189.681Z" fill="#2D90CF"/>
<path d="M1211.72 197.874V182.398C1211.72 179.26 1213.82 176.529 1216.86 175.704C1219.87 174.888 1223.05 176.254 1224.64 178.937C1225 179.62 1224.78 180.53 1224.09 180.938C1223.41 181.346 1222.5 181.071 1222.09 180.388C1221.18 178.842 1219.36 178.065 1217.59 178.52C1215.86 178.975 1214.63 180.568 1214.63 182.389V197.865C1214.63 199.685 1215.86 201.278 1217.59 201.734C1219.36 202.189 1221.18 201.411 1222.09 199.865C1222.5 199.183 1223.41 198.955 1224.09 199.315C1224.78 199.723 1225 200.634 1224.64 201.316C1223.05 204.047 1219.87 205.365 1216.86 204.55C1213.81 203.734 1211.72 201.003 1211.72 197.855V197.874Z" fill="#2D90CF"/>
<path d="M1229.42 178.302C1229.42 177.297 1230.24 176.481 1231.24 176.481C1232.25 176.481 1233.07 177.297 1233.07 178.302C1233.07 179.307 1232.25 180.123 1231.24 180.123C1230.24 180.123 1229.42 179.307 1229.42 178.302ZM1231.24 204.702C1230.51 204.702 1229.88 204.114 1229.88 203.336V185.129C1229.88 184.352 1230.51 183.764 1231.24 183.764C1232.02 183.764 1232.61 184.352 1232.61 185.129V203.336C1232.61 204.114 1232.02 204.702 1231.24 204.702Z" fill="#2D90CF"/>
<path d="M1238.98 203.336V185.31C1238.98 184.532 1239.57 183.944 1240.35 183.944H1244.9C1248.13 183.944 1250.82 186.58 1250.82 189.861V203.336C1250.82 204.114 1250.18 204.702 1249.45 204.702C1248.67 204.702 1248.09 204.114 1248.09 203.336V189.861C1248.09 188.088 1246.63 186.675 1244.9 186.675H1241.71V203.336C1241.71 204.114 1241.08 204.702 1240.35 204.702C1239.57 204.702 1238.98 204.114 1238.98 203.336Z" fill="#2D90CF"/>
<path d="M1256.28 198.784V189.681C1256.28 186.4 1258.96 183.764 1262.2 183.764C1265.43 183.764 1268.11 186.4 1268.11 189.681V194.233C1268.11 195.01 1267.52 195.598 1266.75 195.598H1259.01V198.784C1259.01 200.055 1259.79 201.24 1260.96 201.743C1262.2 202.246 1263.56 201.971 1264.47 201.06C1264.97 200.51 1265.84 200.51 1266.39 201.06C1266.94 201.563 1266.94 202.426 1266.39 202.976C1264.7 204.664 1262.16 205.157 1259.97 204.246C1257.74 203.336 1256.28 201.193 1256.28 198.784ZM1265.52 175.116C1266.03 175.666 1265.98 176.529 1265.39 177.031L1260.84 181.128C1260.29 181.63 1259.43 181.583 1258.92 181.033C1258.42 180.483 1258.47 179.62 1259.02 179.117L1263.57 175.021C1264.16 174.518 1264.98 174.566 1265.52 175.116ZM1259.01 189.681V192.867H1265.38V189.681C1265.38 187.908 1263.97 186.495 1262.2 186.495C1260.42 186.495 1259.01 187.908 1259.01 189.681Z" fill="#2D90CF"/>
<path d="M1276.31 186.675V203.336C1276.31 204.114 1275.67 204.702 1274.94 204.702C1274.16 204.702 1273.58 204.114 1273.58 203.336V185.31C1273.58 184.532 1274.16 183.944 1274.94 183.944H1288.6C1291.83 183.944 1294.51 186.58 1294.51 189.861V203.336C1294.51 204.114 1293.88 204.702 1293.15 204.702C1292.37 204.702 1291.78 204.114 1291.78 203.336V189.861C1291.78 188.088 1290.32 186.675 1288.6 186.675H1285.41V203.336C1285.41 204.114 1284.77 204.702 1284.04 204.702C1283.27 204.702 1282.68 204.114 1282.68 203.336V186.675H1276.31Z" fill="#2D90CF"/>
<path d="M1307.81 192.687V189.596C1307.81 188.325 1307.03 187.225 1305.89 186.732C1304.71 186.277 1303.39 186.504 1302.53 187.415C1301.98 187.965 1301.11 187.965 1300.57 187.415C1300.03 186.865 1300.02 186.002 1300.57 185.499C1302.26 183.811 1304.76 183.318 1306.94 184.229C1309.13 185.139 1310.54 187.235 1310.54 189.596V203.165C1310.54 203.943 1309.9 204.531 1309.17 204.531H1304.62C1301.34 204.531 1298.7 201.895 1298.7 198.614C1298.7 195.333 1301.34 192.697 1304.62 192.697H1307.81V192.687ZM1304.62 201.79H1307.81V195.418H1304.62C1302.85 195.418 1301.43 196.831 1301.43 198.604C1301.43 200.378 1302.85 201.79 1304.62 201.79Z" fill="#2D90CF"/>
<path d="M1324.73 198.784V189.681C1324.73 186.4 1327.37 183.764 1330.65 183.764C1333.93 183.764 1336.57 186.4 1336.57 189.681V194.233C1336.57 195.01 1335.98 195.598 1335.2 195.598H1327.47V198.784C1327.47 200.055 1328.24 201.24 1329.42 201.743C1330.6 202.246 1331.97 201.971 1332.88 201.06C1333.43 200.51 1334.29 200.51 1334.83 201.06C1335.38 201.563 1335.38 202.426 1334.83 202.976C1333.15 204.664 1330.6 205.157 1328.37 204.246C1326.14 203.336 1324.72 201.193 1324.72 198.784H1324.73ZM1327.47 189.681V192.867H1333.84V189.681C1333.84 187.908 1332.42 186.495 1330.65 186.495C1328.88 186.495 1327.47 187.908 1327.47 189.681Z" fill="#2D90CF"/>
<path d="M1342.03 203.336V185.31C1342.03 184.532 1342.62 183.944 1343.4 183.944H1347.95C1351.18 183.944 1353.86 186.58 1353.86 189.861V203.336C1353.86 204.114 1353.23 204.702 1352.5 204.702C1351.72 204.702 1351.13 204.114 1351.13 203.336V189.861C1351.13 188.088 1349.67 186.675 1347.95 186.675H1344.76V203.336C1344.76 204.114 1344.13 204.702 1343.4 204.702C1342.62 204.702 1342.03 204.114 1342.03 203.336Z" fill="#2D90CF"/>
<path d="M1368.33 178.937C1369.25 177.344 1370.71 176.206 1372.48 175.751C1374.25 175.248 1376.07 175.476 1377.67 176.339C1379.26 177.202 1380.44 178.662 1380.95 180.388C1381.5 182.161 1381.31 183.982 1380.44 185.622C1380.44 185.622 1373.75 198.367 1372.02 201.695H1379.81C1380.59 201.695 1381.27 202.331 1381.27 203.156C1381.27 203.981 1380.59 204.616 1379.81 204.616H1369.62C1369.11 204.616 1368.61 204.341 1368.38 203.933C1368.11 203.478 1368.06 202.928 1368.33 202.473L1377.89 184.266C1378.4 183.309 1378.48 182.266 1378.17 181.26C1377.86 180.255 1377.21 179.392 1376.25 178.89C1375.34 178.387 1374.3 178.254 1373.25 178.529C1372.24 178.852 1371.38 179.487 1370.88 180.397C1370.47 181.08 1369.56 181.355 1368.88 180.947C1368.19 180.54 1367.92 179.629 1368.33 178.947L1368.33 178.937Z" fill="#2D90CF"/>
<path d="M1386.91 197.874V182.399C1386.91 178.577 1390 175.476 1393.83 175.476C1397.66 175.476 1400.76 178.568 1400.76 182.399V197.874C1400.76 201.696 1397.62 204.797 1393.83 204.797C1390.05 204.797 1386.91 201.705 1386.91 197.874ZM1389.82 182.399V197.874C1389.82 200.103 1391.6 201.876 1393.82 201.876C1396.05 201.876 1397.83 200.103 1397.83 197.874V182.399C1397.83 180.218 1396.01 178.397 1393.82 178.397C1391.64 178.397 1389.82 180.218 1389.82 182.399Z" fill="#2D90CF"/>
<path d="M1406.21 178.937C1407.12 177.344 1408.58 176.206 1410.35 175.751C1412.13 175.248 1413.95 175.476 1415.54 176.339C1417.13 177.202 1418.32 178.662 1418.82 180.388C1419.37 182.161 1419.18 183.982 1418.32 185.622C1418.32 185.622 1411.62 198.367 1409.9 201.695H1417.68C1418.46 201.695 1419.14 202.331 1419.14 203.156C1419.14 203.981 1418.46 204.616 1417.68 204.616H1407.49C1406.99 204.616 1406.48 204.341 1406.26 203.933C1405.98 203.478 1405.93 202.928 1406.21 202.473L1415.77 184.266C1416.27 183.309 1416.36 182.266 1416.04 181.26C1415.73 180.255 1415.08 179.392 1414.13 178.89C1413.22 178.387 1412.17 178.254 1411.12 178.529C1410.12 178.852 1409.25 179.487 1408.75 180.397C1408.34 181.08 1407.43 181.355 1406.75 180.947C1406.07 180.54 1405.79 179.629 1406.2 178.947L1406.21 178.937Z" fill="#2D90CF"/>
<path d="M1425.15 178.937C1426.06 177.344 1427.52 176.206 1429.29 175.751C1431.06 175.248 1432.88 175.476 1434.48 176.339C1436.07 177.202 1437.25 178.662 1437.76 180.388C1438.31 182.161 1438.12 183.982 1437.25 185.622C1437.25 185.622 1430.56 198.367 1428.83 201.695H1436.62C1437.4 201.695 1438.08 202.331 1438.08 203.156C1438.08 203.981 1437.4 204.616 1436.62 204.616H1426.43C1425.92 204.616 1425.42 204.341 1425.19 203.933C1424.92 203.478 1424.87 202.928 1425.15 202.473L1434.7 184.266C1435.21 183.309 1435.29 182.266 1434.98 181.26C1434.67 180.255 1434.02 179.392 1433.06 178.89C1432.15 178.387 1431.11 178.254 1430.06 178.529C1429.05 178.852 1428.19 179.487 1427.69 180.397C1427.28 181.08 1426.37 181.355 1425.69 180.947C1425 180.54 1424.73 179.629 1425.14 178.947L1425.15 178.937Z" fill="#2D90CF"/>
<path d="M1092.66 246.236V243.505C1092.66 241.324 1090.83 239.503 1088.65 239.503C1087.84 239.503 1087.19 238.868 1087.19 238.043C1087.19 237.218 1087.83 236.582 1088.65 236.582C1090.83 236.582 1092.66 234.809 1092.66 232.581V230.76C1092.66 228.939 1091.42 227.346 1089.7 226.891C1087.92 226.436 1086.1 227.214 1085.19 228.759C1084.79 229.442 1083.87 229.717 1083.19 229.309C1082.51 228.901 1082.23 227.991 1082.64 227.308C1084.23 224.625 1087.42 223.259 1090.43 224.075C1093.48 224.89 1095.57 227.621 1095.57 230.77V232.59C1095.57 234.819 1094.52 236.781 1092.88 238.052C1094.52 239.323 1095.57 241.286 1095.57 243.514V246.245C1095.57 249.384 1093.47 252.115 1090.43 252.94C1087.42 253.755 1084.23 252.437 1082.64 249.706C1082.23 249.024 1082.51 248.113 1083.19 247.705C1083.87 247.345 1084.79 247.573 1085.19 248.255C1086.1 249.801 1087.92 250.579 1089.7 250.124C1091.42 249.668 1092.66 248.075 1092.66 246.255V246.236Z" fill="#2D90CF"/>
<path d="M1109.22 233.671C1109.22 232.893 1109.81 232.305 1110.59 232.305H1112.86V228.939C1112.86 225.658 1115.5 223.022 1118.78 223.022C1119.56 223.022 1120.15 223.61 1120.15 224.387C1120.15 225.165 1119.56 225.753 1118.78 225.753C1117.01 225.753 1115.59 227.166 1115.59 228.939V232.305H1118.78C1119.56 232.305 1120.15 232.893 1120.15 233.671C1120.15 234.449 1119.56 235.036 1118.78 235.036H1115.59V251.697C1115.59 252.475 1115.01 253.063 1114.23 253.063C1113.45 253.063 1112.86 252.475 1112.86 251.697V235.036H1110.59C1109.81 235.036 1109.22 234.449 1109.22 233.671Z" fill="#2D90CF"/>
<path d="M1124.15 247.146V238.043C1124.15 234.762 1126.78 232.125 1130.06 232.125C1133.35 232.125 1135.98 234.762 1135.98 238.043V247.146C1135.98 250.427 1133.3 253.063 1130.06 253.063C1126.83 253.063 1124.15 250.427 1124.15 247.146ZM1126.88 238.043V247.146C1126.88 248.919 1128.29 250.332 1130.06 250.332C1131.84 250.332 1133.25 248.919 1133.25 247.146V238.043C1133.25 236.269 1131.79 234.856 1130.06 234.856C1128.34 234.856 1126.88 236.269 1126.88 238.043Z" fill="#2D90CF"/>
<path d="M1141.35 226.663C1141.35 225.658 1142.17 224.843 1143.17 224.843C1144.18 224.843 1144.99 225.658 1144.99 226.663C1144.99 227.669 1144.18 228.484 1143.17 228.484C1142.17 228.484 1141.35 227.669 1141.35 226.663ZM1143.17 253.063C1142.44 253.063 1141.8 252.475 1141.8 251.698V233.491C1141.8 232.713 1142.44 232.125 1143.17 232.125C1143.95 232.125 1144.54 232.713 1144.54 233.491V251.698C1144.54 252.475 1143.95 253.063 1143.17 253.063Z" fill="#2D90CF"/>
<path d="M1157.83 247.241C1157.78 246.331 1157.33 245.553 1156.6 245.06L1152.37 242.054C1151 241.096 1150.19 239.598 1150.05 237.957C1149.95 236.269 1150.6 234.676 1151.82 233.586C1153.05 232.448 1154.68 231.945 1156.32 232.173C1157.96 232.448 1159.41 233.406 1160.24 234.857C1160.6 235.492 1160.37 236.355 1159.74 236.725C1159.1 237.085 1158.24 236.857 1157.87 236.222C1157.46 235.492 1156.73 235.037 1155.91 234.904C1155.1 234.771 1154.27 234.999 1153.64 235.587C1153.05 236.137 1152.73 236.952 1152.78 237.768C1152.82 238.583 1153.28 239.361 1153.96 239.816L1158.19 242.775C1159.6 243.78 1160.47 245.325 1160.56 247.051C1160.69 248.777 1160.01 250.418 1158.74 251.555C1157.47 252.741 1155.78 253.243 1154.09 253.016C1152.37 252.741 1150.91 251.745 1150.05 250.237C1149.68 249.602 1149.91 248.739 1150.55 248.369C1151.18 248.009 1152.05 248.237 1152.42 248.872C1152.87 249.649 1153.6 250.143 1154.51 250.285C1155.37 250.418 1156.24 250.152 1156.92 249.555C1157.56 248.967 1157.93 248.094 1157.83 247.231V247.241Z" fill="#2D90CF"/>
<path d="M1174.62 260.801V233.671C1174.62 232.894 1175.21 232.306 1175.99 232.306H1180.54C1183.77 232.306 1186.46 234.942 1186.46 238.223V246.966C1186.46 250.247 1183.77 252.883 1180.54 252.883H1177.36V260.801C1177.36 261.579 1176.72 262.166 1175.99 262.166C1175.21 262.166 1174.62 261.579 1174.62 260.801ZM1180.54 235.037H1177.36V250.152H1180.54C1182.27 250.152 1183.73 248.739 1183.73 246.966V238.223C1183.73 236.45 1182.27 235.037 1180.54 235.037Z" fill="#2D90CF"/>
<path d="M1192.15 248.559V224.387C1192.15 223.61 1192.78 223.022 1193.51 223.022C1194.29 223.022 1194.88 223.61 1194.88 224.387V248.559C1194.88 249.374 1195.33 250.104 1196.02 250.512C1196.7 250.872 1196.93 251.745 1196.52 252.38C1196.16 253.016 1195.33 253.243 1194.65 252.883C1193.15 251.972 1192.15 250.332 1192.15 248.559Z" fill="#2D90CF"/>
<path d="M1201.02 246.966V233.491C1201.02 232.713 1201.61 232.125 1202.39 232.125C1203.17 232.125 1203.75 232.713 1203.75 233.491V246.966C1203.75 248.739 1205.17 250.152 1206.94 250.152H1210.13V233.491C1210.13 232.713 1210.71 232.125 1211.49 232.125C1212.27 232.125 1212.86 232.713 1212.86 233.491V251.517C1212.86 252.295 1212.27 252.883 1211.49 252.883H1206.94C1203.66 252.883 1201.02 250.247 1201.02 246.966Z" fill="#2D90CF"/>
<path d="M1226.15 247.241C1226.1 246.331 1225.65 245.553 1224.92 245.06L1220.69 242.054C1219.32 241.096 1218.51 239.598 1218.37 237.957C1218.27 236.269 1218.92 234.676 1220.14 233.586C1221.37 232.448 1223 231.945 1224.64 232.173C1226.28 232.448 1227.74 233.406 1228.56 234.857C1228.92 235.492 1228.69 236.355 1228.06 236.725C1227.42 237.085 1226.56 236.857 1226.19 236.222C1225.78 235.492 1225.05 235.037 1224.24 234.904C1223.42 234.771 1222.6 234.999 1221.96 235.587C1221.37 236.137 1221.05 236.952 1221.1 237.768C1221.14 238.583 1221.6 239.361 1222.28 239.816L1226.51 242.775C1227.93 243.78 1228.79 245.325 1228.88 247.051C1229.02 248.777 1228.33 250.418 1227.06 251.555C1225.79 252.741 1224.1 253.243 1222.42 253.016C1220.69 252.741 1219.23 251.745 1218.37 250.237C1218.01 249.602 1218.23 248.739 1218.87 248.369C1219.5 248.009 1220.37 248.237 1220.74 248.872C1221.19 249.649 1221.92 250.143 1222.83 250.285C1223.7 250.418 1224.56 250.152 1225.24 249.555C1225.88 248.967 1226.25 248.094 1226.15 247.231V247.241Z" fill="#2D90CF"/>
<path d="M1242.4 246.966V238.223C1242.4 234.942 1245.03 232.306 1248.31 232.306H1252.87C1253.6 232.306 1254.23 232.894 1254.23 233.671V260.801C1254.23 261.579 1253.6 262.166 1252.87 262.166C1252.09 262.166 1251.5 261.579 1251.5 260.801V252.883H1248.31C1245.03 252.883 1242.4 250.247 1242.4 246.966ZM1245.13 238.223V246.966C1245.13 248.739 1246.54 250.152 1248.31 250.152H1251.5V235.037H1248.31C1246.54 235.037 1245.13 236.45 1245.13 238.223Z" fill="#2D90CF"/>
<path d="M1260.24 246.966V233.491C1260.24 232.713 1260.83 232.125 1261.61 232.125C1262.39 232.125 1262.97 232.713 1262.97 233.491V246.966C1262.97 248.739 1264.39 250.152 1266.16 250.152H1269.35V233.491C1269.35 232.713 1269.93 232.125 1270.71 232.125C1271.49 232.125 1272.08 232.713 1272.08 233.491V251.517C1272.08 252.295 1271.49 252.883 1270.71 252.883H1266.16C1262.88 252.883 1260.24 250.247 1260.24 246.966Z" fill="#2D90CF"/>
<path d="M1277.9 247.146V238.043C1277.9 234.762 1280.54 232.125 1283.82 232.125C1287.1 232.125 1289.73 234.762 1289.73 238.043V242.594C1289.73 243.372 1289.15 243.96 1288.37 243.96H1280.63V247.146C1280.63 248.417 1281.41 249.602 1282.58 250.105C1283.77 250.607 1285.13 250.332 1286.04 249.422C1286.59 248.872 1287.46 248.872 1288 249.422C1288.55 249.924 1288.55 250.787 1288 251.337C1286.31 253.025 1283.77 253.518 1281.53 252.608C1279.3 251.698 1277.89 249.555 1277.89 247.146H1277.9ZM1280.63 238.043V241.229H1287V238.043C1287 236.269 1285.59 234.856 1283.82 234.856C1282.04 234.856 1280.63 236.269 1280.63 238.043Z" fill="#2D90CF"/>
<path d="M1303.39 247.146V238.043C1303.39 234.762 1306.02 232.125 1309.31 232.125C1312.59 232.125 1315.22 234.762 1315.22 238.043V242.594C1315.22 243.372 1314.63 243.96 1313.86 243.96H1306.12V247.146C1306.12 248.417 1306.9 249.602 1308.07 250.105C1309.26 250.607 1310.62 250.332 1311.53 249.422C1312.08 248.872 1312.95 248.872 1313.49 249.422C1314.04 249.924 1314.04 250.787 1313.49 251.337C1311.8 253.025 1309.26 253.518 1307.02 252.608C1304.79 251.698 1303.38 249.555 1303.38 247.146H1303.39ZM1306.12 238.043V241.229H1312.49V238.043C1312.49 236.269 1311.08 234.856 1309.31 234.856C1307.53 234.856 1306.12 236.269 1306.12 238.043Z" fill="#2D90CF"/>
<path d="M1320.68 251.698V233.671C1320.68 232.894 1321.27 232.306 1322.05 232.306H1326.6C1329.84 232.306 1332.52 234.942 1332.52 238.223V251.698C1332.52 252.475 1331.88 253.063 1331.15 253.063C1330.38 253.063 1329.79 252.475 1329.79 251.698V238.223C1329.79 236.45 1328.33 235.037 1326.6 235.037H1323.42V251.698C1323.42 252.475 1322.78 253.063 1322.05 253.063C1321.27 253.063 1320.68 252.475 1320.68 251.698Z" fill="#2D90CF"/>
<path d="M1338.26 227.299C1339.17 225.706 1340.63 224.568 1342.4 224.113C1344.17 223.61 1345.99 223.838 1347.59 224.701C1349.18 225.563 1350.37 227.024 1350.87 228.75C1351.42 230.523 1351.23 232.344 1350.37 233.984C1350.37 233.984 1343.67 246.729 1341.94 250.057H1349.73C1350.51 250.057 1351.19 250.692 1351.19 251.517C1351.19 252.342 1350.51 252.978 1349.73 252.978H1339.54C1339.03 252.978 1338.53 252.703 1338.3 252.295C1338.03 251.84 1337.98 251.29 1338.26 250.835L1347.81 232.628C1348.32 231.67 1348.4 230.627 1348.09 229.622C1347.78 228.617 1347.13 227.754 1346.17 227.251C1345.26 226.749 1344.22 226.616 1343.17 226.891C1342.16 227.213 1341.3 227.849 1340.8 228.759C1340.39 229.442 1339.48 229.717 1338.8 229.309C1338.11 228.901 1337.84 227.991 1338.25 227.308L1338.26 227.299Z" fill="#2D90CF"/>
<path d="M1356.82 246.236V230.76C1356.82 226.938 1359.91 223.838 1363.75 223.838C1367.58 223.838 1370.67 226.929 1370.67 230.76V246.236C1370.67 250.057 1367.53 253.158 1363.75 253.158C1359.96 253.158 1356.82 250.067 1356.82 246.236ZM1359.73 230.76V246.236C1359.73 248.464 1361.51 250.237 1363.74 250.237C1365.96 250.237 1367.74 248.464 1367.74 246.236V230.76C1367.74 228.579 1365.92 226.758 1363.74 226.758C1361.56 226.758 1359.73 228.579 1359.73 230.76Z" fill="#2D90CF"/>
<path d="M1376.12 227.299C1377.03 225.706 1378.49 224.568 1380.26 224.113C1382.04 223.61 1383.86 223.838 1385.45 224.701C1387.04 225.563 1388.23 227.024 1388.73 228.75C1389.28 230.523 1389.09 232.344 1388.23 233.984C1388.23 233.984 1381.53 246.729 1379.81 250.057H1387.59C1388.37 250.057 1389.05 250.692 1389.05 251.517C1389.05 252.342 1388.37 252.978 1387.59 252.978H1377.4C1376.9 252.978 1376.4 252.703 1376.17 252.295C1375.89 251.84 1375.85 251.29 1376.12 250.835L1385.68 232.628C1386.18 231.67 1386.27 230.627 1385.95 229.622C1385.64 228.617 1385 227.754 1384.04 227.251C1383.13 226.749 1382.08 226.616 1381.03 226.891C1380.03 227.213 1379.16 227.849 1378.66 228.759C1378.25 229.442 1377.34 229.717 1376.66 229.309C1375.98 228.901 1375.7 227.991 1376.11 227.308L1376.12 227.299Z" fill="#2D90CF"/>
<path d="M1394.7 246.236V230.76C1394.7 226.938 1397.79 223.838 1401.62 223.838C1405.45 223.838 1408.54 226.929 1408.54 230.76V246.236C1408.54 250.057 1405.4 253.158 1401.62 253.158C1397.84 253.158 1394.7 250.067 1394.7 246.236ZM1397.61 230.76V246.236C1397.61 248.464 1399.38 250.237 1401.61 250.237C1403.84 250.237 1405.61 248.464 1405.61 246.236V230.76C1405.61 228.579 1403.79 226.758 1401.61 226.758C1399.43 226.758 1397.61 228.579 1397.61 230.76Z" fill="#2D90CF"/>
<path d="M1261.19 456.731V549.32H1324.73V456.731C1324.73 456.731 1293.06 469.58 1261.19 456.731Z" fill="#E8E6E6"/>
<path d="M1261.19 549.329C1261.19 549.329 1288.83 562.956 1324.73 549.329H1261.19Z" fill="#E8E6E6"/>
<path d="M1273.08 553.303L1264.52 550.922V458.163L1273.56 460.543L1273.08 553.303Z" fill="#C41414"/>
<path d="M1290.68 555.683L1281.65 554.734V461.966L1291.17 462.44L1290.68 555.683Z" fill="#C41414"/>
<path d="M1307.33 554.251L1297.82 555.209V462.44L1307.33 461.492V554.251Z" fill="#C41414"/>
<path d="M1322.56 550.448L1313.52 552.829V460.06L1322.56 457.689V550.448Z" fill="#C41414"/>
<path d="M1261.19 456.731C1261.19 456.731 1296.45 447.694 1324.73 456.731C1314 461.017 1288.31 467.2 1261.19 456.731Z" fill="#CEC9C8"/>
<path d="M1347.48 442.507V535.096H1411.02V442.507C1411.02 442.507 1379.35 455.356 1347.48 442.507Z" fill="#E8E6E6"/>
<path d="M1347.48 535.105C1347.48 535.105 1375.13 548.732 1411.02 535.105H1347.48Z" fill="#E8E6E6"/>
<path d="M1359.37 539.079L1350.81 536.699V443.939L1359.85 446.32L1359.37 539.079Z" fill="#C41414"/>
<path d="M1376.97 541.459L1367.94 540.511V447.742L1377.46 448.216L1376.97 541.459Z" fill="#C41414"/>
<path d="M1393.63 540.027L1384.12 540.985V448.216L1393.63 447.268V540.027Z" fill="#C41414"/>
<path d="M1408.85 536.224L1399.81 538.604V445.836L1408.85 443.465V536.224Z" fill="#C41414"/>
<path d="M1347.48 442.507C1347.48 442.507 1382.74 433.47 1411.02 442.507C1400.29 446.794 1374.6 452.976 1347.48 442.507Z" fill="#CEC9C8"/>
<path d="M520.777 484.127V543.668H561.638V484.127C561.638 484.127 541.278 492.386 520.777 484.127Z" fill="#C41414"/>
<path d="M520.777 543.678C520.777 543.678 538.557 552.44 561.638 543.678H520.777Z" fill="#C41414"/>
<path d="M519.924 483.178C526.372 481.263 545.916 476.512 562.785 483.083C563.402 483.32 563.44 484.553 562.833 484.847C554.384 488.972 537.685 493.571 519.848 484.961C519.213 484.657 519.269 483.377 519.924 483.178Z" fill="#CEC9C8"/>
<path d="M541.819 467.267H541.81C541.307 467.267 540.899 467.674 540.899 468.177V484.648C540.899 485.151 541.307 485.559 541.81 485.559H541.819C542.322 485.559 542.73 485.151 542.73 484.648V468.177C542.73 467.674 542.322 467.267 541.819 467.267Z" fill="#E0DEDE"/>
<path d="M549.44 460.037C549.789 459.572 549.694 458.912 549.229 458.564C548.764 458.215 548.104 458.309 547.756 458.774L541.082 467.673C540.733 468.138 540.827 468.797 541.292 469.146C541.757 469.495 542.417 469.401 542.766 468.936L549.44 460.037Z" fill="#E0DEDE"/>
<path d="M520.777 519.497C520.777 519.497 546.996 515.4 561.638 499.564V519.497C561.638 519.497 548.22 534.517 520.777 528.942V519.497Z" fill="#E0DEDE"/>
<path d="M175.87 372.308C179.74 388.029 168.523 406.757 168.786 404.489C171.933 377.657 154.922 356.48 154.922 356.48C159.549 368.519 154.002 404.489 154.002 404.489C150.328 415.501 174.999 428.239 174.999 428.239C187.794 435.487 187.334 440.065 187.334 440.065C187.564 449.433 167.15 465.343 167.15 465.343C166.23 472.074 167.454 482.47 167.454 482.47C167.38 486.521 164.858 486.825 161.948 487.359C160.42 487.639 156.064 489.192 154.914 492.249L159.499 494.082C161.792 496.835 159.647 500.648 156.927 503.779C154.454 506.622 152.876 508.019 151.24 509.449C148.265 512.589 147.468 513.591 144.822 516.977C142.874 519.541 141.346 521.727 139.316 524.357C129.586 534.654 113.018 533.832 113.018 533.832C103.132 535.155 76.3251 530.471 76.3251 530.471C56.9553 535.566 62.7654 550.449 62.7654 550.449C71.4765 552.898 79.2425 555.684 82.842 559.217C86.4415 562.751 90.534 568.413 91.964 578.242C96.6236 610.177 95.8018 604.926 96.3852 619.973C97.4043 636.36 97.7083 641.274 97.7083 641.274L-64.3505 643L-54.8751 612.117C-56.0996 619.759 -81.1727 623.129 -81.1727 623.129C-109.607 628.019 -135.296 598.968 -135.296 598.968C-128.566 601.721 -110.223 581.538 -110.223 581.538C-140.498 609.06 -149.062 582.762 -149.062 582.762C-125.821 591.325 -116.124 565.726 -110.536 546.069C-103.608 521.711 -115.425 455.252 -115.425 455.252C-160.953 228.049 38.8757 238.757 38.8757 238.757C208.125 247.32 180.348 391.192 180.348 391.192C180.25 379.268 176.634 373.121 175.861 372.308H175.87Z" fill="#213769"/>
<mask id="mask0_204_304" style="mask-type:luminance" maskUnits="userSpaceOnUse" x="-150" y="238" width="338" height="405">
<path d="M175.87 372.308C179.74 388.029 168.523 406.757 168.786 404.489C171.933 377.657 154.922 356.48 154.922 356.48C159.549 368.519 154.002 404.489 154.002 404.489C150.328 415.501 174.999 428.239 174.999 428.239C187.794 435.487 187.334 440.065 187.334 440.065C187.564 449.433 167.15 465.343 167.15 465.343C166.23 472.074 167.454 482.47 167.454 482.47C167.38 486.521 164.858 486.825 161.948 487.359C160.42 487.639 156.064 489.192 154.914 492.249L159.499 494.082C161.792 496.835 159.647 500.648 156.927 503.779C154.454 506.622 152.876 508.019 151.24 509.449C148.265 512.589 147.468 513.591 144.822 516.977C142.874 519.541 141.346 521.727 139.316 524.357C129.586 534.654 113.018 533.832 113.018 533.832C103.132 535.155 76.3251 530.471 76.3251 530.471C56.9553 535.566 62.7654 550.449 62.7654 550.449C71.4765 552.898 79.2425 555.684 82.842 559.217C86.4415 562.751 90.534 568.413 91.964 578.242C96.6236 610.177 95.8018 604.926 96.3852 619.973C97.4043 636.36 97.7083 641.274 97.7083 641.274L-64.3505 643L-54.8751 612.117C-56.0996 619.759 -81.1727 623.129 -81.1727 623.129C-109.607 628.019 -135.296 598.968 -135.296 598.968C-128.566 601.721 -110.223 581.538 -110.223 581.538C-140.498 609.06 -149.062 582.762 -149.062 582.762C-125.821 591.325 -116.124 565.726 -110.536 546.069C-103.608 521.711 -115.425 455.252 -115.425 455.252C-160.953 228.049 38.8757 238.757 38.8757 238.757C208.125 247.32 180.348 391.192 180.348 391.192C180.25 379.268 176.634 373.121 175.861 372.308H175.87Z" fill="white"/>
</mask>
<g mask="url(#mask0_204_304)">
<path d="M82.4476 304.797C108.286 304.797 129.233 283.133 129.233 256.409C129.233 229.685 108.286 208.021 82.4476 208.021C56.609 208.021 35.6626 229.685 35.6626 256.409C35.6626 283.133 56.609 304.797 82.4476 304.797Z" fill="#83BC3F"/>
<path d="M0.481459 384.618C13.276 384.618 23.648 374.246 23.648 361.451C23.648 348.657 13.276 338.285 0.481459 338.285C-12.3131 338.285 -22.6851 348.657 -22.6851 361.451C-22.6851 374.246 -12.3131 384.618 0.481459 384.618Z" fill="#A34994"/>
<path opacity="0.66" d="M6.07767 332.327C35.8423 332.327 59.9713 308.198 59.9713 278.434C59.9713 248.669 35.8423 224.54 6.07767 224.54C-23.6869 224.54 -47.8159 248.669 -47.8159 278.434C-47.8159 308.198 -23.6869 332.327 6.07767 332.327Z" fill="#4E8CCA"/>
</g>
<path d="M-14.9033 181.346H10.0958V192.999H-14.9033V181.346Z" fill="#35A8E0"/>
<path d="M12.1587 124.395H26.2525L31.2327 183.343L35.3334 124.395H49.3698L36.9935 227.326H25.5705L12.1587 124.395Z" fill="#1D1D1B"/>
<path d="M77.8202 226.134C75.9383 226.923 73.7852 227.326 71.3527 227.326C65.3289 227.326 60.0694 224.4 55.5906 218.557C51.1118 212.714 48.8765 202.351 48.8765 187.485V178.461C48.8765 166.43 50.6762 157.768 54.2757 152.46C56.7 148.868 59.8804 147.069 63.8168 147.069C68.6736 147.069 72.3224 149.205 74.7714 153.487C77.2203 157.768 78.4448 162.938 78.4448 168.994C78.4448 176.259 76.9656 182.044 74.0153 186.351C71.0568 190.649 66.8985 193.64 61.5322 195.308C61.6144 201.866 63.0196 206.961 65.748 210.594C67.7203 213.182 70.046 214.481 72.7251 214.481C73.9413 214.481 75.6342 213.963 77.8202 212.911V226.126V226.134ZM64.0633 159.478C62.9621 161.146 62.2471 162.609 61.9102 163.866C61.2774 166.249 60.9569 169.027 60.9569 172.199V182.414C62.7731 181.625 64.1784 180.245 65.1727 178.281C66.1671 176.316 66.6602 173.333 66.6602 169.323C66.6602 164.935 65.7891 161.656 64.0633 159.486V159.478Z" fill="#1D1D1B"/>
<path d="M95.5466 158.409C96.0069 157.703 96.4671 156.659 96.9273 155.278C98.2175 151.728 99.7214 149.386 101.439 148.26C102.606 147.471 104.299 147.069 106.509 147.069V161.919C103.461 162.716 101.061 164.261 99.3023 166.553C96.7958 169.857 95.5466 172.651 95.5466 174.952V226.512H83.5812V161.894C83.5812 159.387 82.6855 157.358 80.8857 155.813L88.1176 147.077C90.5337 147.997 92.243 149.172 93.262 150.619C94.2811 152.057 95.0371 154.662 95.5384 158.418L95.5466 158.409Z" fill="#1D1D1B"/>
<path d="M108.326 213.478C109.788 215.023 111.44 215.796 113.273 215.796C114.941 215.796 116.297 215.245 117.349 214.136C118.393 213.026 118.919 211.473 118.919 209.468C118.919 205.753 117.333 199.253 114.16 189.983C110.364 178.831 108.457 170.399 108.457 164.672C108.457 158.492 109.591 154.013 111.868 151.235C114.144 148.457 117.078 147.069 120.669 147.069C122.88 147.069 125.534 147.923 128.624 149.641V160.538C126.997 159.157 125.534 158.467 124.236 158.467C122.937 158.467 121.82 158.993 120.883 160.037C119.946 161.08 119.477 162.568 119.477 164.483C119.477 168.033 120.981 174.278 123.989 183.211C127.876 194.823 129.816 203.617 129.816 209.583C129.816 215.549 128.575 220.159 126.085 223.019C123.603 225.879 120.291 227.309 116.157 227.309C113.528 227.309 110.914 226.602 108.326 225.181V213.462V213.478Z" fill="#1D1D1B"/>
<path d="M152.374 220.62C149.761 225.09 147.057 227.326 144.279 227.326C141.501 227.326 139.192 225.74 137.368 222.567C134.5 217.595 133.07 207.528 133.07 192.374V182.916C133.07 170.597 135.675 161.154 140.885 154.596C144.887 149.583 150.287 147.077 157.075 147.077H162.638V206C162.638 209.632 162.901 212.188 163.419 213.667C163.937 215.147 164.701 216.33 165.703 217.209L158.784 227.326C157.362 226.906 156.187 226.249 155.267 225.353C154.346 224.458 153.376 222.88 152.374 220.62ZM150.673 162.173C148.75 163.217 147.328 164.959 146.416 167.408C145.495 169.849 145.035 174.747 145.035 182.102V196.508C145.035 205.655 145.652 211.563 146.876 214.234C147.41 215.36 148.059 215.927 148.84 215.927C149.654 215.927 150.27 215.656 150.681 215.114V162.173H150.673Z" fill="#1D1D1B"/>
<path d="M1996 110H1644V410H1996V110Z" fill="#2D90CF"/>
<path d="M1996 643H1644V410H1735.15H1996V643Z" fill="#F4EC87"/>
<path d="M1819.7 259C1815.56 265.31 1729 410 1729 410H1917L1819.7 259Z" fill="#FFD100"/>
<path d="M1771.48 510.872C1774.61 529.342 1763.28 547.055 1746.18 550.438C1729.07 553.82 1712.66 541.59 1709.52 523.128C1706.39 504.658 1717.72 486.945 1734.82 483.562C1751.92 480.18 1768.34 492.41 1771.48 510.872Z" fill="#2B6C51"/>
<path d="M1727.79 486C1729.15 480.601 1728.12 474.746 1725 470.198L1741.82 467C1741.82 467 1738.23 477.265 1743 483.025L1727.79 486Z" fill="#2B6C51"/>
<path d="M1725.31 469.923L1719.91 471C1719.91 471 1721.15 467.56 1719 465.596C1719 465.596 1744.27 462.138 1747.21 461C1747.21 461 1746.76 463.25 1748 465.405L1741.56 466.682L1725.31 469.914V469.923Z" fill="#2B6C51"/>
<path d="M1724.78 487C1724.78 487 1721.4 533.019 1761 542.089C1761 542.089 1753.28 549.494 1745.78 550C1745.78 550 1709.81 503.295 1714.4 496.894C1719.8 489.36 1721.21 489.068 1724.78 487Z" fill="#82C07B"/>
<path d="M1746.57 483C1746.57 483 1754.98 485.083 1758 487.984C1758 487.984 1744.7 537.921 1731.38 549C1731.38 549 1723.16 546.452 1719 541.666C1719 541.666 1735.01 549.052 1746.57 483Z" fill="#82C07B"/>
<path d="M1723.47 465L1721 454.838L1740.37 445L1742 462.37L1723.47 465Z" fill="#6F4A34"/>
<path d="M1702.17 551.965C1709.67 551.238 1716.81 549.631 1723.93 547.119C1726.7 546.143 1729.73 544.643 1732.65 545.673C1735.75 546.773 1738.26 548.593 1741.57 549.32C1756.35 552.578 1771.72 550.98 1786.57 549.161C1790.02 548.735 1793 546.4 1793 542.504C1793 539.238 1790.04 535.421 1786.57 535.847C1779.05 536.77 1771.5 537.622 1763.92 537.809C1757.03 537.977 1749 538.226 1742.4 535.82C1739.39 534.72 1736.95 532.811 1733.7 532.243C1730.2 531.631 1726.66 532.243 1723.29 533.309C1716.22 535.527 1709.58 537.933 1702.16 538.652C1693.99 539.442 1693.91 552.764 1702.16 551.965H1702.17Z" fill="#F4EC87"/>
<path d="M1721.03 554.542C1733.82 551.775 1746.97 557.728 1759.8 557.998C1768.07 558.173 1768.06 545.081 1759.8 544.906C1745.48 544.6 1732.04 538.796 1717.62 541.921C1709.53 543.667 1712.96 556.296 1721.03 554.542Z" fill="#F4EC87"/>
<path d="M1742.62 551.86C1744.84 550.571 1748.35 547.558 1750.87 547.048C1752.46 546.728 1756.82 549.289 1758.92 550.051C1765.39 552.397 1772.05 553.972 1778.85 554.907C1782.33 555.383 1785.75 554.059 1786.8 550.371C1787.66 547.351 1785.74 542.859 1782.29 542.383C1773.91 541.231 1765.8 539.05 1757.99 535.804C1753.86 534.082 1750.48 533.199 1746.19 534.965C1742.67 536.419 1739.4 538.721 1736.12 540.643C1728.94 544.841 1735.43 556.067 1742.63 551.851L1742.62 551.86Z" fill="#F4EC87"/>
<path d="M1716.55 167.458H1708.98L1708.47 165.479C1708.26 165.565 1707.73 165.868 1706.88 166.386C1706.34 166.766 1705.73 167.267 1705.07 167.89L1704.28 166.092C1704.13 165.738 1703.9 165.237 1703.61 164.589L1702.86 167.458H1698.85C1699.44 165.004 1700.35 160.969 1701.59 155.327C1702.35 151.56 1702.98 147.982 1703.48 144.595H1711.79C1712.05 146.151 1712.76 149.78 1713.91 155.474C1714.55 158.446 1715.43 162.446 1716.55 167.449V167.458ZM1707.83 162.584C1707.67 162.057 1707.39 161.202 1707 160.027C1706.75 159.37 1706.39 158.472 1705.9 157.323C1705.68 157.901 1705.35 158.843 1704.91 160.148C1704.65 160.9 1704.36 161.928 1704.02 163.224C1704.3 163.224 1704.93 163.163 1705.91 163.042C1706.5 162.956 1707.14 162.8 1707.83 162.584H1707.83Z" fill="white"/>
<path d="M1730.24 153.97C1729.56 153.797 1729.04 153.72 1728.69 153.72C1728.26 153.72 1727.86 153.875 1727.5 154.195C1727.07 154.584 1726.85 155.085 1726.85 155.698C1726.85 156.173 1727.25 157.089 1728.04 158.455C1728.84 159.82 1729.24 161.064 1729.24 162.204C1729.24 163.863 1728.65 165.22 1727.48 166.283C1726.37 167.302 1724.99 167.812 1723.34 167.812C1721.83 167.812 1720.72 167.7 1720 167.466C1719.91 167.008 1719.78 166.265 1719.57 165.237C1719.44 164.684 1719.26 163.941 1719.03 163.017C1720.04 163.284 1720.73 163.414 1721.08 163.414C1722.45 163.414 1723.14 162.852 1723.14 161.729C1723.14 160.917 1722.86 160.183 1722.31 159.543C1721.4 158.688 1720.5 157.832 1719.59 156.968C1717.84 155.301 1716.97 153.322 1716.97 151.033C1716.97 148.743 1717.8 146.833 1719.46 145.598C1720.91 144.526 1722.83 143.991 1725.24 143.991C1726.6 143.991 1728.13 144.207 1729.83 144.63L1730.25 153.962L1730.24 153.97Z" fill="white"/>
<path d="M1748.2 144.604L1747.8 153.961C1747.44 153.901 1746.87 153.823 1746.08 153.737C1745.58 153.711 1744.8 153.676 1743.7 153.65C1743.65 154.238 1743.54 155.646 1743.41 157.893C1743.3 160.062 1743.14 163.258 1742.91 167.458H1736.21C1736.14 165.453 1735.99 162.308 1735.79 158.005C1735.7 156.519 1735.6 155.067 1735.5 153.642L1733.31 153.728L1731.34 153.953L1730.99 144.595H1748.2V144.604Z" fill="white"/>
<path d="M1763.56 144.604L1762.97 154.022C1762.62 153.962 1761.89 153.858 1760.76 153.711C1759.98 153.633 1759.13 153.581 1758.21 153.564L1758 156.407C1759.01 156.433 1760.67 156.407 1762.97 156.329C1762.86 156.701 1762.71 157.383 1762.48 158.385C1762.35 158.99 1762.24 159.69 1762.14 160.485C1761.87 160.416 1761.21 160.33 1760.13 160.217C1759.63 160.191 1758.9 160.174 1757.92 160.191L1757.78 163.509C1758.48 163.5 1759.75 163.431 1761.6 163.319C1761.96 163.293 1762.53 163.172 1763.33 162.965C1763.26 163.276 1763.09 164.01 1762.82 165.185C1762.69 165.79 1762.54 166.551 1762.35 167.475H1749.97L1749.58 155.811C1749.5 153.141 1749.33 149.408 1749.04 144.622H1763.58L1763.56 144.604Z" fill="white"/>
<path d="M1783.33 153.167C1783.33 154.99 1782.86 156.605 1781.91 158.014C1781.07 159.241 1780.02 160.131 1778.75 160.658C1779.02 161.107 1779.68 162.04 1780.73 163.466C1781.26 164.122 1782.06 164.987 1783.14 166.058C1782.71 166.231 1781.75 166.654 1780.28 167.337C1779.25 167.846 1778.28 168.339 1777.36 168.823C1777.1 168.469 1776.5 167.544 1775.57 166.058C1775.15 165.306 1774.53 164.036 1773.71 162.248H1773.68L1773.54 167.458H1765.76C1765.66 165.298 1765.52 161.729 1765.33 156.761C1765.24 153.832 1765.06 149.78 1764.76 144.604C1767.3 144.319 1769.6 144.172 1771.7 144.172C1779.46 144.172 1783.33 147.17 1783.33 153.158V153.167ZM1777.05 156.381C1777.05 155.439 1776.68 154.765 1775.95 154.359C1775.4 154.065 1774.72 153.936 1773.9 153.97L1773.81 159.059C1774.58 159.059 1775.26 158.878 1775.86 158.506C1776.65 158.031 1777.05 157.323 1777.05 156.381Z" fill="white"/>
<path d="M1793.74 144.604L1793.2 156.761C1793.1 159.379 1792.98 162.948 1792.84 167.458H1785.08L1784.14 144.604H1793.74Z" fill="white"/>
<path d="M1814.96 144.604C1814.58 145.356 1813.65 147.179 1812.15 150.065C1811.29 151.663 1810.01 153.944 1808.3 156.908L1813.34 167.458H1806.9L1804.28 162.801C1803.14 164.684 1802.22 166.239 1801.56 167.458H1795.9C1796.39 166.663 1797.46 164.797 1799.12 161.85C1799.77 160.658 1800.49 159.301 1801.3 157.772C1800.7 156.701 1799.71 154.903 1798.36 152.372C1796.88 149.529 1795.58 146.937 1794.44 144.604H1803.97C1804.09 145.019 1804.35 145.831 1804.74 147.041C1804.99 147.732 1805.28 148.484 1805.64 149.287C1805.88 148.864 1806.24 148.129 1806.75 147.101C1807.04 146.453 1807.39 145.624 1807.77 144.604H1814.96H1814.96Z" fill="white"/>
<path d="M1710.64 181.178C1710.51 183.261 1710.32 187.062 1710.07 192.575C1709.94 195.971 1709.85 199.79 1709.78 204.032H1704.77L1704.63 197.025L1699.75 204.585L1694.48 197.085L1694.34 204.032H1689.36C1689.29 201.76 1689.17 197.923 1688.99 192.514C1688.86 189.404 1688.63 185.62 1688.28 181.178H1696.2C1696.48 181.904 1696.96 183.071 1697.63 184.686C1698.15 185.836 1698.85 187.192 1699.75 188.765C1700.14 188.091 1700.87 186.7 1701.93 184.583C1702.31 183.796 1702.8 182.665 1703.38 181.178H1710.63H1710.64Z" fill="white"/>
<path d="M1721.38 181.178L1720.85 193.335C1720.74 195.953 1720.62 199.522 1720.48 204.032H1712.72L1711.78 181.178H1721.38Z" fill="white"/>
<path d="M1735.68 190.536C1735 190.363 1734.48 190.285 1734.14 190.285C1733.7 190.285 1733.31 190.441 1732.94 190.761C1732.51 191.149 1732.29 191.65 1732.29 192.264C1732.29 192.739 1732.69 193.655 1733.49 195.02C1734.28 196.385 1734.68 197.63 1734.68 198.77C1734.68 200.429 1734.09 201.786 1732.93 202.848C1731.81 203.868 1730.43 204.378 1728.79 204.378C1727.27 204.378 1726.16 204.265 1725.44 204.032C1725.36 203.574 1725.22 202.831 1725.01 201.803C1724.88 201.25 1724.7 200.507 1724.48 199.582C1725.49 199.85 1726.17 199.98 1726.52 199.98C1727.9 199.98 1728.58 199.418 1728.58 198.295C1728.58 197.483 1728.3 196.748 1727.75 196.109C1726.84 195.253 1725.94 194.398 1725.04 193.534C1723.28 191.866 1722.41 189.888 1722.41 187.598C1722.41 185.309 1723.24 183.399 1724.9 182.163C1726.35 181.092 1728.28 180.556 1730.68 180.556C1732.04 180.556 1733.57 180.772 1735.28 181.196L1735.69 190.527L1735.68 190.536Z" fill="white"/>
<path d="M1749.94 190.536C1749.26 190.363 1748.74 190.285 1748.39 190.285C1747.96 190.285 1747.56 190.441 1747.2 190.761C1746.77 191.149 1746.55 191.65 1746.55 192.264C1746.55 192.739 1746.95 193.655 1747.74 195.02C1748.54 196.385 1748.94 197.63 1748.94 198.77C1748.94 200.429 1748.35 201.786 1747.18 202.848C1746.07 203.868 1744.69 204.378 1743.04 204.378C1741.53 204.378 1740.42 204.265 1739.7 204.032C1739.61 203.574 1739.48 202.831 1739.27 201.803C1739.14 201.25 1738.96 200.507 1738.73 199.582C1739.74 199.85 1740.43 199.98 1740.78 199.98C1742.15 199.98 1742.84 199.418 1742.84 198.295C1742.84 197.483 1742.56 196.748 1742.01 196.109C1741.1 195.253 1740.2 194.398 1739.29 193.534C1737.54 191.866 1736.67 189.888 1736.67 187.598C1736.67 185.309 1737.5 183.399 1739.16 182.163C1740.61 181.092 1742.53 180.556 1744.94 180.556C1746.3 180.556 1747.83 180.772 1749.53 181.196L1749.95 190.527L1749.94 190.536Z" fill="white"/>
<path d="M1760.62 181.178L1760.08 193.335C1759.98 195.953 1759.86 199.522 1759.72 204.032H1751.96L1751.02 181.178H1760.62Z" fill="white"/>
<path d="M1780.3 192.108C1780.3 195.608 1779.46 198.571 1777.79 200.99C1776.02 203.522 1773.77 204.783 1771.02 204.783C1768.27 204.783 1765.9 203.505 1764.14 200.956C1762.49 198.554 1761.66 195.608 1761.66 192.1C1761.66 188.358 1762.56 185.421 1764.36 183.295C1766.05 181.291 1768.27 180.288 1771.01 180.288C1773.75 180.288 1775.9 181.299 1777.6 183.312C1779.39 185.455 1780.29 188.384 1780.29 192.108H1780.3ZM1773.65 194.726C1773.65 191.97 1772.78 190.588 1771.05 190.588C1769.31 190.588 1768.51 191.979 1768.51 194.752C1768.51 195.867 1768.74 196.904 1769.18 197.863C1769.68 198.943 1770.29 199.487 1771.02 199.487C1771.75 199.487 1772.36 198.934 1772.9 197.837C1773.41 196.834 1773.65 195.798 1773.65 194.726Z" fill="white"/>
<path d="M1798.35 181.178C1798.22 183.183 1798.04 186.682 1797.81 191.668C1797.68 195.34 1797.56 199.556 1797.47 204.326C1796.26 203.306 1794.42 201.785 1791.95 199.755C1790.88 198.951 1789.29 197.75 1787.16 196.143L1787.02 204.032H1782.56C1782.49 202.019 1782.32 198.217 1782.05 192.635C1781.82 188.108 1781.59 184.289 1781.35 181.178H1788.29L1793.44 186.414C1793.44 185.213 1793.42 184.272 1793.39 183.589C1793.36 182.984 1793.3 182.181 1793.23 181.178H1798.36H1798.35Z" fill="white"/>
<path d="M1820.8 190.536C1820.29 190.363 1819.64 190.285 1818.84 190.285C1817.37 190.285 1816.17 190.7 1815.25 191.538C1814.2 192.471 1813.69 193.81 1813.69 195.573C1813.69 196.938 1814.1 198.061 1814.92 198.943C1815.75 199.824 1816.83 200.256 1818.16 200.256C1819.08 200.256 1819.94 200.014 1820.76 199.53C1820.67 199.936 1820.51 200.688 1820.3 201.777C1820.17 202.502 1820.05 203.254 1819.92 204.04C1818.89 204.464 1817.57 204.68 1815.96 204.68C1813.04 204.68 1810.53 203.626 1808.46 201.509C1806.21 199.21 1805.08 196.212 1805.08 192.523C1805.08 189.11 1806.05 186.354 1807.98 184.254C1810.05 182.016 1812.9 180.893 1816.55 180.893C1818.3 180.893 1819.57 181.005 1820.35 181.221L1820.79 190.553L1820.8 190.536Z" fill="white"/>
<rect x="1" y="727" width="1" height="32" fill="#A02E2E"/>
</g>
<defs>
<clipPath id="clip0_204_304">
<rect width="1820.67" height="1024.12" fill="white"/>
</clipPath>
</defs>
</svg>
