<svg width="1829" height="1024" viewBox="0 0 1829 1024" fill="none" xmlns="http://www.w3.org/2000/svg">
<g clip-path="url(#clip0_188_93)">
<path d="M1829 758.396H0V1024H1829V758.396Z" fill="#77C16F"/>
<path d="M1829 0H0V758.87H1829V0Z" fill="#A4DDDD"/>
<path d="M826.86 830.014C826.86 830.014 1201.31 1014.99 1675.67 830.014L1561.32 472.396C1561.32 472.396 1267.92 570.101 947.917 472.396L826.86 830.014Z" fill="#F44D3B"/>
<path d="M1200.79 561.336C1200.79 561.336 1205.04 685.829 1115.5 904.952C1115.5 904.952 1239.34 925.821 1401.28 901.158C1401.28 901.158 1326.98 702.903 1330.74 553.169L1272.23 472.396L1200.79 561.336Z" fill="#B53228"/>
<g style="mix-blend-mode:multiply">
<path d="M932.599 517.929L1026.91 497.06L1176.66 507.02L1248.13 513.745L1489.86 486.625L1567.98 483.78L1573.03 509.078C1573.03 509.078 1575.02 516.212 1580.36 532.157C1582.27 537.849 1572.22 540.903 1558.45 534.055C1550.94 530.317 1546.21 572.577 1477.84 562.085C1475.95 561.791 1474.06 562.664 1473.05 564.296C1465.62 576.324 1431.39 622.131 1362.37 579.587C1360.59 578.496 1358.32 578.676 1356.75 580.033C1343.25 591.719 1280.25 640.875 1235.42 583.305C1233.86 581.304 1230.97 580.915 1228.91 582.404C1213.43 593.522 1153.72 631.275 1120.04 579.236C1118.57 576.95 1115.48 576.362 1113.26 577.936C1096.8 589.613 1034.58 627.159 991.87 562.977C990.613 561.089 988.203 560.331 986.097 561.194C973.218 566.43 929.789 582.584 915.338 568.583L932.58 517.919L932.599 517.929Z" fill="#B53228"/>
</g>
<path d="M947.918 472.397L1251.72 150.825L1561.32 472.397C1561.32 472.397 1263.31 583.381 947.918 472.397Z" fill="white"/>
<path d="M1125.55 298.094C1125.55 298.094 976.268 459.268 896.42 485.259C888.18 487.944 881.569 494.337 879.121 502.618C874.453 518.375 885.341 537.707 991.566 513.157C993.767 512.645 996.034 513.745 996.968 515.794C1003.76 530.64 1034.56 584.861 1105.48 537.062C1107.73 535.544 1110.79 536.161 1112.22 538.466C1121.02 552.704 1154.74 593.882 1229.92 546.273C1231.56 545.229 1233.67 545.305 1235.24 546.443C1247.32 555.161 1299.95 588.067 1347.85 539.092C1349.53 537.375 1352.2 537.157 1354.13 538.579C1367.32 548.331 1417.13 579.312 1456.95 525.252C1458.37 523.317 1460.99 522.71 1463.1 523.857C1476.11 530.924 1520.56 550.683 1541.59 504.686C1542.57 502.533 1545.02 501.461 1547.3 502.154C1564.78 507.485 1632.78 526.39 1637.56 499.545C1638.82 492.44 1634.72 485.459 1628.06 482.622C1598.87 470.205 1489.52 418.175 1374.17 292.725L1125.56 298.094H1125.55Z" fill="white"/>
<path d="M994.519 514.134C994.519 514.134 1179.32 299.754 1251.72 150.825L1005.95 410.975C999.654 417.644 992.9 423.848 985.717 429.558C971.657 440.733 948.261 458.946 940.364 462.863C929.942 468.043 925.513 473.326 906.06 481.541C903.126 482.784 900.135 483.912 897.144 484.994C893.581 486.284 886.056 489.566 882.731 495.22C878.301 502.761 876.215 508.149 880.121 514.941C884.027 521.733 898.03 526.732 917.368 525.527C935.753 524.379 945.946 522.681 945.946 522.681C945.946 522.681 967.856 518.887 994.529 514.144L994.519 514.134Z" fill="#F44D3B"/>
<path d="M1251.72 150.825C1251.72 150.825 1166.16 457.788 1108.44 536.236C1108.44 536.236 1108.68 537.232 1109.78 537.849C1110.58 538.295 1111.72 537.887 1112.21 538.655C1118.36 548.284 1149.98 598.511 1229.41 546.576C1229.41 546.576 1230.99 545.637 1232.31 545.542C1232.31 545.542 1237.43 295.959 1251.72 150.825Z" fill="#F44D3B"/>
<path d="M1251.72 150.825C1251.72 150.825 1251.99 152.03 1252.49 154.307C1260.59 190.628 1329.87 499.991 1350.37 537.726C1350.37 537.726 1351.75 537.859 1352.7 537.859L1353.19 538.039L1353.86 538.399L1354.63 538.949C1354.63 538.949 1413 587.081 1457.58 524.54C1457.58 524.54 1458.44 523.63 1460.34 523.63C1460.34 523.63 1349.84 350.987 1251.72 150.835V150.825Z" fill="#F44D3B"/>
<path d="M1251.72 150.825C1251.72 150.825 1442.07 412.901 1544.61 502.106L1546.36 501.954L1548.29 502.438L1550.63 503.131C1550.63 503.131 1590.15 515.681 1613.37 513.489C1613.37 513.489 1623.36 514.428 1632.35 508.111C1641.35 501.793 1636.48 490.866 1636.48 490.866C1636.48 490.866 1634.58 484.88 1626.53 481.958C1612.57 476.267 1597.07 468.289 1580.29 458.471C1531.96 430.203 1487.93 395.229 1449.09 354.99C1385.71 289.319 1320.08 221.761 1251.74 150.825H1251.72Z" fill="#F44D3B"/>
<path d="M1206 197.306C1206 197.306 1250.77 221.021 1296.49 195.409C1296.49 195.409 1255.53 156.517 1251.72 133.751C1251.72 133.751 1235.53 171.694 1206 197.306Z" fill="white"/>
<path d="M1251.72 133.751C1251.72 133.751 1269.82 118.573 1289.83 130.905C1309.83 143.237 1321.26 128.059 1321.26 128.059C1321.26 128.059 1326.98 151.167 1321.26 152.893C1315.55 154.62 1304.48 161.26 1289.53 150.825C1274.58 140.391 1261.32 154.525 1261.32 154.525C1261.32 154.525 1252.67 143.237 1251.72 133.751Z" fill="#F44D3B"/>
<path d="M557.531 187.811H564.657C574.721 187.811 582.88 179.686 582.88 169.664V169.655C582.88 159.633 574.721 151.508 564.657 151.508H557.531C547.467 151.508 539.308 159.633 539.308 169.655V169.664C539.308 179.686 547.467 187.811 557.531 187.811Z" fill="white"/>
<path d="M784.85 232.584H649.285C628.483 232.584 611.619 249.377 611.619 270.091V270.101C611.619 290.815 628.483 307.608 649.285 307.608H784.85C805.653 307.608 822.516 290.815 822.516 270.101V270.091C822.516 249.377 805.653 232.584 784.85 232.584Z" fill="white"/>
<path d="M913.738 170.12H778.944C758.142 170.12 741.278 186.912 741.278 207.627V207.636C741.278 228.351 758.142 245.143 778.944 245.143H913.738C934.54 245.143 951.404 228.351 951.404 207.636V207.627C951.404 186.912 934.54 170.12 913.738 170.12Z" fill="white"/>
<path d="M0 379.757H109.73C130.526 379.757 147.396 396.566 147.396 417.264C147.396 437.972 130.516 454.772 109.73 454.772H0V379.748V379.757Z" fill="white"/>
<path d="M840.635 206.422H546.109C525.307 206.422 508.443 223.215 508.443 243.929V243.939C508.443 264.653 525.307 281.446 546.109 281.446H840.635C861.438 281.446 878.301 264.653 878.301 243.939V243.929C878.301 223.215 861.438 206.422 840.635 206.422Z" fill="white"/>
<path d="M618.526 187.811H665.746C675.811 187.811 683.97 179.686 683.97 169.664V169.655C683.97 159.633 675.811 151.508 665.746 151.508H618.526C608.461 151.508 600.302 159.633 600.302 169.655V169.664C600.302 179.686 608.461 187.811 618.526 187.811Z" fill="white"/>
<path d="M95.5463 508.433H142.767C152.831 508.433 160.99 500.309 160.99 490.287V490.277C160.99 480.255 152.831 472.131 142.767 472.131H95.5463C85.4819 472.131 77.323 480.255 77.323 490.277V490.287C77.323 500.309 85.4819 508.433 95.5463 508.433Z" fill="white"/>
<path d="M698.869 360.463H388.053C385.233 360.463 382.947 362.739 382.947 365.548V710.15C382.947 712.958 385.233 715.235 388.053 715.235H698.869C701.689 715.235 703.975 712.958 703.975 710.15V365.548C703.975 362.739 701.689 360.463 698.869 360.463Z" fill="#A57E5D"/>
<path d="M469.367 702.903H450.22C449.199 702.903 448.372 703.727 448.372 704.743V812.996C448.372 814.012 449.199 814.836 450.22 814.836H469.367C470.388 814.836 471.216 814.012 471.216 812.996V704.743C471.216 703.727 470.388 702.903 469.367 702.903Z" fill="#A57E5D"/>
<path d="M638.817 702.903H619.517C618.538 702.903 617.745 703.693 617.745 704.667V813.072C617.745 814.046 618.538 814.836 619.517 814.836H638.817C639.795 814.836 640.589 814.046 640.589 813.072V704.667C640.589 703.693 639.795 702.903 638.817 702.903Z" fill="#A57E5D"/>
<path d="M448.372 715.235H471.216V776.096L448.372 715.235Z" fill="#84634A"/>
<path d="M617.745 715.235H640.589V776.096L617.745 715.235Z" fill="#84634A"/>
<path d="M439.837 455.322C441.933 456.175 443.581 457.873 444.781 460.416C445.981 462.967 446.581 465.936 446.581 469.332V537.887C446.581 538.427 446.467 539.699 446.229 541.71C446 542.715 445.648 543.683 445.181 544.603C444.324 546.69 443.085 548.539 441.456 550.161C439.827 551.784 438.084 552.941 435.988 553.87C433.816 554.8 431.568 555.255 429.244 555.255C426.92 555.255 424.671 554.791 422.499 553.87C420.404 552.941 418.546 551.708 416.917 550.161C415.364 548.539 414.126 546.69 413.193 544.603C412.259 542.44 411.802 540.201 411.802 537.887V402.523C411.802 402.059 411.954 400.787 412.269 398.701C412.497 397.695 412.812 396.728 413.202 395.807C414.05 393.72 415.298 391.909 416.927 390.362C418.48 388.74 420.299 387.507 422.395 386.653C424.567 385.724 426.815 385.269 429.139 385.269C431.616 385.269 433.902 385.733 435.998 386.653C438.017 387.507 439.837 388.74 441.466 390.362C443.095 391.909 444.333 393.72 445.191 395.807C446.124 397.97 446.581 400.209 446.581 402.523V451.271H430.654V402.523C430.654 401.679 430.149 401.214 429.139 401.138C428.368 401.138 427.901 401.603 427.748 402.523V464.476H428.558V463.318C429.568 458.841 431.816 456.062 435.302 454.98C435.922 454.828 436.503 454.753 437.046 454.753C437.741 454.753 438.341 454.828 438.846 454.98C439.351 455.132 439.675 455.255 439.837 455.331V455.322ZM430.759 538.114V471.305C430.444 470.461 429.949 470.034 429.244 470.034C428.549 470.11 428.082 470.499 427.853 471.192L427.739 538.124C428.044 539.053 428.587 539.509 429.368 539.509C430.139 539.357 430.606 538.892 430.759 538.124V538.114Z" fill="#6D4D37"/>
<path d="M490.925 390.362C492.554 391.909 493.792 393.72 494.65 395.807C495.583 397.97 496.041 400.209 496.041 402.523V537.887C496.041 540.201 495.574 542.44 494.65 544.603C493.792 546.69 492.554 548.539 490.925 550.161C489.296 551.708 487.477 552.941 485.457 553.87C483.209 554.715 480.923 555.142 478.598 555.142C476.274 555.142 474.026 554.715 471.854 553.87C469.758 552.941 467.939 551.708 466.386 550.161C464.757 548.539 463.519 546.69 462.661 544.603C461.728 542.44 461.271 540.201 461.271 537.887V402.523C461.271 400.209 461.737 397.97 462.661 395.807C463.509 393.72 464.757 391.909 466.386 390.362C467.939 388.74 469.758 387.507 471.854 386.653C474.026 385.724 476.274 385.269 478.598 385.269C480.923 385.269 483.209 385.733 485.457 386.653C487.477 387.507 489.296 388.74 490.925 390.362ZM480.113 536.141V404.487C480.113 403.643 479.608 403.14 478.598 402.979C477.827 402.979 477.36 403.481 477.208 404.487V536.141C477.208 537.071 477.674 537.574 478.598 537.65C479.446 537.65 479.951 537.147 480.113 536.141Z" fill="#6D4D37"/>
<path d="M540.394 390.362C542.023 391.909 543.261 393.72 544.118 395.807C545.052 397.97 545.509 400.209 545.509 402.523V537.887C545.509 540.201 545.043 542.44 544.118 544.603C543.261 546.69 542.023 548.539 540.394 550.161C538.765 551.708 536.945 552.941 534.926 553.87C532.678 554.715 530.391 555.142 528.067 555.142C525.743 555.142 523.495 554.715 521.323 553.87C519.227 552.941 517.407 551.708 515.855 550.161C514.226 548.539 512.987 546.69 512.13 544.603C511.196 542.44 510.739 540.201 510.739 537.887V402.523C510.739 400.209 511.206 397.97 512.13 395.807C512.978 393.72 514.226 391.909 515.855 390.362C517.407 388.74 519.227 387.507 521.323 386.653C523.495 385.724 525.743 385.269 528.067 385.269C530.391 385.269 532.678 385.733 534.926 386.653C536.945 387.507 538.765 388.74 540.394 390.362ZM529.582 536.141V404.487C529.582 403.643 529.077 403.14 528.067 402.979C527.296 402.979 526.829 403.481 526.676 404.487V536.141C526.676 537.071 527.143 537.574 528.067 537.65C528.915 537.65 529.42 537.147 529.582 536.141Z" fill="#6D4D37"/>
<path d="M589.863 390.362C591.492 391.909 592.73 393.72 593.587 395.807C594.521 397.97 594.978 400.209 594.978 402.523V537.887C594.978 540.201 594.511 542.44 593.587 544.603C592.73 546.69 591.492 548.539 589.863 550.161C588.234 551.708 586.414 552.941 584.395 553.87C582.146 554.715 579.86 555.142 577.536 555.142C575.212 555.142 572.963 554.715 570.791 553.87C568.696 552.941 566.876 551.708 565.323 550.161C563.695 548.539 562.456 546.69 561.599 544.603C560.665 542.44 560.208 540.201 560.208 537.887V402.523C560.208 400.209 560.675 397.97 561.599 395.807C562.447 393.72 563.695 391.909 565.323 390.362C566.876 388.74 568.696 387.507 570.791 386.653C572.963 385.724 575.212 385.269 577.536 385.269C579.86 385.269 582.146 385.733 584.395 386.653C586.414 387.507 588.234 388.74 589.863 390.362ZM579.05 536.141V404.487C579.05 403.643 578.546 403.14 577.536 402.979C576.764 402.979 576.297 403.481 576.145 404.487V536.141C576.145 537.071 576.612 537.574 577.536 537.65C578.384 537.65 578.889 537.147 579.05 536.141Z" fill="#6D4D37"/>
<path d="M660.307 403.093C659.536 403.093 659.031 403.595 658.793 404.601V456.944H669.719V469.332H658.793V471.647H669.719V484.035H658.793V536.492C658.869 536.644 658.926 536.824 658.964 537.014C659.002 537.204 659.097 537.384 659.259 537.536C659.726 537.763 660.069 537.887 660.307 537.887H678.683V553.747H660.307C659.536 553.747 658.812 553.709 658.154 553.633C657.497 553.557 656.935 553.482 656.468 553.406C656.002 553.33 655.03 552.979 653.563 552.362C651.467 551.518 649.648 550.313 648.095 548.777C646.466 547.154 645.228 545.305 644.37 543.218C643.827 541.985 643.475 541.017 643.322 540.325C643.094 538.314 642.97 537.043 642.97 536.502V484.045H639.017V471.656H642.97V469.342H639.017V456.953H642.97V404.61C642.97 403.994 643.084 402.723 643.322 400.787C643.475 400.095 643.827 399.089 644.37 397.78C645.218 395.769 646.466 393.958 648.095 392.336C649.648 390.713 651.467 389.48 653.563 388.627C655.03 388.086 656.002 387.782 656.468 387.697C657.316 387.469 658.326 387.346 659.488 387.346H678.674V403.093H660.298H660.307Z" fill="#6D4D37"/>
<path d="M420.937 578.278V590.875C420.937 594.062 418.346 596.642 415.145 596.642H410.573C409.849 596.642 409.354 596.149 409.354 595.428V573.724C409.354 573.004 409.849 572.51 410.573 572.51H415.145C418.346 572.51 420.937 575.09 420.937 578.278ZM415.145 574.939H411.792V594.214H415.145C417.012 594.214 418.499 592.734 418.499 590.875V578.278C418.499 576.456 417.012 574.939 415.145 574.939Z" fill="#6D4D37"/>
<path d="M425.662 591.776V584.187C425.662 581.455 427.872 579.255 430.616 579.255C433.359 579.255 435.569 581.455 435.569 584.187V587.982C435.569 588.627 435.074 589.12 434.426 589.12H427.948V591.776C427.948 592.838 428.558 593.825 429.587 594.242C430.616 594.66 431.721 594.432 432.483 593.673C432.711 593.445 432.978 593.332 433.283 593.332C433.626 593.332 433.893 593.445 434.121 593.673C434.35 593.863 434.464 594.128 434.464 594.47C434.464 594.774 434.35 595.039 434.121 595.267C432.711 596.671 430.578 597.088 428.71 596.329C426.843 595.57 425.662 593.787 425.662 591.776ZM427.948 584.187V586.843H433.283V584.187C433.283 582.707 432.102 581.531 430.616 581.531C429.13 581.531 427.948 582.707 427.948 584.187Z" fill="#6D4D37"/>
<path d="M454.011 591.852C453.973 591.093 453.63 590.486 452.983 590.031L449.439 587.526C448.258 586.729 447.61 585.477 447.496 584.111C447.381 582.707 447.953 581.379 448.982 580.469C450.011 579.52 451.382 579.103 452.754 579.293C454.126 579.558 455.307 580.317 456.031 581.531C456.336 582.1 456.183 582.783 455.612 583.087C455.04 583.39 454.354 583.239 454.05 582.67C453.707 582.062 453.135 581.683 452.411 581.569C451.687 581.455 451.039 581.645 450.506 582.138C449.972 582.632 449.744 583.239 449.782 583.96C449.82 584.681 450.163 585.25 450.773 585.667L454.316 588.133C455.498 589.006 456.183 590.22 456.298 591.7C456.412 593.18 455.84 594.508 454.774 595.456C453.707 596.481 452.297 596.86 450.887 596.671C449.401 596.405 448.22 595.608 447.496 594.356C447.191 593.787 447.343 593.104 447.915 592.8C448.486 592.497 449.172 592.649 449.477 593.218C449.896 593.863 450.468 594.28 451.23 594.394C451.954 594.508 452.64 594.318 453.249 593.787C453.821 593.256 454.088 592.611 454.011 591.852Z" fill="#6D4D37"/>
<path d="M460.832 591.624V580.393C460.832 579.748 461.327 579.255 461.975 579.255C462.623 579.255 463.118 579.748 463.118 580.393V591.624C463.118 593.104 464.299 594.28 465.786 594.28H468.453V580.393C468.453 579.748 468.948 579.255 469.596 579.255C470.244 579.255 470.739 579.748 470.739 580.393V595.419C470.739 596.064 470.244 596.557 469.596 596.557H465.786C463.042 596.557 460.832 594.356 460.832 591.624Z" fill="#6D4D37"/>
<path d="M476.455 595.419V572.804C476.455 572.159 476.95 571.666 477.598 571.666C478.208 571.666 478.741 572.159 478.741 572.804V579.406H481.409C484.114 579.406 486.362 581.607 486.362 584.339V591.624C486.362 594.356 484.114 596.557 481.409 596.557H477.598C476.95 596.557 476.455 596.064 476.455 595.419ZM478.741 594.28H481.409C482.895 594.28 484.076 593.104 484.076 591.624V584.339C484.076 582.859 482.895 581.683 481.409 581.683H478.741V594.28Z" fill="#6D4D37"/>
<path d="M490.743 579.293C491.315 579.141 491.963 579.482 492.153 580.052L493.411 584.263C494.135 586.654 494.973 589.499 495.621 591.624C496.23 589.499 497.107 586.654 497.831 584.263L499.088 580.052C499.279 579.482 499.927 579.141 500.536 579.293C501.146 579.482 501.489 580.127 501.298 580.735L496.726 595.912C496.573 596.367 496.116 596.709 495.621 596.709C495.125 596.709 494.668 596.367 494.516 595.912L489.943 580.735C489.791 580.127 490.134 579.482 490.743 579.293Z" fill="#6D4D37"/>
<path d="M504.881 591.776V584.187C504.881 581.455 507.091 579.255 509.834 579.255C512.578 579.255 514.788 581.455 514.788 584.187V587.982C514.788 588.627 514.293 589.12 513.645 589.12H507.167V591.776C507.167 592.838 507.777 593.825 508.806 594.242C509.834 594.66 510.939 594.432 511.701 593.673C511.93 593.445 512.197 593.332 512.502 593.332C512.845 593.332 513.111 593.445 513.34 593.673C513.569 593.863 513.683 594.128 513.683 594.47C513.683 594.774 513.569 595.039 513.34 595.267C511.93 596.671 509.796 597.088 507.929 596.329C506.062 595.57 504.881 593.787 504.881 591.776ZM507.167 584.187V586.843H512.502V584.187C512.502 582.707 511.32 581.531 509.834 581.531C508.348 581.531 507.167 582.707 507.167 584.187Z" fill="#6D4D37"/>
<path d="M519.741 595.57V580.545C519.741 579.9 520.237 579.406 520.884 579.406H524.695C527.4 579.406 529.648 581.607 529.648 584.339V595.57C529.648 596.215 529.115 596.709 528.505 596.709C527.857 596.709 527.362 596.215 527.362 595.57V584.339C527.362 582.859 526.181 581.683 524.695 581.683H522.027V595.57C522.027 596.215 521.494 596.709 520.884 596.709C520.237 596.709 519.741 596.215 519.741 595.57Z" fill="#6D4D37"/>
<path d="M533.382 580.545C533.382 579.9 533.877 579.406 534.525 579.406H536.43V572.804C536.43 572.159 536.926 571.666 537.573 571.666C538.221 571.666 538.716 572.159 538.716 572.804V579.406H541.384C542.032 579.406 542.527 579.9 542.527 580.545C542.527 581.19 542.032 581.683 541.384 581.683H538.716V591.776C538.716 593.256 539.898 594.432 541.384 594.432C542.032 594.432 542.527 594.925 542.527 595.57C542.527 596.215 542.032 596.709 541.384 596.709C538.64 596.709 536.43 594.508 536.43 591.776V581.683H534.525C533.877 581.683 533.382 581.19 533.382 580.545Z" fill="#6D4D37"/>
<path d="M546.338 574.711C546.338 573.838 546.986 573.193 547.862 573.193C548.738 573.193 549.386 573.838 549.386 574.711C549.386 575.584 548.738 576.229 547.862 576.229C546.986 576.229 546.338 575.584 546.338 574.711ZM547.862 596.709C547.252 596.709 546.719 596.215 546.719 595.57V580.393C546.719 579.748 547.252 579.255 547.862 579.255C548.51 579.255 549.005 579.748 549.005 580.393V595.57C549.005 596.215 548.51 596.709 547.862 596.709Z" fill="#6D4D37"/>
<path d="M554.264 591.776V584.187C554.264 581.455 556.474 579.255 559.217 579.255C561.961 579.255 564.171 581.455 564.171 584.187V591.776C564.171 594.508 561.923 596.709 559.217 596.709C556.512 596.709 554.264 594.508 554.264 591.776ZM556.55 584.187V591.776C556.55 593.256 557.731 594.432 559.217 594.432C560.703 594.432 561.885 593.256 561.885 591.776V584.187C561.885 582.707 560.703 581.531 559.217 581.531C557.731 581.531 556.55 582.707 556.55 584.187Z" fill="#6D4D37"/>
<path d="M569.429 595.57V580.545C569.429 579.9 569.924 579.406 570.572 579.406H574.382C577.088 579.406 579.336 581.607 579.336 584.339V595.57C579.336 596.215 578.802 596.709 578.193 596.709C577.545 596.709 577.05 596.215 577.05 595.57V584.339C577.05 582.859 575.868 581.683 574.382 581.683H571.715V595.57C571.715 596.215 571.182 596.709 570.572 596.709C569.924 596.709 569.429 596.215 569.429 595.57Z" fill="#6D4D37"/>
<path d="M590.539 591.852C590.501 591.093 590.158 590.486 589.51 590.031L585.966 587.526C584.785 586.729 584.137 585.477 584.023 584.111C583.909 582.707 584.48 581.379 585.509 580.469C586.538 579.52 587.91 579.103 589.281 579.293C590.653 579.558 591.834 580.317 592.558 581.531C592.863 582.1 592.711 582.783 592.139 583.087C591.568 583.39 590.882 583.239 590.577 582.67C590.234 582.062 589.662 581.683 588.938 581.569C588.214 581.455 587.567 581.645 587.033 582.138C586.5 582.632 586.271 583.239 586.309 583.96C586.347 584.681 586.69 585.25 587.3 585.667L590.844 588.133C592.025 589.006 592.711 590.22 592.825 591.7C592.939 593.18 592.368 594.508 591.301 595.456C590.234 596.481 588.824 596.86 587.414 596.671C585.928 596.405 584.747 595.608 584.023 594.356C583.718 593.787 583.871 593.104 584.442 592.8C585.014 592.497 585.7 592.649 586.004 593.218C586.424 593.863 586.995 594.28 587.757 594.394C588.481 594.508 589.167 594.318 589.777 593.787C590.348 593.256 590.615 592.611 590.539 591.852Z" fill="#6D4D37"/>
<path d="M415.526 629.644C415.526 628.581 414.878 627.671 413.926 627.253C412.897 626.836 411.83 627.063 411.106 627.822C410.877 628.05 410.611 628.164 410.268 628.164C409.963 628.164 409.696 628.05 409.468 627.822C409.239 627.595 409.125 627.329 409.125 627.026C409.125 626.684 409.239 626.418 409.468 626.229C410.877 624.825 412.973 624.407 414.802 625.166C416.631 625.925 417.812 627.671 417.812 629.644V640.951C417.812 641.596 417.279 642.089 416.669 642.089H412.859C410.115 642.089 407.905 639.888 407.905 637.156C407.905 634.425 410.115 632.224 412.859 632.224H415.526V629.644ZM412.859 639.812H415.526V634.5H412.859C411.373 634.5 410.192 635.677 410.192 637.156C410.192 638.636 411.373 639.812 412.859 639.812Z" fill="#6D4D37"/>
<path d="M422.766 637.308V629.72C422.766 627.709 423.947 625.925 425.814 625.166C427.681 624.407 429.739 624.825 431.225 626.229C431.415 626.456 431.53 626.722 431.53 627.063C431.53 627.367 431.415 627.633 431.225 627.86C430.996 628.05 430.729 628.164 430.386 628.164C430.082 628.164 429.815 628.05 429.586 627.86C428.824 627.064 427.719 626.836 426.69 627.253C425.662 627.671 425.052 628.657 425.052 629.72V637.308C425.052 638.371 425.662 639.357 426.69 639.775C427.719 640.192 428.824 639.964 429.586 639.205C429.815 638.978 430.082 638.864 430.386 638.864C430.729 638.864 430.996 638.978 431.225 639.205C431.415 639.395 431.53 639.661 431.53 640.002C431.53 640.306 431.415 640.571 431.225 640.799C429.739 642.203 427.681 642.62 425.814 641.861C423.947 641.103 422.766 639.319 422.766 637.308Z" fill="#6D4D37"/>
<path d="M435.646 637.308V629.72C435.646 627.709 436.827 625.925 438.694 625.166C440.561 624.407 442.619 624.825 444.105 626.229C444.295 626.456 444.409 626.722 444.409 627.063C444.409 627.367 444.295 627.633 444.105 627.86C443.876 628.05 443.609 628.164 443.266 628.164C442.962 628.164 442.695 628.05 442.466 627.86C441.704 627.064 440.599 626.836 439.57 627.253C438.541 627.671 437.932 628.657 437.932 629.72V637.308C437.932 638.371 438.541 639.357 439.57 639.775C440.599 640.192 441.704 639.964 442.466 639.205C442.695 638.978 442.962 638.864 443.266 638.864C443.609 638.864 443.876 638.978 444.105 639.205C444.295 639.395 444.409 639.661 444.409 640.002C444.409 640.306 444.295 640.571 444.105 640.799C442.619 642.203 440.561 642.62 438.694 641.861C436.827 641.103 435.646 639.319 435.646 637.308Z" fill="#6D4D37"/>
<path d="M448.524 637.308V629.719C448.524 626.988 450.734 624.787 453.478 624.787C456.221 624.787 458.431 626.988 458.431 629.719V637.308C458.431 640.04 456.183 642.241 453.478 642.241C450.773 642.241 448.524 640.04 448.524 637.308ZM450.811 629.719V637.308C450.811 638.788 451.992 639.964 453.478 639.964C454.964 639.964 456.145 638.788 456.145 637.308V629.719C456.145 628.24 454.964 627.063 453.478 627.063C451.992 627.063 450.811 628.24 450.811 629.719Z" fill="#6D4D37"/>
<path d="M463.689 641.103V626.077C463.689 625.432 464.185 624.939 464.833 624.939H468.643C469.519 624.939 470.32 625.166 471.12 625.584C471.691 625.925 471.844 626.57 471.539 627.139C471.234 627.709 470.548 627.898 469.977 627.557C469.557 627.329 469.1 627.215 468.643 627.215H465.976V641.103C465.976 641.748 465.48 642.241 464.833 642.241C464.185 642.241 463.689 641.748 463.689 641.103Z" fill="#6D4D37"/>
<path d="M475.007 637.156V629.871C475.007 627.139 477.217 624.939 479.96 624.939H482.628V618.337C482.628 617.691 483.123 617.198 483.771 617.198C484.38 617.198 484.914 617.691 484.914 618.337V640.951C484.914 641.596 484.38 642.089 483.771 642.089H479.96C477.217 642.089 475.007 639.888 475.007 637.156ZM477.293 629.871V637.156C477.293 638.636 478.474 639.813 479.96 639.813H482.628V627.215H479.96C478.474 627.215 477.293 628.392 477.293 629.871Z" fill="#6D4D37"/>
<path d="M490.172 637.308V629.719C490.172 626.988 492.42 624.787 495.125 624.787C497.831 624.787 500.079 626.988 500.079 629.719V633.514C500.079 634.159 499.584 634.652 498.936 634.652H492.458V637.308C492.458 638.371 493.068 639.357 494.097 639.775C495.125 640.192 496.269 639.964 497.031 639.205C497.221 638.978 497.488 638.864 497.793 638.864C498.136 638.864 498.402 638.978 498.631 639.205C498.86 639.395 498.974 639.661 498.974 640.002C498.974 640.306 498.86 640.571 498.631 640.799C497.221 642.203 495.087 642.62 493.258 641.861C491.391 641.103 490.172 639.319 490.172 637.308ZM497.907 617.587C498.326 618.042 498.288 618.763 497.793 619.181L493.982 622.596C493.525 623.013 492.801 622.975 492.382 622.52C491.963 622.064 492.001 621.343 492.458 620.926L496.269 617.511C496.764 617.094 497.45 617.132 497.907 617.587ZM492.458 629.719V632.376H497.793V629.719C497.793 628.24 496.611 627.063 495.125 627.063C493.639 627.063 492.458 628.24 492.458 629.719Z" fill="#6D4D37"/>
<path d="M504.575 637.308V629.719C504.575 626.988 506.785 624.787 509.529 624.787C512.272 624.787 514.482 626.988 514.482 629.719V633.514C514.482 634.159 513.987 634.652 513.339 634.652H506.861V637.308C506.861 638.371 507.471 639.357 508.5 639.775C509.529 640.192 510.634 639.964 511.396 639.205C511.624 638.978 511.891 638.864 512.196 638.864C512.539 638.864 512.806 638.978 513.034 639.205C513.263 639.395 513.377 639.661 513.377 640.002C513.377 640.306 513.263 640.571 513.034 640.799C511.624 642.203 509.491 642.62 507.624 641.861C505.756 641.103 504.575 639.319 504.575 637.308ZM506.861 629.719V632.376H512.196V629.719C512.196 628.24 511.015 627.063 509.529 627.063C508.043 627.063 506.861 628.24 506.861 629.719Z" fill="#6D4D37"/>
<path d="M525.228 637.384C525.19 636.625 524.847 636.018 524.199 635.563L520.656 633.059C519.475 632.262 518.827 631.01 518.712 629.644C518.598 628.24 519.17 626.912 520.199 626.001C521.227 625.052 522.599 624.635 523.971 624.825C525.343 625.09 526.524 625.849 527.248 627.063C527.553 627.633 527.4 628.316 526.829 628.619C526.257 628.923 525.571 628.771 525.266 628.202C524.923 627.595 524.352 627.215 523.628 627.101C522.904 626.988 522.256 627.177 521.723 627.671C521.189 628.164 520.961 628.771 520.999 629.492C521.037 630.213 521.38 630.782 521.989 631.199L525.533 633.666C526.714 634.538 527.4 635.753 527.515 637.232C527.629 638.712 527.057 640.04 525.99 640.989C524.923 642.013 523.514 642.393 522.104 642.203C520.618 641.937 519.436 641.14 518.712 639.888C518.408 639.319 518.56 638.636 519.132 638.333C519.703 638.029 520.389 638.181 520.694 638.75C521.113 639.395 521.685 639.812 522.447 639.926C523.171 640.04 523.856 639.85 524.466 639.319C525.038 638.788 525.304 638.143 525.228 637.384Z" fill="#6D4D37"/>
<path d="M546.137 629.644C546.137 628.581 545.49 627.671 544.537 627.253C543.508 626.836 542.441 627.063 541.717 627.822C541.489 628.05 541.222 628.164 540.879 628.164C540.574 628.164 540.308 628.05 540.079 627.822C539.85 627.595 539.736 627.329 539.736 627.026C539.736 626.684 539.85 626.418 540.079 626.229C541.489 624.825 543.584 624.407 545.413 625.166C547.242 625.925 548.424 627.671 548.424 629.644V640.951C548.424 641.596 547.89 642.089 547.281 642.089H543.47C540.727 642.089 538.517 639.888 538.517 637.156C538.517 634.425 540.727 632.224 543.47 632.224H546.137V629.644ZM543.48 639.812H546.147V634.5H543.48C541.994 634.5 540.812 635.677 540.812 637.156C540.812 638.636 541.994 639.812 543.48 639.812Z" fill="#6D4D37"/>
<path d="M553.539 637.156V625.925C553.539 625.28 554.034 624.787 554.682 624.787C555.33 624.787 555.825 625.28 555.825 625.925V637.156C555.825 638.636 557.007 639.812 558.493 639.812H561.16V625.925C561.16 625.28 561.655 624.787 562.303 624.787C562.951 624.787 563.446 625.28 563.446 625.925V640.951C563.446 641.596 562.951 642.089 562.303 642.089H558.493C555.749 642.089 553.539 639.888 553.539 637.156Z" fill="#6D4D37"/>
<path d="M568.095 640.571L572.058 633.362L568.248 626.494C567.943 625.925 568.133 625.242 568.705 624.939C569.277 624.635 569.963 624.825 570.267 625.394L573.354 631.01L576.478 625.394C576.783 624.825 577.469 624.635 578.041 624.939C578.612 625.242 578.803 625.925 578.498 626.494L574.687 633.362L578.65 640.571C578.955 641.141 578.765 641.786 578.193 642.089C577.621 642.393 576.936 642.241 576.631 641.672L573.354 635.753L570.115 641.672C569.81 642.241 569.124 642.393 568.553 642.089C567.981 641.786 567.791 641.141 568.095 640.571Z" fill="#6D4D37"/>
<path d="M590.5 637.308V629.72C590.5 627.709 591.681 625.925 593.548 625.166C595.415 624.407 597.473 624.825 598.959 626.229C599.15 626.456 599.264 626.722 599.264 627.063C599.264 627.367 599.15 627.633 598.959 627.86C598.731 628.05 598.464 628.164 598.121 628.164C597.816 628.164 597.549 628.05 597.321 627.86C596.559 627.064 595.454 626.836 594.425 627.253C593.396 627.671 592.786 628.657 592.786 629.72V637.308C592.786 638.371 593.396 639.357 594.425 639.775C595.454 640.192 596.559 639.964 597.321 639.205C597.549 638.978 597.816 638.864 598.121 638.864C598.464 638.864 598.731 638.978 598.959 639.205C599.15 639.395 599.264 639.661 599.264 640.002C599.264 640.306 599.15 640.571 598.959 640.799C597.473 642.203 595.415 642.62 593.548 641.861C591.681 641.103 590.5 639.319 590.5 637.308Z" fill="#6D4D37"/>
<path d="M603.446 620.243C603.446 619.37 604.094 618.725 604.97 618.725C605.847 618.725 606.495 619.37 606.495 620.243C606.495 621.116 605.847 621.761 604.97 621.761C604.094 621.761 603.446 621.116 603.446 620.243ZM604.97 642.241C604.361 642.241 603.827 641.748 603.827 641.102V625.925C603.827 625.28 604.361 624.787 604.97 624.787C605.618 624.787 606.114 625.28 606.114 625.925V641.102C606.114 641.748 605.618 642.241 604.97 642.241Z" fill="#6D4D37"/>
<path d="M611.829 641.103V626.077C611.829 625.432 612.324 624.939 612.972 624.939H616.783C617.659 624.939 618.459 625.166 619.259 625.584C619.831 625.925 619.983 626.57 619.679 627.139C619.374 627.709 618.688 627.898 618.116 627.557C617.697 627.329 617.24 627.215 616.783 627.215H614.115V641.103C614.115 641.748 613.62 642.241 612.972 642.241C612.324 642.241 611.829 641.748 611.829 641.103Z" fill="#6D4D37"/>
<path d="M623.146 637.157V629.871C623.146 627.139 625.356 624.939 628.1 624.939H631.91C632.52 624.939 633.054 625.432 633.054 626.077V648.691C633.054 649.336 632.52 649.83 631.91 649.83C631.263 649.83 630.767 649.336 630.767 648.691V642.089H628.1C625.356 642.089 623.146 639.888 623.146 637.157ZM625.433 629.871V637.157C625.433 638.636 626.614 639.813 628.1 639.813H630.767V627.215H628.1C626.614 627.215 625.433 628.392 625.433 629.871Z" fill="#6D4D37"/>
<path d="M638.464 637.156V625.925C638.464 625.28 638.959 624.787 639.607 624.787C640.255 624.787 640.75 625.28 640.75 625.925V637.156C640.75 638.636 641.931 639.812 643.417 639.812H646.085V625.925C646.085 625.28 646.58 624.787 647.228 624.787C647.876 624.787 648.371 625.28 648.371 625.925V640.951C648.371 641.596 647.876 642.089 647.228 642.089H643.417C640.674 642.089 638.464 639.888 638.464 637.156Z" fill="#6D4D37"/>
<path d="M653.63 637.308V629.719C653.63 626.988 655.84 624.787 658.583 624.787C661.327 624.787 663.537 626.988 663.537 629.719V633.514C663.537 634.159 663.042 634.652 662.394 634.652H655.916V637.308C655.916 638.371 656.526 639.357 657.555 639.775C658.583 640.192 659.688 639.964 660.451 639.205C660.679 638.978 660.946 638.864 661.251 638.864C661.594 638.864 661.86 638.978 662.089 639.205C662.318 639.395 662.432 639.661 662.432 640.002C662.432 640.306 662.318 640.571 662.089 640.799C660.679 642.203 658.545 642.62 656.678 641.861C654.811 641.103 653.63 639.319 653.63 637.308ZM655.916 629.719V632.376H661.251V629.719C661.251 628.24 660.069 627.063 658.583 627.063C657.097 627.063 655.916 628.24 655.916 629.719Z" fill="#6D4D37"/>
<path d="M674.282 637.384C674.244 636.625 673.901 636.018 673.253 635.563L669.71 633.059C668.528 632.262 667.88 631.01 667.766 629.644C667.652 628.24 668.223 626.912 669.252 626.001C670.281 625.052 671.653 624.635 673.025 624.825C674.396 625.09 675.578 625.849 676.302 627.063C676.606 627.633 676.454 628.316 675.882 628.619C675.311 628.923 674.625 628.771 674.32 628.202C673.977 627.595 673.406 627.215 672.682 627.101C671.958 626.988 671.31 627.177 670.776 627.671C670.243 628.164 670.014 628.771 670.052 629.492C670.091 630.213 670.433 630.782 671.043 631.199L674.587 633.666C675.768 634.538 676.454 635.753 676.568 637.232C676.683 638.712 676.111 640.04 675.044 640.989C673.977 642.013 672.567 642.393 671.157 642.203C669.671 641.937 668.49 641.14 667.766 639.888C667.461 639.319 667.614 638.636 668.185 638.333C668.757 638.029 669.443 638.181 669.748 638.75C670.167 639.395 670.738 639.812 671.5 639.926C672.224 640.04 672.91 639.85 673.52 639.319C674.091 638.788 674.358 638.143 674.282 637.384Z" fill="#6D4D37"/>
<path d="M409.049 665.775C409.049 664.903 409.697 664.258 410.573 664.258C411.449 664.258 412.097 664.903 412.097 665.775C412.097 666.648 411.449 667.293 410.573 667.293C409.697 667.293 409.049 666.648 409.049 665.775ZM410.573 687.773C409.963 687.773 409.43 687.28 409.43 686.635V671.457C409.43 670.812 409.963 670.319 410.573 670.319C411.221 670.319 411.716 670.812 411.716 671.457V686.635C411.716 687.28 411.221 687.773 410.573 687.773Z" fill="#6D4D37"/>
<path d="M415.755 671.609C415.755 670.964 416.25 670.471 416.898 670.471H418.803V663.869C418.803 663.224 419.299 662.73 419.946 662.73C420.594 662.73 421.089 663.224 421.089 663.869V670.471H423.757C424.405 670.471 424.9 670.964 424.9 671.609C424.9 672.254 424.405 672.748 423.757 672.748H421.089V682.84C421.089 684.32 422.271 685.497 423.757 685.497C424.405 685.497 424.9 685.99 424.9 686.635C424.9 687.28 424.405 687.773 423.757 687.773C421.013 687.773 418.803 685.572 418.803 682.84V672.748H416.898C416.25 672.748 415.755 672.254 415.755 671.609Z" fill="#6D4D37"/>
<path d="M428.71 665.775C428.71 664.903 429.358 664.258 430.234 664.258C431.111 664.258 431.758 664.903 431.758 665.775C431.758 666.648 431.111 667.293 430.234 667.293C429.358 667.293 428.71 666.648 428.71 665.775ZM430.234 687.773C429.624 687.773 429.091 687.28 429.091 686.635V671.457C429.091 670.812 429.624 670.319 430.234 670.319C430.882 670.319 431.377 670.812 431.377 671.457V686.635C431.377 687.28 430.882 687.773 430.234 687.773Z" fill="#6D4D37"/>
<path d="M437.093 686.635V671.609C437.093 670.964 437.588 670.471 438.236 670.471H442.046C444.752 670.471 447 672.672 447 675.404V686.635C447 687.28 446.466 687.773 445.857 687.773C445.209 687.773 444.714 687.28 444.714 686.635V675.404C444.714 673.924 443.532 672.748 442.046 672.748H439.379V686.635C439.379 687.28 438.846 687.773 438.236 687.773C437.588 687.773 437.093 687.28 437.093 686.635Z" fill="#6D4D37"/>
<path d="M451.954 682.84V675.252C451.954 672.52 454.202 670.319 456.908 670.319C459.613 670.319 461.861 672.52 461.861 675.252V679.046C461.861 679.691 461.366 680.184 460.718 680.184H454.24V682.84C454.24 683.903 454.85 684.889 455.879 685.307C456.908 685.724 458.051 685.496 458.813 684.738C459.003 684.51 459.27 684.396 459.575 684.396C459.918 684.396 460.185 684.51 460.413 684.738C460.642 684.927 460.756 685.193 460.756 685.534C460.756 685.838 460.642 686.104 460.413 686.331C459.003 687.735 456.87 688.153 455.041 687.394C453.173 686.635 451.954 684.851 451.954 682.84ZM459.689 663.119C460.108 663.575 460.07 664.296 459.575 664.713L455.765 668.128C455.307 668.545 454.583 668.507 454.164 668.052C453.745 667.597 453.783 666.876 454.24 666.458L458.051 663.043C458.546 662.626 459.232 662.664 459.689 663.119ZM454.24 675.252V677.908H459.575V675.252C459.575 673.772 458.394 672.596 456.908 672.596C455.422 672.596 454.24 673.772 454.24 675.252Z" fill="#6D4D37"/>
<path d="M466.814 686.635V671.609C466.814 670.964 467.31 670.471 467.958 670.471H471.768C472.644 670.471 473.445 670.699 474.245 671.116C474.816 671.457 474.969 672.103 474.664 672.672C474.359 673.241 473.673 673.431 473.102 673.089C472.683 672.861 472.225 672.748 471.768 672.748H469.101V686.635C469.101 687.28 468.605 687.773 467.958 687.773C467.31 687.773 466.814 687.28 466.814 686.635Z" fill="#6D4D37"/>
<path d="M484.304 675.176C484.304 674.113 483.657 673.203 482.704 672.785C481.675 672.368 480.608 672.596 479.884 673.355C479.656 673.582 479.389 673.696 479.046 673.696C478.741 673.696 478.475 673.582 478.246 673.355C478.017 673.127 477.903 672.861 477.903 672.558C477.903 672.216 478.017 671.951 478.246 671.761C479.656 670.357 481.751 669.94 483.58 670.699C485.409 671.457 486.591 673.203 486.591 675.176V686.483C486.591 687.128 486.057 687.621 485.448 687.621H481.637C478.894 687.621 476.684 685.421 476.684 682.689C476.684 679.957 478.894 677.756 481.637 677.756H484.304V675.176ZM481.637 685.345H484.304V680.033H481.637C480.151 680.033 478.97 681.209 478.97 682.689C478.97 684.168 480.151 685.345 481.637 685.345Z" fill="#6D4D37"/>
<path d="M492.001 686.635V671.609C492.001 670.964 492.496 670.471 493.144 670.471H496.955C499.66 670.471 501.908 672.672 501.908 675.404V686.635C501.908 687.28 501.375 687.773 500.765 687.773C500.117 687.773 499.622 687.28 499.622 686.635V675.404C499.622 673.924 498.441 672.748 496.955 672.748H494.287V686.635C494.287 687.28 493.754 687.773 493.144 687.773C492.496 687.773 492.001 687.28 492.001 686.635Z" fill="#6D4D37"/>
<path d="M505.643 671.609C505.643 670.964 506.138 670.471 506.786 670.471H508.691V663.869C508.691 663.224 509.186 662.73 509.834 662.73C510.482 662.73 510.977 663.224 510.977 663.869V670.471H513.644C514.292 670.471 514.788 670.964 514.788 671.609C514.788 672.254 514.292 672.748 513.644 672.748H510.977V682.84C510.977 684.32 512.158 685.497 513.644 685.497C514.292 685.497 514.788 685.99 514.788 686.635C514.788 687.28 514.292 687.773 513.644 687.773C510.901 687.773 508.691 685.572 508.691 682.84V672.748H506.786C506.138 672.748 505.643 672.254 505.643 671.609Z" fill="#6D4D37"/>
<path d="M524.77 682.916C524.732 682.157 524.389 681.55 523.741 681.095L520.198 678.591C519.017 677.794 518.369 676.542 518.254 675.176C518.14 673.772 518.712 672.444 519.741 671.533C520.769 670.585 522.141 670.167 523.513 670.357C524.885 670.623 526.066 671.381 526.79 672.596C527.095 673.165 526.942 673.848 526.371 674.151C525.799 674.455 525.113 674.303 524.808 673.734C524.465 673.127 523.894 672.747 523.17 672.634C522.446 672.52 521.798 672.71 521.265 673.203C520.731 673.696 520.503 674.303 520.541 675.024C520.579 675.745 520.922 676.314 521.531 676.731L525.075 679.198C526.256 680.071 526.942 681.285 527.057 682.765C527.171 684.244 526.599 685.572 525.532 686.521C524.465 687.545 523.056 687.925 521.646 687.735C520.16 687.47 518.978 686.673 518.254 685.421C517.95 684.851 518.102 684.168 518.674 683.865C519.245 683.561 519.931 683.713 520.236 684.282C520.655 684.927 521.227 685.345 521.989 685.459C522.713 685.572 523.399 685.383 524.008 684.851C524.58 684.32 524.846 683.675 524.77 682.916Z" fill="#6D4D37"/>
<path d="M539.136 682.84V675.252C539.136 672.52 541.346 670.319 544.089 670.319C546.833 670.319 549.043 672.52 549.043 675.252V679.046C549.043 679.691 548.547 680.184 547.9 680.184H541.422V682.84C541.422 683.903 542.032 684.889 543.06 685.307C544.089 685.724 545.194 685.496 545.956 684.738C546.185 684.51 546.452 684.396 546.757 684.396C547.1 684.396 547.366 684.51 547.595 684.738C547.823 684.927 547.938 685.193 547.938 685.534C547.938 685.838 547.823 686.104 547.595 686.331C546.185 687.735 544.051 688.153 542.184 687.394C540.317 686.635 539.136 684.851 539.136 682.84ZM541.422 675.252V677.908H546.757V675.252C546.757 673.772 545.575 672.596 544.089 672.596C542.603 672.596 541.422 673.772 541.422 675.252Z" fill="#6D4D37"/>
<path d="M553.997 686.635V671.609C553.997 670.964 554.492 670.471 555.14 670.471H558.951C561.656 670.471 563.904 672.672 563.904 675.404V686.635C563.904 687.28 563.371 687.773 562.761 687.773C562.113 687.773 561.618 687.28 561.618 686.635V675.404C561.618 673.924 560.437 672.748 558.951 672.748H556.283V686.635C556.283 687.28 555.75 687.773 555.14 687.773C554.492 687.773 553.997 687.28 553.997 686.635Z" fill="#6D4D37"/>
<path d="M579.298 686.635C579.298 687.28 578.765 687.773 578.155 687.773C577.507 687.773 577.012 687.28 577.012 686.635V671.609C577.012 670.964 577.507 670.471 578.155 670.471H589.586C592.292 670.471 594.54 672.672 594.54 675.404V686.635C594.54 687.28 594.006 687.773 593.397 687.773C592.749 687.773 592.253 687.28 592.253 686.635V675.404C592.253 673.924 591.072 672.748 589.586 672.748H586.919V686.635C586.919 687.28 586.385 687.773 585.776 687.773C585.128 687.773 584.633 687.28 584.633 686.635V672.748H579.298V686.635Z" fill="#6D4D37"/>
<path d="M599.493 682.84V675.252C599.493 672.52 601.703 670.319 604.447 670.319C607.19 670.319 609.4 672.52 609.4 675.252V682.84C609.4 685.572 607.152 687.773 604.447 687.773C601.741 687.773 599.493 685.572 599.493 682.84ZM601.779 675.252V682.84C601.779 684.32 602.961 685.496 604.447 685.496C605.933 685.496 607.114 684.32 607.114 682.84V675.252C607.114 673.772 605.933 672.596 604.447 672.596C602.961 672.596 601.779 673.772 601.779 675.252Z" fill="#6D4D37"/>
<path d="M612.372 694.224C612.372 693.578 612.867 693.085 613.515 693.085C614.696 693.085 615.725 692.364 616.068 691.188L617.44 686.635L612.982 671.799C612.791 671.192 613.134 670.547 613.744 670.357C614.353 670.205 614.963 670.547 615.154 671.116L618.621 682.689L622.127 671.116C622.279 670.547 622.927 670.205 623.537 670.357C624.146 670.547 624.489 671.192 624.299 671.799L619.726 686.976L618.278 691.833C617.935 692.933 617.326 693.768 616.487 694.375C615.611 695.02 614.62 695.362 613.515 695.362C612.867 695.362 612.372 694.869 612.372 694.224Z" fill="#6D4D37"/>
<path d="M627.881 682.84V675.252C627.881 672.52 630.091 670.319 632.834 670.319C635.578 670.319 637.788 672.52 637.788 675.252V679.046C637.788 679.691 637.293 680.184 636.645 680.184H630.167V682.84C630.167 683.903 630.777 684.889 631.806 685.307C632.834 685.724 633.939 685.496 634.702 684.738C634.93 684.51 635.197 684.396 635.502 684.396C635.845 684.396 636.111 684.51 636.34 684.738C636.569 684.927 636.683 685.193 636.683 685.534C636.683 685.838 636.569 686.104 636.34 686.331C634.93 687.735 632.796 688.153 630.929 687.394C629.062 686.635 627.881 684.851 627.881 682.84ZM630.167 675.252V677.908H635.502V675.252C635.502 673.772 634.32 672.596 632.834 672.596C631.348 672.596 630.167 673.772 630.167 675.252Z" fill="#6D4D37"/>
<path d="M642.741 686.635V671.609C642.741 670.964 643.237 670.471 643.884 670.471H647.695C650.4 670.471 652.648 672.672 652.648 675.404V686.635C652.648 687.28 652.115 687.773 651.505 687.773C650.857 687.773 650.362 687.28 650.362 686.635V675.404C650.362 673.924 649.181 672.748 647.695 672.748H645.027V686.635C645.027 687.28 644.494 687.773 643.884 687.773C643.237 687.773 642.741 687.28 642.741 686.635Z" fill="#6D4D37"/>
<path d="M658.05 686.635V671.609C658.05 670.964 658.545 670.471 659.193 670.471H663.003C665.709 670.471 667.957 672.672 667.957 675.404V686.635C667.957 687.28 667.423 687.773 666.814 687.773C666.166 687.773 665.671 687.28 665.671 686.635V675.404C665.671 673.924 664.489 672.748 663.003 672.748H660.336V686.635C660.336 687.28 659.803 687.773 659.193 687.773C658.545 687.773 658.05 687.28 658.05 686.635Z" fill="#6D4D37"/>
<path d="M672.92 682.84V675.252C672.92 672.52 675.13 670.319 677.873 670.319C680.617 670.319 682.827 672.52 682.827 675.252V679.046C682.827 679.691 682.332 680.184 681.684 680.184H675.206V682.84C675.206 683.903 675.816 684.889 676.845 685.307C677.873 685.724 678.978 685.496 679.741 684.738C679.969 684.51 680.236 684.396 680.541 684.396C680.884 684.396 681.15 684.51 681.379 684.738C681.608 684.927 681.722 685.193 681.722 685.534C681.722 685.838 681.608 686.104 681.379 686.331C679.969 687.735 677.835 688.153 675.968 687.394C674.101 686.635 672.92 684.851 672.92 682.84ZM675.197 675.252V677.908H680.531V675.252C680.531 673.772 679.35 672.596 677.864 672.596C676.378 672.596 675.197 673.772 675.197 675.252Z" fill="#6D4D37"/>
</g>
<defs>
<clipPath id="clip0_188_93">
<rect width="1829" height="1024" fill="white"/>
</clipPath>
</defs>
</svg>
