<?xml version="1.0" encoding="UTF-8"?>
<svg xmlns="http://www.w3.org/2000/svg" viewBox="0 0 1920 1080">
  <defs>
    <style>
      .cls-1 {
        fill: #478e8c;
      }

      .cls-2 {
        fill: #a4dddd;
      }

      .cls-3 {
        fill: #fff;
      }

      .cls-4 {
        fill: #b58471;
      }

      .cls-5 {
        isolation: isolate;
      }

      .cls-6 {
        fill: #6d4c41;
      }

      .cls-7 {
        fill: #f4f77c;
        mix-blend-mode: overlay;
        opacity: .3;
      }

      .cls-8 {
        fill: #77c16f;
      }
    </style>
  </defs>
  <g class="cls-5">
    <g id="Fond">
      <rect class="cls-2" width="1920" height="1080"/>
      <rect class="cls-8" y="800" width="1920" height="280"/>
    </g>
    <g id="Cloud">
      <rect class="cls-3" x="193.31" y="331.91" width="221.39" height="79.09" rx="39.54" ry="39.54"/>
      <rect class="cls-3" x="138.42" y="266.06" width="220.58" height="79.09" rx="39.54" ry="39.54"/>
      <rect class="cls-3" x="367.14" y="238" width="87.83" height="38.27" rx="19.13" ry="19.13"/>
      <rect class="cls-3" x="1832.14" y="467" width="87.83" height="38.27" rx="19.13" ry="19.13"/>
      <rect class="cls-3" x="473.26" y="238" width="45.74" height="38.27" rx="19.13" ry="19.13"/>
      <rect class="cls-3" x="1748" y="467" width="51" height="38.27" rx="19.13" ry="19.13"/>
      <rect class="cls-3" x="85" y="304.33" width="388.26" height="79.09" rx="39.54" ry="39.54"/>
      <path class="cls-3" d="M1669.54,344.33h250.46v79.09h-250.46c-21.83,0-39.54-17.72-39.54-39.54h0c0-21.83,17.72-39.54,39.54-39.54Z"/>
      <rect class="cls-3" x="1577" y="409" width="266" height="42.42" rx="21.21" ry="21.21"/>
    </g>
    <g id="Panneau">
      <rect class="cls-4" x="1562" y="571" width="230" height="118"/>
      <rect class="cls-4" x="1676" y="689" width="23" height="153"/>
      <polygon class="cls-4" points="1792 571 1870.05 630 1792 689 1792 571"/>
      <g>
        <path class="cls-6" d="M1613.1,648.15v-46.4c0-1.2.8-2.24,2-2.48s2.32.32,2.88,1.36c1.36,2.96,2.72,5.84,4.08,8.64,2.24,4.8,4.8,10.4,6.4,13.68,1.52-3.28,4.08-8.96,6.4-13.68,1.36-2.8,2.72-5.68,4.08-8.64.56-1.04,1.68-1.6,2.88-1.36,1.2.24,2,1.28,2,2.48v46.4c0,1.52-1.2,2.56-2.56,2.56-1.52,0-2.56-1.04-2.56-2.56v-34.96c-1.92,4.08-3.84,8.24-5.36,11.44-.88,1.84-1.76,3.68-2.56,5.44-.56.96-1.28,1.44-2.32,1.44-1.12,0-1.92-.48-2.32-1.44-.8-1.76-1.68-3.6-2.56-5.44-1.52-3.2-3.52-7.36-5.36-11.44v34.96c0,1.52-1.2,2.56-2.56,2.56-1.52,0-2.56-1.04-2.56-2.56Z"/>
        <path class="cls-6" d="M1654.22,639.83v-23.68c0-1.36,1.04-2.4,2.4-2.4s2.4,1.04,2.4,2.4v23.68c0,3.12,2.48,5.6,5.6,5.6h5.6v-29.28c0-1.36,1.04-2.4,2.4-2.4s2.4,1.04,2.4,2.4v31.68c0,1.36-1.04,2.4-2.4,2.4h-8c-5.76,0-10.4-4.64-10.4-10.4Z"/>
        <path class="cls-6" d="M1698.38,640.31c-.08-1.6-.8-2.88-2.16-3.84l-7.44-5.28c-2.48-1.68-3.84-4.32-4.08-7.2-.24-2.96.96-5.76,3.12-7.68,2.16-2,5.04-2.88,7.92-2.48,2.88.56,5.36,2.16,6.88,4.72.64,1.2.32,2.64-.88,3.28-1.2.64-2.64.32-3.28-.88-.72-1.28-1.92-2.08-3.44-2.32-1.52-.24-2.88.16-4,1.2s-1.6,2.32-1.52,3.84c.08,1.52.8,2.72,2.08,3.6l7.44,5.2c2.48,1.84,3.92,4.4,4.16,7.52s-.96,5.92-3.2,7.92c-2.24,2.16-5.2,2.96-8.16,2.56-3.12-.56-5.6-2.24-7.12-4.88-.64-1.2-.32-2.64.88-3.28s2.64-.32,3.28.88c.88,1.36,2.08,2.24,3.68,2.48,1.52.24,2.96-.16,4.24-1.28,1.2-1.12,1.76-2.48,1.6-4.08Z"/>
        <path class="cls-6" d="M1711.58,640.15v-16c0-5.76,4.72-10.4,10.4-10.4s10.4,4.64,10.4,10.4v8c0,1.36-1.04,2.4-2.4,2.4h-13.6v5.6c0,2.24,1.28,4.32,3.44,5.2,2.16.88,4.56.4,6.16-1.2.4-.48.96-.72,1.6-.72.72,0,1.28.24,1.76.72.48.4.72.96.72,1.68,0,.64-.24,1.2-.72,1.68-2.96,2.96-7.44,3.84-11.28,2.24-3.92-1.6-6.48-5.36-6.48-9.6ZM1727.82,598.55c.88.96.8,2.48-.24,3.36l-8,7.2c-.96.88-2.48.8-3.36-.16-.88-.96-.8-2.48.16-3.36l8-7.2c1.04-.88,2.48-.8,3.44.16ZM1716.38,624.15v5.6h11.2v-5.6c0-3.12-2.48-5.6-5.6-5.6s-5.6,2.48-5.6,5.6Z"/>
        <path class="cls-6" d="M1741.02,640.15v-16c0-5.76,4.64-10.4,10.4-10.4s10.4,4.64,10.4,10.4v8c0,1.36-1.04,2.4-2.4,2.4h-13.6v5.6c0,2.24,1.28,4.32,3.44,5.2,2.16.88,4.48.4,6.08-1.2.48-.48,1.04-.72,1.68-.72.72,0,1.28.24,1.76.72.48.4.72.96.72,1.68,0,.64-.24,1.2-.72,1.68-2.96,2.96-7.44,3.84-11.36,2.24-3.92-1.6-6.4-5.36-6.4-9.6ZM1745.82,624.15v5.6h11.2v-5.6c0-3.12-2.48-5.6-5.6-5.6s-5.6,2.48-5.6,5.6Z"/>
      </g>
      <polygon class="cls-6" points="1699 689 1676 689 1676 803.97 1699 689"/>
    </g>
    <g id="Text">
      <g>
        <path class="cls-1" d="M769.34,227.71c.24-2.16-.56-4.24-2.08-5.76l-12.8-13.12c-2.48-2.48-3.68-5.92-3.36-9.36.24-3.52,2-6.64,4.8-8.8s6.32-2.96,9.76-2.24c3.44.72,6.24,2.72,8.08,5.84.72,1.2.32,2.8-.96,3.52-1.2.72-2.8.24-3.44-.96-1.04-1.84-2.64-2.96-4.72-3.36-2.08-.4-4,0-5.68,1.28-1.68,1.2-2.56,2.88-2.72,5.04-.16,2.08.48,3.92,1.92,5.44l12.8,13.2c2.48,2.56,3.76,6.08,3.52,9.68-.32,3.6-2.08,6.88-4.96,9.04-2.88,2.16-6.56,3.04-10.08,2.32-3.52-.72-6.56-2.88-8.4-6-.64-1.28-.24-2.8.96-3.52,1.2-.72,2.8-.32,3.52.96,1.04,1.84,2.8,3.12,4.96,3.52,2.16.4,4.16,0,5.92-1.36,1.84-1.36,2.8-3.12,2.96-5.36Z"/>
        <path class="cls-1" d="M796.14,212.99c0-2.24-1.36-4.16-3.36-5.04-2.16-.88-4.4-.4-5.92,1.2-.48.48-1.04.72-1.76.72-.64,0-1.2-.24-1.68-.72s-.72-1.04-.72-1.68c0-.72.24-1.28.72-1.68,2.96-2.96,7.36-3.84,11.2-2.24,3.84,1.6,6.32,5.28,6.32,9.44v23.84c0,1.36-1.12,2.4-2.4,2.4h-8c-5.76,0-10.4-4.64-10.4-10.4s4.64-10.4,10.4-10.4h5.6v-5.44ZM790.54,234.43h5.6v-11.2h-5.6c-3.12,0-5.6,2.48-5.6,5.6s2.48,5.6,5.6,5.6Z"/>
        <path class="cls-1" d="M811.26,231.63v-42.48c0-1.36,1.12-2.4,2.4-2.4,1.36,0,2.4,1.04,2.4,2.4v42.48c0,1.52.8,2.72,2,3.44,1.2.64,1.6,2.08.88,3.28-.64,1.2-2.08,1.52-3.28.88-2.64-1.6-4.4-4.48-4.4-7.6Z"/>
        <path class="cls-1" d="M826.86,228.83v-23.68c0-1.36,1.04-2.4,2.4-2.4s2.4,1.04,2.4,2.4v23.68c0,3.12,2.48,5.6,5.6,5.6h5.6v-29.28c0-1.36,1.04-2.4,2.4-2.4s2.4,1.04,2.4,2.4v31.68c0,1.36-1.04,2.4-2.4,2.4h-8c-5.76,0-10.4-4.64-10.4-10.4Z"/>
        <path class="cls-1" d="M855.34,205.47c0-1.36,1.04-2.4,2.4-2.4h4v-13.92c0-1.36,1.04-2.4,2.4-2.4s2.4,1.04,2.4,2.4v13.92h5.6c1.36,0,2.4,1.04,2.4,2.4s-1.04,2.4-2.4,2.4h-5.6v21.28c0,3.12,2.48,5.6,5.6,5.6,1.36,0,2.4,1.04,2.4,2.4s-1.04,2.4-2.4,2.4c-5.76,0-10.4-4.64-10.4-10.4v-21.28h-4c-1.36,0-2.4-1.04-2.4-2.4Z"/>
        <path class="cls-1" d="M883.5,239.39v-1.36h-.16c-1.36,0-2.4-1.12-2.4-2.48s1.04-2.4,2.4-2.4h2.56c1.36,0,2.48,1.04,2.48,2.4v3.84c0,2.64-1.6,5.04-4.08,6.08-1.28.56-2.64-.08-3.2-1.28-.56-1.28.08-2.64,1.28-3.2.72-.24,1.12-.8,1.12-1.6Z"/>
        <path class="cls-1" d="M918.06,237.15c0,1.36-1.12,2.4-2.4,2.4-1.36,0-2.4-1.04-2.4-2.4v-31.68c0-1.36,1.04-2.4,2.4-2.4h24c5.68,0,10.4,4.64,10.4,10.4v23.68c0,1.36-1.12,2.4-2.4,2.4-1.36,0-2.4-1.04-2.4-2.4v-23.68c0-3.12-2.48-5.6-5.6-5.6h-5.6v29.28c0,1.36-1.12,2.4-2.4,2.4-1.36,0-2.4-1.04-2.4-2.4v-29.28h-11.2v29.28Z"/>
        <path class="cls-1" d="M959.66,229.15v-16c0-5.76,4.64-10.4,10.4-10.4s10.4,4.64,10.4,10.4v16c0,5.76-4.72,10.4-10.4,10.4s-10.4-4.64-10.4-10.4ZM964.46,213.15v16c0,3.12,2.48,5.6,5.6,5.6s5.6-2.48,5.6-5.6v-16c0-3.12-2.48-5.6-5.6-5.6s-5.6,2.48-5.6,5.6Z"/>
        <path class="cls-1" d="M989.89,193.15c0-1.84,1.36-3.2,3.2-3.2s3.2,1.36,3.2,3.2-1.36,3.2-3.2,3.2-3.2-1.36-3.2-3.2ZM993.09,239.55c-1.28,0-2.4-1.04-2.4-2.4v-32c0-1.36,1.12-2.4,2.4-2.4,1.36,0,2.4,1.04,2.4,2.4v32c0,1.36-1.04,2.4-2.4,2.4Z"/>
        <path class="cls-1" d="M1021.09,229.15v-16c0-4.24,2.48-8,6.4-9.6s8.24-.72,11.36,2.24c.4.48.64,1.04.64,1.76,0,.64-.24,1.2-.64,1.68-.48.4-1.04.64-1.76.64-.64,0-1.2-.24-1.68-.64-1.6-1.68-3.92-2.16-6.08-1.28-2.16.88-3.44,2.96-3.44,5.2v16c0,2.24,1.28,4.32,3.44,5.2,2.16.88,4.48.4,6.08-1.2.48-.48,1.04-.72,1.68-.72.72,0,1.28.24,1.76.72.4.4.64.96.64,1.68,0,.64-.24,1.2-.64,1.68-3.12,2.96-7.44,3.84-11.36,2.24s-6.4-5.36-6.4-9.6Z"/>
        <path class="cls-1" d="M1049.17,194.91v-1.36h-.08c-1.36,0-2.48-1.12-2.48-2.48s1.12-2.4,2.48-2.4h2.56c1.28,0,2.4,1.04,2.4,2.4v3.84c0,2.64-1.6,5.04-4.08,6.08-1.2.56-2.64-.08-3.2-1.28-.56-1.28.08-2.64,1.36-3.2.72-.24,1.04-.8,1.04-1.6Z"/>
        <path class="cls-1" d="M1062.69,229.15v-16c0-5.76,4.64-10.4,10.4-10.4s10.4,4.64,10.4,10.4v8c0,1.36-1.04,2.4-2.4,2.4h-13.6v5.6c0,2.24,1.28,4.32,3.44,5.2,2.16.88,4.48.4,6.08-1.2.48-.48,1.04-.72,1.68-.72.72,0,1.28.24,1.76.72.48.4.72.96.72,1.68,0,.64-.24,1.2-.72,1.68-2.96,2.96-7.44,3.84-11.36,2.24s-6.4-5.36-6.4-9.6ZM1067.49,213.15v5.6h11.2v-5.6c0-3.12-2.48-5.6-5.6-5.6s-5.6,2.48-5.6,5.6Z"/>
        <path class="cls-1" d="M1105.25,229.31c-.08-1.6-.8-2.88-2.16-3.84l-7.44-5.28c-2.48-1.68-3.84-4.32-4.08-7.2-.24-2.96.96-5.76,3.12-7.68,2.16-2,5.04-2.88,7.92-2.48,2.88.56,5.36,2.16,6.88,4.72.64,1.2.32,2.64-.88,3.28-1.2.64-2.64.32-3.28-.88-.72-1.28-1.92-2.08-3.44-2.32-1.52-.24-2.88.16-4,1.2s-1.6,2.32-1.52,3.84.8,2.72,2.08,3.6l7.44,5.2c2.48,1.84,3.92,4.4,4.16,7.52s-.96,5.92-3.2,7.92c-2.24,2.16-5.2,2.96-8.16,2.56-3.12-.56-5.6-2.24-7.12-4.88-.64-1.2-.32-2.64.88-3.28s2.64-.32,3.28.88c.88,1.36,2.08,2.24,3.68,2.48,1.52.24,2.96-.16,4.24-1.28,1.2-1.12,1.76-2.48,1.6-4.08Z"/>
        <path class="cls-1" d="M1115.89,205.47c0-1.36,1.04-2.4,2.4-2.4h4v-13.92c0-1.36,1.04-2.4,2.4-2.4s2.4,1.04,2.4,2.4v13.92h5.6c1.36,0,2.4,1.04,2.4,2.4s-1.04,2.4-2.4,2.4h-5.6v21.28c0,3.12,2.48,5.6,5.6,5.6,1.36,0,2.4,1.04,2.4,2.4s-1.04,2.4-2.4,2.4c-5.76,0-10.4-4.64-10.4-10.4v-21.28h-4c-1.36,0-2.4-1.04-2.4-2.4Z"/>
        <path class="cls-1" d="M1160.85,188.51h9.6c6.72,0,12.16,5.44,12.16,12.16v2.88c0,3.92-1.84,7.36-4.72,9.6,2.88,2.24,4.72,5.68,4.72,9.6v4.48c0,6.72-5.44,12.16-12.16,12.16h-9.6c-1.52,0-2.56-1.04-2.56-2.56v-45.76c0-1.52,1.04-2.56,2.56-2.56ZM1170.45,193.63h-7.04v16.96h7.04c3.84,0,7.04-3.12,7.04-7.04v-2.88c0-3.84-3.2-7.04-7.04-7.04ZM1170.45,215.71h-7.04v18.56h7.04c3.84,0,7.04-3.12,7.04-7.04v-4.48c0-3.84-3.2-7.04-7.04-7.04Z"/>
        <path class="cls-1" d="M1191.73,229.15v-16c0-5.76,4.64-10.4,10.4-10.4s10.4,4.64,10.4,10.4v16c0,5.76-4.72,10.4-10.4,10.4s-10.4-4.64-10.4-10.4ZM1196.53,213.15v16c0,3.12,2.48,5.6,5.6,5.6s5.6-2.48,5.6-5.6v-16c0-3.12-2.48-5.6-5.6-5.6s-5.6,2.48-5.6,5.6Z"/>
        <path class="cls-1" d="M1222.77,236.83v-47.68c0-1.36,1.04-2.4,2.4-2.4,1.28,0,2.4,1.04,2.4,2.4v13.92h5.6c5.68,0,10.4,4.64,10.4,10.4v15.36c0,5.76-4.72,10.4-10.4,10.4h-8c-1.36,0-2.4-1.04-2.4-2.4ZM1227.57,234.43h5.6c3.12,0,5.6-2.48,5.6-5.6v-15.36c0-3.12-2.48-5.6-5.6-5.6h-5.6v26.56Z"/>
        <path class="cls-1" d="M1268.2,236.35c0-1.84,1.52-3.36,3.36-3.36s3.36,1.52,3.36,3.36-1.52,3.36-3.36,3.36-3.36-1.52-3.36-3.36ZM1271.56,189.79c1.52,0,2.56,1.04,2.56,2.56v32c0,1.52-1.04,2.56-2.56,2.56-1.36,0-2.56-1.04-2.56-2.56v-32c0-1.52,1.2-2.56,2.56-2.56Z"/>
        <path class="cls-1" d="M776.94,296.67v26.56c0,6.72-5.44,12.16-12.16,12.16h-9.6c-1.52,0-2.56-1.04-2.56-2.56v-45.76c0-1.52,1.04-2.56,2.56-2.56h9.6c6.72,0,12.16,5.44,12.16,12.16ZM764.78,289.63h-7.04v40.64h7.04c3.92,0,7.04-3.12,7.04-7.04v-26.56c0-3.84-3.12-7.04-7.04-7.04Z"/>
        <path class="cls-1" d="M786.06,325.15v-16c0-5.76,4.72-10.4,10.4-10.4s10.4,4.64,10.4,10.4v8c0,1.36-1.04,2.4-2.4,2.4h-13.6v5.6c0,2.24,1.28,4.32,3.44,5.2s4.56.4,6.16-1.2c.4-.48.96-.72,1.6-.72.72,0,1.28.24,1.76.72.48.4.72.96.72,1.68,0,.64-.24,1.2-.72,1.68-2.96,2.96-7.44,3.84-11.28,2.24-3.92-1.6-6.48-5.36-6.48-9.6ZM802.3,283.55c.88.96.8,2.48-.24,3.36l-8,7.2c-.96.88-2.48.8-3.36-.16s-.8-2.48.16-3.36l8-7.2c1.04-.88,2.48-.8,3.44.16ZM790.86,309.15v5.6h11.2v-5.6c0-3.12-2.48-5.6-5.6-5.6s-5.6,2.48-5.6,5.6Z"/>
        <path class="cls-1" d="M815.5,325.15v-16c0-4.24,2.48-8,6.4-9.6,3.92-1.6,8.24-.72,11.36,2.24.4.48.64,1.04.64,1.76,0,.64-.24,1.2-.64,1.68-.48.4-1.04.64-1.76.64-.64,0-1.2-.24-1.68-.64-1.6-1.68-3.92-2.16-6.08-1.28-2.16.88-3.44,2.96-3.44,5.2v16c0,2.24,1.28,4.32,3.44,5.2s4.48.4,6.08-1.2c.48-.48,1.04-.72,1.68-.72.72,0,1.28.24,1.76.72.4.4.64.96.64,1.68,0,.64-.24,1.2-.64,1.68-3.12,2.96-7.44,3.84-11.36,2.24-3.92-1.6-6.4-5.36-6.4-9.6Z"/>
        <path class="cls-1" d="M841.74,325.15v-16c0-5.76,4.64-10.4,10.4-10.4s10.4,4.64,10.4,10.4v16c0,5.76-4.72,10.4-10.4,10.4s-10.4-4.64-10.4-10.4ZM846.54,309.15v16c0,3.12,2.48,5.6,5.6,5.6s5.6-2.48,5.6-5.6v-16c0-3.12-2.48-5.6-5.6-5.6s-5.6,2.48-5.6,5.6Z"/>
        <path class="cls-1" d="M872.14,324.83v-23.68c0-1.36,1.04-2.4,2.4-2.4s2.4,1.04,2.4,2.4v23.68c0,3.12,2.48,5.6,5.6,5.6h5.6v-29.28c0-1.36,1.04-2.4,2.4-2.4s2.4,1.04,2.4,2.4v31.68c0,1.36-1.04,2.4-2.4,2.4h-8c-5.76,0-10.4-4.64-10.4-10.4Z"/>
        <path class="cls-1" d="M903.1,298.83c1.2-.32,2.56.4,2.96,1.6l2.64,8.88c1.52,5.04,3.28,11.04,4.64,15.52,1.28-4.48,3.12-10.48,4.64-15.52l2.64-8.88c.4-1.2,1.76-1.92,3.04-1.6,1.28.4,2,1.76,1.6,3.04l-9.6,32c-.32.96-1.28,1.68-2.32,1.68s-2-.72-2.32-1.68l-9.6-32c-.32-1.28.4-2.64,1.68-3.04Z"/>
        <path class="cls-1" d="M933.74,333.15v-31.68c0-1.36,1.04-2.4,2.4-2.4h8c1.84,0,3.52.48,5.2,1.36,1.2.72,1.52,2.08.88,3.28s-2.08,1.6-3.28.88c-.88-.48-1.84-.72-2.8-.72h-5.6v29.28c0,1.36-1.04,2.4-2.4,2.4s-2.4-1.04-2.4-2.4Z"/>
        <path class="cls-1" d="M956.7,325.15v-16c0-5.76,4.64-10.4,10.4-10.4s10.4,4.64,10.4,10.4v8c0,1.36-1.04,2.4-2.4,2.4h-13.6v5.6c0,2.24,1.28,4.32,3.44,5.2,2.16.88,4.48.4,6.08-1.2.48-.48,1.04-.72,1.68-.72.72,0,1.28.24,1.76.72.48.4.72.96.72,1.68,0,.64-.24,1.2-.72,1.68-2.96,2.96-7.44,3.84-11.36,2.24s-6.4-5.36-6.4-9.6ZM961.5,309.15v5.6h11.2v-5.6c0-3.12-2.48-5.6-5.6-5.6s-5.6,2.48-5.6,5.6Z"/>
        <path class="cls-1" d="M1007.26,333.15c0,1.36-1.12,2.4-2.4,2.4-1.36,0-2.4-1.04-2.4-2.4v-31.68c0-1.36,1.04-2.4,2.4-2.4h24c5.68,0,10.4,4.64,10.4,10.4v23.68c0,1.36-1.12,2.4-2.4,2.4-1.36,0-2.4-1.04-2.4-2.4v-23.68c0-3.12-2.48-5.6-5.6-5.6h-5.6v29.28c0,1.36-1.12,2.4-2.4,2.4-1.36,0-2.4-1.04-2.4-2.4v-29.28h-11.2v29.28Z"/>
        <path class="cls-1" d="M1048.85,325.15v-16c0-5.76,4.64-10.4,10.4-10.4s10.4,4.64,10.4,10.4v16c0,5.76-4.72,10.4-10.4,10.4s-10.4-4.64-10.4-10.4ZM1053.66,309.15v16c0,3.12,2.48,5.6,5.6,5.6s5.6-2.48,5.6-5.6v-16c0-3.12-2.48-5.6-5.6-5.6s-5.6,2.48-5.6,5.6Z"/>
        <path class="cls-1" d="M1079.89,333.15v-31.68c0-1.36,1.04-2.4,2.4-2.4h8c5.68,0,10.4,4.64,10.4,10.4v23.68c0,1.36-1.12,2.4-2.4,2.4-1.36,0-2.4-1.04-2.4-2.4v-23.68c0-3.12-2.48-5.6-5.6-5.6h-5.6v29.28c0,1.36-1.12,2.4-2.4,2.4-1.36,0-2.4-1.04-2.4-2.4Z"/>
        <path class="cls-1" d="M1126.61,333.15v-48c0-1.36,1.12-2.4,2.4-2.4,1.36,0,2.4,1.04,2.4,2.4v13.92h5.6c5.76,0,10.4,4.64,10.4,10.4v23.68c0,1.36-1.04,2.4-2.4,2.4-1.28,0-2.4-1.04-2.4-2.4v-23.68c0-3.12-2.48-5.6-5.6-5.6h-5.6v29.28c0,1.36-1.04,2.4-2.4,2.4-1.28,0-2.4-1.04-2.4-2.4Z"/>
        <path class="cls-1" d="M1157.17,289.15c0-1.84,1.36-3.2,3.2-3.2s3.2,1.36,3.2,3.2-1.36,3.2-3.2,3.2-3.2-1.36-3.2-3.2ZM1160.37,335.55c-1.28,0-2.4-1.04-2.4-2.4v-32c0-1.36,1.12-2.4,2.4-2.4,1.36,0,2.4,1.04,2.4,2.4v32c0,1.36-1.04,2.4-2.4,2.4Z"/>
        <path class="cls-1" d="M1186.13,325.31c-.08-1.6-.8-2.88-2.16-3.84l-7.44-5.28c-2.48-1.68-3.84-4.32-4.08-7.2-.24-2.96.96-5.76,3.12-7.68,2.16-2,5.04-2.88,7.92-2.48,2.88.56,5.36,2.16,6.88,4.72.64,1.2.32,2.64-.88,3.28-1.2.64-2.64.32-3.28-.88-.72-1.28-1.92-2.08-3.44-2.32-1.52-.24-2.88.16-4,1.2s-1.6,2.32-1.52,3.84.8,2.72,2.08,3.6l7.44,5.2c2.48,1.84,3.92,4.4,4.16,7.52s-.96,5.92-3.2,7.92c-2.24,2.16-5.2,2.96-8.16,2.56-3.12-.56-5.6-2.24-7.12-4.88-.64-1.2-.32-2.64.88-3.28s2.64-.32,3.28.88c.88,1.36,2.08,2.24,3.68,2.48,1.52.24,2.96-.16,4.24-1.28,1.2-1.12,1.76-2.48,1.6-4.08Z"/>
        <path class="cls-1" d="M1196.77,301.47c0-1.36,1.04-2.4,2.4-2.4h4v-13.92c0-1.36,1.04-2.4,2.4-2.4s2.4,1.04,2.4,2.4v13.92h5.6c1.36,0,2.4,1.04,2.4,2.4s-1.04,2.4-2.4,2.4h-5.6v21.28c0,3.12,2.48,5.6,5.6,5.6,1.36,0,2.4,1.04,2.4,2.4s-1.04,2.4-2.4,2.4c-5.76,0-10.4-4.64-10.4-10.4v-21.28h-4c-1.36,0-2.4-1.04-2.4-2.4Z"/>
        <path class="cls-1" d="M1223.01,325.15v-16c0-5.76,4.64-10.4,10.4-10.4s10.4,4.64,10.4,10.4v16c0,5.76-4.72,10.4-10.4,10.4s-10.4-4.64-10.4-10.4ZM1227.81,309.15v16c0,3.12,2.48,5.6,5.6,5.6s5.6-2.48,5.6-5.6v-16c0-3.12-2.48-5.6-5.6-5.6s-5.6,2.48-5.6,5.6Z"/>
        <path class="cls-1" d="M1253.25,289.15c0-1.84,1.36-3.2,3.2-3.2s3.2,1.36,3.2,3.2-1.36,3.2-3.2,3.2-3.2-1.36-3.2-3.2ZM1256.45,335.55c-1.28,0-2.4-1.04-2.4-2.4v-32c0-1.36,1.12-2.4,2.4-2.4,1.36,0,2.4,1.04,2.4,2.4v32c0,1.36-1.04,2.4-2.4,2.4Z"/>
        <path class="cls-1" d="M1270.05,333.15v-31.68c0-1.36,1.04-2.4,2.4-2.4h8c1.84,0,3.52.48,5.2,1.36,1.2.72,1.52,2.08.88,3.28-.64,1.2-2.08,1.6-3.28.88-.88-.48-1.84-.72-2.8-.72h-5.6v29.28c0,1.36-1.04,2.4-2.4,2.4s-2.4-1.04-2.4-2.4Z"/>
        <path class="cls-1" d="M1293.01,325.15v-16c0-5.76,4.64-10.4,10.4-10.4s10.4,4.64,10.4,10.4v8c0,1.36-1.04,2.4-2.4,2.4h-13.6v5.6c0,2.24,1.28,4.32,3.44,5.2,2.16.88,4.48.4,6.08-1.2.48-.48,1.04-.72,1.68-.72.72,0,1.28.24,1.76.72.48.4.72.96.72,1.68,0,.64-.24,1.2-.72,1.68-2.96,2.96-7.44,3.84-11.36,2.24s-6.4-5.36-6.4-9.6ZM1297.81,309.15v5.6h11.2v-5.6c0-3.12-2.48-5.6-5.6-5.6s-5.6,2.48-5.6,5.6Z"/>
        <path class="cls-1" d="M751.82,421.15v-16c0-5.76,4.64-10.4,10.4-10.4s10.4,4.64,10.4,10.4v8c0,1.36-1.04,2.4-2.4,2.4h-13.6v5.6c0,2.24,1.28,4.32,3.44,5.2s4.48.4,6.08-1.2c.48-.48,1.04-.72,1.68-.72.72,0,1.28.24,1.76.72.48.4.72.96.72,1.68,0,.64-.24,1.2-.72,1.68-2.96,2.96-7.44,3.84-11.36,2.24-3.92-1.6-6.4-5.36-6.4-9.6ZM756.62,405.15v5.6h11.2v-5.6c0-3.12-2.48-5.6-5.6-5.6s-5.6,2.48-5.6,5.6Z"/>
        <path class="cls-1" d="M782.22,429.15v-31.68c0-1.36,1.04-2.4,2.4-2.4h8c5.68,0,10.4,4.64,10.4,10.4v23.68c0,1.36-1.12,2.4-2.4,2.4-1.36,0-2.4-1.04-2.4-2.4v-23.68c0-3.12-2.48-5.6-5.6-5.6h-5.6v29.28c0,1.36-1.12,2.4-2.4,2.4-1.36,0-2.4-1.04-2.4-2.4Z"/>
        <path class="cls-1" d="M841.1,421.31c-.08-1.6-.8-2.88-2.16-3.84l-7.44-5.28c-2.48-1.68-3.84-4.32-4.08-7.2-.24-2.96.96-5.76,3.12-7.68,2.16-2,5.04-2.88,7.92-2.48,2.88.56,5.36,2.16,6.88,4.72.64,1.2.32,2.64-.88,3.28-1.2.64-2.64.32-3.28-.88-.72-1.28-1.92-2.08-3.44-2.32-1.52-.24-2.88.16-4,1.2s-1.6,2.32-1.52,3.84c.08,1.52.8,2.72,2.08,3.6l7.44,5.2c2.48,1.84,3.92,4.4,4.16,7.52.24,3.12-.96,5.92-3.2,7.92-2.24,2.16-5.2,2.96-8.16,2.56-3.12-.56-5.6-2.24-7.12-4.88-.64-1.2-.32-2.64.88-3.28,1.2-.64,2.64-.32,3.28.88.88,1.36,2.08,2.24,3.68,2.48,1.52.24,2.96-.16,4.24-1.28,1.2-1.12,1.76-2.48,1.6-4.08Z"/>
        <path class="cls-1" d="M854.3,421.15v-16c0-4.24,2.48-8,6.4-9.6,3.92-1.6,8.24-.72,11.36,2.24.4.48.64,1.04.64,1.76,0,.64-.24,1.2-.64,1.68-.48.4-1.04.64-1.76.64-.64,0-1.2-.24-1.68-.64-1.6-1.68-3.92-2.16-6.08-1.28-2.16.88-3.44,2.96-3.44,5.2v16c0,2.24,1.28,4.32,3.44,5.2s4.48.4,6.08-1.2c.48-.48,1.04-.72,1.68-.72.72,0,1.28.24,1.76.72.4.4.64.96.64,1.68,0,.64-.24,1.2-.64,1.68-3.12,2.96-7.44,3.84-11.36,2.24-3.92-1.6-6.4-5.36-6.4-9.6Z"/>
        <path class="cls-1" d="M881.5,429.15v-31.68c0-1.36,1.04-2.4,2.4-2.4h8c1.84,0,3.52.48,5.2,1.36,1.2.72,1.52,2.08.88,3.28s-2.08,1.6-3.28.88c-.88-.48-1.84-.72-2.8-.72h-5.6v29.28c0,1.36-1.04,2.4-2.4,2.4s-2.4-1.04-2.4-2.4Z"/>
        <path class="cls-1" d="M903.66,421.15v-16c0-5.76,4.64-10.4,10.4-10.4s10.4,4.64,10.4,10.4v16c0,5.76-4.72,10.4-10.4,10.4s-10.4-4.64-10.4-10.4ZM908.46,405.15v16c0,3.12,2.48,5.6,5.6,5.6s5.6-2.48,5.6-5.6v-16c0-3.12-2.48-5.6-5.6-5.6s-5.6,2.48-5.6,5.6Z"/>
        <path class="cls-1" d="M934.46,423.63v-42.48c0-1.36,1.12-2.4,2.4-2.4,1.36,0,2.4,1.04,2.4,2.4v42.48c0,1.52.8,2.72,2,3.44,1.2.64,1.6,2.08.88,3.28-.64,1.2-2.08,1.52-3.28.88-2.64-1.6-4.4-4.48-4.4-7.6Z"/>
        <path class="cls-1" d="M950.46,423.63v-42.48c0-1.36,1.12-2.4,2.4-2.4,1.36,0,2.4,1.04,2.4,2.4v42.48c0,1.52.8,2.72,2,3.44,1.2.64,1.6,2.08.88,3.28-.64,1.2-2.08,1.52-3.28.88-2.64-1.6-4.4-4.48-4.4-7.6Z"/>
        <path class="cls-1" d="M979.5,404.99c0-2.24-1.36-4.16-3.36-5.04-2.16-.88-4.4-.4-5.92,1.2-.48.48-1.04.72-1.76.72-.64,0-1.2-.24-1.68-.72-.48-.48-.72-1.04-.72-1.68,0-.72.24-1.28.72-1.68,2.96-2.96,7.36-3.84,11.2-2.24,3.84,1.6,6.32,5.28,6.32,9.44v23.84c0,1.36-1.12,2.4-2.4,2.4h-8c-5.76,0-10.4-4.64-10.4-10.4s4.64-10.4,10.4-10.4h5.6v-5.44ZM973.9,426.43h5.6v-11.2h-5.6c-3.12,0-5.6,2.48-5.6,5.6s2.48,5.6,5.6,5.6Z"/>
        <path class="cls-1" d="M994.86,429.15v-31.68c0-1.36,1.04-2.4,2.4-2.4h8c5.68,0,10.4,4.64,10.4,10.4v23.68c0,1.36-1.12,2.4-2.4,2.4-1.36,0-2.4-1.04-2.4-2.4v-23.68c0-3.12-2.48-5.6-5.6-5.6h-5.6v29.28c0,1.36-1.12,2.4-2.4,2.4-1.36,0-2.4-1.04-2.4-2.4Z"/>
        <path class="cls-1" d="M1022.7,397.47c0-1.36,1.04-2.4,2.4-2.4h4v-13.92c0-1.36,1.04-2.4,2.4-2.4s2.4,1.04,2.4,2.4v13.92h5.6c1.36,0,2.4,1.04,2.4,2.4s-1.04,2.4-2.4,2.4h-5.6v21.28c0,3.12,2.48,5.6,5.6,5.6,1.36,0,2.4,1.04,2.4,2.4s-1.04,2.4-2.4,2.4c-5.76,0-10.4-4.64-10.4-10.4v-21.28h-4c-1.36,0-2.4-1.04-2.4-2.4Z"/>
        <path class="cls-1" d="M1051.98,424.99c1.84,0,3.36,1.52,3.36,3.36s-1.52,3.36-3.36,3.36-3.36-1.52-3.36-3.36,1.52-3.36,3.36-3.36Z"/>
      </g>
    </g>
    <g id="Lumi">
      <polygon class="cls-7" points="0 0 1920 0 1920 1080 1505 1080 0 0"/>
    </g>
  </g>
</svg>