<svg width="4560" height="1025" viewBox="0 0 4560 1025" fill="none" xmlns="http://www.w3.org/2000/svg">
<path d="M4559.1 0.75H0V1023.78H4559.1V0.75Z" fill="#D35D5F"/>
<path d="M4304.29 96.4219H3915.92V233.773H4304.29V96.4219Z" fill="#ED6EA7"/>
<path d="M4285.34 115.367H3934.86V214.828H4285.34V115.367Z" fill="white"/>
<path d="M418.683 138.101H167.663V512.263H418.683V138.101Z" fill="#F9B25B"/>
<path d="M399.738 157.046H186.608V493.318H399.738V157.046Z" fill="white"/>
<path d="M3783.3 209.144H3532.28V471.531H3783.3V209.144Z" fill="#ED6EA7"/>
<path d="M3764.36 228.089H3551.23V451.64H3764.36V228.089Z" fill="white"/>
<path d="M4208.62 283.029H3986.96V569.098H4208.62V283.029Z" fill="#375458"/>
<path d="M1553.48 239.456H1333.72V532.155H1553.48V239.456Z" fill="#2F182E"/>
<path d="M1135.75 469.637H747.378V606.988H1135.75V469.637Z" fill="#9798C6"/>
<path d="M1116.8 488.582H766.323V588.043H1116.8V488.582Z" fill="white"/>
<path d="M4192.74 301.027H4004.01V552.995H4192.74V301.027Z" fill="#D5A563"/>
<path d="M4004.01 301.027H4192.74V324.292C4192.74 324.292 4048.76 296.462 4004.01 326.953V301.027Z" fill="#C8B783"/>
<path d="M4004.01 326.953V366.16C4004.01 366.16 4085.73 383.712 4121.73 361.338C4157.72 338.964 4192.74 349.829 4192.74 349.829V324.282C4192.74 324.282 4045.84 296.452 4004.01 326.944V326.953Z" fill="#DE551E"/>
<path d="M4104.21 390.533C4112.45 388.856 4158.29 384.698 4169.39 388.591L4167.12 396.652L4164.53 435.29L4004.01 432.903V389.567" fill="#AC9853"/>
<path d="M4004.01 381.202H4192.74V443.824C4192.74 443.824 4082.01 470.3 4133.48 552.995H4004.01V427.011C4004.01 427.011 4112.97 435.28 4127.56 422.634C4142.16 409.989 4149.93 413.882 4152.85 409.013C4157.96 400.507 4127.56 409.989 4123.67 404.144C4119.77 398.309 4126.84 395.392 4147.99 396.358C4169.15 397.333 4168.43 386.63 4168.43 386.63C4092.54 386.63 4040.98 398.3 4004.01 393.44V381.192V381.202Z" fill="#375458"/>
<path d="M4147.72 464.446C4147.72 464.446 4151.04 443.692 4173.81 431.577C4175.9 430.469 4178.13 429.654 4180.4 428.972C4183.97 427.892 4191.28 423.857 4192.74 408.739V443.825C4192.74 443.825 4146.04 457.314 4169.39 491.538C4192.74 525.752 4173.1 552.995 4173.1 552.995H4124.08C4123.68 552.995 4098.38 494.967 4098.38 494.967L4147.72 464.446Z" fill="#AC9853"/>
<path d="M4101.88 463.546C4101.88 463.546 4106.15 450.844 4106.15 445.975C4106.15 441.106 4097.6 432.969 4101.88 421.469C4101.88 421.469 4105.19 414.82 4106.15 413.854C4107.13 412.897 4108.09 413.863 4107.13 417.756C4107.13 417.756 4107.13 434.295 4111.02 437.213C4114.92 440.13 4108.43 466.142 4108.43 466.142L4107.52 466.634C4106.63 467.117 4105.63 467.373 4104.62 467.373H4104.22C4102.54 466.814 4102.13 465.289 4101.89 463.537L4101.88 463.546Z" fill="#A89D81"/>
<path d="M4004.01 366.169C4004.01 366.169 4057.83 375.794 4083.94 371.976C4110.05 368.159 4114.31 365.156 4114.31 365.156C4114.31 365.156 4133.64 351.241 4158.81 348.02C4183.98 344.809 4192.73 349.839 4192.73 349.839V393.45C4192.73 393.45 4142.14 385.664 4115.87 389.557C4098.16 392.181 4085.13 390.201 4078.58 387.719C4073.39 385.749 4067.99 384.376 4062.49 383.58C4047.13 381.354 4020.05 379.431 4003.99 389.898V366.169H4004.01Z" fill="#EE9338"/>
<path d="M4004.01 393.45L4192.74 507.716V525.988L4004.01 399.285V393.45Z" fill="#A06A46"/>
<path d="M4004.01 552.995H4141.55L4004.01 408.739V552.995Z" fill="#846A47"/>
<path d="M4004.01 408.739L4141.55 552.995H4160.97L4004.01 403.662V408.739Z" fill="#654433"/>
<path d="M4192.74 540.709V552.995H4180L4004.01 403.661V399.285L4192.74 540.709Z" fill="#705041"/>
<path d="M4136.32 443.067L4112.26 441.428L4110.18 446.013L4112.26 454.131L4119.78 464.465L4136.32 451.848V443.067Z" fill="#8E856E"/>
<path d="M4082.49 552.995C4082.49 552.995 4067.79 520.732 4091.36 486.763C4114.92 452.795 4098.38 439.827 4098.38 439.827H4106.28C4106.28 439.827 4116 451.185 4119.41 457.313C4120.1 458.535 4121.69 458.905 4122.82 458.081C4127.04 454.993 4135.58 448.182 4136.31 443.067L4141.55 444.904C4141.55 444.904 4146.04 494.625 4134.37 503.387C4122.7 512.14 4133.48 553.004 4133.48 553.004H4082.49V552.995Z" fill="#0A150F"/>
<path d="M4145.88 457.995L4141.88 442.195C4141.88 442.195 4145.72 437.611 4145.88 432.552C4146.04 427.494 4147.55 420.949 4143.88 416.44C4140.21 411.931 4144.6 425.211 4140.46 429.758C4136.32 434.305 4135.73 440.481 4137 443.711C4138.26 446.95 4139.06 458.801 4139.06 458.801L4142.29 463.603L4145.08 461.538L4145.88 457.986V457.995Z" fill="#A89D81"/>
<path d="M4092.01 478.323L4101.3 460.572L4102.48 464.569C4103.65 468.567 4110.19 464.191 4110.19 464.191C4109.35 472.668 4094.49 498.519 4086.71 499.21C4078.92 499.902 4080.87 484.897 4085.16 480.862C4089.45 476.827 4088.66 462.514 4086.71 453.525C4084.76 444.535 4098.38 439.818 4098.38 439.818C4098.38 439.818 4102.73 442.394 4103.97 452.937C4105.2 463.48 4103.24 465.431 4103.24 465.431" fill="#13292C"/>
<path d="M4101.29 460.572L4092.32 477.727L4094.51 467.099L4097.79 462.059L4101.29 460.572Z" fill="#0A150F"/>
<path d="M4136.87 500.299C4136.87 500.299 4141.61 509.866 4146.74 500.299C4151.89 490.732 4146.74 456.83 4146.74 456.83C4146.74 456.83 4145.63 460.467 4138.26 458.62C4134.37 457.645 4133.4 490.723 4136.87 500.29V500.299Z" fill="#13292C"/>
<path d="M4115.18 436.9C4115.18 436.9 4098.96 419.423 4117.29 406.531C4117.29 406.531 4128.37 402.941 4135.15 407.772C4141.93 412.603 4143.19 425.77 4134.85 436.086C4134.85 436.086 4130.27 439.534 4130.63 442.034C4130.99 444.535 4130.67 453.619 4123.44 453.468C4116.21 453.316 4116.1 445.084 4117.26 441.106C4117.26 441.106 4117.26 438.132 4115.18 436.9Z" fill="#A89D81"/>
<path d="M4123.11 450.683C4120.86 450.361 4120.89 448.589 4120.57 445.88C4120.29 443.56 4120.46 440.794 4122.09 438.615C4123.81 436.313 4125.29 437.033 4126.33 438.34C4127.54 439.856 4127.94 442.101 4127.54 444.242C4127.32 445.426 4127.15 446.543 4126.91 447.547C4126.41 449.594 4124.77 450.929 4123.12 450.692L4123.11 450.683Z" fill="#8E856E"/>
<path d="M4128.59 407.214C4128.35 407.138 4125 406.636 4124.75 406.598C4121.73 406.096 4117.14 407.147 4116.83 410.87C4116.48 415.114 4120.79 413.948 4122.69 417.766C4123.67 419.708 4127.3 420.447 4128.26 419.471C4128.56 419.168 4128.91 418.931 4129.3 418.779C4130.37 418.372 4132.62 417.624 4134.84 417.633C4137.05 417.643 4138.66 415.057 4137.35 413.304C4136.31 411.931 4134.36 409.004 4128.58 407.204L4128.59 407.214Z" fill="#B7A181"/>
<path d="M4017.2 435.28C4016.68 433.092 4014.82 402.761 4016.17 393.45C4016.73 389.557 4016.73 385.664 4018.05 385.664C4020.12 385.664 4020.67 392.474 4020.67 392.474C4020.67 392.474 4024.68 430.923 4022.02 434.56C4022.02 434.56 4017.66 437.222 4017.2 435.28Z" fill="#13292C"/>
<path d="M4007.98 433.338C4007.28 431.15 4004.79 400.819 4006.6 391.508C4007.36 387.615 4007.36 383.722 4009.12 383.722C4011.9 383.722 4012.64 390.532 4012.64 390.532C4012.64 390.532 4018.02 428.981 4014.45 432.619C4014.45 432.619 4008.6 435.28 4007.97 433.338H4007.98Z" fill="#0A150F"/>
<path d="M1535.49 258.401H1353.62V513.21H1535.49V258.401Z" fill="#B1AF76"/>
<path d="M1353.62 321.251C1353.62 321.251 1393.4 336.076 1413.29 335.128C1433.18 334.181 1498.54 310.5 1508.02 312.394C1517.49 314.289 1532.65 323.269 1535.49 330.146V367.212L1353.62 392.977V321.251Z" fill="#737A53"/>
<path d="M1353.62 412.66V381.704C1353.62 381.704 1384.87 358.8 1419.92 360.694C1454.97 362.589 1493.81 354.064 1498.54 354.064C1503.28 354.064 1535.49 352.416 1535.49 352.416V437.298L1353.62 431.738V412.651V412.66Z" fill="#485343"/>
<path d="M1353.62 412.661C1353.62 412.661 1398.14 392.153 1427.5 394.995C1456.87 397.836 1535.49 384.12 1535.49 384.12V513.211H1353.62V412.661Z" fill="#8B482A"/>
<path d="M1353.62 470.584C1353.62 470.584 1373.98 437.904 1384.4 432.221C1394.82 426.538 1399.56 405.698 1399.56 405.698C1399.56 405.698 1393.87 364.019 1394.82 348.863C1395.77 333.707 1397.66 301.501 1416.61 287.292C1435.55 273.084 1453.55 279.714 1453.55 279.714C1453.55 279.714 1472.6 280.377 1489.55 310.026C1497.12 323.288 1497.12 350.758 1497.12 350.758C1497.12 350.758 1495.36 374.145 1500.5 392.295C1505.65 410.434 1513.23 416.118 1513.23 416.118C1513.23 416.118 1533.12 430.895 1535.49 436.768V513.211L1353.62 513.968V470.584Z" fill="#3E2622"/>
<path d="M1428.51 382.491C1428.51 382.491 1445.44 387.672 1461.6 371.825V383.305C1461.6 383.305 1467.35 394.805 1468.3 407.119C1469.25 419.433 1467.15 438.17 1467.15 438.17C1467.15 438.17 1463.56 457.323 1452.2 458.27C1440.83 459.218 1424.73 461.112 1406.73 451.64C1388.73 442.167 1399.15 427.959 1399.15 427.959C1399.15 427.959 1411.46 409.961 1421.88 405.225C1432.3 400.488 1428.51 382.491 1428.51 382.491Z" fill="#FFA727"/>
<path d="M1428.57 383.106V397.76C1428.57 397.76 1428.45 404.268 1435.08 406.162C1441.71 408.057 1466.34 395.743 1466.34 395.743L1463.04 384.414L1461.6 372.062C1461.6 372.062 1449.53 385.617 1428.57 383.097V383.106Z" fill="#FA8C00"/>
<path d="M1429.4 383.438C1429.4 383.438 1418.03 384.385 1411.4 367.335C1404.77 350.284 1405.71 344.601 1405.71 344.601C1405.71 344.601 1406.57 328.658 1405.67 322.89C1404.77 317.13 1408.56 306.711 1408.56 306.711C1408.56 306.711 1415.19 292.502 1431.29 294.397C1447.39 296.291 1453.08 294.397 1462.55 312.394C1472.02 330.392 1466.34 363.546 1466.34 363.546C1466.34 363.546 1465.39 374.913 1447.39 381.543C1439.8 384.338 1429.4 383.438 1429.4 383.438Z" fill="#FCA924"/>
<path d="M1433.89 335.697C1433.53 336.426 1432.52 336.54 1432.05 335.877C1431.11 334.569 1430.13 332.334 1431.29 329.445C1433.18 324.708 1440.76 324.708 1440.76 324.708C1440.76 324.708 1444.55 324.708 1450.23 326.603C1454.19 327.92 1457.23 328.327 1458.72 328.441C1459.28 328.488 1459.71 328.952 1459.71 329.52C1459.71 329.795 1459.61 330.051 1459.42 330.25C1458.83 330.894 1457.37 332.277 1455.92 332.277H1452.53C1452.27 332.277 1452.03 332.192 1451.84 332.031C1450.04 330.544 1440.05 323.183 1433.89 335.687V335.697Z" fill="#F98905"/>
<path d="M1422.76 355.967C1422.76 355.967 1424.66 357.862 1426.55 356.915C1428.45 355.967 1430.94 356.166 1433.19 356.574C1435.08 356.915 1436.03 355.967 1436.03 355.967C1436.03 355.967 1429.4 363.545 1422.76 355.967Z" fill="#EF8F0B"/>
<path d="M1410.31 331.424C1410.02 331.69 1409.57 331.434 1409.65 331.055C1410.01 329.142 1411.33 325.656 1416.13 325.656C1420.6 325.656 1422.93 328.668 1423.96 330.638C1424.16 331.017 1423.71 331.396 1423.36 331.15C1422.19 330.307 1420.19 329.246 1417.33 328.971C1413.9 328.649 1411.48 330.345 1410.31 331.424Z" fill="#F98905"/>
<path d="M1421.04 364.853C1420.91 364.701 1420.98 364.474 1421.18 364.436C1422.24 364.247 1425.76 363.688 1426.56 364.493C1427.45 365.383 1429.19 364.597 1429.39 364.493C1429.4 364.493 1429.4 364.483 1429.42 364.474C1429.72 364.408 1433 363.64 1436.58 364.588C1436.84 364.654 1436.83 365.033 1436.57 365.08C1435.24 365.307 1432.82 365.762 1430.35 366.378C1426.56 367.325 1424.67 366.378 1424.67 366.378C1424.67 366.378 1421.78 365.658 1421.05 364.843L1421.04 364.853Z" fill="#EF8F0B"/>
<path d="M4559.1 759.021H0V1024.25H4559.1V759.021Z" fill="#7F5B4F"/>
<path d="M4559.1 727.288H0V759.494H4559.1V727.288Z" fill="white"/>
<path d="M2982.74 759.732V296.357C2982.74 296.357 2965.48 130.296 3160.71 129.339C3355.93 128.392 3344.6 296.357 3344.6 296.357L3344.73 759.732H2982.74Z" fill="#AE4D4F"/>
<path d="M2982.74 759.731H3344.73L3247.16 679.926H3080.45L2982.74 759.731Z" fill="#934243"/>
<path d="M3080.79 679.926H3247.16V375.13C3247.16 355.342 3241.82 335.848 3231.22 319.139C3219.17 300.137 3198.54 281.599 3163.86 281.144C3129.18 280.69 3108.52 298.072 3096.45 316.107C3085.83 331.974 3080.45 350.777 3080.47 369.873L3080.79 679.926Z" fill="#934243"/>
<path d="M2911.45 491.424H2783.01V564.362H2911.45V491.424Z" fill="white"/>
<path d="M2900.35 500.3H2794.43V555.647H2900.35V500.3Z" fill="#D4D4D4"/>
<path d="M240.601 599.41C240.601 599.41 434.606 686.746 581.61 599.41L584.451 622.144C584.451 622.144 448.048 704.555 238.706 621.197L240.601 599.41Z" fill="#990000"/>
<path d="M268.071 833.541H202.711V850.43H268.071V833.541Z" fill="black"/>
<path d="M244.579 833.552L244.579 594.874H226.221V833.552H244.579Z" fill="black"/>
<path d="M235.021 599.269C248.404 599.269 259.252 588.42 259.252 575.038C259.252 561.656 248.404 550.808 235.021 550.808C221.639 550.808 210.791 561.656 210.791 575.038C210.791 588.42 221.639 599.269 235.021 599.269Z" fill="black"/>
<path d="M616.658 833.541H551.298V850.43H616.658V833.541Z" fill="black"/>
<path d="M593.166 833.551V594.873H574.808V833.551H593.166Z" fill="black"/>
<path d="M583.608 599.269C596.99 599.269 607.839 588.42 607.839 575.038C607.839 561.656 596.99 550.808 583.608 550.808C570.226 550.808 559.378 561.656 559.378 575.038C559.378 588.42 570.226 599.269 583.608 599.269Z" fill="black"/>
<path d="M1882.18 546.364H1730.62V839.063H1882.18V546.364Z" fill="#ED8D64"/>
<path d="M1917.23 803.068H1698.41V850.431H1917.23V803.068Z" fill="#ED8D64"/>
<path d="M1734.55 544.47L1745.78 501.843L1734.55 454.547L1785.56 400.488V384.555L1739.14 386.279L1741.99 291.555L1769.46 248.929L1845.24 241.351L1882.18 285.871L1855.66 352.178L1903.97 431.747L1869.39 473.454L1877.44 526.472L1901.12 519.841L1900.03 544.47L1712.62 577.623V550.987L1734.55 544.47Z" fill="#C8C2B4"/>
<path d="M1712.62 550.987L1734.55 544.47L1745.78 501.844L1734.55 454.548L1862.29 419.433L1903.97 431.747L1869.39 473.455L1877.44 526.472L1901.12 519.841L1900.03 544.47L1712.62 577.623V550.987Z" fill="#A9A099"/>
<path d="M1734.55 454.547L1849.97 370.176L1799.77 337.97L1797.87 268.821L1741.99 291.555L1739.14 386.279L1785.56 384.555V400.488L1734.55 454.547Z" fill="#A9A099"/>
<path d="M1882.18 285.871L1855.66 352.178L1824.4 301.974L1882.18 285.871Z" fill="#A9A099"/>
<path d="M1876.5 522.683L1734.55 544.469L1712.62 550.986V577.623L1900.03 544.469L1901.12 519.841L1876.5 522.683Z" fill="#C6C3B4"/>
<path d="M1901.12 519.841L1858.44 551.829L1900.03 544.469L1901.12 519.841Z" fill="#A9A099"/>
<path d="M1730.62 574.441L1882.18 548.732V569.013L1730.62 623.499V574.441Z" fill="#D98864"/>
<path d="M2160.67 125.787H2155.93V684.662H2160.67V125.787Z" fill="#A5DDD6"/>
<path d="M2556.15 408.066V403.33H2159.33V408.066H2556.15Z" fill="#A5DDD6"/>
<path d="M2556.15 684.662V679.926H2159.33V684.662H2556.15Z" fill="#A5DDD6"/>
<path d="M2556.15 130.523V125.787L2159.33 125.787V130.523L2556.15 130.523Z" fill="#A5DDD6"/>
<path d="M2556.15 270.715V265.979H2159.33V270.715H2556.15Z" fill="#A5DDD6"/>
<path d="M2559.46 125.787H2554.72V684.662H2559.46V125.787Z" fill="#A5DDD6"/>
<path d="M2228.23 351.771V402.231C2228.23 403.462 2229.78 403.993 2230.53 403.027C2237.72 393.649 2260.71 369.267 2284.74 403.292C2285.37 404.173 2286.76 403.746 2286.76 402.667V351.78H2282.27L2282.96 394.151C2282.96 394.151 2261.78 365.904 2233.53 394.151V351.78H2228.24L2228.23 351.771Z" fill="#A85F4E"/>
<path d="M2233.52 394.142L2241.28 386.384C2241.87 385.797 2242.82 385.797 2243.41 386.384L2244.78 387.748C2245.37 388.345 2245.35 389.33 2244.73 389.908L2230.52 403.027L2233.51 394.151L2233.52 394.142Z" fill="#A85F4E"/>
<path d="M2278.47 395.648C2275.91 393.156 2273.52 390.712 2271.83 388.43C2271.19 387.729 2271.35 386.62 2272.15 386.128L2273.46 385.332C2274.07 384.953 2274.87 385.076 2275.35 385.616L2282.94 394.141L2278.46 395.648H2278.47Z" fill="#A85F4E"/>
<path d="M2430.12 394.426C2430.12 394.426 2427.88 396.955 2430.32 400.441C2432.77 403.936 2448.82 403.936 2452.67 403.585C2456.5 403.235 2463.24 402.051 2464.76 399.853C2466.28 397.656 2464.76 393.914 2464.76 393.914L2430.12 394.435V394.426Z" fill="#672C1C"/>
<path d="M2436.95 391.015C2436.25 391.015 2422.29 394.852 2436.25 397.646C2448.11 400.014 2458.97 397.608 2461.97 396.822C2462.73 396.623 2463.44 396.253 2464.01 395.714C2465.11 394.653 2465.82 392.872 2460 391.707C2451.28 389.964 2436.96 391.006 2436.96 391.006L2436.95 391.015Z" fill="#8E432E"/>
<path d="M2436.63 390.116C2436.63 390.116 2409.24 367.931 2412.76 339.4C2415.31 318.741 2465.33 322.729 2474.65 329.217C2482.69 334.806 2480.59 348.067 2480.59 348.067C2480.59 348.067 2480.24 362.03 2469.78 375.992C2459.3 389.955 2458.23 390.106 2458.23 390.106H2436.63V390.116Z" fill="#8E432E"/>
<path d="M2436.63 392.096H2458.23C2458.44 392.096 2458.6 391.935 2458.6 391.736V390.466C2458.6 390.267 2458.43 390.106 2458.23 390.106H2436.63C2436.42 390.106 2436.26 390.267 2436.26 390.466V391.736C2436.26 391.935 2436.43 392.096 2436.63 392.096Z" fill="#672C1C"/>
<path d="M2414.63 334.607C2414.63 334.607 2417.4 322.587 2413.92 312.46C2410.42 302.334 2424.39 299.89 2430.32 307.222L2431.37 312.46C2431.37 312.46 2424.74 307.923 2420.56 308.624C2416.37 309.325 2419.07 313.635 2420.21 318.75C2420.91 321.895 2422.3 327.825 2421.26 329.227C2420.22 330.629 2414.64 334.617 2414.64 334.617L2414.63 334.607Z" fill="#8E432E"/>
<path d="M2478.85 334.114C2478.85 334.114 2475.16 322.596 2478.65 312.47C2482.15 302.344 2466.98 300.951 2461.05 308.283V313.171C2461.05 313.171 2467.83 307.933 2472.02 308.633C2476.21 309.334 2473.15 316.818 2472.37 318.76C2471.53 320.853 2471.18 326.442 2471.53 328.535C2471.81 330.259 2478.86 334.124 2478.86 334.124L2478.85 334.114Z" fill="#8E432E"/>
<path d="M2430.32 325.542C2430.32 325.542 2436.6 314.213 2422.64 296.405C2422.64 296.405 2466.63 296.405 2468.37 295.704C2468.37 295.704 2457.84 304.286 2462.24 325.305L2430.32 325.542Z" fill="#8E432E"/>
<path d="M2422.64 296.404C2422.64 296.404 2443.93 298.498 2468.37 295.703C2469.24 295.609 2468.04 295.4 2466.37 295.201C2463.34 294.832 2460.28 294.652 2457.23 294.643C2449.73 294.614 2433.22 294.614 2426.83 295.012C2421.24 295.362 2422.64 296.404 2422.64 296.404Z" fill="#672C1C"/>
<path d="M2258.24 397.646C2279.69 397.646 2297.07 380.258 2297.07 358.809C2297.07 337.36 2279.69 319.972 2258.24 319.972C2236.79 319.972 2219.4 337.36 2219.4 358.809C2219.4 380.258 2236.79 397.646 2258.24 397.646Z" fill="white"/>
<path d="M2258.24 383.523C2271.89 383.523 2282.95 372.458 2282.95 358.809C2282.95 345.16 2271.89 334.095 2258.24 334.095C2244.59 334.095 2233.52 345.16 2233.52 358.809C2233.52 372.458 2244.59 383.523 2258.24 383.523Z" fill="#E3E3E3"/>
<path opacity="0.2" d="M2559.08 63.2681H2155.93V852.325H2559.08V63.2681Z" fill="white"/>
<path d="M2559.08 684.227H2155.93V852.325H2559.08V684.227Z" fill="#2F182E"/>
<path d="M2559.08 66.1099H2155.93V125.616H2559.08V66.1099Z" fill="#2F182E"/>
<path d="M883.109 187.32V137.874C883.109 136.595 883.961 135.487 885.24 135.231C886.519 134.975 887.712 135.572 888.309 136.68C889.758 139.835 891.208 142.904 892.657 145.888C895.044 151.003 897.772 156.97 899.477 160.466C901.097 156.97 903.825 150.918 906.297 145.888C907.747 142.904 909.196 139.835 910.645 136.68C911.242 135.572 912.435 134.975 913.714 135.231C914.993 135.487 915.845 136.595 915.845 137.874V187.32C915.845 188.94 914.567 190.048 913.117 190.048C911.498 190.048 910.389 188.94 910.389 187.32V150.065C908.343 154.413 906.297 158.846 904.677 162.256C903.74 164.217 902.802 166.178 901.949 168.053C901.353 169.076 900.585 169.588 899.477 169.588C898.284 169.588 897.431 169.076 897.005 168.053C896.152 166.178 895.214 164.217 894.277 162.256C892.657 158.846 890.526 154.413 888.565 150.065V187.32C888.565 188.94 887.286 190.048 885.837 190.048C884.217 190.048 883.109 188.94 883.109 187.32Z" fill="#B73E4A"/>
<path d="M929.06 178.454V153.22C929.06 151.77 930.168 150.662 931.617 150.662C933.066 150.662 934.175 151.77 934.175 153.22V178.454C934.175 181.779 936.818 184.422 940.142 184.422H946.11V153.22C946.11 151.77 947.218 150.662 948.668 150.662C950.117 150.662 951.225 151.77 951.225 153.22V186.98C951.225 188.429 950.117 189.537 948.668 189.537H940.142C934.004 189.537 929.06 184.592 929.06 178.454Z" fill="#B73E4A"/>
<path d="M978.25 178.966C978.165 177.261 977.398 175.897 975.948 174.874L968.02 169.247C965.377 167.457 963.928 164.644 963.672 161.575C963.416 158.42 964.695 155.436 966.997 153.39C969.299 151.259 972.368 150.321 975.437 150.748C978.506 151.344 981.149 153.049 982.768 155.777C983.45 157.056 983.109 158.591 981.831 159.273C980.552 159.955 979.017 159.614 978.335 158.335C977.568 156.971 976.289 156.118 974.669 155.863C973.05 155.607 971.6 156.033 970.407 157.141C969.213 158.25 968.702 159.614 968.787 161.234C968.872 162.853 969.64 164.132 971.004 165.07L978.932 170.611C981.575 172.572 983.109 175.3 983.365 178.625C983.621 181.95 982.342 184.934 979.955 187.065C977.568 189.367 974.414 190.219 971.259 189.793C967.935 189.196 965.292 187.406 963.672 184.593C962.99 183.314 963.331 181.779 964.61 181.097C965.889 180.415 967.423 180.756 968.105 182.035C969.043 183.484 970.322 184.422 972.027 184.678C973.646 184.934 975.181 184.507 976.545 183.314C977.824 182.12 978.421 180.671 978.25 178.966Z" fill="#B73E4A"/>
<path d="M994.448 178.795V161.745C994.448 155.606 999.478 150.662 1005.53 150.662C1011.58 150.662 1016.61 155.606 1016.61 161.745V170.27C1016.61 171.719 1015.51 172.827 1014.06 172.827H999.563V178.795C999.563 181.182 1000.93 183.399 1003.23 184.336C1005.53 185.274 1008.09 184.763 1009.79 183.058C1010.22 182.546 1010.82 182.29 1011.5 182.29C1012.27 182.29 1012.86 182.546 1013.37 183.058C1013.89 183.484 1014.14 184.081 1014.14 184.848C1014.14 185.53 1013.89 186.127 1013.37 186.638C1010.22 189.792 1005.45 190.73 1001.35 189.025C997.176 187.32 994.448 183.313 994.448 178.795ZM1011.75 134.464C1012.69 135.487 1012.61 137.107 1011.5 138.044L1002.97 145.717C1001.95 146.655 1000.33 146.57 999.393 145.547C998.455 144.524 998.54 142.904 999.563 141.966L1008.09 134.293C1009.2 133.356 1010.73 133.441 1011.75 134.464ZM999.563 161.745V167.712H1011.5V161.745C1011.5 158.42 1008.86 155.777 1005.53 155.777C1002.21 155.777 999.563 158.42 999.563 161.745Z" fill="#B73E4A"/>
<path d="M1027.95 178.795V161.745C1027.95 155.607 1032.9 150.662 1039.03 150.662C1045.17 150.662 1050.12 155.607 1050.12 161.745V170.27C1050.12 171.719 1049.01 172.828 1047.56 172.828H1033.07V178.795C1033.07 181.182 1034.43 183.399 1036.73 184.337C1039.03 185.275 1041.51 184.763 1043.21 183.058C1043.72 182.546 1044.32 182.291 1045 182.291C1045.77 182.291 1046.37 182.546 1046.88 183.058C1047.39 183.484 1047.65 184.081 1047.65 184.848C1047.65 185.53 1047.39 186.127 1046.88 186.639C1043.72 189.793 1038.95 190.731 1034.77 189.026C1030.59 187.321 1027.95 183.314 1027.95 178.795ZM1033.07 161.745V167.713H1045V161.745C1045 158.42 1042.36 155.777 1039.03 155.777C1035.71 155.777 1033.07 158.42 1033.07 161.745Z" fill="#B73E4A"/>
<path d="M1075.44 178.966C1075.35 177.261 1074.59 175.897 1073.14 174.874L1065.21 169.247C1062.56 167.457 1061.12 164.644 1060.86 161.575C1060.6 158.42 1061.88 155.436 1064.18 153.39C1066.49 151.259 1069.56 150.321 1072.62 150.748C1075.69 151.344 1078.34 153.049 1079.96 155.777C1080.64 157.056 1080.3 158.591 1079.02 159.273C1077.74 159.955 1076.2 159.614 1075.52 158.335C1074.76 156.971 1073.48 156.118 1071.86 155.863C1070.24 155.607 1068.79 156.033 1067.59 157.141C1066.4 158.25 1065.89 159.614 1065.97 161.234C1066.06 162.853 1066.83 164.132 1068.19 165.07L1076.12 170.611C1078.76 172.572 1080.3 175.3 1080.55 178.625C1080.81 181.95 1079.53 184.934 1077.14 187.065C1074.76 189.367 1071.6 190.219 1068.45 189.793C1065.12 189.196 1062.48 187.406 1060.86 184.593C1060.18 183.314 1060.52 181.779 1061.8 181.097C1063.08 180.415 1064.61 180.756 1065.29 182.035C1066.23 183.484 1067.51 184.422 1069.21 184.678C1070.83 184.934 1072.37 184.507 1073.73 183.314C1075.01 182.12 1075.61 180.671 1075.44 178.966Z" fill="#B73E4A"/>
<path d="M1110.14 178.795V161.745C1110.14 155.607 1115.08 150.662 1121.22 150.662C1127.36 150.662 1132.3 155.607 1132.3 161.745V178.795C1132.3 184.934 1127.27 189.878 1121.22 189.878C1115.17 189.878 1110.14 184.934 1110.14 178.795ZM1115.25 161.745V178.795C1115.25 182.12 1117.89 184.763 1121.22 184.763C1124.54 184.763 1127.19 182.12 1127.19 178.795V161.745C1127.19 158.42 1124.54 155.777 1121.22 155.777C1117.89 155.777 1115.25 158.42 1115.25 161.745Z" fill="#B73E4A"/>
<path d="M1144.66 178.454V153.22C1144.66 151.77 1145.77 150.662 1147.22 150.662C1148.67 150.662 1149.78 151.77 1149.78 153.22V178.454C1149.78 181.779 1152.42 184.422 1155.75 184.422H1161.71V153.22C1161.71 151.77 1162.82 150.662 1164.27 150.662C1165.72 150.662 1166.83 151.77 1166.83 153.22V186.98C1166.83 188.429 1165.72 189.537 1164.27 189.537H1155.75C1149.61 189.537 1144.66 184.592 1144.66 178.454Z" fill="#B73E4A"/>
<path d="M1179.79 150.747C1181.07 150.406 1182.51 151.173 1182.94 152.452L1185.75 161.915C1187.37 167.286 1189.25 173.68 1190.7 178.454C1192.06 173.68 1194.02 167.286 1195.64 161.915L1198.46 152.452C1198.88 151.173 1200.33 150.406 1201.7 150.747C1203.06 151.173 1203.83 152.623 1203.4 153.987L1193.17 188.087C1192.83 189.111 1191.81 189.878 1190.7 189.878C1189.59 189.878 1188.57 189.111 1188.23 188.087L1178 153.987C1177.65 152.623 1178.42 151.173 1179.79 150.747Z" fill="#B73E4A"/>
<path d="M1212.69 178.795V161.745C1212.69 155.607 1217.64 150.662 1223.78 150.662C1229.91 150.662 1234.86 155.607 1234.86 161.745V170.27C1234.86 171.719 1233.75 172.828 1232.3 172.828H1217.81V178.795C1217.81 181.182 1219.17 183.399 1221.47 184.337C1223.78 185.275 1226.25 184.763 1227.95 183.058C1228.47 182.546 1229.06 182.291 1229.74 182.291C1230.51 182.291 1231.11 182.546 1231.62 183.058C1232.13 183.484 1232.39 184.081 1232.39 184.848C1232.39 185.53 1232.13 186.127 1231.62 186.639C1228.47 189.793 1223.69 190.731 1219.51 189.026C1215.34 187.321 1212.69 183.314 1212.69 178.795ZM1217.81 161.745V167.713H1229.74V161.745C1229.74 158.42 1227.1 155.777 1223.78 155.777C1220.45 155.777 1217.81 158.42 1217.81 161.745Z" fill="#B73E4A"/>
<path d="M1247.22 187.32V153.561C1247.22 152.111 1248.33 151.003 1249.78 151.003H1258.3C1260.26 151.003 1262.05 151.514 1263.84 152.452C1265.12 153.219 1265.46 154.669 1264.78 155.948C1264.1 157.226 1262.57 157.653 1261.29 156.885C1260.35 156.374 1259.33 156.118 1258.3 156.118H1252.34V187.32C1252.34 188.77 1251.23 189.878 1249.78 189.878C1248.33 189.878 1247.22 188.77 1247.22 187.32Z" fill="#B73E4A"/>
<path d="M1272.8 153.56C1272.8 152.111 1273.9 151.003 1275.35 151.003H1279.62V136.169C1279.62 134.72 1280.72 133.611 1282.17 133.611C1283.62 133.611 1284.73 134.72 1284.73 136.169V151.003H1290.7C1292.15 151.003 1293.26 152.111 1293.26 153.56C1293.26 155.01 1292.15 156.118 1290.7 156.118H1284.73V178.795C1284.73 182.12 1287.37 184.763 1290.7 184.763C1292.15 184.763 1293.26 185.871 1293.26 187.32C1293.26 188.77 1292.15 189.878 1290.7 189.878C1284.56 189.878 1279.62 184.933 1279.62 178.795V156.118H1275.35C1273.9 156.118 1272.8 155.01 1272.8 153.56Z" fill="#B73E4A"/>
<path d="M1316.87 178.966C1316.79 177.261 1316.02 175.897 1314.57 174.874L1306.64 169.247C1304 167.457 1302.55 164.644 1302.29 161.575C1302.04 158.42 1303.32 155.436 1305.62 153.39C1307.92 151.259 1310.99 150.321 1314.06 150.748C1317.13 151.344 1319.77 153.049 1321.39 155.777C1322.07 157.056 1321.73 158.591 1320.45 159.273C1319.17 159.955 1317.64 159.614 1316.96 158.335C1316.19 156.971 1314.91 156.118 1313.29 155.863C1311.67 155.607 1310.22 156.033 1309.03 157.141C1307.84 158.25 1307.32 159.614 1307.41 161.234C1307.49 162.853 1308.26 164.132 1309.63 165.07L1317.55 170.611C1320.2 172.572 1321.73 175.3 1321.99 178.625C1322.24 181.95 1320.96 184.934 1318.58 187.065C1316.19 189.367 1313.04 190.219 1309.88 189.793C1306.56 189.196 1303.91 187.406 1302.29 184.593C1301.61 183.314 1301.95 181.779 1303.23 181.097C1304.51 180.415 1306.04 180.756 1306.73 182.035C1307.66 183.484 1308.94 184.422 1310.65 184.678C1312.27 184.934 1313.8 184.507 1315.17 183.314C1316.45 182.12 1317.04 180.671 1316.87 178.966Z" fill="#B73E4A"/>
<path d="M1351.56 178.795V161.745C1351.56 155.607 1356.5 150.662 1362.64 150.662C1368.78 150.662 1373.73 155.607 1373.73 161.745V170.27C1373.73 171.719 1372.62 172.828 1371.17 172.828H1356.68V178.795C1356.68 181.182 1358.04 183.399 1360.34 184.337C1362.64 185.275 1365.12 184.763 1366.82 183.058C1367.33 182.546 1367.93 182.291 1368.61 182.291C1369.38 182.291 1369.97 182.546 1370.49 183.058C1371 183.484 1371.25 184.081 1371.25 184.848C1371.25 185.53 1371 186.127 1370.49 186.639C1367.33 189.793 1362.56 190.731 1358.38 189.026C1354.2 187.321 1351.56 183.314 1351.56 178.795ZM1356.68 161.745V167.713H1368.61V161.745C1368.61 158.42 1365.97 155.777 1362.64 155.777C1359.32 155.777 1356.68 158.42 1356.68 161.745Z" fill="#B73E4A"/>
<path d="M1386.09 187.32V153.561C1386.09 152.111 1387.2 151.003 1388.64 151.003H1397.17C1403.22 151.003 1408.25 155.948 1408.25 162.086V187.32C1408.25 188.77 1407.06 189.878 1405.7 189.878C1404.25 189.878 1403.14 188.77 1403.14 187.32V162.086C1403.14 158.761 1400.49 156.118 1397.17 156.118H1391.2V187.32C1391.2 188.77 1390.01 189.878 1388.64 189.878C1387.2 189.878 1386.09 188.77 1386.09 187.32Z" fill="#B73E4A"/>
<path d="M1439.97 186.98V138.215C1439.97 136.596 1441.25 135.487 1442.69 135.487H1459.75C1461.36 135.487 1462.47 136.596 1462.47 138.215C1462.47 139.835 1461.36 140.943 1459.75 140.943H1445.42V159.017H1458.04C1459.66 159.017 1460.77 160.125 1460.77 161.745C1460.77 163.365 1459.66 164.473 1458.04 164.473H1445.42V186.98C1445.42 188.599 1444.31 189.708 1442.69 189.708C1441.25 189.708 1439.97 188.599 1439.97 186.98Z" fill="#B73E4A"/>
<path d="M1472.11 187.32V153.561C1472.11 152.111 1473.21 151.003 1474.66 151.003H1483.19C1485.15 151.003 1486.94 151.514 1488.73 152.452C1490.01 153.219 1490.35 154.669 1489.67 155.948C1488.99 157.226 1487.45 157.653 1486.17 156.885C1485.24 156.374 1484.21 156.118 1483.19 156.118H1477.22V187.32C1477.22 188.77 1476.11 189.878 1474.66 189.878C1473.21 189.878 1472.11 188.77 1472.11 187.32Z" fill="#B73E4A"/>
<path d="M1512.52 161.574C1512.52 159.187 1511.07 157.141 1508.94 156.203C1506.63 155.265 1504.25 155.777 1502.63 157.482C1502.12 157.993 1501.52 158.249 1500.75 158.249C1500.07 158.249 1499.47 157.993 1498.96 157.482C1498.45 156.97 1498.19 156.374 1498.19 155.692C1498.19 154.924 1498.45 154.328 1498.96 153.901C1502.12 150.747 1506.8 149.809 1510.9 151.514C1514.99 153.219 1517.63 157.141 1517.63 161.574V186.979C1517.63 188.428 1516.44 189.537 1515.07 189.537H1506.55C1500.41 189.537 1495.47 184.592 1495.47 178.454C1495.47 172.316 1500.41 167.371 1506.55 167.371H1512.52V161.574ZM1506.55 184.422H1512.52V172.486H1506.55C1503.22 172.486 1500.58 175.129 1500.58 178.454C1500.58 181.779 1503.22 184.422 1506.55 184.422Z" fill="#B73E4A"/>
<path d="M1531.02 187.32V153.561C1531.02 152.111 1532.12 151.003 1533.57 151.003H1542.1C1548.15 151.003 1553.18 155.948 1553.18 162.086V187.32C1553.18 188.77 1551.99 189.878 1550.62 189.878C1549.17 189.878 1548.07 188.77 1548.07 187.32V162.086C1548.07 158.761 1545.42 156.118 1542.1 156.118H1536.13V187.32C1536.13 188.77 1534.94 189.878 1533.57 189.878C1532.12 189.878 1531.02 188.77 1531.02 187.32Z" fill="#B73E4A"/>
<path d="M1565.54 178.795V161.745C1565.54 157.226 1568.19 153.219 1572.36 151.514C1576.54 149.809 1581.14 150.747 1584.47 153.901C1584.9 154.413 1585.15 155.01 1585.15 155.777C1585.15 156.459 1584.9 157.056 1584.47 157.567C1583.96 157.993 1583.36 158.249 1582.59 158.249C1581.91 158.249 1581.31 157.993 1580.8 157.567C1579.1 155.777 1576.63 155.265 1574.32 156.203C1572.02 157.141 1570.66 159.357 1570.66 161.745V178.795C1570.66 181.182 1572.02 183.399 1574.32 184.336C1576.63 185.274 1579.1 184.763 1580.8 183.058C1581.31 182.546 1581.91 182.29 1582.59 182.29C1583.36 182.29 1583.96 182.546 1584.47 183.058C1584.9 183.484 1585.15 184.081 1585.15 184.848C1585.15 185.53 1584.9 186.127 1584.47 186.638C1581.14 189.792 1576.54 190.73 1572.36 189.025C1568.19 187.32 1565.54 183.313 1565.54 178.795Z" fill="#B73E4A"/>
<path d="M1595.64 178.795V161.745C1595.64 155.607 1600.58 150.662 1606.72 150.662C1612.86 150.662 1617.8 155.607 1617.8 161.745V170.27C1617.8 171.719 1616.69 172.828 1615.24 172.828H1600.75V178.795C1600.75 181.182 1602.12 183.399 1604.42 184.337C1606.72 185.275 1609.19 184.763 1610.9 183.058C1611.41 182.546 1612.01 182.291 1612.69 182.291C1613.45 182.291 1614.05 182.546 1614.56 183.058C1615.07 183.484 1615.33 184.081 1615.33 184.848C1615.33 185.53 1615.07 186.127 1614.56 186.639C1611.41 189.793 1606.63 190.731 1602.46 189.026C1598.28 187.321 1595.64 183.314 1595.64 178.795ZM1600.75 161.745V167.713H1612.69V161.745C1612.69 158.42 1610.04 155.777 1606.72 155.777C1603.39 155.777 1600.75 158.42 1600.75 161.745Z" fill="#B73E4A"/>
<path d="M3956.7 155.359V167.939C3956.7 171.122 3954.12 173.698 3950.94 173.698H3946.39C3945.67 173.698 3945.18 173.205 3945.18 172.486V150.813C3945.18 150.093 3945.67 149.6 3946.39 149.6H3950.94C3954.12 149.6 3956.7 152.177 3956.7 155.359ZM3950.94 152.025H3947.6V171.273H3950.94C3952.79 171.273 3954.27 169.795 3954.27 167.939V155.359C3954.27 153.541 3952.79 152.025 3950.94 152.025Z" fill="#ED6EA7"/>
<path d="M3961.96 168.848V161.27C3961.96 158.542 3964.16 156.345 3966.89 156.345C3969.62 156.345 3971.81 158.542 3971.81 161.27V165.059C3971.81 165.704 3971.32 166.196 3970.68 166.196H3964.24V168.848C3964.24 169.909 3964.84 170.894 3965.87 171.311C3966.89 171.728 3967.99 171.501 3968.75 170.743C3968.97 170.516 3969.24 170.402 3969.54 170.402C3969.88 170.402 3970.15 170.516 3970.38 170.743C3970.6 170.932 3970.72 171.198 3970.72 171.539C3970.72 171.842 3970.6 172.107 3970.38 172.334C3968.97 173.736 3966.85 174.153 3964.99 173.395C3963.14 172.637 3961.96 170.857 3961.96 168.848ZM3964.24 161.27V163.923H3969.54V161.27C3969.54 159.793 3968.37 158.618 3966.89 158.618C3965.41 158.618 3964.24 159.793 3964.24 161.27Z" fill="#ED6EA7"/>
<path d="M3983.86 157.633C3983.86 156.989 3984.36 156.496 3985 156.496H3986.9V153.692C3986.9 150.964 3989.09 148.767 3991.82 148.767C3992.46 148.767 3992.96 149.259 3992.96 149.903C3992.96 150.547 3992.46 151.04 3991.82 151.04C3990.34 151.04 3989.17 152.215 3989.17 153.692V156.496H3991.82C3992.46 156.496 3992.96 156.989 3992.96 157.633C3992.96 158.277 3992.46 158.77 3991.82 158.77H3989.17V172.637C3989.17 173.281 3988.68 173.774 3988.03 173.774C3987.39 173.774 3986.9 173.281 3986.9 172.637V158.77H3985C3984.36 158.77 3983.86 158.277 3983.86 157.633Z" fill="#ED6EA7"/>
<path d="M3997.69 172.637V157.633C3997.69 156.989 3998.19 156.496 3998.83 156.496H4002.62C4003.49 156.496 4004.29 156.723 4005.08 157.14C4005.65 157.481 4005.8 158.125 4005.5 158.694C4005.2 159.262 4004.51 159.451 4003.95 159.11C4003.53 158.883 4003.07 158.769 4002.62 158.769H3999.97V172.637C3999.97 173.281 3999.47 173.774 3998.83 173.774C3998.19 173.774 3997.69 173.281 3997.69 172.637Z" fill="#ED6EA7"/>
<path d="M4009.52 168.848V161.27C4009.52 158.542 4011.75 156.344 4014.44 156.344C4017.13 156.344 4019.37 158.542 4019.37 161.27V165.059C4019.37 165.703 4018.87 166.196 4018.23 166.196H4011.79V168.848C4011.79 169.909 4012.4 170.894 4013.42 171.311C4014.44 171.728 4015.58 171.5 4016.34 170.743C4016.52 170.515 4016.79 170.402 4017.09 170.402C4017.43 170.402 4017.7 170.515 4017.93 170.743C4018.15 170.932 4018.27 171.197 4018.27 171.538C4018.27 171.841 4018.15 172.107 4017.93 172.334C4016.52 173.736 4014.4 174.153 4012.58 173.395C4010.73 172.637 4009.52 170.856 4009.52 168.848ZM4017.21 149.145C4017.62 149.6 4017.59 150.32 4017.09 150.737L4013.3 154.147C4012.85 154.564 4012.13 154.526 4011.71 154.071C4011.3 153.616 4011.33 152.896 4011.79 152.48L4015.58 149.07C4016.07 148.653 4016.75 148.691 4017.21 149.145ZM4011.79 161.27V163.922H4017.09V161.27C4017.09 159.792 4015.92 158.618 4014.44 158.618C4012.96 158.618 4011.79 159.792 4011.79 161.27Z" fill="#ED6EA7"/>
<path d="M4024.41 168.697V161.422C4024.41 158.694 4026.6 156.496 4029.33 156.496H4033.12C4033.73 156.496 4034.26 156.989 4034.26 157.633V180.215C4034.26 180.859 4033.73 181.352 4033.12 181.352C4032.48 181.352 4031.98 180.859 4031.98 180.215V173.622H4029.33C4026.6 173.622 4024.41 171.425 4024.41 168.697ZM4026.68 161.422V168.697C4026.68 170.174 4027.85 171.349 4029.33 171.349H4031.98V158.769H4029.33C4027.85 158.769 4026.68 159.944 4026.68 161.422Z" fill="#ED6EA7"/>
<path d="M4040.21 168.697V157.481C4040.21 156.837 4040.7 156.345 4041.34 156.345C4041.99 156.345 4042.48 156.837 4042.48 157.481V168.697C4042.48 170.175 4043.65 171.349 4045.13 171.349H4047.78V157.481C4047.78 156.837 4048.28 156.345 4048.92 156.345C4049.57 156.345 4050.06 156.837 4050.06 157.481V172.486C4050.06 173.13 4049.57 173.623 4048.92 173.623H4045.13C4042.4 173.623 4040.21 171.425 4040.21 168.697Z" fill="#ED6EA7"/>
<path d="M4055.85 168.848V161.27C4055.85 158.542 4058.05 156.345 4060.78 156.345C4063.51 156.345 4065.71 158.542 4065.71 161.27V165.059C4065.71 165.704 4065.21 166.196 4064.57 166.196H4058.13V168.848C4058.13 169.909 4058.73 170.894 4059.76 171.311C4060.78 171.728 4061.88 171.501 4062.64 170.743C4062.86 170.516 4063.13 170.402 4063.43 170.402C4063.77 170.402 4064.04 170.516 4064.27 170.743C4064.49 170.932 4064.61 171.198 4064.61 171.539C4064.61 171.842 4064.49 172.107 4064.27 172.334C4062.86 173.736 4060.74 174.153 4058.89 173.395C4057.03 172.637 4055.85 170.857 4055.85 168.848ZM4058.13 161.27V163.923H4063.43V161.27C4063.43 159.793 4062.26 158.618 4060.78 158.618C4059.3 158.618 4058.13 159.793 4058.13 161.27Z" fill="#ED6EA7"/>
<path d="M4071.2 172.637V157.633C4071.2 156.989 4071.69 156.496 4072.34 156.496H4076.13C4078.82 156.496 4081.05 158.694 4081.05 161.422V172.637C4081.05 173.281 4080.52 173.774 4079.91 173.774C4079.27 173.774 4078.78 173.281 4078.78 172.637V161.422C4078.78 159.944 4077.6 158.769 4076.13 158.769H4073.47V172.637C4073.47 173.281 4072.94 173.774 4072.34 173.774C4071.69 173.774 4071.2 173.281 4071.2 172.637Z" fill="#ED6EA7"/>
<path d="M4085.33 157.633C4085.33 156.989 4085.83 156.496 4086.47 156.496H4088.36V149.903C4088.36 149.259 4088.86 148.767 4089.5 148.767C4090.14 148.767 4090.64 149.259 4090.64 149.903V156.496H4093.29C4093.93 156.496 4094.43 156.989 4094.43 157.633C4094.43 158.277 4093.93 158.77 4093.29 158.77H4090.64V168.848C4090.64 170.326 4091.81 171.501 4093.29 171.501C4093.93 171.501 4094.43 171.993 4094.43 172.637C4094.43 173.281 4093.93 173.774 4093.29 173.774C4090.56 173.774 4088.36 171.576 4088.36 168.848V158.77H4086.47C4085.83 158.77 4085.33 158.277 4085.33 157.633Z" fill="#ED6EA7"/>
<path d="M4105.23 161.194C4105.23 160.133 4104.58 159.224 4103.63 158.807C4102.61 158.391 4101.55 158.618 4100.83 159.376C4100.6 159.603 4100.34 159.717 4100 159.717C4099.69 159.717 4099.43 159.603 4099.2 159.376C4098.97 159.148 4098.86 158.883 4098.86 158.58C4098.86 158.239 4098.97 157.974 4099.2 157.784C4100.6 156.382 4102.69 155.966 4104.51 156.723C4106.32 157.481 4107.5 159.224 4107.5 161.194V172.486C4107.5 173.13 4106.97 173.622 4106.36 173.622H4102.57C4099.84 173.622 4097.65 171.425 4097.65 168.697C4097.65 165.969 4099.84 163.771 4102.57 163.771H4105.23V161.194ZM4102.57 171.349H4105.23V166.044H4102.57C4101.09 166.044 4099.92 167.219 4099.92 168.697C4099.92 170.174 4101.09 171.349 4102.57 171.349Z" fill="#ED6EA7"/>
<path d="M4111.78 157.633C4111.78 156.989 4112.27 156.496 4112.92 156.496H4114.81V149.903C4114.81 149.259 4115.3 148.767 4115.95 148.767C4116.59 148.767 4117.08 149.259 4117.08 149.903V156.496H4119.74C4120.38 156.496 4120.87 156.989 4120.87 157.633C4120.87 158.277 4120.38 158.77 4119.74 158.77H4117.08V168.848C4117.08 170.326 4118.26 171.501 4119.74 171.501C4120.38 171.501 4120.87 171.993 4120.87 172.637C4120.87 173.281 4120.38 173.774 4119.74 173.774C4117.01 173.774 4114.81 171.576 4114.81 168.848V158.77H4112.92C4112.27 158.77 4111.78 158.277 4111.78 157.633Z" fill="#ED6EA7"/>
<path d="M4125.23 151.798C4125.23 150.926 4125.87 150.282 4126.75 150.282C4127.62 150.282 4128.26 150.926 4128.26 151.798C4128.26 152.669 4127.62 153.313 4126.75 153.313C4125.87 153.313 4125.23 152.669 4125.23 151.798ZM4126.75 173.774C4126.14 173.774 4125.61 173.281 4125.61 172.637V157.481C4125.61 156.837 4126.14 156.345 4126.75 156.345C4127.39 156.345 4127.88 156.837 4127.88 157.481V172.637C4127.88 173.281 4127.39 173.774 4126.75 173.774Z" fill="#ED6EA7"/>
<path d="M4133.68 168.848V161.27C4133.68 158.542 4135.88 156.345 4138.61 156.345C4141.33 156.345 4143.53 158.542 4143.53 161.27V168.848C4143.53 171.576 4141.3 173.774 4138.61 173.774C4135.92 173.774 4133.68 171.576 4133.68 168.848ZM4135.95 161.27V168.848C4135.95 170.326 4137.13 171.501 4138.61 171.501C4140.08 171.501 4141.26 170.326 4141.26 168.848V161.27C4141.26 159.793 4140.08 158.618 4138.61 158.618C4137.13 158.618 4135.95 159.793 4135.95 161.27Z" fill="#ED6EA7"/>
<path d="M4149.33 172.637V157.633C4149.33 156.989 4149.82 156.496 4150.47 156.496H4154.25C4156.94 156.496 4159.18 158.694 4159.18 161.422V172.637C4159.18 173.281 4158.65 173.774 4158.04 173.774C4157.4 173.774 4156.91 173.281 4156.91 172.637V161.422C4156.91 159.944 4155.73 158.769 4154.25 158.769H4151.6V172.637C4151.6 173.281 4151.07 173.774 4150.47 173.774C4149.82 173.774 4149.33 173.281 4149.33 172.637Z" fill="#ED6EA7"/>
<path d="M4172.9 168.848V161.27C4172.9 158.542 4175.09 156.345 4177.82 156.345C4180.55 156.345 4182.75 158.542 4182.75 161.27V165.059C4182.75 165.704 4182.26 166.196 4181.61 166.196H4175.17V168.848C4175.17 169.909 4175.78 170.894 4176.8 171.311C4177.82 171.728 4178.92 171.501 4179.68 170.743C4179.91 170.516 4180.17 170.402 4180.47 170.402C4180.82 170.402 4181.08 170.516 4181.31 170.743C4181.54 170.932 4181.65 171.198 4181.65 171.539C4181.65 171.842 4181.54 172.107 4181.31 172.334C4179.91 173.736 4177.78 174.153 4175.93 173.395C4174.07 172.637 4172.9 170.857 4172.9 168.848ZM4175.17 161.27V163.923H4180.47V161.27C4180.47 159.793 4179.3 158.618 4177.82 158.618C4176.34 158.618 4175.17 159.793 4175.17 161.27Z" fill="#ED6EA7"/>
<path d="M4188.24 172.637V157.633C4188.24 156.989 4188.73 156.496 4189.38 156.496H4193.17C4195.86 156.496 4198.09 158.694 4198.09 161.422V172.637C4198.09 173.281 4197.56 173.774 4196.96 173.774C4196.31 173.774 4195.82 173.281 4195.82 172.637V161.422C4195.82 159.944 4194.65 158.769 4193.17 158.769H4190.52V172.637C4190.52 173.281 4189.98 173.774 4189.38 173.774C4188.73 173.774 4188.24 173.281 4188.24 172.637Z" fill="#ED6EA7"/>
<path d="M4212.04 152.328C4212.83 150.926 4213.97 150.055 4215.48 149.676C4216.96 149.259 4218.48 149.449 4219.8 150.169C4221.13 150.889 4222.12 152.063 4222.53 153.541C4222.99 155.019 4222.84 156.496 4222.12 157.898C4221.05 159.906 4220.07 161.763 4219.16 163.544C4217.57 166.575 4215.83 169.909 4215.11 171.273H4221.58C4222.23 171.273 4222.8 171.766 4222.8 172.486C4222.8 173.206 4222.23 173.698 4221.58 173.698H4213.1C4212.6 173.698 4212.26 173.509 4212.07 173.13C4211.81 172.713 4211.81 172.296 4212.04 171.917L4219.99 156.761C4220.41 155.966 4220.49 155.132 4220.22 154.261C4219.96 153.389 4219.42 152.707 4218.63 152.29C4217.83 151.874 4217 151.76 4216.13 151.987C4215.26 152.253 4214.58 152.783 4214.16 153.541C4213.82 154.109 4213.06 154.337 4212.49 153.996C4211.92 153.655 4211.7 152.897 4212.04 152.328Z" fill="#ED6EA7"/>
<path d="M4228.44 168.091V155.208C4228.44 152.025 4231.02 149.449 4234.2 149.449C4237.38 149.449 4239.96 152.025 4239.96 155.208V168.091C4239.96 171.273 4237.35 173.85 4234.2 173.85C4231.06 173.85 4228.44 171.273 4228.44 168.091ZM4230.87 155.208V168.091C4230.87 169.947 4232.35 171.425 4234.2 171.425C4236.06 171.425 4237.54 169.947 4237.54 168.091V155.208C4237.54 153.389 4236.02 151.874 4234.2 151.874C4232.38 151.874 4230.87 153.389 4230.87 155.208Z" fill="#ED6EA7"/>
<path d="M4247.27 156.42C4246.93 156.42 4246.67 156.306 4246.4 156.079C4246.18 155.814 4246.06 155.549 4246.06 155.208C4246.06 154.867 4246.18 154.601 4246.4 154.336L4250.95 149.789C4251.29 149.448 4251.82 149.373 4252.28 149.524C4252.77 149.714 4253.03 150.092 4253.03 150.661V172.637C4253.03 173.357 4252.46 173.849 4251.82 173.849C4251.1 173.849 4250.61 173.357 4250.61 172.637V153.578L4248.11 156.079C4247.88 156.306 4247.62 156.42 4247.27 156.42Z" fill="#ED6EA7"/>
<path d="M4261.52 158.997V155.208C4261.52 152.025 4264.14 149.449 4267.28 149.449C4270.42 149.449 4273.04 152.025 4273.04 155.208V168.091C4273.04 170.705 4271.33 172.94 4268.8 173.66C4266.22 174.38 4263.64 173.244 4262.32 170.97C4261.98 170.402 4262.16 169.644 4262.73 169.303C4263.34 169 4264.06 169.189 4264.4 169.758C4265.16 171.084 4266.67 171.728 4268.15 171.311C4269.63 170.894 4270.61 169.606 4270.61 168.091V163.695C4269.67 164.415 4268.57 164.756 4267.28 164.756C4264.14 164.756 4261.52 162.18 4261.52 158.997ZM4263.95 155.208V158.997C4263.95 160.854 4265.46 162.331 4267.28 162.331C4269.1 162.331 4270.61 160.854 4270.61 158.997V155.208C4270.61 153.389 4269.14 151.874 4267.28 151.874C4265.42 151.874 4263.95 153.389 4263.95 155.208Z" fill="#ED6EA7"/>
<path d="M527.986 88.6925V87.7642H559.671V420.087H527.986V119.677H518.504V103.953C519.271 103.337 520.124 102.645 521.052 101.869C521.98 101.101 522.823 100.173 523.6 99.0932C526.376 94.9348 527.834 91.4584 527.995 88.683L527.986 88.6925Z" fill="#B73E4A"/>
<path d="M636.256 93.5423C639.496 96.6303 641.958 100.249 643.654 104.407C645.501 108.727 646.429 113.198 646.429 117.82V224.196H646.202C645.89 227.587 645.047 230.903 643.654 234.142C641.958 238.301 639.496 241.928 636.256 245.007C633.945 247.318 632.325 248.711 631.397 249.165C628.309 251.325 621.526 256.563 611.05 264.89C610.586 265.202 610.046 265.894 609.43 266.974L608.966 269.058L608.739 390.703H614.754L614.526 270.45H646.212V419.84H577.299L577.072 273.68H577.299V269.058C577.299 264.122 578.228 259.576 580.075 255.417C580.842 253.57 581.77 251.799 582.85 250.094L587.473 244.543C591.177 240.536 599.882 233.365 613.607 223.031C613.911 222.879 614.147 222.567 614.299 222.103C614.602 221.335 614.763 220.871 614.763 220.72V117.811C614.763 116.115 613.835 115.111 611.988 114.808C610.444 114.808 609.44 115.812 608.985 117.811V216.097H577.299V117.811C577.299 113.188 578.228 108.717 580.075 104.398C581.922 100.239 584.385 96.6114 587.473 93.5328C590.712 90.2932 594.407 87.8304 598.575 86.1348C602.885 84.2877 607.365 83.3594 611.988 83.3594C616.61 83.3594 621.081 84.2877 625.401 86.1348C629.559 87.8304 633.187 90.2932 636.266 93.5328L636.256 93.5423Z" fill="#B73E4A"/>
<path d="M723.033 93.5423C726.273 96.6303 728.736 100.249 730.431 104.407C732.279 108.727 733.207 113.198 733.207 117.82V224.196H732.98C732.667 227.587 731.824 230.903 730.431 234.142C728.736 238.301 726.273 241.928 723.033 245.007C720.722 247.318 719.102 248.711 718.174 249.165C715.086 251.325 708.304 256.563 697.827 264.89C697.363 265.202 696.823 265.894 696.207 266.974L695.743 269.058L695.516 390.703H701.531L701.304 270.45H732.989V419.84H664.077L663.849 273.68H664.077V269.058C664.077 264.122 665.005 259.576 666.852 255.417C667.619 253.57 668.548 251.799 669.628 250.094L674.25 244.543C677.954 240.536 686.659 233.365 700.385 223.031C700.688 222.879 700.925 222.567 701.076 222.103C701.379 221.335 701.54 220.871 701.54 220.72V117.811C701.54 116.115 700.612 115.111 698.765 114.808C697.221 114.808 696.217 115.812 695.762 117.811V216.097H664.077V117.811C664.077 113.188 665.005 108.717 666.852 104.398C668.699 100.239 671.162 96.6114 674.25 93.5328C677.49 90.2932 681.184 87.8304 685.352 86.1348C689.662 84.2877 694.142 83.3594 698.765 83.3594C703.388 83.3594 707.859 84.2877 712.178 86.1348C716.336 87.8304 719.964 90.2932 723.043 93.5328L723.033 93.5423Z" fill="#B73E4A"/>
<path d="M809.801 93.5423C813.041 96.6303 815.504 100.249 817.199 104.407C819.046 108.727 819.975 113.198 819.975 117.82V224.196H819.747C819.435 227.587 818.592 230.903 817.199 234.142C815.504 238.301 813.041 241.928 809.801 245.007C807.49 247.318 805.87 248.711 804.942 249.165C801.854 251.325 795.071 256.563 784.595 264.89C784.131 265.202 783.591 265.894 782.975 266.974L782.511 269.058L782.284 390.703H788.299L788.071 270.45H819.757V419.84H750.844L750.617 273.68H750.844V269.058C750.844 264.122 751.773 259.576 753.62 255.417C754.387 253.57 755.316 251.799 756.395 250.094L761.018 244.543C764.722 240.536 773.427 233.365 787.152 223.031C787.456 222.879 787.692 222.567 787.844 222.103C788.147 221.335 788.308 220.871 788.308 220.72V117.811C788.308 116.115 787.38 115.111 785.533 114.808C783.989 114.808 782.985 115.812 782.53 117.811V216.097H750.844V117.811C750.844 113.188 751.773 108.717 753.62 104.398C755.467 100.239 757.93 96.6114 761.018 93.5328C764.258 90.2932 767.952 87.8304 772.12 86.1348C776.43 84.2877 780.91 83.3594 785.533 83.3594C790.155 83.3594 794.626 84.2877 798.946 86.1348C803.104 87.8304 806.732 90.2932 809.811 93.5328L809.801 93.5423Z" fill="#B73E4A"/>
<path d="M3599.42 322.482C3601.51 323.335 3603.14 325.03 3604.34 327.569C3605.53 330.117 3606.13 333.082 3606.13 336.473V404.93C3606.13 405.47 3606.02 406.74 3605.78 408.748C3605.55 409.752 3605.2 410.718 3604.74 411.637C3603.88 413.721 3602.65 415.568 3601.03 417.188C3599.41 418.808 3597.68 419.963 3595.6 420.891C3593.44 421.82 3591.2 422.274 3588.89 422.274C3586.58 422.274 3584.34 421.81 3582.18 420.891C3580.1 419.963 3578.25 418.732 3576.63 417.188C3575.09 415.568 3573.86 413.721 3572.93 411.637C3572 409.477 3571.55 407.242 3571.55 404.93V269.758C3571.55 269.294 3571.7 268.025 3572.01 265.941C3572.24 264.937 3572.55 263.971 3572.94 263.052C3573.78 260.968 3575.02 259.159 3576.64 257.615C3578.19 255.995 3580 254.763 3582.08 253.911C3584.24 252.983 3586.47 252.528 3588.79 252.528C3591.25 252.528 3593.52 252.992 3595.61 253.911C3597.61 254.763 3599.42 255.995 3601.04 257.615C3602.66 259.159 3603.89 260.968 3604.75 263.052C3605.68 265.211 3606.13 267.447 3606.13 269.758V318.437H3590.29V269.758C3590.29 268.915 3589.79 268.451 3588.79 268.375C3588.02 268.375 3587.55 268.839 3587.4 269.758V331.623H3588.21V330.467C3589.21 325.996 3591.45 323.221 3594.91 322.141C3595.53 321.989 3596.11 321.914 3596.65 321.914C3597.34 321.914 3597.94 321.989 3598.44 322.141C3598.94 322.293 3599.26 322.416 3599.42 322.491V322.482ZM3590.41 405.158V338.443C3590.09 337.6 3589.6 337.174 3588.9 337.174C3588.21 337.25 3587.74 337.638 3587.52 338.329L3587.4 405.167C3587.71 406.095 3588.25 406.55 3589.02 406.55C3589.79 406.399 3590.25 405.934 3590.41 405.167V405.158Z" fill="#ED6EA7"/>
<path d="M3620.05 270.45V254.612H3654.63V270.45L3635.89 420.769H3620.05L3638.9 270.45H3620.05Z" fill="#ED6EA7"/>
<path d="M3696.07 325.257C3694.6 326.726 3692.95 327.843 3691.1 328.611C3689.09 329.463 3687.05 329.88 3684.97 329.88C3682.89 329.88 3680.85 329.454 3678.84 328.611C3676.99 327.843 3675.34 326.726 3673.87 325.257C3672.4 323.799 3671.28 322.132 3670.51 320.284C3669.66 318.276 3669.25 316.24 3669.25 314.156V268.138C3669.25 266.055 3669.67 264.018 3670.51 262.01C3671.28 260.163 3672.4 258.505 3673.87 257.037C3675.33 255.654 3676.99 254.536 3678.84 253.683C3680.85 252.916 3682.89 252.528 3684.97 252.528C3687.05 252.528 3689.09 252.916 3691.1 253.683C3692.95 254.536 3694.6 255.654 3696.07 257.037C3697.45 258.505 3698.57 260.163 3699.42 262.01C3700.27 264.018 3700.69 266.055 3700.69 268.138V314.156C3700.69 316.24 3700.27 318.276 3699.42 320.284C3698.57 322.132 3697.45 323.789 3696.07 325.257ZM3686.24 314.156V268.138C3686.24 267.447 3685.81 267.021 3684.97 266.869C3684.2 266.869 3683.74 267.295 3683.59 268.138V314.156C3683.59 314.847 3684.05 315.311 3684.97 315.539C3685.66 315.539 3686.09 315.075 3686.24 314.156ZM3711.45 254.489H3722.32L3699.65 420.655H3688.79L3711.45 254.489ZM3737.24 350.123C3738.7 351.591 3739.82 353.249 3740.59 355.096C3741.43 357.104 3741.86 359.14 3741.86 361.224V407.242C3741.86 409.326 3741.43 411.362 3740.59 413.37C3739.82 415.217 3738.7 416.875 3737.24 418.343C3735.86 419.726 3734.19 420.844 3732.27 421.697C3730.26 422.54 3728.22 422.966 3726.14 422.966C3724.05 422.966 3722.02 422.54 3720.01 421.697C3718.16 420.844 3716.5 419.726 3715.03 418.343C3713.65 416.885 3712.52 415.217 3711.68 413.37C3710.83 411.362 3710.41 409.326 3710.41 407.242V361.224C3710.41 359.14 3710.84 357.104 3711.68 355.096C3712.52 353.249 3713.65 351.591 3715.03 350.123C3716.49 348.74 3718.16 347.622 3720.01 346.769C3722.02 345.926 3724.05 345.5 3726.14 345.5C3728.22 345.5 3730.26 345.926 3732.27 346.769C3734.19 347.622 3735.85 348.74 3737.24 350.123ZM3727.52 407.242V361.224C3727.52 360.533 3727.06 360.107 3726.14 359.955C3725.45 359.955 3724.98 360.381 3724.75 361.224V407.242C3724.75 407.933 3725.22 408.359 3726.14 408.511C3726.83 408.511 3727.29 408.085 3727.52 407.242Z" fill="#ED6EA7"/>
<rect x="3551" y="227.75" width="216" height="226" fill="#D35D5F"/>
<path d="M3585.85 351.897C3582.48 350.994 3580.18 347.983 3580.18 344.52V327.459C3580.18 323.996 3582.48 320.985 3585.85 320.082C3589.16 319.179 3592.67 320.684 3594.43 323.645C3594.83 324.397 3594.58 325.401 3593.83 325.853C3593.07 326.304 3592.07 326.003 3591.62 325.251C3590.61 323.544 3588.61 322.691 3586.65 323.193C3584.74 323.695 3583.39 325.451 3583.39 327.459V344.52C3583.39 346.528 3584.74 348.284 3586.65 348.786C3588.61 349.288 3590.61 348.435 3591.62 346.728C3592.07 345.976 3593.07 345.725 3593.83 346.126C3594.58 346.578 3594.83 347.581 3594.43 348.334C3592.67 351.345 3589.16 352.8 3585.85 351.897ZM3602.8 351.847C3601.14 350.843 3600.04 349.037 3600.04 347.08V320.433C3600.04 319.58 3600.74 318.928 3601.54 318.928C3602.4 318.928 3603.05 319.58 3603.05 320.433V347.08C3603.05 347.983 3603.55 348.786 3604.3 349.237C3605.05 349.639 3605.31 350.592 3604.85 351.295C3604.45 351.997 3603.55 352.248 3602.8 351.847ZM3611.74 324.949C3610.63 324.949 3609.73 324.046 3609.73 322.942C3609.73 321.838 3610.63 320.935 3611.74 320.935C3612.84 320.935 3613.75 321.838 3613.75 322.942C3613.75 324.046 3612.84 324.949 3611.74 324.949ZM3613.24 350.542C3613.24 351.395 3612.59 352.048 3611.74 352.048C3610.94 352.048 3610.23 351.395 3610.23 350.542V330.469C3610.23 329.616 3610.94 328.964 3611.74 328.964C3612.59 328.964 3613.24 329.616 3613.24 330.469V350.542ZM3626.2 351.847C3622.59 351.847 3619.68 348.936 3619.68 345.323V335.688C3619.68 332.075 3622.59 329.165 3626.2 329.165H3631.22C3632.02 329.165 3632.72 329.817 3632.72 330.67V360.579C3632.72 361.432 3632.02 362.084 3631.22 362.084C3630.37 362.084 3629.71 361.432 3629.71 360.579V351.847H3626.2ZM3626.2 332.176C3624.24 332.176 3622.69 333.731 3622.69 335.688V345.323C3622.69 347.28 3624.24 348.836 3626.2 348.836H3629.71V332.176H3626.2ZM3645.86 351.847C3642.24 351.847 3639.33 348.936 3639.33 345.323V330.469C3639.33 329.616 3639.99 328.964 3640.84 328.964C3641.69 328.964 3642.34 329.616 3642.34 330.469V345.323C3642.34 347.28 3643.9 348.836 3645.86 348.836H3649.37V330.469C3649.37 329.616 3650.02 328.964 3650.88 328.964C3651.73 328.964 3652.38 329.616 3652.38 330.469V350.341C3652.38 351.195 3651.73 351.847 3650.88 351.847H3645.86ZM3662.8 351.546C3660.34 350.542 3658.78 348.184 3658.78 345.524V335.488C3658.78 331.875 3661.69 328.964 3665.31 328.964C3668.92 328.964 3671.83 331.875 3671.83 335.488V340.506C3671.83 341.359 3671.18 342.011 3670.33 342.011H3661.79V345.524C3661.79 346.929 3662.65 348.234 3663.95 348.786C3665.26 349.338 3666.76 349.037 3667.77 348.033C3668.37 347.431 3669.32 347.431 3669.92 348.033C3670.53 348.585 3670.53 349.539 3669.92 350.141C3668.07 351.997 3665.26 352.549 3662.8 351.546ZM3665.31 331.975C3663.35 331.975 3661.79 333.531 3661.79 335.488V339C3663.8 339 3667.31 339 3668.82 339C3668.82 337.545 3668.82 335.488 3668.82 335.488C3668.82 333.531 3667.26 331.975 3665.31 331.975ZM3676.46 350.341C3676.46 350.091 3676.51 349.89 3676.61 349.639C3676.61 349.639 3683.73 335.638 3685.54 332.176C3682.73 332.176 3677.96 332.176 3677.96 332.176C3677.11 332.176 3676.46 331.523 3676.46 330.67C3676.46 329.817 3677.11 329.165 3677.96 329.165H3688C3688.5 329.165 3689 329.416 3689.25 329.867C3689.4 330.118 3689.5 330.419 3689.5 330.67C3689.5 330.921 3689.4 331.122 3689.3 331.373C3689.3 331.373 3682.18 345.373 3680.42 348.836C3683.18 348.836 3688 348.836 3688 348.836C3688.8 348.836 3689.5 349.488 3689.5 350.341C3689.5 351.195 3688.8 351.847 3688 351.847H3677.96C3677.41 351.847 3676.91 351.596 3676.66 351.144C3676.51 350.893 3676.46 350.592 3676.46 350.341ZM3706.27 352.148C3705.42 352.148 3704.66 351.445 3704.66 350.542V321.437C3704.66 320.533 3705.42 319.831 3706.27 319.831C3707.17 319.831 3707.88 320.533 3707.88 321.437V350.542C3707.88 351.445 3707.17 352.148 3706.27 352.148ZM3718.22 351.546C3715.76 350.542 3714.21 348.184 3714.21 345.524V335.488C3714.21 332.828 3715.76 330.469 3718.22 329.466C3720.68 328.462 3723.44 329.014 3725.35 330.871C3725.9 331.473 3725.9 332.427 3725.35 333.029C3724.75 333.581 3723.79 333.581 3723.19 333.029C3722.19 331.975 3720.68 331.724 3719.38 332.226C3718.07 332.778 3717.22 334.083 3717.22 335.488V345.524C3717.22 346.929 3718.07 348.234 3719.38 348.786C3720.68 349.338 3722.19 349.037 3723.19 348.033C3723.79 347.431 3724.75 347.431 3725.35 348.033C3725.9 348.585 3725.9 349.539 3725.35 350.141C3723.44 351.997 3720.68 352.549 3718.22 351.546ZM3732.78 324.949C3731.68 324.949 3730.78 324.046 3730.78 322.942C3730.78 321.838 3731.68 320.935 3732.78 320.935C3733.89 320.935 3734.79 321.838 3734.79 322.942C3734.79 324.046 3733.89 324.949 3732.78 324.949ZM3734.29 350.542C3734.29 351.395 3733.64 352.048 3732.78 352.048C3731.98 352.048 3731.28 351.395 3731.28 350.542V330.469C3731.28 329.616 3731.98 328.964 3732.78 328.964C3733.64 328.964 3734.29 329.616 3734.29 330.469V350.542Z" fill="white"/>
<rect x="3935" y="115.75" width="350" height="99" fill="#D35D5F"/>
<path d="M4037.48 176.7C4034.12 175.797 4031.81 172.786 4031.81 169.323V152.261C4031.81 148.799 4034.12 145.788 4037.48 144.885C4040.79 143.981 4044.31 145.487 4046.06 148.447C4046.46 149.2 4046.21 150.204 4045.46 150.655C4044.71 151.107 4043.7 150.806 4043.25 150.053C4042.25 148.347 4040.24 147.494 4038.28 147.996C4036.38 148.498 4035.02 150.254 4035.02 152.261V169.323C4035.02 171.33 4036.38 173.087 4038.28 173.589C4040.24 174.09 4042.25 173.237 4043.25 171.531C4043.7 170.778 4044.71 170.527 4045.46 170.929C4046.21 171.381 4046.46 172.384 4046.06 173.137C4044.31 176.148 4040.79 177.603 4037.48 176.7ZM4054.43 176.65C4052.77 175.646 4051.67 173.839 4051.67 171.882V145.236C4051.67 144.383 4052.37 143.73 4053.18 143.73C4054.03 143.73 4054.68 144.383 4054.68 145.236V171.882C4054.68 172.786 4055.18 173.589 4055.94 174.04C4056.69 174.442 4056.94 175.395 4056.49 176.098C4056.09 176.8 4055.18 177.051 4054.43 176.65ZM4063.37 149.752C4062.27 149.752 4061.37 148.849 4061.37 147.745C4061.37 146.641 4062.27 145.738 4063.37 145.738C4064.48 145.738 4065.38 146.641 4065.38 147.745C4065.38 148.849 4064.48 149.752 4063.37 149.752ZM4064.88 175.345C4064.88 176.198 4064.23 176.85 4063.37 176.85C4062.57 176.85 4061.87 176.198 4061.87 175.345V155.272C4061.87 154.419 4062.57 153.767 4063.37 153.767C4064.23 153.767 4064.88 154.419 4064.88 155.272V175.345ZM4077.83 176.65C4074.22 176.65 4071.31 173.739 4071.31 170.126V160.491C4071.31 156.878 4074.22 153.967 4077.83 153.967H4082.85C4083.66 153.967 4084.36 154.62 4084.36 155.473V185.381C4084.36 186.234 4083.66 186.887 4082.85 186.887C4082 186.887 4081.35 186.234 4081.35 185.381V176.65H4077.83ZM4077.83 156.978C4075.88 156.978 4074.32 158.534 4074.32 160.491V170.126C4074.32 172.083 4075.88 173.639 4077.83 173.639H4081.35V156.978H4077.83ZM4097.49 176.65C4093.88 176.65 4090.97 173.739 4090.97 170.126V155.272C4090.97 154.419 4091.62 153.767 4092.47 153.767C4093.33 153.767 4093.98 154.419 4093.98 155.272V170.126C4093.98 172.083 4095.53 173.639 4097.49 173.639H4101V155.272C4101 154.419 4101.66 153.767 4102.51 153.767C4103.36 153.767 4104.01 154.419 4104.01 155.272V175.144C4104.01 175.997 4103.36 176.65 4102.51 176.65H4097.49ZM4114.43 176.349C4111.97 175.345 4110.42 172.986 4110.42 170.327V160.29C4110.42 156.677 4113.33 153.767 4116.94 153.767C4120.55 153.767 4123.46 156.677 4123.46 160.29V165.309C4123.46 166.162 4122.81 166.814 4121.96 166.814H4113.43V170.327C4113.43 171.732 4114.28 173.037 4115.59 173.589C4116.89 174.141 4118.4 173.839 4119.4 172.836C4120 172.234 4120.96 172.234 4121.56 172.836C4122.16 173.388 4122.16 174.341 4121.56 174.943C4119.7 176.8 4116.89 177.352 4114.43 176.349ZM4116.94 156.778C4114.98 156.778 4113.43 158.333 4113.43 160.29V163.803C4115.44 163.803 4118.95 163.803 4120.45 163.803C4120.45 162.348 4120.45 160.29 4120.45 160.29C4120.45 158.333 4118.9 156.778 4116.94 156.778ZM4128.09 175.144C4128.09 174.893 4128.14 174.693 4128.24 174.442C4128.24 174.442 4135.37 160.441 4137.17 156.978C4134.36 156.978 4129.6 156.978 4129.6 156.978C4128.74 156.978 4128.09 156.326 4128.09 155.473C4128.09 154.62 4128.74 153.967 4129.6 153.967H4139.63C4140.13 153.967 4140.64 154.218 4140.89 154.67C4141.04 154.921 4141.14 155.222 4141.14 155.473C4141.14 155.724 4141.04 155.925 4140.94 156.175C4140.94 156.175 4133.81 170.176 4132.05 173.639C4134.81 173.639 4139.63 173.639 4139.63 173.639C4140.43 173.639 4141.14 174.291 4141.14 175.144C4141.14 175.997 4140.43 176.65 4139.63 176.65H4129.6C4129.04 176.65 4128.54 176.399 4128.29 175.947C4128.14 175.696 4128.09 175.395 4128.09 175.144ZM4157.9 176.951C4157.05 176.951 4156.3 176.248 4156.3 175.345V146.239C4156.3 145.336 4157.05 144.634 4157.9 144.634C4158.81 144.634 4159.51 145.336 4159.51 146.239V175.345C4159.51 176.248 4158.81 176.951 4157.9 176.951ZM4169.86 176.349C4167.4 175.345 4165.84 172.986 4165.84 170.327V160.29C4165.84 157.631 4167.4 155.272 4169.86 154.269C4172.32 153.265 4175.08 153.817 4176.98 155.674C4177.54 156.276 4177.54 157.229 4176.98 157.831C4176.38 158.383 4175.43 158.383 4174.83 157.831C4173.82 156.778 4172.32 156.527 4171.01 157.029C4169.71 157.581 4168.85 158.885 4168.85 160.29V170.327C4168.85 171.732 4169.71 173.037 4171.01 173.589C4172.32 174.141 4173.82 173.839 4174.83 172.836C4175.43 172.234 4176.38 172.234 4176.98 172.836C4177.54 173.388 4177.54 174.341 4176.98 174.943C4175.08 176.8 4172.32 177.352 4169.86 176.349ZM4184.42 149.752C4183.31 149.752 4182.41 148.849 4182.41 147.745C4182.41 146.641 4183.31 145.738 4184.42 145.738C4185.52 145.738 4186.42 146.641 4186.42 147.745C4186.42 148.849 4185.52 149.752 4184.42 149.752ZM4185.92 175.345C4185.92 176.198 4185.27 176.85 4184.42 176.85C4183.61 176.85 4182.91 176.198 4182.91 175.345V155.272C4182.91 154.419 4183.61 153.767 4184.42 153.767C4185.27 153.767 4185.92 154.419 4185.92 155.272V175.345Z" fill="white"/>
<circle cx="1442.5" cy="335.25" r="4.5" fill="#D9D9D9"/>
<circle cx="1441" cy="335.75" r="2" fill="#3E2622"/>
<circle cx="1416.5" cy="335.25" r="4.5" fill="#D9D9D9"/>
<circle cx="1415" cy="335.75" r="2" fill="#3E2622"/>
</svg>
