<svg width="1821" height="1024" viewBox="0 0 1821 1024" fill="none" xmlns="http://www.w3.org/2000/svg">
<g clip-path="url(#clip0_209_587)">
<path d="M1821 758.396H0V1024H1821V758.396Z" fill="#7F5B4F"/>
<path d="M1821 0H0V758.87H1821V0Z" fill="#D35D5F"/>
<path d="M1821 726.884H0V759.136H1821V726.884Z" fill="white"/>
<path d="M758.75 153.937H312.984V596.927H758.75V153.937Z" fill="white"/>
<path d="M310.139 153.937H760.647L806.172 110.302H268.73L310.139 153.937Z" fill="#FFC973"/>
<path d="M806.172 110.302V642.459L758.75 599.773V149.194L806.172 110.302Z" fill="#FFC973"/>
<path d="M760.647 596.927H310.139L267.146 642.772L806.172 642.431L760.647 596.927Z" fill="#FFC973"/>
<path d="M268.835 110.302L267.146 642.772L312.984 599.773V149.194L268.835 110.302Z" fill="#FFC973"/>
<path d="M268.73 110.302L300.655 163.422V586.018L267.146 642.772L268.73 110.302Z" fill="#FFB673"/>
<path d="M806.172 110.302L773.612 163.422V586.018L806.172 642.459V110.302Z" fill="#FFB673"/>
<path d="M268.408 110.302L327.524 143.18H750.053L806.172 110.302H268.408Z" fill="#FFB673"/>
<path d="M267.459 642.459L325.627 609.259H748.156L806.172 642.459H267.459Z" fill="#FFB673"/>
<path d="M1821 595.978L1762.98 596.234V153.244L1821 152.988V595.978Z" fill="white"/>
<path d="M1760.14 153.244L1821 152.988V109.353L1718.73 109.609L1760.14 153.244Z" fill="#FFC973"/>
<path d="M1821 595.978L1760.14 596.234L1717.15 642.08L1821 642.459V595.978Z" fill="#FFC973"/>
<path d="M1718.83 109.609L1717.15 642.08L1762.98 599.08V148.501L1718.83 109.609Z" fill="#FFC973"/>
<path d="M1718.73 109.609L1750.65 162.73V585.326L1717.15 642.08L1718.73 109.609Z" fill="#FFB673"/>
<path d="M1718.41 109.609L1777.52 142.487L1821 142.554V109.353L1718.41 109.609Z" fill="#FFB673"/>
<path d="M1717.46 641.767L1772.63 608.31H1821V642.459L1717.46 641.767Z" fill="#FFB673"/>
<path d="M448.384 185.354C450.328 187.204 451.807 189.385 452.832 191.88C453.941 194.479 454.501 197.164 454.501 199.943V263.859H454.359C454.169 265.898 453.666 267.891 452.832 269.835C451.807 272.339 450.328 274.512 448.384 276.361C446.999 277.746 446.022 278.581 445.462 278.866C443.613 280.165 439.535 283.315 433.237 288.314C432.962 288.503 432.63 288.921 432.26 289.566L431.985 290.818L431.843 363.907H435.456L435.314 291.653H454.349V381.417H412.95L412.808 293.597H412.95V290.818C412.95 287.858 413.509 285.117 414.619 282.622C415.084 281.512 415.634 280.45 416.288 279.425L419.067 276.086C421.287 273.677 426.522 269.37 434.764 263.167C434.944 263.072 435.086 262.891 435.181 262.607C435.361 262.142 435.456 261.867 435.456 261.772V199.934C435.456 198.919 434.897 198.312 433.787 198.131C432.858 198.131 432.26 198.739 431.985 199.934V258.993H412.95V199.934C412.95 197.154 413.509 194.47 414.619 191.871C415.729 189.366 417.208 187.194 419.067 185.344C421.012 183.4 423.231 181.92 425.735 180.896C428.324 179.786 431.018 179.226 433.797 179.226C436.575 179.226 439.26 179.786 441.858 180.896C444.362 181.92 446.534 183.4 448.384 185.344V185.354Z" fill="#66CCFF"/>
<path d="M503.99 269.418C501.771 271.732 499.779 273.032 498.015 273.307V273.867C500.149 274.056 502.369 275.584 504.683 278.448C505.517 279.833 506.02 281.133 506.21 282.338C506.39 283.542 506.485 284.424 506.485 284.975V362.512C506.485 365.292 505.925 367.976 504.816 370.575C504.256 371.96 503.564 373.307 502.729 374.607C501.989 375.536 501.202 376.409 500.367 377.244C498.423 379.188 496.242 380.668 493.842 381.693C492.173 382.338 490.968 382.755 490.229 382.945C489.584 383.22 488.142 383.362 485.923 383.362C484.538 383.362 482.916 383.172 481.057 382.802C479.483 382.338 478.373 381.968 477.719 381.693C475.215 380.583 472.996 379.103 471.051 377.244C469.202 375.299 467.713 373.079 466.603 370.575C465.493 367.986 464.934 365.292 464.934 362.512V284.975C464.934 284.415 465.029 283.542 465.209 282.338C465.389 281.133 465.901 279.833 466.736 278.448C469.24 275.489 471.601 273.952 473.821 273.867V273.449C471.876 273.174 469.742 271.827 467.428 269.418C466.319 267.938 465.626 266.525 465.342 265.178C465.067 263.84 464.924 262.882 464.924 262.332L465.199 200.086C465.199 197.306 465.712 194.622 466.726 192.023C467.836 189.518 469.316 187.299 471.175 185.354C473.119 183.409 475.338 181.93 477.842 180.905C478.582 180.63 479.691 180.26 481.181 179.795C483.03 179.425 484.652 179.236 486.046 179.236C487.44 179.236 488.92 179.425 490.494 179.795C492.713 180.535 493.871 180.905 493.965 180.905C494.241 181 494.563 181.142 494.942 181.322C497.076 182.347 498.973 183.684 500.642 185.354C502.492 187.299 503.981 189.518 505.091 192.023C506.105 194.622 506.618 197.306 506.618 200.086L506.475 262.332C506.475 262.892 506.333 263.84 506.058 265.178C505.783 266.525 505.081 267.938 503.971 269.418H503.99ZM487.45 362.654L487.592 284.007C487.497 282.897 487.032 282.11 486.207 281.645L485.79 281.503H485.648C485.458 281.598 485.278 281.645 485.088 281.645C484.253 282.205 483.836 282.992 483.836 284.007C483.836 284.652 483.884 310.824 483.978 362.512C483.978 363.442 484.576 364.039 485.78 364.314C486.34 364.314 486.795 364.087 487.165 363.622C487.345 363.252 487.44 362.93 487.44 362.645L487.45 362.654ZM487.45 262.332L487.592 199.943C487.592 199.203 487.269 198.691 486.615 198.416C486.425 198.321 486.198 198.274 485.923 198.274C484.993 198.274 484.396 198.881 484.121 200.076L483.978 262.322C483.978 263.157 484.301 263.707 484.955 263.992H486.482C486.757 263.812 486.994 263.575 487.175 263.299C487.355 262.929 487.45 262.607 487.45 262.322V262.332Z" fill="#66CCFF"/>
<path d="M517.079 381.418V359.183H536.114V381.418C533.98 387.346 531.808 393.275 529.589 399.204H517.088L523.613 381.418H517.088H517.079Z" fill="#66CCFF"/>
<path d="M580.036 262.749C582.54 263.774 584.503 265.804 585.945 268.868C587.377 271.922 588.098 275.489 588.098 279.568V362.522C588.098 365.301 587.538 367.985 586.428 370.585C585.404 373.089 583.925 375.309 581.98 377.253C580.036 379.198 577.949 380.592 575.455 381.702C572.856 382.812 570.172 383.372 567.393 383.372C564.614 383.372 561.93 382.812 559.332 381.702C556.828 380.592 554.608 379.112 552.664 377.253C550.815 375.309 549.326 373.089 548.216 370.585C547.846 369.845 547.476 368.687 547.106 367.113C546.736 364.703 546.547 363.176 546.547 362.531V285.828H565.582V362.531C565.582 363.461 566.179 364.058 567.384 364.333C568.399 364.333 569.006 363.736 569.186 362.531V282.632C568.626 280.687 567.706 279.71 566.407 279.71H566.265C565.24 279.9 564.501 280.545 564.045 281.655H546.537V181.882C560.432 181.882 574.279 181.93 588.079 182.024V258.727H569.044V199.393H565.572V273.734H566.549V272.349C567.754 266.885 570.438 263.546 574.611 262.341C575.351 262.161 576.043 262.066 576.697 262.066C577.532 262.066 578.243 262.161 578.85 262.341C579.448 262.531 579.846 262.664 580.036 262.759V262.749Z" fill="#66CCFF"/>
<path d="M660.786 381.55H641.751V210.634H641.191L635.776 381.55H623.55L618.135 210.634H617.575V381.55H598.54V181.873H623.825L628.966 342.781H630.493L635.491 181.873H660.777V381.55H660.786Z" fill="#66CCFF"/>
<path d="M342.746 438.911V451.508C342.746 454.696 340.167 457.276 336.98 457.276H332.427C331.707 457.276 331.213 456.783 331.213 456.062V434.358C331.213 433.637 331.707 433.144 332.427 433.144H336.98C340.167 433.144 342.746 435.724 342.746 438.911ZM336.98 435.572H333.641V454.847H336.98C338.839 454.847 340.318 453.368 340.318 451.508V438.911C340.318 437.09 338.839 435.572 336.98 435.572Z" fill="#66CCFF"/>
<path d="M347.071 452.419V444.83C347.071 442.098 349.272 439.898 352.003 439.898C354.735 439.898 356.935 442.098 356.935 444.83V448.625C356.935 449.27 356.442 449.763 355.797 449.763H349.348V452.419C349.348 453.481 349.955 454.468 350.979 454.885C352.003 455.303 353.103 455.075 353.862 454.316C354.09 454.089 354.355 453.975 354.659 453.975C355 453.975 355.266 454.089 355.493 454.316C355.721 454.506 355.835 454.772 355.835 455.113C355.835 455.417 355.721 455.682 355.493 455.91C354.09 457.314 351.965 457.731 350.106 456.972C348.247 456.213 347.071 454.43 347.071 452.419ZM349.348 444.83V447.486H354.659V444.83C354.659 443.351 353.483 442.174 352.003 442.174C350.524 442.174 349.348 443.351 349.348 444.83Z" fill="#66CCFF"/>
<path d="M367.102 441.188C367.102 440.543 367.595 440.05 368.24 440.05H370.137V437.242C370.137 434.51 372.337 432.309 375.069 432.309C375.714 432.309 376.207 432.802 376.207 433.447C376.207 434.092 375.714 434.586 375.069 434.586C373.589 434.586 372.413 435.762 372.413 437.242V440.05H375.069C375.714 440.05 376.207 440.543 376.207 441.188C376.207 441.833 375.714 442.326 375.069 442.326H372.413V456.213C372.413 456.859 371.92 457.352 371.275 457.352C370.63 457.352 370.137 456.859 370.137 456.213V442.326H368.24C367.595 442.326 367.102 441.833 367.102 441.188Z" fill="#66CCFF"/>
<path d="M380.001 456.213V441.188C380.001 440.543 380.494 440.05 381.139 440.05H384.933C385.805 440.05 386.602 440.277 387.399 440.695C387.968 441.036 388.12 441.681 387.816 442.25C387.513 442.819 386.83 443.009 386.261 442.668C385.843 442.44 385.388 442.326 384.933 442.326H382.277V456.213C382.277 456.859 381.784 457.352 381.139 457.352C380.494 457.352 380.001 456.859 380.001 456.213Z" fill="#66CCFF"/>
<path d="M390.889 452.419V444.831C390.889 442.099 393.127 439.898 395.821 439.898C398.515 439.898 400.753 442.099 400.753 444.831V448.625C400.753 449.27 400.26 449.763 399.615 449.763H393.165V452.419C393.165 453.482 393.772 454.468 394.797 454.886C395.821 455.303 396.959 455.075 397.718 454.316C397.908 454.089 398.173 453.975 398.477 453.975C398.818 453.975 399.084 454.089 399.311 454.316C399.539 454.506 399.653 454.772 399.653 455.113C399.653 455.417 399.539 455.682 399.311 455.91C397.908 457.314 395.783 457.731 393.962 456.972C392.103 456.214 390.889 454.43 390.889 452.419ZM398.59 432.689C399.008 433.144 398.97 433.865 398.477 434.282L394.683 437.697C394.228 438.115 393.507 438.077 393.09 437.621C392.672 437.166 392.71 436.445 393.165 436.028L396.959 432.613C397.452 432.195 398.135 432.233 398.59 432.689ZM393.165 444.831V447.487H398.477V444.831C398.477 443.351 397.301 442.175 395.821 442.175C394.341 442.175 393.165 443.351 393.165 444.831Z" fill="#66CCFF"/>
<path d="M404.85 452.267V444.982C404.85 442.25 407.05 440.05 409.782 440.05H413.576C414.183 440.05 414.714 440.543 414.714 441.188V463.802C414.714 464.447 414.183 464.941 413.576 464.941C412.931 464.941 412.438 464.447 412.438 463.802V457.2H409.782C407.05 457.2 404.85 454.999 404.85 452.267ZM407.126 444.982V452.267C407.126 453.747 408.302 454.923 409.782 454.923H412.438V442.326H409.782C408.302 442.326 407.126 443.502 407.126 444.982Z" fill="#66CCFF"/>
<path d="M419.722 452.267V441.036C419.722 440.391 420.215 439.898 420.86 439.898C421.505 439.898 421.998 440.391 421.998 441.036V452.267C421.998 453.747 423.174 454.923 424.654 454.923H427.309V441.036C427.309 440.391 427.802 439.898 428.447 439.898C429.092 439.898 429.585 440.391 429.585 441.036V456.062C429.585 456.707 429.092 457.2 428.447 457.2H424.654C421.922 457.2 419.722 454.999 419.722 452.267Z" fill="#66CCFF"/>
<path d="M434.441 452.419V444.83C434.441 442.098 436.642 439.898 439.373 439.898C442.105 439.898 444.305 442.098 444.305 444.83V448.625C444.305 449.27 443.812 449.763 443.167 449.763H436.718V452.419C436.718 453.481 437.325 454.468 438.349 454.885C439.373 455.303 440.473 455.075 441.232 454.316C441.46 454.089 441.725 453.975 442.029 453.975C442.37 453.975 442.636 454.089 442.864 454.316C443.091 454.506 443.205 454.772 443.205 455.113C443.205 455.417 443.091 455.682 442.864 455.91C441.46 457.314 439.335 457.731 437.476 456.972C435.617 456.213 434.441 454.43 434.441 452.419ZM436.718 444.83V447.486H442.029V444.83C442.029 443.351 440.853 442.174 439.373 442.174C437.894 442.174 436.718 443.351 436.718 444.83Z" fill="#66CCFF"/>
<path d="M448.857 456.213V441.188C448.857 440.543 449.351 440.05 449.996 440.05H453.789C456.483 440.05 458.721 442.25 458.721 444.982V456.213C458.721 456.859 458.19 457.352 457.583 457.352C456.938 457.352 456.445 456.859 456.445 456.213V444.982C456.445 443.502 455.269 442.326 453.789 442.326H451.134V456.213C451.134 456.859 450.603 457.352 449.996 457.352C449.351 457.352 448.857 456.859 448.857 456.213Z" fill="#66CCFF"/>
<path d="M462.06 441.188C462.06 440.543 462.553 440.05 463.198 440.05H465.095V433.447C465.095 432.802 465.588 432.309 466.233 432.309C466.878 432.309 467.371 432.802 467.371 433.447V440.05H470.026C470.671 440.05 471.165 440.543 471.165 441.188C471.165 441.833 470.671 442.326 470.026 442.326H467.371V452.419C467.371 453.899 468.547 455.075 470.026 455.075C470.671 455.075 471.165 455.568 471.165 456.213C471.165 456.859 470.671 457.352 470.026 457.352C467.295 457.352 465.095 455.151 465.095 452.419V442.326H463.198C462.553 442.326 462.06 441.833 462.06 441.188Z" fill="#66CCFF"/>
<path d="M481.028 444.754C481.028 443.692 480.383 442.781 479.435 442.364C478.411 441.947 477.348 442.174 476.628 442.933C476.4 443.161 476.134 443.275 475.793 443.275C475.49 443.275 475.224 443.161 474.996 442.933C474.769 442.706 474.655 442.44 474.655 442.136C474.655 441.795 474.769 441.529 474.996 441.34C476.4 439.936 478.487 439.518 480.308 440.277C482.129 441.036 483.305 442.781 483.305 444.754V456.062C483.305 456.707 482.774 457.2 482.167 457.2H478.373C475.641 457.2 473.441 454.999 473.441 452.267C473.441 449.535 475.641 447.335 478.373 447.335H481.028V444.754ZM478.373 454.923H481.028V449.611H478.373C476.893 449.611 475.717 450.787 475.717 452.267C475.717 453.747 476.893 454.923 478.373 454.923Z" fill="#66CCFF"/>
<path d="M486.643 441.188C486.643 440.543 487.136 440.05 487.781 440.05H489.678V433.447C489.678 432.802 490.171 432.309 490.816 432.309C491.461 432.309 491.954 432.802 491.954 433.447V440.05H494.61C495.255 440.05 495.748 440.543 495.748 441.188C495.748 441.833 495.255 442.326 494.61 442.326H491.954V452.419C491.954 453.899 493.13 455.075 494.61 455.075C495.255 455.075 495.748 455.568 495.748 456.213C495.748 456.859 495.255 457.352 494.61 457.352C491.878 457.352 489.678 455.151 489.678 452.419V442.326H487.781C487.136 442.326 486.643 441.833 486.643 441.188Z" fill="#66CCFF"/>
<path d="M499.163 435.345C499.163 434.472 499.808 433.827 500.68 433.827C501.553 433.827 502.198 434.472 502.198 435.345C502.198 436.217 501.553 436.862 500.68 436.862C499.808 436.862 499.163 436.217 499.163 435.345ZM500.68 457.352C500.073 457.352 499.542 456.859 499.542 456.214V441.036C499.542 440.391 500.073 439.898 500.68 439.898C501.325 439.898 501.818 440.391 501.818 441.036V456.214C501.818 456.859 501.325 457.352 500.68 457.352Z" fill="#66CCFF"/>
<path d="M506.674 452.419V444.83C506.674 442.098 508.875 439.898 511.606 439.898C514.338 439.898 516.538 442.098 516.538 444.83V452.419C516.538 455.151 514.3 457.352 511.606 457.352C508.913 457.352 506.674 455.151 506.674 452.419ZM508.951 444.83V452.419C508.951 453.899 510.127 455.075 511.606 455.075C513.086 455.075 514.262 453.899 514.262 452.419V444.83C514.262 443.351 513.086 442.174 511.606 442.174C510.127 442.174 508.951 443.351 508.951 444.83Z" fill="#66CCFF"/>
<path d="M521.394 456.213V441.188C521.394 440.543 521.887 440.05 522.532 440.05H526.326C529.019 440.05 531.258 442.25 531.258 444.982V456.213C531.258 456.859 530.727 457.352 530.12 457.352C529.475 457.352 528.982 456.859 528.982 456.213V444.982C528.982 443.502 527.805 442.326 526.326 442.326H523.67V456.213C523.67 456.859 523.139 457.352 522.532 457.352C521.887 457.352 521.394 456.859 521.394 456.213Z" fill="#66CCFF"/>
<path d="M543.549 463.802V441.188C543.549 440.543 544.043 440.05 544.687 440.05H548.481C551.175 440.05 553.413 442.25 553.413 444.982V452.267C553.413 454.999 551.175 457.2 548.481 457.2H545.826V463.802C545.826 464.447 545.294 464.941 544.687 464.941C544.043 464.941 543.549 464.447 543.549 463.802ZM548.481 442.326H545.826V454.923H548.481C549.961 454.923 551.137 453.747 551.137 452.267V444.982C551.137 443.502 549.961 442.326 548.481 442.326Z" fill="#66CCFF"/>
<path d="M557.814 452.419V444.83C557.814 442.098 560.014 439.898 562.746 439.898C565.477 439.898 567.678 442.098 567.678 444.83V452.419C567.678 455.151 565.439 457.352 562.746 457.352C560.052 457.352 557.814 455.151 557.814 452.419ZM560.09 444.83V452.419C560.09 453.899 561.266 455.075 562.746 455.075C564.225 455.075 565.401 453.899 565.401 452.419V444.83C565.401 443.351 564.225 442.174 562.746 442.174C561.266 442.174 560.09 443.351 560.09 444.83Z" fill="#66CCFF"/>
<path d="M578.3 452.495C578.262 451.736 577.921 451.129 577.276 450.674L573.748 448.169C572.572 447.373 571.927 446.12 571.813 444.754C571.699 443.351 572.268 442.023 573.292 441.112C574.317 440.163 575.682 439.746 577.048 439.936C578.414 440.201 579.59 440.96 580.311 442.174C580.614 442.743 580.463 443.426 579.894 443.73C579.324 444.034 578.642 443.882 578.338 443.313C577.997 442.706 577.428 442.326 576.707 442.212C575.986 442.098 575.341 442.288 574.81 442.781C574.279 443.275 574.051 443.882 574.089 444.603C574.127 445.324 574.468 445.893 575.075 446.31L578.604 448.776C579.78 449.649 580.463 450.863 580.576 452.343C580.69 453.823 580.121 455.151 579.059 456.1C577.997 457.124 576.593 457.503 575.189 457.314C573.71 457.048 572.534 456.251 571.813 454.999C571.509 454.43 571.661 453.747 572.23 453.444C572.799 453.14 573.482 453.292 573.786 453.861C574.203 454.506 574.772 454.923 575.531 455.037C576.252 455.151 576.934 454.961 577.541 454.43C578.11 453.899 578.376 453.254 578.3 452.495Z" fill="#66CCFF"/>
<path d="M583.346 441.188C583.346 440.543 583.839 440.05 584.484 440.05H586.381V433.447C586.381 432.802 586.874 432.309 587.519 432.309C588.164 432.309 588.657 432.802 588.657 433.447V440.05H591.313C591.958 440.05 592.451 440.543 592.451 441.188C592.451 441.833 591.958 442.326 591.313 442.326H588.657V452.419C588.657 453.899 589.834 455.075 591.313 455.075C591.958 455.075 592.451 455.568 592.451 456.213C592.451 456.859 591.958 457.352 591.313 457.352C588.582 457.352 586.381 455.151 586.381 452.419V442.326H584.484C583.839 442.326 583.346 441.833 583.346 441.188Z" fill="#66CCFF"/>
<path d="M606.032 447.562H596.927C596.207 447.562 595.713 447.069 595.713 446.348C595.713 445.627 596.207 445.134 596.927 445.134H606.032C606.677 445.134 607.246 445.627 607.246 446.348C607.246 447.069 606.677 447.562 606.032 447.562Z" fill="#66CCFF"/>
<path d="M611.571 452.419V444.83C611.571 442.819 612.747 441.036 614.606 440.277C616.465 439.518 618.514 439.936 619.993 441.34C620.183 441.567 620.297 441.833 620.297 442.174C620.297 442.478 620.183 442.743 619.993 442.971C619.766 443.161 619.5 443.275 619.159 443.275C618.855 443.275 618.59 443.161 618.362 442.971C617.603 442.174 616.503 441.947 615.479 442.364C614.455 442.781 613.848 443.768 613.848 444.83V452.419C613.848 453.481 614.455 454.468 615.479 454.885C616.503 455.303 617.603 455.075 618.362 454.316C618.59 454.089 618.855 453.975 619.159 453.975C619.5 453.975 619.766 454.089 619.993 454.316C620.183 454.506 620.297 454.772 620.297 455.113C620.297 455.417 620.183 455.682 619.993 455.91C618.514 457.314 616.465 457.731 614.606 456.972C612.747 456.213 611.571 454.43 611.571 452.419Z" fill="#66CCFF"/>
<path d="M624.015 452.419V444.83C624.015 442.098 626.216 439.898 628.947 439.898C631.679 439.898 633.879 442.098 633.879 444.83V452.419C633.879 455.151 631.641 457.352 628.947 457.352C626.253 457.352 624.015 455.151 624.015 452.419ZM626.291 444.83V452.419C626.291 453.899 627.467 455.075 628.947 455.075C630.427 455.075 631.603 453.899 631.603 452.419V444.83C631.603 443.351 630.427 442.174 628.947 442.174C627.467 442.174 626.291 443.351 626.291 444.83Z" fill="#66CCFF"/>
<path d="M637.862 439.936C638.431 439.784 639.076 440.125 639.266 440.695L640.518 444.906C641.239 447.297 642.073 450.143 642.718 452.267C643.325 450.143 644.198 447.297 644.919 444.906L646.171 440.695C646.36 440.125 647.005 439.784 647.612 439.936C648.219 440.125 648.561 440.77 648.371 441.378L643.819 456.555C643.667 457.01 643.212 457.352 642.718 457.352C642.225 457.352 641.77 457.01 641.618 456.555L637.066 441.378C636.914 440.77 637.255 440.125 637.862 439.936Z" fill="#66CCFF"/>
<path d="M652.013 435.345C652.013 434.472 652.658 433.827 653.53 433.827C654.403 433.827 655.048 434.472 655.048 435.345C655.048 436.217 654.403 436.862 653.53 436.862C652.658 436.862 652.013 436.217 652.013 435.345ZM653.53 457.352C652.923 457.352 652.392 456.859 652.392 456.214V441.036C652.392 440.391 652.923 439.898 653.53 439.898C654.175 439.898 654.668 440.391 654.668 441.036V456.214C654.668 456.859 654.175 457.352 653.53 457.352Z" fill="#66CCFF"/>
<path d="M659.524 452.267V444.982C659.524 442.25 661.725 440.05 664.456 440.05H667.112V433.447C667.112 432.802 667.605 432.309 668.25 432.309C668.857 432.309 669.388 432.802 669.388 433.447V456.062C669.388 456.707 668.857 457.2 668.25 457.2H664.456C661.725 457.2 659.524 454.999 659.524 452.267ZM661.801 444.982V452.267C661.801 453.747 662.977 454.923 664.456 454.923H667.112V442.326H664.456C662.977 442.326 661.801 443.502 661.801 444.982Z" fill="#66CCFF"/>
<path d="M331.555 492.108V484.823C331.555 482.091 333.755 479.89 336.487 479.89H339.142V473.288C339.142 472.643 339.635 472.15 340.28 472.15C340.887 472.15 341.418 472.643 341.418 473.288V495.902C341.418 496.547 340.887 497.041 340.28 497.041H336.487C333.755 497.041 331.555 494.84 331.555 492.108ZM333.831 484.823V492.108C333.831 493.588 335.007 494.764 336.487 494.764H339.142V482.167H336.487C335.007 482.167 333.831 483.343 333.831 484.823Z" fill="#66CCFF"/>
<path d="M352.8 484.595C352.8 483.533 352.155 482.622 351.207 482.205C350.182 481.787 349.12 482.015 348.399 482.774C348.172 483.002 347.906 483.115 347.565 483.115C347.261 483.115 346.995 483.002 346.768 482.774C346.54 482.546 346.426 482.281 346.426 481.977C346.426 481.636 346.54 481.37 346.768 481.18C348.172 479.776 350.258 479.359 352.079 480.118C353.9 480.877 355.076 482.622 355.076 484.595V495.902C355.076 496.548 354.545 497.041 353.938 497.041H350.144C347.413 497.041 345.212 494.84 345.212 492.108C345.212 489.376 347.413 487.175 350.144 487.175H352.8V484.595ZM350.144 494.764H352.8V489.452H350.144C348.665 489.452 347.489 490.628 347.489 492.108C347.489 493.588 348.665 494.764 350.144 494.764Z" fill="#66CCFF"/>
<path d="M360.084 496.054V481.028C360.084 480.383 360.577 479.89 361.222 479.89H365.016C367.709 479.89 369.948 482.091 369.948 484.823V496.054C369.948 496.699 369.417 497.192 368.81 497.192C368.165 497.192 367.671 496.699 367.671 496.054V484.823C367.671 483.343 366.495 482.167 365.016 482.167H362.36V496.054C362.36 496.699 361.829 497.192 361.222 497.192C360.577 497.192 360.084 496.699 360.084 496.054Z" fill="#66CCFF"/>
<path d="M380.722 492.336C380.684 491.577 380.343 490.97 379.698 490.514L376.17 488.01C374.993 487.213 374.349 485.961 374.235 484.595C374.121 483.191 374.69 481.863 375.714 480.953C376.739 480.004 378.104 479.587 379.47 479.776C380.836 480.042 382.012 480.801 382.733 482.015C383.036 482.584 382.884 483.267 382.315 483.571C381.746 483.874 381.063 483.723 380.76 483.153C380.419 482.546 379.849 482.167 379.129 482.053C378.408 481.939 377.763 482.129 377.232 482.622C376.701 483.115 376.473 483.723 376.511 484.444C376.549 485.164 376.89 485.734 377.497 486.151L381.026 488.617C382.202 489.49 382.884 490.704 382.998 492.184C383.112 493.664 382.543 494.992 381.481 495.94C380.419 496.965 379.015 497.344 377.611 497.155C376.132 496.889 374.956 496.092 374.235 494.84C373.931 494.271 374.083 493.588 374.652 493.284C375.221 492.981 375.904 493.133 376.207 493.702C376.625 494.347 377.194 494.764 377.953 494.878C378.673 494.992 379.356 494.802 379.963 494.271C380.532 493.74 380.798 493.095 380.722 492.336Z" fill="#66CCFF"/>
<path d="M394.73 494.385V474.237C394.73 473.592 395.262 473.098 395.869 473.098C396.514 473.098 397.007 473.592 397.007 474.237V494.385C397.007 495.106 397.386 495.675 397.955 496.016C398.524 496.32 398.714 497.003 398.372 497.572C398.069 498.141 397.386 498.293 396.817 497.989C395.565 497.23 394.73 495.864 394.73 494.385Z" fill="#66CCFF"/>
<path d="M401.976 493.208V485.62C401.976 482.888 404.176 480.687 406.908 480.687C409.639 480.687 411.84 482.888 411.84 485.62V489.414C411.84 490.059 411.347 490.552 410.702 490.552H404.252V493.208C404.252 494.271 404.859 495.257 405.884 495.675C406.908 496.092 408.008 495.864 408.767 495.106C408.995 494.878 409.26 494.764 409.564 494.764C409.905 494.764 410.171 494.878 410.398 495.106C410.626 495.295 410.74 495.561 410.74 495.902C410.74 496.206 410.626 496.472 410.398 496.699C408.995 498.103 406.87 498.52 405.011 497.762C403.152 497.003 401.976 495.219 401.976 493.208ZM404.243 485.62V488.276H409.554V485.62C409.554 484.14 408.378 482.964 406.898 482.964C405.419 482.964 404.243 484.14 404.243 485.62Z" fill="#66CCFF"/>
<path d="M422.15 493.284C422.112 492.525 421.77 491.918 421.125 491.463L417.597 488.959C416.421 488.162 415.776 486.91 415.662 485.544C415.549 484.14 416.118 482.812 417.142 481.901C418.166 480.953 419.532 480.535 420.898 480.725C422.264 480.991 423.44 481.749 424.16 482.964C424.464 483.533 424.312 484.216 423.743 484.519C423.174 484.823 422.491 484.671 422.188 484.102C421.846 483.495 421.277 483.115 420.556 483.002C419.836 482.888 419.191 483.077 418.66 483.571C418.128 484.064 417.901 484.671 417.939 485.392C417.977 486.113 418.318 486.682 418.925 487.099L422.453 489.566C423.629 490.438 424.312 491.653 424.426 493.132C424.54 494.612 423.971 495.94 422.909 496.889C421.846 497.913 420.443 498.293 419.039 498.103C417.559 497.837 416.383 497.041 415.662 495.788C415.359 495.219 415.511 494.536 416.08 494.233C416.649 493.929 417.332 494.081 417.635 494.65C418.053 495.295 418.622 495.713 419.38 495.826C420.101 495.94 420.784 495.751 421.391 495.219C421.96 494.688 422.226 494.043 422.15 493.284Z" fill="#66CCFF"/>
<path d="M438.425 497.003C438.425 497.648 437.894 498.141 437.287 498.141C436.642 498.141 436.148 497.648 436.148 497.003V481.977C436.148 481.332 436.642 480.839 437.287 480.839H448.668C451.361 480.839 453.6 483.04 453.6 485.772V497.003C453.6 497.648 453.069 498.141 452.462 498.141C451.817 498.141 451.323 497.648 451.323 497.003V485.772C451.323 484.292 450.147 483.115 448.668 483.115H446.012V497.003C446.012 497.648 445.481 498.141 444.874 498.141C444.229 498.141 443.736 497.648 443.736 497.003V483.115H438.425V497.003Z" fill="#66CCFF"/>
<path d="M458.304 493.057V481.825C458.304 481.18 458.797 480.687 459.442 480.687C460.087 480.687 460.58 481.18 460.58 481.825V493.057C460.58 494.536 461.757 495.713 463.236 495.713H465.892V481.825C465.892 481.18 466.385 480.687 467.03 480.687C467.675 480.687 468.168 481.18 468.168 481.825V496.851C468.168 497.496 467.675 497.989 467.03 497.989H463.236C460.505 497.989 458.304 495.789 458.304 493.057Z" fill="#66CCFF"/>
<path d="M479.245 493.284C479.208 492.525 478.866 491.918 478.221 491.463L474.693 488.959C473.517 488.162 472.872 486.91 472.758 485.544C472.644 484.14 473.213 482.812 474.238 481.901C475.262 480.953 476.628 480.535 477.994 480.725C479.359 480.991 480.535 481.749 481.256 482.964C481.56 483.533 481.408 484.216 480.839 484.519C480.27 484.823 479.587 484.671 479.283 484.102C478.942 483.495 478.373 483.115 477.652 483.002C476.931 482.888 476.286 483.077 475.755 483.571C475.224 484.064 474.996 484.671 475.034 485.392C475.072 486.113 475.414 486.682 476.021 487.099L479.549 489.566C480.725 490.438 481.408 491.653 481.522 493.132C481.636 494.612 481.066 495.94 480.004 496.889C478.942 497.913 477.538 498.293 476.135 498.103C474.655 497.837 473.479 497.041 472.758 495.788C472.455 495.219 472.606 494.536 473.175 494.233C473.745 493.929 474.427 494.081 474.731 494.65C475.148 495.295 475.717 495.713 476.476 495.826C477.197 495.94 477.88 495.751 478.487 495.219C479.056 494.688 479.321 494.043 479.245 493.284Z" fill="#66CCFF"/>
<path d="M485.505 493.208V485.62C485.505 482.888 487.744 480.687 490.437 480.687C493.131 480.687 495.369 482.888 495.369 485.62V489.414C495.369 490.059 494.876 490.552 494.231 490.552H487.782V493.208C487.782 494.271 488.389 495.257 489.413 495.675C490.437 496.092 491.575 495.864 492.334 495.105C492.524 494.878 492.789 494.764 493.093 494.764C493.434 494.764 493.7 494.878 493.928 495.105C494.155 495.295 494.269 495.561 494.269 495.902C494.269 496.206 494.155 496.471 493.928 496.699C492.524 498.103 490.399 498.52 488.578 497.762C486.719 497.003 485.505 495.219 485.505 493.208ZM493.207 473.478C493.624 473.933 493.586 474.654 493.093 475.071L489.299 478.486C488.844 478.904 488.123 478.866 487.706 478.41C487.288 477.955 487.326 477.234 487.782 476.817L491.575 473.402C492.069 472.984 492.751 473.022 493.207 473.478ZM487.782 485.62V488.276H493.093V485.62C493.093 484.14 491.917 482.964 490.437 482.964C488.958 482.964 487.782 484.14 487.782 485.62Z" fill="#66CCFF"/>
<path d="M499.466 493.208V485.62C499.466 482.888 501.667 480.687 504.398 480.687C507.13 480.687 509.33 482.888 509.33 485.62V489.414C509.33 490.059 508.837 490.552 508.192 490.552H501.743V493.208C501.743 494.271 502.35 495.257 503.374 495.675C504.398 496.092 505.498 495.864 506.257 495.106C506.485 494.878 506.75 494.764 507.054 494.764C507.395 494.764 507.661 494.878 507.888 495.106C508.116 495.295 508.23 495.561 508.23 495.902C508.23 496.206 508.116 496.472 507.888 496.699C506.485 498.103 504.36 498.52 502.501 497.762C500.642 497.003 499.466 495.219 499.466 493.208ZM501.743 485.62V488.276H507.054V485.62C507.054 484.14 505.878 482.964 504.398 482.964C502.919 482.964 501.743 484.14 501.743 485.62Z" fill="#66CCFF"/>
<path d="M519.649 493.284C519.611 492.525 519.269 491.918 518.624 491.463L515.096 488.959C513.92 488.162 513.275 486.91 513.161 485.544C513.048 484.14 513.617 482.812 514.641 481.901C515.665 480.953 517.031 480.535 518.397 480.725C519.763 480.991 520.939 481.749 521.66 482.964C521.963 483.533 521.811 484.216 521.242 484.519C520.673 484.823 519.99 484.671 519.687 484.102C519.345 483.495 518.776 483.115 518.055 483.002C517.335 482.888 516.69 483.077 516.159 483.571C515.627 484.064 515.4 484.671 515.438 485.392C515.476 486.113 515.817 486.682 516.424 487.099L519.952 489.566C521.128 490.438 521.811 491.653 521.925 493.132C522.039 494.612 521.47 495.94 520.408 496.889C519.345 497.913 517.942 498.293 516.538 498.103C515.058 497.837 513.882 497.041 513.161 495.788C512.858 495.219 513.01 494.536 513.579 494.233C514.148 493.929 514.831 494.081 515.134 494.65C515.552 495.295 516.121 495.713 516.879 495.826C517.6 495.94 518.283 495.751 518.89 495.219C519.459 494.688 519.725 494.043 519.649 493.284Z" fill="#66CCFF"/>
<path d="M340.091 547.164C340.204 546.14 339.825 545.153 339.104 544.432L333.034 538.21C331.858 537.033 331.289 535.402 331.441 533.77C331.555 532.101 332.389 530.621 333.717 529.596C335.045 528.572 336.714 528.192 338.345 528.534C339.977 528.875 341.305 529.824 342.177 531.304C342.519 531.873 342.329 532.632 341.722 532.973C341.153 533.315 340.394 533.087 340.091 532.518C339.597 531.645 338.839 531.114 337.852 530.924C336.866 530.735 335.955 530.924 335.159 531.532C334.362 532.101 333.945 532.897 333.869 533.922C333.793 534.908 334.096 535.781 334.779 536.502L340.849 542.763C342.025 543.977 342.632 545.647 342.519 547.354C342.367 549.061 341.532 550.617 340.166 551.642C338.801 552.666 337.056 553.083 335.386 552.742C333.717 552.4 332.275 551.376 331.403 549.896C331.099 549.289 331.289 548.568 331.858 548.227C332.427 547.885 333.186 548.075 333.527 548.682C334.021 549.555 334.855 550.162 335.879 550.351C336.904 550.541 337.852 550.351 338.687 549.706C339.559 549.061 340.015 548.227 340.091 547.164Z" fill="#66CCFF"/>
<path d="M346.274 547.847V540.258C346.274 537.526 348.475 535.326 351.206 535.326C353.938 535.326 356.138 537.526 356.138 540.258V547.847C356.138 550.579 353.9 552.78 351.206 552.78C348.513 552.78 346.274 550.579 346.274 547.847ZM348.551 540.258V547.847C348.551 549.327 349.727 550.503 351.206 550.503C352.686 550.503 353.862 549.327 353.862 547.847V540.258C353.862 538.778 352.686 537.602 351.206 537.602C349.727 537.602 348.551 538.778 348.551 540.258Z" fill="#66CCFF"/>
<path d="M360.615 530.773C360.615 529.9 361.26 529.255 362.132 529.255C363.005 529.255 363.65 529.9 363.65 530.773C363.65 531.645 363.005 532.29 362.132 532.29C361.26 532.29 360.615 531.645 360.615 530.773ZM362.132 552.78C361.525 552.78 360.994 552.287 360.994 551.642V536.464C360.994 535.819 361.525 535.326 362.132 535.326C362.777 535.326 363.27 535.819 363.27 536.464V551.642C363.27 552.287 362.777 552.78 362.132 552.78Z" fill="#66CCFF"/>
<path d="M366.912 536.616C366.912 535.971 367.405 535.478 368.05 535.478H369.947V528.875C369.947 528.23 370.44 527.737 371.085 527.737C371.73 527.737 372.223 528.23 372.223 528.875V535.478H374.879C375.524 535.478 376.017 535.971 376.017 536.616C376.017 537.261 375.524 537.754 374.879 537.754H372.223V547.847C372.223 549.327 373.399 550.503 374.879 550.503C375.524 550.503 376.017 550.996 376.017 551.641C376.017 552.286 375.524 552.78 374.879 552.78C372.148 552.78 369.947 550.579 369.947 547.847V537.754H368.05C367.405 537.754 366.912 537.261 366.912 536.616Z" fill="#66CCFF"/>
<path d="M386.792 547.695V536.464C386.792 535.819 387.285 535.326 387.93 535.326C388.575 535.326 389.068 535.819 389.068 536.464V547.695C389.068 549.175 390.244 550.351 391.723 550.351H394.379V536.464C394.379 535.819 394.872 535.326 395.517 535.326C396.162 535.326 396.655 535.819 396.655 536.464V551.49C396.655 552.135 396.162 552.628 395.517 552.628H391.723C388.992 552.628 386.792 550.427 386.792 547.695Z" fill="#66CCFF"/>
<path d="M401.967 551.641V536.616C401.967 535.971 402.46 535.478 403.105 535.478H406.899C409.592 535.478 411.831 537.678 411.831 540.41V551.641C411.831 552.286 411.299 552.78 410.692 552.78C410.047 552.78 409.554 552.286 409.554 551.641V540.41C409.554 538.93 408.378 537.754 406.899 537.754H404.243V551.641C404.243 552.286 403.712 552.78 403.105 552.78C402.46 552.78 401.967 552.286 401.967 551.641Z" fill="#66CCFF"/>
<path d="M416.383 547.847V540.258C416.383 537.526 418.583 535.326 421.315 535.326C424.046 535.326 426.247 537.526 426.247 540.258V544.053C426.247 544.698 425.753 545.191 425.108 545.191H418.659V547.847C418.659 548.909 419.266 549.896 420.29 550.313C421.315 550.731 422.415 550.503 423.174 549.744C423.401 549.517 423.667 549.403 423.97 549.403C424.312 549.403 424.577 549.517 424.805 549.744C425.033 549.934 425.146 550.2 425.146 550.541C425.146 550.845 425.033 551.11 424.805 551.338C423.401 552.742 421.277 553.159 419.418 552.4C417.559 551.641 416.383 549.858 416.383 547.847ZM418.659 540.258V542.914H423.97V540.258C423.97 538.778 422.794 537.602 421.315 537.602C419.835 537.602 418.659 538.778 418.659 540.258Z" fill="#66CCFF"/>
<path d="M444.153 540.182C444.153 539.12 443.508 538.209 442.56 537.792C441.535 537.375 440.473 537.602 439.752 538.361C439.525 538.589 439.259 538.703 438.918 538.703C438.614 538.703 438.349 538.589 438.121 538.361C437.893 538.133 437.779 537.868 437.779 537.564C437.779 537.223 437.893 536.957 438.121 536.768C439.525 535.364 441.611 534.946 443.432 535.705C445.253 536.464 446.429 538.209 446.429 540.182V551.49C446.429 552.135 445.898 552.628 445.291 552.628H441.497C438.766 552.628 436.565 550.427 436.565 547.695C436.565 544.963 438.766 542.763 441.497 542.763H444.153V540.182ZM441.497 550.351H444.153V545.039H441.497C440.018 545.039 438.842 546.215 438.842 547.695C438.842 549.175 440.018 550.351 441.497 550.351Z" fill="#66CCFF"/>
<path d="M451.134 547.695V536.464C451.134 535.819 451.627 535.326 452.272 535.326C452.917 535.326 453.41 535.819 453.41 536.464V547.695C453.41 549.175 454.586 550.351 456.066 550.351H458.721V536.464C458.721 535.819 459.214 535.326 459.859 535.326C460.504 535.326 460.998 535.819 460.998 536.464V551.49C460.998 552.135 460.504 552.628 459.859 552.628H456.066C453.334 552.628 451.134 550.427 451.134 547.695Z" fill="#66CCFF"/>
<path d="M465.854 547.695V540.41C465.854 537.678 468.054 535.478 470.785 535.478H474.579C475.224 535.478 475.717 535.971 475.717 536.616V555.436C475.717 557.447 474.541 559.23 472.682 559.989C470.823 560.748 468.775 560.33 467.295 558.927C467.068 558.699 466.954 558.433 466.954 558.092C466.954 557.788 467.068 557.523 467.295 557.333C467.523 557.105 467.788 556.991 468.092 556.991C468.433 556.991 468.699 557.105 468.926 557.333C469.685 558.092 470.785 558.32 471.81 557.902C472.834 557.485 473.441 556.498 473.441 555.436V552.628H470.785C468.054 552.628 465.854 550.427 465.854 547.695ZM468.13 540.41V547.695C468.13 549.175 469.306 550.351 470.785 550.351H473.441V537.754H470.785C469.306 537.754 468.13 538.93 468.13 540.41Z" fill="#66CCFF"/>
<path d="M483.153 551.641C483.153 552.286 482.622 552.78 482.015 552.78C481.37 552.78 480.876 552.286 480.876 551.641V536.616C480.876 535.971 481.37 535.478 482.015 535.478H493.396C496.089 535.478 498.328 537.678 498.328 540.41V551.641C498.328 552.286 497.797 552.78 497.19 552.78C496.545 552.78 496.051 552.286 496.051 551.641V540.41C496.051 538.93 494.875 537.754 493.396 537.754H490.74V551.641C490.74 552.286 490.209 552.78 489.602 552.78C488.957 552.78 488.464 552.286 488.464 551.641V537.754H483.153V551.641Z" fill="#66CCFF"/>
<path d="M502.88 547.847V540.258C502.88 537.526 505.081 535.326 507.812 535.326C510.544 535.326 512.744 537.526 512.744 540.258V544.053C512.744 544.698 512.251 545.191 511.606 545.191H505.157V547.847C505.157 548.909 505.764 549.896 506.788 550.313C507.812 550.731 508.912 550.503 509.671 549.744C509.899 549.517 510.164 549.403 510.468 549.403C510.809 549.403 511.075 549.517 511.303 549.744C511.53 549.934 511.644 550.2 511.644 550.541C511.644 550.845 511.53 551.11 511.303 551.338C509.899 552.742 507.774 553.159 505.915 552.4C504.056 551.641 502.88 549.858 502.88 547.847ZM505.157 540.258V542.914H510.468V540.258C510.468 538.778 509.292 537.602 507.812 537.602C506.333 537.602 505.157 538.778 505.157 540.258Z" fill="#66CCFF"/>
<path d="M517.296 551.641V536.616C517.296 535.971 517.79 535.478 518.435 535.478H522.228C524.922 535.478 527.16 537.678 527.16 540.41V551.641C527.16 552.286 526.629 552.78 526.022 552.78C525.377 552.78 524.884 552.286 524.884 551.641V540.41C524.884 538.93 523.708 537.754 522.228 537.754H519.573V551.641C519.573 552.286 519.042 552.78 518.435 552.78C517.79 552.78 517.296 552.286 517.296 551.641Z" fill="#66CCFF"/>
<path d="M530.499 536.616C530.499 535.971 530.992 535.478 531.637 535.478H533.534V528.875C533.534 528.23 534.027 527.737 534.672 527.737C535.317 527.737 535.81 528.23 535.81 528.875V535.478H538.466C539.111 535.478 539.604 535.971 539.604 536.616C539.604 537.261 539.111 537.754 538.466 537.754H535.81V547.847C535.81 549.327 536.986 550.503 538.466 550.503C539.111 550.503 539.604 550.996 539.604 551.641C539.604 552.286 539.111 552.78 538.466 552.78C535.734 552.78 533.534 550.579 533.534 547.847V537.754H531.637C530.992 537.754 530.499 537.261 530.499 536.616Z" fill="#66CCFF"/>
<path d="M549.467 540.182C549.467 539.12 548.822 538.209 547.874 537.792C546.85 537.375 545.787 537.602 545.067 538.361C544.839 538.589 544.573 538.703 544.232 538.703C543.928 538.703 543.663 538.589 543.435 538.361C543.208 538.133 543.094 537.868 543.094 537.564C543.094 537.223 543.208 536.957 543.435 536.768C544.839 535.364 546.926 534.946 548.747 535.705C550.568 536.464 551.744 538.209 551.744 540.182V551.49C551.744 552.135 551.212 552.628 550.605 552.628H546.812C544.08 552.628 541.88 550.427 541.88 547.695C541.88 544.963 544.08 542.763 546.812 542.763H549.467V540.182ZM546.812 550.351H549.467V545.039H546.812C545.332 545.039 544.156 546.215 544.156 547.695C544.156 549.175 545.332 550.351 546.812 550.351Z" fill="#66CCFF"/>
<path d="M555.083 536.616C555.083 535.971 555.576 535.478 556.221 535.478H558.118V528.875C558.118 528.23 558.611 527.737 559.256 527.737C559.901 527.737 560.394 528.23 560.394 528.875V535.478H563.049C563.694 535.478 564.187 535.971 564.187 536.616C564.187 537.261 563.694 537.754 563.049 537.754H560.394V547.847C560.394 549.327 561.57 550.503 563.049 550.503C563.694 550.503 564.187 550.996 564.187 551.641C564.187 552.286 563.694 552.78 563.049 552.78C560.318 552.78 558.118 550.579 558.118 547.847V537.754H556.221C555.576 537.754 555.083 537.261 555.083 536.616Z" fill="#66CCFF"/>
<path d="M567.602 530.773C567.602 529.9 568.246 529.255 569.119 529.255C569.992 529.255 570.637 529.9 570.637 530.773C570.637 531.645 569.992 532.29 569.119 532.29C568.246 532.29 567.602 531.645 567.602 530.773ZM569.119 552.78C568.512 552.78 567.981 552.287 567.981 551.642V536.464C567.981 535.819 568.512 535.326 569.119 535.326C569.764 535.326 570.257 535.819 570.257 536.464V551.642C570.257 552.287 569.764 552.78 569.119 552.78Z" fill="#66CCFF"/>
<path d="M575.113 547.847V540.258C575.113 537.526 577.314 535.326 580.045 535.326C582.777 535.326 584.977 537.526 584.977 540.258V547.847C584.977 550.579 582.739 552.78 580.045 552.78C577.352 552.78 575.113 550.579 575.113 547.847ZM577.39 540.258V547.847C577.39 549.327 578.566 550.503 580.045 550.503C581.525 550.503 582.701 549.327 582.701 547.847V540.258C582.701 538.778 581.525 537.602 580.045 537.602C578.566 537.602 577.39 538.778 577.39 540.258Z" fill="#66CCFF"/>
<path d="M589.833 551.641V536.616C589.833 535.971 590.326 535.478 590.971 535.478H594.765C597.458 535.478 599.697 537.678 599.697 540.41V551.641C599.697 552.286 599.166 552.78 598.559 552.78C597.914 552.78 597.421 552.286 597.421 551.641V540.41C597.421 538.93 596.244 537.754 594.765 537.754H592.109V551.641C592.109 552.286 591.578 552.78 590.971 552.78C590.326 552.78 589.833 552.286 589.833 551.641Z" fill="#66CCFF"/>
<path d="M611.533 547.695V540.41C611.533 537.678 613.734 535.478 616.465 535.478H619.121V528.875C619.121 528.23 619.614 527.737 620.259 527.737C620.866 527.737 621.397 528.23 621.397 528.875V551.49C621.397 552.135 620.866 552.628 620.259 552.628H616.465C613.734 552.628 611.533 550.427 611.533 547.695ZM613.809 540.41V547.695C613.809 549.175 614.985 550.351 616.465 550.351H619.121V537.754H616.465C614.985 537.754 613.809 538.93 613.809 540.41Z" fill="#66CCFF"/>
<path d="M626.253 547.847V540.258C626.253 537.526 628.453 535.326 631.185 535.326C633.916 535.326 636.117 537.526 636.117 540.258V544.053C636.117 544.698 635.624 545.191 634.979 545.191H628.529V547.847C628.529 548.909 629.136 549.896 630.16 550.313C631.185 550.731 632.285 550.503 633.044 549.744C633.271 549.517 633.537 549.403 633.84 549.403C634.182 549.403 634.447 549.517 634.675 549.744C634.903 549.934 635.016 550.2 635.016 550.541C635.016 550.845 634.903 551.11 634.675 551.338C633.271 552.742 631.147 553.159 629.288 552.4C627.429 551.641 626.253 549.858 626.253 547.847ZM628.529 540.258V542.914H633.84V540.258C633.84 538.778 632.664 537.602 631.185 537.602C629.705 537.602 628.529 538.778 628.529 540.258Z" fill="#66CCFF"/>
<path d="M649.547 536.009C649.053 536.009 648.598 535.819 648.257 535.478C647.915 535.136 647.726 534.681 647.726 534.188C647.726 533.694 647.915 533.239 648.257 532.897L652.809 528.344C653.378 527.775 654.061 527.623 654.782 527.965C655.503 528.23 655.92 528.913 655.92 529.634V551.641C655.92 552.666 655.123 553.463 654.099 553.463C653.075 553.463 652.278 552.666 652.278 551.641V534.036C651.937 534.339 651.595 534.719 651.33 534.984C651.178 535.174 651.026 535.326 650.836 535.478C650.495 535.819 650.04 536.009 649.547 536.009Z" fill="#66CCFF"/>
<path d="M662.938 547.088V534.187C662.938 531.304 664.835 528.761 667.681 528.04C670.45 527.32 673.409 528.458 674.851 531C675.344 531.873 675.041 532.935 674.168 533.504C673.295 533.998 672.195 533.694 671.702 532.821C671.057 531.759 669.805 531.228 668.629 531.569C667.415 531.873 666.581 532.973 666.581 534.187V537.526C667.453 537.109 668.364 536.919 669.312 536.919C672.84 536.919 675.685 539.765 675.685 543.294V547.088C675.685 550.617 672.84 553.463 669.312 553.463C665.784 553.463 662.938 550.617 662.938 547.088ZM666.581 543.294V547.088C666.581 548.606 667.795 549.82 669.312 549.82C670.83 549.82 672.044 548.606 672.044 547.088V543.294C672.044 541.776 670.83 540.562 669.312 540.562C667.795 540.562 666.581 541.776 666.581 543.294Z" fill="#66CCFF"/>
<path d="M679.404 552.704V552.552C678.683 552.286 678.19 551.641 678.19 550.882C678.19 549.934 678.948 549.175 679.897 549.175H681.111C682.059 549.175 682.856 549.934 682.856 550.882V552.704C682.856 554.222 681.945 555.55 680.58 556.119C679.669 556.536 678.721 556.081 678.303 555.208C677.886 554.297 678.341 553.349 679.252 552.931C679.366 552.894 679.404 552.818 679.404 552.704Z" fill="#66CCFF"/>
<path d="M688.395 536.009C687.902 536.009 687.446 535.819 687.105 535.478C686.763 535.136 686.574 534.681 686.574 534.188C686.574 533.694 686.763 533.239 687.105 532.897L691.657 528.344C692.226 527.775 692.909 527.623 693.63 527.965C694.351 528.23 694.768 528.913 694.768 529.634V551.641C694.768 552.666 693.972 553.463 692.947 553.463C691.923 553.463 691.126 552.666 691.126 551.641V534.036C690.785 534.339 690.443 534.719 690.178 534.984C690.026 535.174 689.874 535.326 689.685 535.478C689.343 535.819 688.888 536.009 688.395 536.009Z" fill="#66CCFF"/>
<path d="M701.332 532.821V529.786C701.332 528.761 702.128 527.965 703.153 527.965H712.258C712.827 527.965 713.32 528.192 713.699 528.648C714.041 529.103 714.154 529.634 714.041 530.203L708.729 552.059C708.464 553.083 707.553 553.69 706.529 553.425C705.656 553.159 705.125 552.514 705.125 551.641C705.125 551.49 705.163 551.376 705.201 551.224C705.922 548.226 706.605 545.419 707.25 542.8C708.274 538.323 709.45 533.428 709.943 531.607H704.974V532.821C704.974 533.846 704.177 534.643 703.153 534.643C702.128 534.643 701.332 533.846 701.332 532.821Z" fill="#66CCFF"/>
<path d="M721.666 538.096C718.858 538.096 716.62 535.857 716.62 533.049C716.62 530.241 718.858 528.003 721.666 528.003C724.473 528.003 726.711 530.279 726.711 533.049C726.711 535.819 724.435 538.096 721.666 538.096ZM733.91 530.431L723.288 552.438C722.87 553.349 721.77 553.728 720.86 553.273C719.949 552.856 719.57 551.755 720.025 550.845L730.647 528.838C731.065 527.927 732.165 527.547 733.075 528.003C733.986 528.42 734.365 529.52 733.91 530.431ZM721.666 534.833C722.69 534.833 723.449 534.074 723.449 533.049C723.449 532.025 722.69 531.266 721.666 531.266C720.641 531.266 719.883 532.025 719.883 533.049C719.883 534.074 720.641 534.833 721.666 534.833ZM737.324 548.227C737.324 551.034 735.048 553.273 732.279 553.273C729.509 553.273 727.233 551.034 727.233 548.227C727.233 545.419 729.471 543.18 732.279 543.18C735.086 543.18 737.324 545.457 737.324 548.227ZM734.062 548.227C734.062 547.202 733.303 546.443 732.279 546.443C731.255 546.443 730.496 547.202 730.496 548.227C730.496 549.251 731.255 550.01 732.279 550.01C733.303 550.01 734.062 549.251 734.062 548.227Z" fill="#66CCFF"/>
<path d="M1113.88 363.774V354.667C1113.88 351.252 1116.63 348.501 1120.05 348.501H1123.37V340.249C1123.37 339.442 1123.98 338.826 1124.79 338.826C1125.55 338.826 1126.21 339.442 1126.21 340.249V368.516C1126.21 369.323 1125.55 369.939 1124.79 369.939H1120.05C1116.63 369.939 1113.88 367.188 1113.88 363.774ZM1116.73 354.667V363.774C1116.73 365.623 1118.2 367.094 1120.05 367.094H1123.37V351.347H1120.05C1118.2 351.347 1116.73 352.817 1116.73 354.667Z" fill="#B73E4A"/>
<path d="M1132.28 363.963V354.477C1132.28 351.062 1135.03 348.312 1138.45 348.312C1141.86 348.312 1144.61 351.062 1144.61 354.477V359.22C1144.61 360.027 1144 360.643 1143.19 360.643H1135.13V363.963C1135.13 365.291 1135.89 366.524 1137.17 367.046C1138.45 367.568 1139.82 367.283 1140.77 366.335C1141.06 366.05 1141.39 365.908 1141.77 365.908C1142.19 365.908 1142.53 366.05 1142.81 366.335C1143.09 366.572 1143.24 366.904 1143.24 367.331C1143.24 367.71 1143.09 368.042 1142.81 368.327C1141.06 370.082 1138.4 370.603 1136.08 369.655C1133.75 368.706 1132.28 366.477 1132.28 363.963ZM1135.13 354.477V357.797H1141.77V354.477C1141.77 352.628 1140.3 351.157 1138.45 351.157C1136.6 351.157 1135.13 352.628 1135.13 354.477Z" fill="#B73E4A"/>
<path d="M1157.51 364.058C1157.46 363.109 1157.04 362.351 1156.23 361.781L1151.82 358.651C1150.35 357.655 1149.54 356.09 1149.4 354.382C1149.26 352.628 1149.97 350.968 1151.25 349.829C1152.53 348.644 1154.24 348.122 1155.95 348.359C1157.65 348.691 1159.12 349.64 1160.02 351.157C1160.4 351.869 1160.21 352.722 1159.5 353.102C1158.79 353.481 1157.94 353.292 1157.56 352.58C1157.13 351.821 1156.42 351.347 1155.52 351.205C1154.62 351.062 1153.81 351.3 1153.15 351.916C1152.48 352.533 1152.2 353.292 1152.25 354.193C1152.29 355.094 1152.72 355.805 1153.48 356.327L1157.89 359.41C1159.36 360.501 1160.21 362.019 1160.36 363.868C1160.5 365.718 1159.79 367.378 1158.46 368.564C1157.13 369.844 1155.38 370.319 1153.62 370.082C1151.77 369.75 1150.3 368.754 1149.4 367.188C1149.02 366.477 1149.21 365.623 1149.92 365.244C1150.63 364.864 1151.49 365.054 1151.87 365.766C1152.39 366.572 1153.1 367.094 1154.05 367.236C1154.95 367.378 1155.8 367.141 1156.56 366.477C1157.27 365.813 1157.61 365.007 1157.51 364.058Z" fill="#B73E4A"/>
<path d="M1177.85 368.706C1177.85 369.512 1177.18 370.129 1176.42 370.129C1175.62 370.129 1175 369.512 1175 368.706V349.924C1175 349.118 1175.62 348.501 1176.42 348.501H1190.65C1194.02 348.501 1196.81 351.252 1196.81 354.667V368.706C1196.81 369.512 1196.15 370.129 1195.39 370.129C1194.59 370.129 1193.97 369.512 1193.97 368.706V354.667C1193.97 352.817 1192.5 351.347 1190.65 351.347H1187.33V368.706C1187.33 369.512 1186.67 370.129 1185.91 370.129C1185.1 370.129 1184.48 369.512 1184.48 368.706V351.347H1177.85V368.706Z" fill="#B73E4A"/>
<path d="M1202.69 363.773V349.734C1202.69 348.928 1203.31 348.312 1204.12 348.312C1204.92 348.312 1205.54 348.928 1205.54 349.734V363.773C1205.54 365.623 1207.01 367.094 1208.86 367.094H1212.18V349.734C1212.18 348.928 1212.8 348.312 1213.6 348.312C1214.41 348.312 1215.02 348.928 1215.02 349.734V368.516C1215.02 369.323 1214.41 369.939 1213.6 369.939H1208.86C1205.44 369.939 1202.69 367.188 1202.69 363.773Z" fill="#B73E4A"/>
<path d="M1228.87 364.058C1228.82 363.109 1228.4 362.351 1227.59 361.781L1223.18 358.651C1221.71 357.655 1220.9 356.09 1220.76 354.382C1220.62 352.628 1221.33 350.968 1222.61 349.829C1223.89 348.644 1225.6 348.122 1227.31 348.359C1229.01 348.691 1230.48 349.64 1231.38 351.157C1231.76 351.869 1231.57 352.722 1230.86 353.102C1230.15 353.481 1229.3 353.292 1228.92 352.58C1228.49 351.821 1227.78 351.347 1226.88 351.205C1225.98 351.062 1225.17 351.3 1224.51 351.916C1223.84 352.533 1223.56 353.292 1223.61 354.193C1223.66 355.094 1224.08 355.805 1224.84 356.327L1229.25 359.41C1230.72 360.501 1231.57 362.019 1231.72 363.868C1231.86 365.718 1231.15 367.378 1229.82 368.564C1228.49 369.844 1226.74 370.319 1224.98 370.082C1223.13 369.75 1221.66 368.754 1220.76 367.188C1220.38 366.477 1220.57 365.623 1221.28 365.244C1222 364.864 1222.85 365.054 1223.23 365.766C1223.75 366.572 1224.46 367.094 1225.41 367.236C1226.31 367.378 1227.16 367.141 1227.92 366.477C1228.63 365.813 1228.97 365.007 1228.87 364.058Z" fill="#B73E4A"/>
<path d="M1236.7 363.963V354.477C1236.7 351.063 1239.49 348.312 1242.86 348.312C1246.23 348.312 1249.03 351.063 1249.03 354.477V359.22C1249.03 360.027 1248.41 360.643 1247.6 360.643H1239.54V363.963C1239.54 365.291 1240.3 366.525 1241.58 367.046C1242.86 367.568 1244.28 367.283 1245.23 366.335C1245.47 366.05 1245.8 365.908 1246.18 365.908C1246.61 365.908 1246.94 366.05 1247.22 366.335C1247.51 366.572 1247.65 366.904 1247.65 367.331C1247.65 367.71 1247.51 368.042 1247.22 368.327C1245.47 370.082 1242.81 370.603 1240.54 369.655C1238.21 368.706 1236.7 366.477 1236.7 363.963ZM1246.32 339.3C1246.84 339.869 1246.8 340.77 1246.18 341.292L1241.44 345.561C1240.87 346.082 1239.97 346.035 1239.45 345.466C1238.93 344.897 1238.97 343.996 1239.54 343.474L1244.28 339.205C1244.9 338.683 1245.75 338.731 1246.32 339.3ZM1239.54 354.477V357.797H1246.18V354.477C1246.18 352.628 1244.71 351.157 1242.86 351.157C1241.01 351.157 1239.54 352.628 1239.54 354.477Z" fill="#B73E4A"/>
<path d="M1254.15 363.963V354.477C1254.15 351.062 1256.9 348.312 1260.31 348.312C1263.73 348.312 1266.48 351.062 1266.48 354.477V359.22C1266.48 360.027 1265.86 360.643 1265.05 360.643H1256.99V363.963C1256.99 365.291 1257.75 366.524 1259.03 367.046C1260.31 367.568 1261.69 367.283 1262.64 366.335C1262.92 366.05 1263.25 365.908 1263.63 365.908C1264.06 365.908 1264.39 366.05 1264.68 366.335C1264.96 366.572 1265.1 366.904 1265.1 367.331C1265.1 367.71 1264.96 368.042 1264.68 368.327C1262.92 370.082 1260.26 370.603 1257.94 369.655C1255.62 368.706 1254.15 366.477 1254.15 363.963ZM1256.99 354.477V357.797H1263.63V354.477C1263.63 352.628 1262.16 351.157 1260.31 351.157C1258.46 351.157 1256.99 352.628 1256.99 354.477Z" fill="#B73E4A"/>
<path d="M1279.38 364.058C1279.33 363.109 1278.9 362.351 1278.1 361.781L1273.69 358.651C1272.22 357.655 1271.41 356.09 1271.27 354.382C1271.12 352.628 1271.84 350.968 1273.12 349.829C1274.4 348.644 1276.1 348.122 1277.81 348.359C1279.52 348.691 1280.99 349.64 1281.89 351.157C1282.27 351.869 1282.08 352.722 1281.37 353.102C1280.66 353.481 1279.8 353.292 1279.42 352.58C1279 351.821 1278.29 351.347 1277.38 351.205C1276.48 351.062 1275.68 351.3 1275.01 351.916C1274.35 352.533 1274.06 353.292 1274.11 354.193C1274.16 355.094 1274.59 355.805 1275.34 356.327L1279.76 359.41C1281.23 360.501 1282.08 362.019 1282.22 363.868C1282.36 365.718 1281.65 367.378 1280.32 368.564C1279 369.844 1277.24 370.319 1275.49 370.082C1273.64 369.75 1272.17 368.754 1271.27 367.188C1270.89 366.477 1271.08 365.623 1271.79 365.244C1272.5 364.864 1273.35 365.054 1273.73 365.766C1274.25 366.572 1274.97 367.094 1275.91 367.236C1276.82 367.378 1277.67 367.141 1278.43 366.477C1279.14 365.813 1279.47 365.007 1279.38 364.058Z" fill="#B73E4A"/>
<path d="M1296.31 363.963V354.477C1296.31 351.062 1299.06 348.312 1302.47 348.312C1305.88 348.312 1308.63 351.062 1308.63 354.477V363.963C1308.63 367.378 1305.84 370.129 1302.47 370.129C1299.1 370.129 1296.31 367.378 1296.31 363.963ZM1299.15 354.477V363.963C1299.15 365.813 1300.62 367.283 1302.47 367.283C1304.32 367.283 1305.79 365.813 1305.79 363.963V354.477C1305.79 352.628 1304.32 351.157 1302.47 351.157C1300.62 351.157 1299.15 352.628 1299.15 354.477Z" fill="#B73E4A"/>
<path d="M1314.71 368.706V349.924C1314.71 349.118 1315.32 348.501 1316.13 348.501H1320.87C1324.24 348.501 1327.03 351.252 1327.03 354.667V368.706C1327.03 369.512 1326.37 370.129 1325.61 370.129C1324.81 370.129 1324.19 369.512 1324.19 368.706V354.667C1324.19 352.817 1322.72 351.347 1320.87 351.347H1317.55V368.706C1317.55 369.512 1316.89 370.129 1316.13 370.129C1315.32 370.129 1314.71 369.512 1314.71 368.706Z" fill="#B73E4A"/>
<path d="M1331.21 349.924C1331.21 349.118 1331.82 348.501 1332.63 348.501H1335V340.249C1335 339.442 1335.62 338.826 1336.42 338.826C1337.23 338.826 1337.85 339.442 1337.85 340.249V348.501H1341.17C1341.97 348.501 1342.59 349.118 1342.59 349.924C1342.59 350.73 1341.97 351.347 1341.17 351.347H1337.85V363.963C1337.85 365.813 1339.32 367.283 1341.17 367.283C1341.97 367.283 1342.59 367.9 1342.59 368.706C1342.59 369.512 1341.97 370.129 1341.17 370.129C1337.75 370.129 1335 367.378 1335 363.963V351.347H1332.63C1331.82 351.347 1331.21 350.73 1331.21 349.924Z" fill="#B73E4A"/>
<path d="M1356.44 368.706V349.924C1356.44 349.118 1357.05 348.501 1357.86 348.501H1362.6C1363.69 348.501 1364.69 348.786 1365.68 349.307C1366.4 349.734 1366.58 350.541 1366.21 351.252C1365.83 351.964 1364.97 352.201 1364.26 351.774C1363.74 351.489 1363.17 351.347 1362.6 351.347H1359.28V368.706C1359.28 369.512 1358.67 370.129 1357.86 370.129C1357.05 370.129 1356.44 369.512 1356.44 368.706Z" fill="#B73E4A"/>
<path d="M1370.05 363.963V354.477C1370.05 351.063 1372.84 348.312 1376.21 348.312C1379.58 348.312 1382.38 351.063 1382.38 354.477V359.22C1382.38 360.027 1381.76 360.643 1380.95 360.643H1372.89V363.963C1372.89 365.291 1373.65 366.525 1374.93 367.046C1376.21 367.568 1377.63 367.283 1378.58 366.335C1378.82 366.05 1379.15 365.908 1379.53 365.908C1379.96 365.908 1380.29 366.05 1380.57 366.335C1380.86 366.572 1381 366.904 1381 367.331C1381 367.71 1380.86 368.042 1380.57 368.327C1378.82 370.082 1376.16 370.603 1373.89 369.655C1371.56 368.706 1370.05 366.477 1370.05 363.963ZM1379.67 339.3C1380.19 339.869 1380.15 340.77 1379.53 341.292L1374.79 345.561C1374.22 346.082 1373.32 346.035 1372.8 345.466C1372.28 344.897 1372.32 343.996 1372.89 343.474L1377.63 339.205C1378.25 338.683 1379.1 338.731 1379.67 339.3ZM1372.89 354.477V357.797H1379.53V354.477C1379.53 352.628 1378.06 351.157 1376.21 351.157C1374.36 351.157 1372.89 352.628 1372.89 354.477Z" fill="#B73E4A"/>
<path d="M1387.5 363.963V354.477C1387.5 351.062 1390.25 348.312 1393.66 348.312C1397.08 348.312 1399.83 351.062 1399.83 354.477V363.963C1399.83 367.378 1397.03 370.129 1393.66 370.129C1390.3 370.129 1387.5 367.378 1387.5 363.963ZM1390.34 354.477V363.963C1390.34 365.813 1391.81 367.283 1393.66 367.283C1395.51 367.283 1396.98 365.813 1396.98 363.963V354.477C1396.98 352.628 1395.51 351.157 1393.66 351.157C1391.81 351.157 1390.34 352.628 1390.34 354.477Z" fill="#B73E4A"/>
<path d="M1405.52 363.773V349.734C1405.52 348.928 1406.13 348.312 1406.94 348.312C1407.75 348.312 1408.36 348.928 1408.36 349.734V363.773C1408.36 365.623 1409.83 367.094 1411.68 367.094H1415V349.734C1415 348.928 1415.62 348.312 1416.43 348.312C1417.23 348.312 1417.85 348.928 1417.85 349.734V368.516C1417.85 369.323 1417.23 369.939 1416.43 369.939H1411.68C1408.27 369.939 1405.52 367.188 1405.52 363.773Z" fill="#B73E4A"/>
<path d="M1423.87 348.359C1424.58 348.169 1425.39 348.596 1425.62 349.308L1427.19 354.572C1428.09 357.56 1429.13 361.118 1429.94 363.774C1430.7 361.118 1431.79 357.56 1432.69 354.572L1434.26 349.308C1434.49 348.596 1435.3 348.169 1436.06 348.359C1436.82 348.596 1437.24 349.403 1437.01 350.161L1431.32 369.133C1431.13 369.702 1430.56 370.129 1429.94 370.129C1429.32 370.129 1428.75 369.702 1428.57 369.133L1422.87 350.161C1422.68 349.403 1423.11 348.596 1423.87 348.359Z" fill="#B73E4A"/>
<path d="M1440.99 363.963V354.477C1440.99 351.062 1443.74 348.312 1447.15 348.312C1450.57 348.312 1453.32 351.062 1453.32 354.477V359.22C1453.32 360.027 1452.7 360.643 1451.9 360.643H1443.83V363.963C1443.83 365.291 1444.59 366.524 1445.87 367.046C1447.15 367.568 1448.53 367.283 1449.48 366.335C1449.76 366.05 1450.09 365.908 1450.47 365.908C1450.9 365.908 1451.23 366.05 1451.52 366.335C1451.8 366.572 1451.94 366.904 1451.94 367.331C1451.94 367.71 1451.8 368.042 1451.52 368.327C1449.76 370.082 1447.11 370.603 1444.78 369.655C1442.46 368.706 1440.99 366.477 1440.99 363.963ZM1443.83 354.477V357.797H1450.47V354.477C1450.47 352.628 1449 351.157 1447.15 351.157C1445.3 351.157 1443.83 352.628 1443.83 354.477Z" fill="#B73E4A"/>
<path d="M1459.01 368.706V349.924C1459.01 349.118 1459.63 348.501 1460.43 348.501H1465.17C1466.27 348.501 1467.26 348.786 1468.26 349.307C1468.97 349.734 1469.16 350.541 1468.78 351.252C1468.4 351.964 1467.55 352.201 1466.83 351.774C1466.31 351.489 1465.74 351.347 1465.17 351.347H1461.86V368.706C1461.86 369.512 1461.24 370.129 1460.43 370.129C1459.63 370.129 1459.01 369.512 1459.01 368.706Z" fill="#B73E4A"/>
<path d="M1472.05 349.924C1472.05 349.118 1472.67 348.501 1473.47 348.501H1475.84V340.249C1475.84 339.442 1476.46 338.826 1477.27 338.826C1478.07 338.826 1478.69 339.442 1478.69 340.249V348.501H1482.01C1482.82 348.501 1483.43 349.118 1483.43 349.924C1483.43 350.73 1482.82 351.347 1482.01 351.347H1478.69V363.963C1478.69 365.813 1480.16 367.283 1482.01 367.283C1482.82 367.283 1483.43 367.9 1483.43 368.706C1483.43 369.512 1482.82 370.129 1482.01 370.129C1478.6 370.129 1475.84 367.378 1475.84 363.963V351.347H1473.47C1472.67 351.347 1472.05 350.73 1472.05 349.924Z" fill="#B73E4A"/>
<path d="M1497.28 378.192V349.924C1497.28 349.118 1497.9 348.501 1498.7 348.501H1503.44C1506.81 348.501 1509.61 351.252 1509.61 354.667V363.773C1509.61 367.188 1506.81 369.939 1503.44 369.939H1500.12V378.192C1500.12 378.998 1499.46 379.615 1498.7 379.615C1497.9 379.615 1497.28 378.998 1497.28 378.192ZM1503.44 351.347H1500.12V367.094H1503.44C1505.29 367.094 1506.76 365.623 1506.76 363.773V354.667C1506.76 352.817 1505.29 351.347 1503.44 351.347Z" fill="#B73E4A"/>
<path d="M1515.11 363.963V354.477C1515.11 351.062 1517.86 348.312 1521.27 348.312C1524.69 348.312 1527.44 351.062 1527.44 354.477V363.963C1527.44 367.378 1524.64 370.129 1521.27 370.129C1517.91 370.129 1515.11 367.378 1515.11 363.963ZM1517.96 354.477V363.963C1517.96 365.813 1519.43 367.283 1521.27 367.283C1523.12 367.283 1524.59 365.813 1524.59 363.963V354.477C1524.59 352.628 1523.12 351.157 1521.27 351.157C1519.43 351.157 1517.96 352.628 1517.96 354.477Z" fill="#B73E4A"/>
<path d="M1540.72 364.058C1540.67 363.109 1540.24 362.351 1539.44 361.781L1535.03 358.651C1533.56 357.655 1532.75 356.09 1532.61 354.382C1532.47 352.628 1533.18 350.968 1534.46 349.829C1535.74 348.644 1537.45 348.122 1539.15 348.359C1540.86 348.691 1542.33 349.64 1543.23 351.157C1543.61 351.869 1543.42 352.722 1542.71 353.102C1542 353.481 1541.14 353.292 1540.77 352.58C1540.34 351.821 1539.63 351.347 1538.73 351.205C1537.82 351.062 1537.02 351.3 1536.35 351.916C1535.69 352.533 1535.41 353.292 1535.45 354.193C1535.5 355.094 1535.93 355.805 1536.69 356.327L1541.1 359.41C1542.57 360.501 1543.42 362.019 1543.56 363.868C1543.71 365.718 1542.99 367.378 1541.67 368.564C1540.34 369.844 1538.58 370.319 1536.83 370.082C1534.98 369.75 1533.51 368.754 1532.61 367.188C1532.23 366.477 1532.42 365.623 1533.13 365.244C1533.84 364.864 1534.7 365.054 1535.07 365.766C1535.6 366.572 1536.31 367.094 1537.26 367.236C1538.16 367.378 1539.01 367.141 1539.77 366.477C1540.48 365.813 1540.81 365.007 1540.72 364.058Z" fill="#B73E4A"/>
<path d="M1547.02 349.924C1547.02 349.118 1547.64 348.501 1548.45 348.501H1550.82V340.249C1550.82 339.442 1551.44 338.826 1552.24 338.826C1553.05 338.826 1553.66 339.442 1553.66 340.249V348.501H1556.98C1557.79 348.501 1558.41 349.118 1558.41 349.924C1558.41 350.73 1557.79 351.347 1556.98 351.347H1553.66V363.963C1553.66 365.813 1555.13 367.283 1556.98 367.283C1557.79 367.283 1558.41 367.9 1558.41 368.706C1558.41 369.512 1557.79 370.129 1556.98 370.129C1553.57 370.129 1550.82 367.378 1550.82 363.963V351.347H1548.45C1547.64 351.347 1547.02 350.73 1547.02 349.924Z" fill="#B73E4A"/>
<path d="M1575.38 357.892H1564C1563.1 357.892 1562.48 357.276 1562.48 356.374C1562.48 355.473 1563.1 354.857 1564 354.857H1575.38C1576.19 354.857 1576.9 355.473 1576.9 356.374C1576.9 357.276 1576.19 357.892 1575.38 357.892Z" fill="#B73E4A"/>
<path d="M1582.31 363.963V354.477C1582.31 351.964 1583.78 349.734 1586.1 348.786C1588.42 347.837 1590.98 348.359 1592.83 350.114C1593.07 350.398 1593.21 350.73 1593.21 351.157C1593.21 351.537 1593.07 351.869 1592.83 352.153C1592.55 352.391 1592.22 352.533 1591.79 352.533C1591.41 352.533 1591.08 352.391 1590.8 352.153C1589.85 351.157 1588.47 350.873 1587.19 351.395C1585.91 351.916 1585.15 353.149 1585.15 354.477V363.963C1585.15 365.291 1585.91 366.524 1587.19 367.046C1588.47 367.568 1589.85 367.283 1590.8 366.335C1591.08 366.05 1591.41 365.908 1591.79 365.908C1592.22 365.908 1592.55 366.05 1592.83 366.335C1593.07 366.572 1593.21 366.904 1593.21 367.331C1593.21 367.71 1593.07 368.042 1592.83 368.327C1590.98 370.082 1588.42 370.603 1586.1 369.655C1583.78 368.706 1582.31 366.477 1582.31 363.963Z" fill="#B73E4A"/>
<path d="M1597.86 363.963V354.477C1597.86 351.062 1600.61 348.312 1604.03 348.312C1607.44 348.312 1610.19 351.062 1610.19 354.477V363.963C1610.19 367.378 1607.39 370.129 1604.03 370.129C1600.66 370.129 1597.86 367.378 1597.86 363.963ZM1600.71 354.477V363.963C1600.71 365.813 1602.18 367.283 1604.03 367.283C1605.88 367.283 1607.35 365.813 1607.35 363.963V354.477C1607.35 352.628 1605.88 351.157 1604.03 351.157C1602.18 351.157 1600.71 352.628 1600.71 354.477Z" fill="#B73E4A"/>
<path d="M1615.17 348.359C1615.88 348.169 1616.69 348.596 1616.92 349.308L1618.49 354.572C1619.39 357.56 1620.43 361.118 1621.24 363.774C1622 361.118 1623.09 357.56 1623.99 354.572L1625.56 349.308C1625.79 348.596 1626.6 348.169 1627.36 348.359C1628.12 348.596 1628.54 349.403 1628.31 350.161L1622.62 369.133C1622.43 369.702 1621.86 370.129 1621.24 370.129C1620.62 370.129 1620.05 369.702 1619.86 369.133L1614.17 350.161C1613.98 349.403 1614.41 348.596 1615.17 348.359Z" fill="#B73E4A"/>
<path d="M1632.86 342.62C1632.86 341.529 1633.66 340.723 1634.76 340.723C1635.85 340.723 1636.65 341.529 1636.65 342.62C1636.65 343.711 1635.85 344.517 1634.76 344.517C1633.66 344.517 1632.86 343.711 1632.86 342.62ZM1634.76 370.129C1634 370.129 1633.33 369.513 1633.33 368.706V349.734C1633.33 348.928 1634 348.312 1634.76 348.312C1635.56 348.312 1636.18 348.928 1636.18 349.734V368.706C1636.18 369.513 1635.56 370.129 1634.76 370.129Z" fill="#B73E4A"/>
<path d="M1642.25 363.774V354.667C1642.25 351.252 1645 348.501 1648.41 348.501H1651.73V340.249C1651.73 339.442 1652.35 338.826 1653.16 338.826C1653.91 338.826 1654.58 339.442 1654.58 340.249V368.516C1654.58 369.323 1653.91 369.939 1653.16 369.939H1648.41C1645 369.939 1642.25 367.188 1642.25 363.774ZM1645.09 354.667V363.774C1645.09 365.623 1646.56 367.094 1648.41 367.094H1651.73V351.347H1648.41C1646.56 351.347 1645.09 352.817 1645.09 354.667Z" fill="#B73E4A"/>
<path d="M998.288 143.825V125.944H1037.32V143.825L1016.18 313.536H998.297L1019.57 143.825H998.297H998.288Z" fill="#B73E4A"/>
<path d="M1078.58 201.926C1080.93 202.884 1082.77 204.8 1084.13 207.674C1085.48 210.548 1086.15 213.897 1086.15 217.729V295.665C1086.15 298.274 1085.63 300.797 1084.59 303.235C1083.63 305.587 1082.23 307.674 1080.41 309.505C1078.67 311.25 1076.63 312.635 1074.28 313.679C1071.84 314.722 1069.32 315.244 1066.71 315.244C1064.1 315.244 1061.57 314.722 1059.14 313.679C1056.79 312.635 1054.7 311.241 1052.87 309.505C1051.13 307.674 1049.74 305.587 1048.7 303.235C1048.35 302.542 1048 301.452 1047.65 299.972C1047.3 297.714 1047.13 296.272 1047.13 295.665V223.601H1065.01V295.665C1065.01 296.538 1065.57 297.098 1066.71 297.363C1067.67 297.363 1068.23 296.794 1068.41 295.665V220.603C1067.88 218.773 1067.01 217.862 1065.8 217.862H1065.66C1064.71 218.042 1064.01 218.649 1063.58 219.693H1047.13V125.963C1060.18 125.963 1073.2 126.01 1086.16 126.096V198.16H1068.28V142.421H1065.02V212.265H1065.93V210.956C1067.06 205.824 1069.58 202.685 1073.5 201.556C1074.19 201.385 1074.85 201.29 1075.45 201.29C1076.24 201.29 1076.91 201.376 1077.47 201.556C1078.04 201.736 1078.4 201.859 1078.58 201.945V201.926Z" fill="#B73E4A"/>
<path d="M1095.97 313.404V292.516H1113.85V313.404C1111.84 318.972 1109.8 324.54 1107.71 330.118H1095.96L1102.09 313.404H1095.96H1095.97Z" fill="#B73E4A"/>
<path d="M1163.61 126.077V269.807H1167.66V286.255H1163.61V313.536H1145.73V286.255H1122.89V269.939L1132.03 126.077H1163.61ZM1145.85 198.397L1148.86 142.392H1147.69L1140.64 269.807H1145.73V198.397H1145.86H1145.85Z" fill="#B73E4A"/>
<path d="M1209.97 129.34C1211.8 131.085 1213.18 133.125 1214.14 135.477C1215.19 137.915 1215.71 140.438 1215.71 143.047V295.656C1215.71 298.264 1215.19 300.787 1214.14 303.225C1213.18 305.578 1211.79 307.665 1209.97 309.495C1208.14 311.241 1206.1 312.626 1203.83 313.669C1201.31 314.627 1198.74 315.102 1196.13 315.102C1193.52 315.102 1190.99 314.618 1188.56 313.669C1186.21 312.626 1184.17 311.231 1182.43 309.495C1180.6 307.665 1179.2 305.578 1178.25 303.225C1177.21 300.787 1176.69 298.264 1176.69 295.656V143.047C1176.69 140.438 1177.21 137.915 1178.25 135.477C1179.21 133.125 1180.61 131.085 1182.43 129.34C1184.16 127.509 1186.21 126.124 1188.56 125.166C1191 124.123 1193.52 123.601 1196.13 123.601C1198.74 123.601 1201.31 124.123 1203.83 125.166C1206.09 126.124 1208.14 127.518 1209.97 129.34ZM1197.83 293.692V145.267C1197.83 144.308 1197.26 143.749 1196.13 143.569C1195.26 143.569 1194.74 144.138 1194.57 145.267V293.692C1194.57 294.735 1195.09 295.305 1196.13 295.39C1197.09 295.39 1197.65 294.821 1197.83 293.692Z" fill="#B73E4A"/>
<path d="M1255.81 205.711C1254.16 207.361 1252.28 208.632 1250.19 209.495C1247.93 210.453 1245.62 210.928 1243.28 210.928C1240.94 210.928 1238.62 210.453 1236.36 209.495C1234.28 208.623 1232.4 207.361 1230.75 205.711C1229.1 204.06 1227.83 202.182 1226.97 200.095C1226.01 197.837 1225.53 195.523 1225.53 193.18V141.226C1225.53 138.873 1226.01 136.568 1226.97 134.31C1227.84 132.223 1229.1 130.355 1230.75 128.695C1232.4 127.13 1234.28 125.868 1236.36 124.91C1238.62 124.037 1240.94 123.601 1243.28 123.601C1245.62 123.601 1247.94 124.037 1250.19 124.91C1252.28 125.868 1254.15 127.13 1255.81 128.695C1257.37 130.345 1258.63 132.223 1259.59 134.31C1260.55 136.577 1261.02 138.883 1261.02 141.226V193.18C1261.02 195.532 1260.55 197.837 1259.59 200.095C1258.63 202.182 1257.37 204.06 1255.81 205.711ZM1244.71 193.17V141.216C1244.71 140.429 1244.23 139.954 1243.28 139.784C1242.41 139.784 1241.88 140.268 1241.71 141.216V193.17C1241.71 193.958 1242.24 194.479 1243.28 194.735C1244.07 194.735 1244.54 194.214 1244.71 193.17ZM1273.16 125.811H1285.44L1259.86 313.404H1247.58L1273.16 125.811ZM1302.27 233.77C1303.92 235.42 1305.18 237.299 1306.06 239.385C1307.01 241.653 1307.49 243.958 1307.49 246.301V298.255C1307.49 300.607 1307 302.912 1306.06 305.17C1305.18 307.257 1303.92 309.135 1302.27 310.786C1300.71 312.351 1298.83 313.612 1296.66 314.57C1294.39 315.528 1292.09 316.003 1289.74 316.003C1287.4 316.003 1285.09 315.519 1282.83 314.57C1280.74 313.612 1278.86 312.351 1277.21 310.786C1275.65 309.135 1274.39 307.257 1273.43 305.17C1272.47 302.912 1272 300.598 1272 298.255V246.301C1272 243.948 1272.47 241.643 1273.43 239.385C1274.39 237.299 1275.65 235.43 1277.21 233.77C1278.86 232.205 1280.74 230.943 1282.83 229.985C1285.09 229.027 1287.4 228.553 1289.74 228.553C1292.09 228.553 1294.4 229.036 1296.66 229.985C1298.83 230.943 1300.71 232.205 1302.27 233.77ZM1291.31 298.264V246.31C1291.31 245.523 1290.79 245.048 1289.74 244.878C1288.96 244.878 1288.43 245.361 1288.18 246.31V298.264C1288.18 299.052 1288.7 299.526 1289.74 299.697C1290.53 299.697 1291.05 299.222 1291.31 298.264Z" fill="#B73E4A"/>
<path d="M1061.27 735.421H1068.92C1070.99 735.421 1072.68 737.109 1072.68 739.187V800.437C1072.68 803.814 1069.94 806.555 1066.57 806.555H1061.74C1058.88 806.555 1056.56 804.231 1056.56 801.376V740.126C1056.56 737.527 1058.67 735.411 1061.27 735.411V735.421Z" fill="#321D1B"/>
<path d="M1537.39 735.421H1545.03C1547.11 735.421 1548.8 737.109 1548.8 739.187V800.437C1548.8 803.814 1546.06 806.555 1542.68 806.555H1537.85C1535 806.555 1532.67 804.231 1532.67 801.376V740.126C1532.67 737.527 1534.79 735.411 1537.39 735.411V735.421Z" fill="#321D1B"/>
<path d="M1059.88 690.837H1547.14C1560.09 690.837 1570.61 701.357 1570.61 714.315V735.421H1035.69V715.026C1035.69 701.68 1046.53 690.837 1059.88 690.837Z" fill="#3F0303"/>
<path d="M1545.95 699.375H1060.35C1046.73 699.375 1035.69 710.417 1035.69 724.038V735.421C1035.69 749.042 1046.73 760.084 1060.35 760.084H1545.95C1559.57 760.084 1570.61 749.042 1570.61 735.421V724.038C1570.61 710.417 1559.57 699.375 1545.95 699.375Z" fill="#680505"/>
<path d="M1535.58 544.755H1070.73C1051.38 544.755 1035.69 560.443 1035.69 579.796V619.75C1035.69 639.103 1051.38 654.791 1070.73 654.791H1535.58C1554.93 654.791 1570.61 639.103 1570.61 619.75V579.796C1570.61 560.443 1554.93 544.755 1535.58 544.755Z" fill="#3F0303"/>
<path d="M1527.42 555.189H1080.78C1063.21 555.189 1048.97 569.434 1048.97 587.005V612.541C1048.97 630.112 1063.21 644.356 1080.78 644.356H1527.42C1544.99 644.356 1559.23 630.112 1559.23 612.541V587.005C1559.23 569.434 1544.99 555.189 1527.42 555.189Z" fill="#680505"/>
<path d="M1048.97 719.295H1551.64V748.701H1049.68C1049.29 748.701 1048.97 748.379 1048.97 747.99V719.295Z" fill="#3F0303"/>
<path d="M1570.61 651.945H1551.64V687.043H1570.61V651.945Z" fill="#231515"/>
<path d="M1556.36 670.917H1566.85C1568.92 670.917 1570.61 672.605 1570.61 674.683V856.404C1570.61 859.781 1567.87 862.522 1564.49 862.522H1556.82C1553.97 862.522 1551.64 860.198 1551.64 857.343V675.622C1551.64 673.023 1553.76 670.907 1556.36 670.907V670.917Z" fill="#321D1B"/>
<path d="M1557.74 520.092H1564.7C1567.97 520.092 1570.61 522.738 1570.61 526.001V651.945H1551.64V526.191C1551.64 522.823 1554.38 520.092 1557.74 520.092Z" fill="#321D1B"/>
<path d="M1053.71 651.945H1034.75V687.043H1053.71V651.945Z" fill="#231515"/>
<path d="M1039.46 670.917H1049.95C1052.03 670.917 1053.71 672.605 1053.71 674.683V856.404C1053.71 859.781 1050.97 862.522 1047.6 862.522H1039.92C1037.07 862.522 1034.75 860.198 1034.75 857.343V675.622C1034.75 673.023 1036.86 670.907 1039.46 670.907V670.917Z" fill="#321D1B"/>
<path d="M1551.64 816.999V835.971H1048.97C1048.45 835.971 1048.02 835.544 1048.02 835.022V816.999H1551.64Z" fill="#321D1B"/>
<path d="M1532.67 766.724V785.696H1073.63C1073.11 785.696 1072.68 785.269 1072.68 784.747V766.724H1532.67Z" fill="#321D1B"/>
<path d="M1551.64 746.804V760.084H1048.97C1048.45 760.084 1048.02 759.657 1048.02 759.136V746.804H1551.64Z" fill="#321D1B"/>
<path d="M1040.84 520.092H1047.81C1051.07 520.092 1053.71 522.738 1053.71 526.001V651.945H1034.75V526.191C1034.75 522.823 1037.48 520.092 1040.84 520.092Z" fill="#321D1B"/>
<path d="M231.419 574.161H142.266V618.744H231.419V574.161Z" fill="white"/>
<path d="M226.041 579.539H147.643V614.134H226.041V579.539Z" fill="#EFEFEF"/>
</g>
<defs>
<clipPath id="clip0_209_587">
<rect width="1821" height="1024" fill="white"/>
</clipPath>
</defs>
</svg>
