<svg width="4560" height="1025" viewBox="0 0 4560 1025" fill="none" xmlns="http://www.w3.org/2000/svg">
<path d="M4559.2 0.75H0.0981445V1023.78H4559.2V0.75Z" fill="#D35D5F"/>
<path d="M4559.2 759.021H0.0981445V1024.25H4559.2V759.021Z" fill="#7F5B4F"/>
<path d="M4559.2 727.288H0.0981445V759.494H4559.2V727.288Z" fill="white"/>
<path d="M4304.39 96.4219H3916.02V233.773H4304.39V96.4219Z" fill="#ED6EA7"/>
<path d="M4285.44 115.367H3934.96V214.828H4285.44V115.367Z" fill="white"/>
<path d="M418.781 138.101H167.761V512.263H418.781V138.101Z" fill="#F9B25B"/>
<path d="M399.836 157.046H186.706V493.318H399.836V157.046Z" fill="white"/>
<path d="M3783.4 209.145H3532.38V471.532H3783.4V209.145Z" fill="#ED6EA7"/>
<path d="M3764.46 228.089H3551.33V451.639H3764.46V228.089Z" fill="white"/>
<path d="M4208.72 283.029H3987.06V569.098H4208.72V283.029Z" fill="#375458"/>
<path d="M1553.58 239.456H1333.82V532.155H1553.58V239.456Z" fill="#2F182E"/>
<path d="M1135.85 469.637H747.476V606.987H1135.85V469.637Z" fill="#9798C6"/>
<path d="M1116.9 488.582H766.421V588.043H1116.9V488.582Z" fill="white"/>
<path d="M4192.84 301.027H4004.11V552.995H4192.84V301.027Z" fill="#D5A563"/>
<path d="M4004.11 301.027H4192.84V324.292C4192.84 324.292 4048.86 296.462 4004.11 326.953V301.027Z" fill="#C8B783"/>
<path d="M4004.11 326.954V366.16C4004.11 366.16 4085.83 383.713 4121.82 361.339C4157.82 338.965 4192.84 349.83 4192.84 349.83V324.282C4192.84 324.282 4045.94 296.452 4004.11 326.944V326.954Z" fill="#DE551E"/>
<path d="M4104.31 390.533C4112.55 388.856 4158.39 384.698 4169.49 388.591L4167.22 396.652L4164.63 435.29L4004.11 432.903V389.567" fill="#AC9853"/>
<path d="M4004.11 381.202H4192.84V443.824C4192.84 443.824 4082.11 470.3 4133.58 552.995H4004.11V427.011C4004.11 427.011 4113.07 435.28 4127.66 422.634C4142.26 409.989 4150.03 413.882 4152.95 409.013C4158.06 400.507 4127.66 409.989 4123.77 404.144C4119.87 398.309 4126.94 395.392 4148.09 396.358C4169.24 397.333 4168.52 386.63 4168.52 386.63C4092.64 386.63 4041.08 398.3 4004.11 393.44V381.192V381.202Z" fill="#375458"/>
<path d="M4147.82 464.446C4147.82 464.446 4151.14 443.692 4173.91 431.576C4176 430.468 4178.23 429.654 4180.5 428.971C4184.07 427.892 4191.38 423.856 4192.84 408.738V443.824C4192.84 443.824 4146.14 457.313 4169.49 491.537C4192.84 525.752 4173.2 552.994 4173.2 552.994H4124.17C4123.78 552.994 4098.47 494.966 4098.47 494.966L4147.82 464.446Z" fill="#AC9853"/>
<path d="M4101.98 463.546C4101.98 463.546 4106.25 450.844 4106.25 445.975C4106.25 441.106 4097.7 432.969 4101.98 421.469C4101.98 421.469 4105.29 414.82 4106.25 413.854C4107.23 412.897 4108.19 413.863 4107.23 417.756C4107.23 417.756 4107.23 434.295 4111.12 437.213C4115.01 440.13 4108.52 466.142 4108.52 466.142L4107.62 466.634C4106.72 467.117 4105.73 467.373 4104.72 467.373H4104.32C4102.64 466.814 4102.23 465.289 4101.99 463.537L4101.98 463.546Z" fill="#A89D81"/>
<path d="M4004.11 366.17C4004.11 366.17 4057.93 375.794 4084.04 371.977C4110.14 368.159 4114.41 365.156 4114.41 365.156C4114.41 365.156 4133.74 351.241 4158.91 348.021C4184.08 344.81 4192.83 349.839 4192.83 349.839V393.451C4192.83 393.451 4142.24 385.664 4115.97 389.557C4098.26 392.181 4085.23 390.202 4078.68 387.72C4073.49 385.75 4068.09 384.376 4062.59 383.58C4047.23 381.354 4020.15 379.431 4004.09 389.899V366.17H4004.11Z" fill="#EE9338"/>
<path d="M4004.11 393.45L4192.84 507.717V525.989L4004.11 399.285V393.45Z" fill="#A06A46"/>
<path d="M4004.11 552.994H4141.65L4004.11 408.738V552.994Z" fill="#846A47"/>
<path d="M4004.11 408.738L4141.65 552.995H4161.07L4004.11 403.661V408.738Z" fill="#654433"/>
<path d="M4192.84 540.709V552.995H4180.1L4004.11 403.661V399.285L4192.84 540.709Z" fill="#705041"/>
<path d="M4136.42 443.067L4112.36 441.429L4110.28 446.013L4112.36 454.131L4119.88 464.466L4136.42 451.848V443.067Z" fill="#8E856E"/>
<path d="M4082.59 552.995C4082.59 552.995 4067.89 520.732 4091.45 486.763C4115.01 452.795 4098.47 439.827 4098.47 439.827H4106.37C4106.37 439.827 4116.1 451.185 4119.51 457.313C4120.19 458.535 4121.79 458.905 4122.91 458.081C4127.14 454.993 4135.68 448.182 4136.41 443.067L4141.65 444.904C4141.65 444.904 4146.14 494.625 4134.47 503.387C4122.8 512.14 4133.58 553.004 4133.58 553.004H4082.59V552.995Z" fill="#0A150F"/>
<path d="M4145.98 457.996L4141.98 442.196C4141.98 442.196 4145.82 437.611 4145.98 432.553C4146.14 427.495 4147.65 420.949 4143.98 416.44C4140.31 411.931 4144.7 425.212 4140.56 429.758C4136.42 434.305 4135.82 440.481 4137.09 443.711C4138.36 446.951 4139.16 458.801 4139.16 458.801L4142.39 463.604L4145.17 461.539L4145.98 457.986V457.996Z" fill="#A89D81"/>
<path d="M4092.11 478.323L4101.4 460.572L4102.58 464.569C4103.75 468.566 4110.29 464.19 4110.29 464.19C4109.44 472.668 4094.59 498.518 4086.8 499.21C4079.02 499.901 4080.97 484.897 4085.26 480.862C4089.55 476.826 4088.76 462.513 4086.8 453.524C4084.86 444.535 4098.47 439.817 4098.47 439.817C4098.47 439.817 4102.83 442.394 4104.06 452.937C4105.29 463.48 4103.34 465.431 4103.34 465.431" fill="#13292C"/>
<path d="M4101.39 460.572L4092.42 477.727L4094.61 467.099L4097.89 462.059L4101.39 460.572Z" fill="#0A150F"/>
<path d="M4136.97 500.299C4136.97 500.299 4141.71 509.866 4146.84 500.299C4151.98 490.732 4146.84 456.83 4146.84 456.83C4146.84 456.83 4145.73 460.467 4138.36 458.62C4134.47 457.645 4133.49 490.723 4136.97 500.29V500.299Z" fill="#13292C"/>
<path d="M4115.28 436.9C4115.28 436.9 4099.06 419.423 4117.39 406.531C4117.39 406.531 4128.46 402.941 4135.25 407.772C4142.03 412.603 4143.29 425.77 4134.94 436.085C4134.94 436.085 4130.37 439.533 4130.73 442.034C4131.09 444.534 4130.77 453.619 4123.54 453.467C4116.31 453.315 4116.2 445.084 4117.36 441.105C4117.36 441.105 4117.36 438.131 4115.28 436.9Z" fill="#A89D81"/>
<path d="M4123.21 450.683C4120.96 450.361 4120.99 448.589 4120.67 445.88C4120.38 443.56 4120.55 440.794 4122.18 438.615C4123.91 436.313 4125.39 437.033 4126.43 438.34C4127.64 439.856 4128.04 442.101 4127.64 444.242C4127.42 445.426 4127.25 446.543 4127.01 447.547C4126.51 449.594 4124.86 450.929 4123.22 450.692L4123.21 450.683Z" fill="#8E856E"/>
<path d="M4128.69 407.214C4128.45 407.138 4125.1 406.636 4124.85 406.598C4121.82 406.096 4117.24 407.147 4116.93 410.87C4116.58 415.114 4120.89 413.948 4122.79 417.766C4123.77 419.708 4127.39 420.447 4128.36 419.471C4128.65 419.168 4129 418.931 4129.4 418.779C4130.47 418.372 4132.72 417.624 4134.93 417.633C4137.15 417.643 4138.76 415.057 4137.44 413.304C4136.41 411.931 4134.46 409.004 4128.68 407.204L4128.69 407.214Z" fill="#B7A181"/>
<path d="M4017.3 435.281C4016.77 433.093 4014.92 402.762 4016.27 393.45C4016.83 389.557 4016.83 385.664 4018.15 385.664C4020.22 385.664 4020.77 392.475 4020.77 392.475C4020.77 392.475 4024.78 430.924 4022.12 434.561C4022.12 434.561 4017.76 437.223 4017.3 435.281Z" fill="#13292C"/>
<path d="M4008.08 433.338C4007.38 431.15 4004.89 400.819 4006.7 391.508C4007.45 387.615 4007.45 383.722 4009.22 383.722C4012 383.722 4012.74 390.532 4012.74 390.532C4012.74 390.532 4018.12 428.981 4014.55 432.619C4014.55 432.619 4008.69 435.28 4008.07 433.338H4008.08Z" fill="#0A150F"/>
<path d="M2982.84 759.732V296.357C2982.84 296.357 2965.58 130.296 3160.8 129.339C3356.03 128.392 3344.7 296.357 3344.7 296.357L3344.83 759.732H2982.84Z" fill="#AE4D4F"/>
<path d="M2982.84 759.731H3344.83L3247.26 679.926H3080.54L2982.84 759.731Z" fill="#934243"/>
<path d="M3080.89 679.926H3247.26V375.13C3247.26 355.342 3241.92 335.848 3231.32 319.139C3219.27 300.137 3198.64 281.599 3163.96 281.144C3129.28 280.69 3108.62 298.072 3096.54 316.107C3085.92 331.974 3080.54 350.777 3080.56 369.873L3080.89 679.926Z" fill="#934243"/>
<path d="M2911.55 491.424H2783.11V564.362H2911.55V491.424Z" fill="white"/>
<path d="M2900.44 500.3H2794.52V555.647H2900.44V500.3Z" fill="#D4D4D4"/>
<path d="M240.699 599.41C240.699 599.41 434.704 686.746 581.708 599.41L584.549 622.144C584.549 622.144 448.146 704.555 238.804 621.197L240.699 599.41Z" fill="#990000"/>
<path d="M268.169 833.541H202.809V850.43H268.169V833.541Z" fill="black"/>
<path d="M244.677 833.552L244.677 594.874H226.32V833.552H244.677Z" fill="black"/>
<path d="M235.12 599.269C248.502 599.269 259.35 588.42 259.35 575.038C259.35 561.656 248.502 550.808 235.12 550.808C221.737 550.808 210.889 561.656 210.889 575.038C210.889 588.42 221.737 599.269 235.12 599.269Z" fill="black"/>
<path d="M616.756 833.541H551.396V850.43H616.756V833.541Z" fill="black"/>
<path d="M593.264 833.551V594.873H574.906V833.551H593.264Z" fill="black"/>
<path d="M583.706 599.269C597.089 599.269 607.937 588.42 607.937 575.038C607.937 561.656 597.089 550.808 583.706 550.808C570.324 550.808 559.476 561.656 559.476 575.038C559.476 588.42 570.324 599.269 583.706 599.269Z" fill="black"/>
<path d="M1882.28 546.364H1730.72V839.063H1882.28V546.364Z" fill="#ED8D64"/>
<path d="M1917.33 803.068H1698.51V850.431H1917.33V803.068Z" fill="#ED8D64"/>
<path d="M1734.65 544.47L1745.87 501.843L1734.65 454.547L1785.66 400.488V384.555L1739.24 386.279L1742.08 291.555L1769.55 248.929L1845.33 241.351L1882.28 285.871L1855.75 352.178L1904.06 431.747L1869.49 473.454L1877.54 526.472L1901.22 519.841L1900.13 544.47L1712.72 577.623V550.987L1734.65 544.47Z" fill="#C8C2B4"/>
<path d="M1712.72 550.986L1734.65 544.469L1745.87 501.843L1734.65 454.547L1862.38 419.433L1904.06 431.747L1869.49 473.454L1877.54 526.471L1901.22 519.841L1900.13 544.469L1712.72 577.623V550.986Z" fill="#A9A099"/>
<path d="M1734.65 454.548L1850.07 370.177L1799.87 337.97L1797.97 268.821L1742.08 291.555L1739.24 386.28L1785.66 384.556V400.489L1734.65 454.548Z" fill="#A9A099"/>
<path d="M1882.28 285.871L1855.75 352.178L1824.5 301.974L1882.28 285.871Z" fill="#A9A099"/>
<path d="M1876.59 522.683L1734.65 544.469L1712.72 550.986V577.623L1900.13 544.469L1901.22 519.841L1876.59 522.683Z" fill="#C6C3B4"/>
<path d="M1901.22 519.841L1858.54 551.829L1900.13 544.469L1901.22 519.841Z" fill="#A9A099"/>
<path d="M1730.72 574.441L1882.28 548.732V569.013L1730.72 623.499V574.441Z" fill="#D98864"/>
<path d="M2160.77 125.787H2156.03V684.663H2160.77V125.787Z" fill="#A5DDD6"/>
<path d="M2556.25 408.066V403.33H2159.43V408.066H2556.25Z" fill="#A5DDD6"/>
<path d="M2556.25 684.663V679.927H2159.43V684.663H2556.25Z" fill="#A5DDD6"/>
<path d="M2556.25 130.523V125.787L2159.43 125.787V130.523L2556.25 130.523Z" fill="#A5DDD6"/>
<path d="M2556.25 270.716V265.979H2159.43V270.716H2556.25Z" fill="#A5DDD6"/>
<path d="M2559.56 125.787H2554.82V684.663H2559.56V125.787Z" fill="#A5DDD6"/>
<path d="M2228.33 351.772V402.232C2228.33 403.464 2229.88 403.994 2230.63 403.028C2237.82 393.65 2260.81 369.268 2284.84 403.293C2285.46 404.174 2286.86 403.748 2286.86 402.668V351.782H2282.37L2283.06 394.152C2283.06 394.152 2261.88 365.905 2233.63 394.152V351.782H2228.33L2228.33 351.772Z" fill="#A85F4E"/>
<path d="M2233.62 394.143L2241.38 386.385C2241.97 385.798 2242.92 385.798 2243.51 386.385L2244.87 387.749C2245.47 388.346 2245.45 389.331 2244.83 389.909L2230.62 403.028L2233.61 394.152L2233.62 394.143Z" fill="#A85F4E"/>
<path d="M2278.57 395.649C2276.01 393.158 2273.62 390.714 2271.93 388.431C2271.28 387.73 2271.44 386.622 2272.25 386.129L2273.56 385.334C2274.17 384.955 2274.97 385.078 2275.45 385.618L2283.04 394.143L2278.56 395.649H2278.57Z" fill="#A85F4E"/>
<path d="M2430.22 394.427C2430.22 394.427 2427.98 396.956 2430.42 400.442C2432.86 403.937 2448.92 403.937 2452.77 403.586C2456.6 403.236 2463.34 402.052 2464.86 399.854C2466.38 397.657 2464.86 393.915 2464.86 393.915L2430.22 394.436V394.427Z" fill="#672C1C"/>
<path d="M2437.05 391.017C2436.35 391.017 2422.39 394.853 2436.35 397.647C2448.21 400.016 2459.07 397.61 2462.07 396.823C2462.83 396.624 2463.54 396.255 2464.1 395.715C2465.21 394.654 2465.91 392.873 2460.1 391.708C2451.37 389.965 2437.06 391.007 2437.06 391.007L2437.05 391.017Z" fill="#8E432E"/>
<path d="M2436.73 390.117C2436.73 390.117 2409.33 367.932 2412.86 339.401C2415.41 318.742 2465.43 322.73 2474.75 329.218C2482.78 334.807 2480.69 348.068 2480.69 348.068C2480.69 348.068 2480.34 362.031 2469.87 375.993C2459.4 389.956 2458.33 390.107 2458.33 390.107H2436.73V390.117Z" fill="#8E432E"/>
<path d="M2436.73 392.097H2458.33C2458.53 392.097 2458.7 391.936 2458.7 391.737V390.467C2458.7 390.268 2458.53 390.107 2458.33 390.107H2436.73C2436.52 390.107 2436.36 390.268 2436.36 390.467V391.737C2436.36 391.936 2436.53 392.097 2436.73 392.097Z" fill="#672C1C"/>
<path d="M2414.72 334.608C2414.72 334.608 2417.5 322.587 2414.01 312.461C2410.52 302.335 2424.49 299.891 2430.42 307.223L2431.47 312.461C2431.47 312.461 2424.84 307.924 2420.65 308.625C2416.47 309.326 2419.17 313.636 2420.3 318.751C2421 321.896 2422.4 327.826 2421.36 329.228C2420.31 330.63 2414.73 334.618 2414.73 334.618L2414.72 334.608Z" fill="#8E432E"/>
<path d="M2478.95 334.116C2478.95 334.116 2475.25 322.597 2478.75 312.471C2482.24 302.345 2467.08 300.953 2461.15 308.284V313.172C2461.15 313.172 2467.93 307.934 2472.12 308.635C2476.3 309.336 2473.25 316.819 2472.47 318.761C2471.63 320.854 2471.28 326.443 2471.63 328.537C2471.91 330.261 2478.96 334.125 2478.96 334.125L2478.95 334.116Z" fill="#8E432E"/>
<path d="M2430.42 325.542C2430.42 325.542 2436.7 314.213 2422.74 296.405C2422.74 296.405 2466.73 296.405 2468.47 295.704C2468.47 295.704 2457.94 304.286 2462.33 325.306L2430.42 325.542Z" fill="#8E432E"/>
<path d="M2422.74 296.405C2422.74 296.405 2444.03 298.499 2468.47 295.704C2469.33 295.61 2468.14 295.401 2466.47 295.202C2463.44 294.833 2460.38 294.653 2457.33 294.644C2449.83 294.615 2433.32 294.615 2426.93 295.013C2421.34 295.363 2422.74 296.405 2422.74 296.405Z" fill="#672C1C"/>
<path d="M2258.33 397.647C2279.78 397.647 2297.17 380.259 2297.17 358.81C2297.17 337.361 2279.78 319.973 2258.33 319.973C2236.89 319.973 2219.5 337.361 2219.5 358.81C2219.5 380.259 2236.89 397.647 2258.33 397.647Z" fill="white"/>
<path d="M2258.33 383.524C2271.98 383.524 2283.05 372.459 2283.05 358.81C2283.05 345.161 2271.98 334.097 2258.33 334.097C2244.69 334.097 2233.62 345.161 2233.62 358.81C2233.62 372.459 2244.69 383.524 2258.33 383.524Z" fill="#E3E3E3"/>
<path opacity="0.2" d="M2559.18 63.2686H2156.03V852.325H2559.18V63.2686Z" fill="white"/>
<path d="M2559.18 684.227H2156.03V852.325H2559.18V684.227Z" fill="#2F182E"/>
<path d="M2559.18 66.1104H2156.03V125.616H2559.18V66.1104Z" fill="#2F182E"/>
</svg>
