<?xml version="1.0" encoding="UTF-8"?>
<svg xmlns="http://www.w3.org/2000/svg" viewBox="0 0 4813 1080.5">
  <defs>
    <style>
      .cls-1 {
        fill: #d35d5f;
      }

      .cls-2 {
        opacity: .2;
      }

      .cls-2, .cls-3 {
        fill: #fff;
      }

      .cls-4 {
        fill: #375458;
      }

      .cls-5 {
        fill: #c8b783;
      }

      .cls-6 {
        fill: #c6c3b4;
      }

      .cls-7 {
        fill: #846a47;
      }

      .cls-8 {
        fill: #f9b25b;
      }

      .cls-9 {
        fill: #8e432e;
      }

      .cls-10 {
        fill: #fca924;
      }

      .cls-11 {
        fill: #3e2622;
      }

      .cls-12 {
        fill: #9798c6;
      }

      .cls-13 {
        fill: #654433;
      }

      .cls-14 {
        fill: #13292c;
      }

      .cls-15 {
        fill: #0a150f;
      }

      .cls-16 {
        fill: #485343;
      }

      .cls-17 {
        fill: #b1af76;
      }

      .cls-18 {
        fill: #b73e4a;
      }

      .cls-19 {
        fill: #8e856e;
      }

      .cls-20 {
        fill: #f98905;
      }

      .cls-21 {
        fill: #a85f4e;
      }

      .cls-22 {
        fill: #672c1c;
      }

      .cls-23 {
        fill: #a5ddd6;
      }

      .cls-24 {
        fill: #de551e;
      }

      .cls-25 {
        fill: #e3e3e3;
      }

      .cls-26 {
        fill: #ac9853;
      }

      .cls-27 {
        fill: #900;
      }

      .cls-28 {
        fill: #a9a099;
      }

      .cls-29 {
        fill: #2f182e;
      }

      .cls-30 {
        fill: #a89d81;
      }

      .cls-31 {
        fill: #ffa727;
      }

      .cls-32 {
        fill: #c8c2b4;
      }

      .cls-33 {
        fill: #ed6ea7;
      }

      .cls-34 {
        fill: #ed8d64;
      }

      .cls-35 {
        fill: #d98864;
      }

      .cls-36 {
        fill: #b7a181;
      }

      .cls-37 {
        fill: #737a53;
      }

      .cls-38 {
        fill: #d4d4d4;
      }

      .cls-39 {
        fill: #ef8f0b;
      }

      .cls-40 {
        fill: #705041;
      }

      .cls-41 {
        fill: #934243;
      }

      .cls-42 {
        fill: #8b482a;
      }

      .cls-43 {
        fill: #7f5b4f;
      }

      .cls-44 {
        fill: #fa8c00;
      }

      .cls-45 {
        fill: #ae4d4f;
      }

      .cls-46 {
        fill: #ee9338;
      }

      .cls-47 {
        fill: #d5a563;
      }

      .cls-48 {
        fill: #a06a46;
      }
    </style>
  </defs>
  <g id="Fond">
    <rect class="cls-1" x="0" width="4813" height="1080"/>
    <rect id="cadre_bleu" class="cls-33" x="4134" y="101" width="410" height="145"/>
    <rect id="fond" class="cls-3" x="4154" y="121" width="370" height="105"/>
  </g>
  <g id="tableaux">
    <rect id="cadre_gold" class="cls-8" x="177" y="145" width="265" height="395"/>
    <rect id="fond-2" data-name="fond" class="cls-3" x="197" y="165" width="225" height="355"/>
    <rect id="cadre_gold-2" data-name="cadre_gold" class="cls-33" x="3729" y="220" width="265" height="277"/>
    <rect id="fond-3" data-name="fond" class="cls-3" x="3749" y="240" width="225" height="236"/>
    <rect id="cadre_gold-3" data-name="cadre_gold" class="cls-4" x="4209" y="298" width="234" height="302"/>
    <rect id="cadre_violet" class="cls-29" x="1408" y="252" width="232" height="309"/>
    <rect id="cadre_bleu-2" data-name="cadre_bleu" class="cls-12" x="789" y="495" width="410" height="145"/>
    <rect id="fond-4" data-name="fond" class="cls-3" x="809" y="515" width="370" height="105"/>
    <g id="Le_Cri">
      <rect class="cls-47" x="4227" y="317" width="199.24" height="266"/>
      <path class="cls-5" d="M4227,317h199.24v24.56s-152-29.38-199.24,2.81v-27.37Z"/>
      <path class="cls-24" d="M4227,344.37v41.39s86.27,18.53,124.27-5.09c38-23.62,74.97-12.15,74.97-12.15v-26.97s-155.08-29.38-199.24,2.81Z"/>
      <path class="cls-26" d="M4332.78,411.49c8.7-1.77,57.09-6.16,68.81-2.05l-2.4,8.51-2.73,40.79-169.46-2.52v-45.75"/>
      <path class="cls-4" d="M4227,401.64h199.24v66.11s-116.9,27.95-62.56,115.25h-136.68v-133s115.03,8.73,130.43-4.62c15.41-13.35,23.62-9.24,26.7-14.38,5.39-8.98-26.7,1.03-30.81-5.14-4.11-6.16,3.35-9.24,25.68-8.22,22.33,1.03,21.57-10.27,21.57-10.27-80.11,0-134.54,12.32-173.57,7.19v-12.93Z"/>
      <path class="cls-26" d="M4378.71,489.52s3.51-21.91,27.55-34.7c2.2-1.17,4.56-2.03,6.95-2.75,3.77-1.14,11.49-5.4,13.03-21.36v37.04s-49.3,14.24-24.65,50.37c24.65,36.12,3.92,64.88,3.92,64.88h-51.76c-.42,0-27.13-61.26-27.13-61.26l52.09-32.22Z"/>
      <path class="cls-30" d="M4330.32,488.57s4.51-13.41,4.51-18.55-9.03-13.73-4.51-25.87c0,0,3.49-7.02,4.51-8.04,1.03-1.01,2.05.01,1.03,4.12,0,0,0,17.46,4.11,20.54,4.11,3.08-2.74,30.54-2.74,30.54l-.96.52c-.94.51-1.99.78-3.06.78h-.42c-1.77-.59-2.21-2.2-2.46-4.05h0Z"/>
      <path class="cls-46" d="M4227,385.77s56.82,10.16,84.38,6.13c27.56-4.03,32.06-7.2,32.06-7.2,0,0,20.41-14.69,46.98-18.09,26.57-3.39,35.81,1.92,35.81,1.92v46.04s-53.41-8.22-81.14-4.11c-18.7,2.77-32.45.68-39.37-1.94-5.48-2.08-11.18-3.53-16.98-4.37-16.22-2.35-44.81-4.38-61.76,6.67v-25.05Z"/>
      <polygon class="cls-48" points="4227 414.57 4426.24 535.2 4426.24 554.49 4227 420.73 4227 414.57"/>
      <polygon class="cls-7" points="4227 583 4372.2 583 4227 430.71 4227 583"/>
      <polygon class="cls-13" points="4227 430.71 4372.2 583 4392.7 583 4227 425.35 4227 430.71"/>
      <polygon class="cls-40" points="4426.24 570.03 4426.24 583 4412.79 583 4227 425.35 4227 420.73 4426.24 570.03"/>
      <polygon class="cls-19" points="4366.68 466.95 4341.28 465.22 4339.08 470.06 4341.28 478.63 4349.22 489.54 4366.68 476.22 4366.68 466.95"/>
      <path class="cls-15" d="M4309.85,583s-15.52-34.06,9.36-69.92c24.87-35.86,7.41-49.55,7.41-49.55h8.34s10.27,11.99,13.87,18.46c.72,1.29,2.4,1.68,3.59.81,4.46-3.26,13.48-10.45,14.25-15.85l5.53,1.94s4.74,52.49-7.58,61.74c-12.32,9.24-.94,52.38-.94,52.38h-53.83Z"/>
      <path class="cls-30" d="M4376.77,482.71l-4.22-16.68s4.05-4.84,4.22-10.18,1.76-12.25-2.11-17.01c-3.88-4.76.76,9.26-3.61,14.06s-5,11.32-3.66,14.73c1.34,3.42,2.18,15.93,2.18,15.93l3.41,5.07,2.94-2.18.85-3.75Z"/>
      <path class="cls-14" d="M4319.9,504.17l9.81-18.74,1.24,4.22c1.24,4.22,8.14-.4,8.14-.4-.89,8.95-16.57,36.24-24.79,36.97-8.22.73-6.16-15.11-1.63-19.37s3.69-19.37,1.63-28.86c-2.05-9.49,12.32-14.47,12.32-14.47,0,0,4.6,2.72,5.9,13.85s-.76,13.19-.76,13.19"/>
      <polygon class="cls-15" points="4329.7 485.43 4320.23 503.54 4322.54 492.32 4326 487 4329.7 485.43"/>
      <path class="cls-14" d="M4367.26,527.37s5,10.1,10.42,0c5.43-10.1,0-45.89,0-45.89,0,0-1.17,3.84-8.95,1.89-4.11-1.03-5.14,33.89-1.47,43.99Z"/>
      <path class="cls-30" d="M4344.36,460.44s-17.12-18.45,2.23-32.06c0,0,11.69-3.79,18.85,1.31,7.16,5.1,8.49,19-.32,29.89,0,0-4.83,3.64-4.45,6.28s.04,12.23-7.59,12.07c-7.63-.16-7.75-8.85-6.52-13.05,0,0,0-3.14-2.2-4.44Z"/>
      <path class="cls-19" d="M4352.73,474.99c-2.37-.34-2.34-2.21-2.68-5.07-.3-2.45-.12-5.37,1.6-7.67,1.82-2.43,3.38-1.67,4.48-.29,1.28,1.6,1.7,3.97,1.28,6.23-.23,1.25-.41,2.43-.67,3.49-.52,2.16-2.26,3.57-4,3.32h0Z"/>
      <path class="cls-36" d="M4358.52,429.1c-.26-.08-3.79-.61-4.06-.65-3.19-.53-8.03.58-8.36,4.51-.37,4.48,4.18,3.25,6.19,7.28,1.03,2.05,4.86,2.83,5.88,1.8.31-.32.68-.57,1.1-.73,1.13-.43,3.5-1.22,5.84-1.21s4.04-2.72,2.65-4.57c-1.09-1.45-3.15-4.54-9.25-6.44Z"/>
      <path class="cls-14" d="M4240.92,458.73c-.55-2.31-2.51-34.33-1.08-44.16.59-4.11.59-8.22,1.98-8.22,2.19,0,2.77,7.19,2.77,7.19,0,0,4.23,40.59,1.42,44.43,0,0-4.6,2.81-5.09.76Z"/>
      <path class="cls-15" d="M4231.19,456.68c-.74-2.31-3.37-34.33-1.46-44.16.8-4.11.8-8.22,2.66-8.22,2.94,0,3.72,7.19,3.72,7.19,0,0,5.68,40.59,1.91,44.43,0,0-6.18,2.81-6.84.76Z"/>
    </g>
  </g>
  <g id="Joconde">
    <g id="Calque_8">
      <rect class="cls-17" x="1429" y="272" width="192" height="269"/>
      <path class="cls-37" d="M1429,338.35s42,15.65,63,14.65,90-26,100-24,26,11.48,29,18.74v39.13l-192,27.2v-75.72Z"/>
      <path class="cls-16" d="M1429,434.85v-32.68s33-24.18,70-22.18,78-7,83-7,39-1.74,39-1.74v89.61l-192-5.87v-20.15Z"/>
      <path class="cls-42" d="M1429,434.85s47-21.65,78-18.65,114-11.48,114-11.48v136.28h-192v-106.15Z"/>
    </g>
    <g id="Calque_7">
      <path class="cls-11" d="M1429,496s21.5-34.5,32.5-40.5,16-28,16-28c0,0-6-44-5-60s3-50,23-65,39-8,39-8c0,0,20.11.7,38,32,8,14,8,43,8,43,0,0-1.86,24.69,3.57,43.85,5.43,19.15,13.43,25.15,13.43,25.15,0,0,21,15.6,23.5,21.8v80.7l-192,.8v-45.8Z"/>
      <path class="cls-31" d="M1508.07,403s17.87,5.47,34.93-11.26v12.12s6.07,12.14,7.07,25.14-1.21,32.78-1.21,32.78c0,0-3.79,20.22-15.79,21.22s-29,3-48-7-8-25-8-25c0,0,13-19,24-24s7-24,7-24Z"/>
      <path class="cls-44" d="M1508.13,403.65v15.47s-.13,6.87,6.87,8.87,33-11,33-11l-3.48-11.96-1.52-13.04s-12.74,14.31-34.87,11.65Z"/>
      <path class="cls-10" d="M1509,404s-12,1-19-17-6-24-6-24c0,0,.9-16.83-.05-22.92-.95-6.08,3.05-17.08,3.05-17.08,0,0,7-15,24-13s23,0,33,19,4,54,4,54c0,0-1,12-20,19-8.02,2.95-19,2-19,2Z"/>
      <path class="cls-20" d="M1513.75,353.6c-.38.77-1.45.89-1.95.19-.99-1.38-2.02-3.74-.8-6.79,2-5,10-5,10-5,0,0,4,0,10,2,4.18,1.39,7.39,1.82,8.96,1.94.59.05,1.04.54,1.04,1.14h0c0,.29-.1.56-.3.77-.63.68-2.17,2.14-3.7,2.14h-3.58c-.27,0-.52-.09-.72-.26-1.91-1.57-12.45-9.34-18.95,3.86Z"/>
      <path class="cls-39" d="M1502,375s2,2,4,1,4.63-.79,7.01-.36c1.99.36,2.99-.64,2.99-.64,0,0-7,8-14,0Z"/>
      <path class="cls-20" d="M1488.85,349.09c-.3.28-.78.01-.7-.39.38-2.02,1.78-5.7,6.85-5.7,4.72,0,7.17,3.18,8.26,5.26.21.4-.26.8-.63.54-1.24-.89-3.35-2.01-6.37-2.3-3.62-.34-6.17,1.45-7.41,2.59Z"/>
      <path class="cls-39" d="M1500.18,384.38c-.14-.16-.06-.4.15-.44,1.12-.2,4.83-.79,5.68.06.94.94,2.77.11,2.98,0,.02,0,.02-.01.04-.02.31-.07,3.78-.88,7.56.12.27.07.26.47-.02.52-1.4.24-3.95.72-6.56,1.37-4,1-6,0-6,0,0,0-3.05-.76-3.82-1.62Z"/>
    </g>
  </g>
  <g id="Base_sol">
    <rect id="sol" class="cls-43" y="800.5" width="4813" height="280"/>
    <rect id="pleinte" class="cls-3" x="0" y="767" width="4813" height="34"/>
    <g id="Porte">
      <path class="cls-45" d="M3148.85,801.25v-489.18s-18.22-175.31,187.88-176.32c206.1-1,194.14,176.32,194.14,176.32l.13,489.18h-382.15Z"/>
      <polygon class="cls-41" points="3148.85 801.25 3531 801.25 3428 717 3252 717 3148.85 801.25"/>
      <path class="cls-41" d="M3252.36,717h175.64v-321.77c0-20.89-5.64-41.47-16.83-59.11-12.72-20.06-34.5-39.63-71.11-40.11-36.61-.48-58.42,17.87-71.17,36.91-11.21,16.75-16.89,36.6-16.87,56.76l.34,327.32Z"/>
    </g>
    <rect class="cls-3" x="2938" y="518" width="135.59" height="77"/>
    <rect class="cls-38" x="2950.05" y="527.37" width="111.82" height="58.43"/>
  </g>
  <g id="rembarde">
    <path class="cls-27" d="M254,632s204.81,92.2,360,0l3,24s-144,87-365-1l2-23Z"/>
    <rect x="214" y="879.17" width="69" height="17.83"/>
    <rect x="122.52" y="743.49" width="251.97" height="19.38" transform="translate(1001.69 504.69) rotate(90)"/>
    <circle cx="248.11" cy="606.27" r="25.58"/>
    <rect x="582" y="879.17" width="69" height="17.83"/>
    <rect x="490.52" y="743.49" width="251.97" height="19.38" transform="translate(1369.69 136.69) rotate(90)"/>
    <circle cx="616.11" cy="606.27" r="25.58"/>
  </g>
  <g id="scuplture">
    <rect class="cls-34" x="1827" y="576" width="160" height="309"/>
    <rect class="cls-34" x="1793" y="847" width="231" height="50"/>
    <g>
      <polygon class="cls-32" points="1831.15 574 1843 529 1831.15 479.07 1885 422 1885 405.18 1836 407 1839 307 1868 262 1948 254 1987 301 1959 371 2010 455 1973.5 499.03 1982 555 2007 548 2005.85 574 1808 609 1808 580.88 1831.15 574"/>
      <polygon class="cls-28" points="1808 580.88 1831.15 574 1843 529 1831.15 479.07 1966 442 2010 455 1973.5 499.03 1982 555 2007 548 2005.85 574 1808 609 1808 580.88"/>
      <polygon class="cls-28" points="1831.15 479.07 1953 390 1900 356 1898 283 1839 307 1836 407 1885 405.18 1885 422 1831.15 479.07"/>
      <polygon class="cls-28" points="1987 301 1959 371 1926 318 1987 301"/>
      <polygon class="cls-6" points="1981 551 1831.15 574 1808 580.88 1808 609 2005.85 574 2007 548 1981 551"/>
      <polyline class="cls-28" points="2007 548 1961.94 581.77 2005.85 574 2007 548"/>
    </g>
    <polygon class="cls-35" points="1827 605.64 1987 578.5 1987 599.91 1827 657.43 1827 605.64"/>
  </g>
  <g id="Vitrine">
    <rect class="cls-23" x="2276" y="132" width="5" height="590"/>
    <rect class="cls-23" x="2486.55" y="218.04" width="5" height="418.92" transform="translate(2916.55 -2061.55) rotate(90)"/>
    <rect class="cls-23" x="2486.55" y="510.04" width="5" height="418.92" transform="translate(3208.55 -1769.55) rotate(90)"/>
    <rect class="cls-23" x="2486.55" y="-74.96" width="5" height="418.92" transform="translate(2623.55 -2354.55) rotate(90)"/>
    <rect class="cls-23" x="2486.55" y="73.04" width="5" height="418.92" transform="translate(2771.55 -2206.55) rotate(90)"/>
    <rect class="cls-23" x="2697" y="132" width="5" height="590"/>
    <g id="Deco">
      <path class="cls-21" d="M2352.32,370.57v53.27c0,1.3,1.64,1.86,2.43.84,7.59-9.9,31.86-35.64,57.23.28.66.93,2.13.48,2.13-.66v-53.72h-4.74l.73,44.73s-22.36-29.82-52.18,0v-44.73h-5.59Z"/>
      <circle class="cls-3" cx="2384" cy="378.02" r="41"/>
      <circle class="cls-25" cx="2384" cy="378.02" r="26.09"/>
      <path class="cls-21" d="M2357.91,415.3l8.19-8.19c.62-.62,1.63-.62,2.25,0l1.44,1.44c.63.63.61,1.67-.05,2.28l-15,13.85,3.16-9.37Z"/>
      <path class="cls-21" d="M2405.36,416.89c-2.7-2.63-5.22-5.21-7.01-7.62-.68-.74-.51-1.91.34-2.43l1.38-.84c.65-.4,1.49-.27,2,.3l8.01,9-4.73,1.59Z"/>
      <g id="Amphore">
        <path class="cls-22" d="M2565.46,415.6s-2.37,2.67.21,6.35c2.58,3.69,19.53,3.69,23.59,3.32,4.05-.37,11.16-1.62,12.77-3.94,1.6-2.32,0-6.27,0-6.27l-36.57.55Z"/>
        <path class="cls-9" d="M2572.67,412c-.74,0-15.48,4.05-.74,7,12.52,2.5,23.98-.04,27.15-.87.8-.21,1.55-.6,2.15-1.17,1.17-1.12,1.91-3-4.23-4.23-9.21-1.84-24.32-.74-24.32-.74Z"/>
        <path class="cls-9" d="M2572.33,411.05s-28.92-23.42-25.2-53.54c2.69-21.81,55.5-17.6,65.34-10.75,8.48,5.9,6.27,19.9,6.27,19.9,0,0-.37,14.74-11.42,29.48-11.06,14.74-12.19,14.9-12.19,14.9h-22.8Z"/>
        <path class="cls-22" d="M2572.33,413.14h22.8c.22,0,.39-.17.39-.38v-1.34c0-.21-.18-.38-.39-.38h-22.8c-.22,0-.39.17-.39.38v1.34c0,.21.18.38.39.38Z"/>
        <path class="cls-9" d="M2549.1,352.45s2.93-12.69-.75-23.38c-3.69-10.69,11.06-13.27,17.32-5.53l1.11,5.53s-7-4.79-11.42-4.05c-4.42.74-1.57,5.29-.37,10.69.74,3.32,2.21,9.58,1.11,11.06s-6.99,5.69-6.99,5.69Z"/>
        <path class="cls-9" d="M2616.9,351.93s-3.9-12.16-.21-22.85c3.69-10.69-12.32-12.16-18.58-4.42v5.16s7.16-5.53,11.58-4.79c4.42.74,1.19,8.64.37,10.69-.89,2.21-1.26,8.11-.89,10.32.3,1.82,7.74,5.9,7.74,5.9Z"/>
        <path class="cls-9" d="M2565.67,342.88s6.63-11.96-8.11-30.76c0,0,46.44,0,48.28-.74,0,0-11.12,9.06-6.48,31.25l-33.69.25Z"/>
        <path class="cls-22" d="M2557.56,312.12s22.48,2.21,48.28-.74c.91-.1-.35-.32-2.11-.53-3.2-.39-6.43-.58-9.65-.59-7.92-.03-25.35-.03-32.1.39-5.9.37-4.42,1.47-4.42,1.47Z"/>
      </g>
    </g>
    <rect class="cls-2" x="2276" y="66" width="425.6" height="833"/>
    <rect class="cls-29" x="2276" y="721.54" width="425.6" height="177.46"/>
    <rect class="cls-29" x="2276" y="69" width="425.6" height="62.82"/>
  </g>
  <g id="Texte">
    <g>
      <path class="cls-18" d="M932.29,196.96v-52.2c0-1.35.9-2.52,2.25-2.79,1.35-.27,2.61.36,3.24,1.53,1.53,3.33,3.06,6.57,4.59,9.72,2.52,5.4,5.4,11.7,7.2,15.39,1.71-3.69,4.59-10.08,7.2-15.39,1.53-3.15,3.06-6.39,4.59-9.72.63-1.17,1.89-1.8,3.24-1.53,1.35.27,2.25,1.44,2.25,2.79v52.2c0,1.71-1.35,2.88-2.88,2.88-1.71,0-2.88-1.17-2.88-2.88v-39.33c-2.16,4.59-4.32,9.27-6.03,12.87-.99,2.07-1.98,4.14-2.88,6.12-.63,1.08-1.44,1.62-2.61,1.62-1.26,0-2.16-.54-2.61-1.62-.9-1.98-1.89-4.05-2.88-6.12-1.71-3.6-3.96-8.28-6.03-12.87v39.33c0,1.71-1.35,2.88-2.88,2.88-1.71,0-2.88-1.17-2.88-2.88Z"/>
      <path class="cls-18" d="M980.8,187.6v-26.64c0-1.53,1.17-2.7,2.7-2.7s2.7,1.17,2.7,2.7v26.64c0,3.51,2.79,6.3,6.3,6.3h6.3v-32.94c0-1.53,1.17-2.7,2.7-2.7s2.7,1.17,2.7,2.7v35.64c0,1.53-1.17,2.7-2.7,2.7h-9c-6.48,0-11.7-5.22-11.7-11.7Z"/>
      <path class="cls-18" d="M1032.73,188.14c-.09-1.8-.9-3.24-2.43-4.32l-8.37-5.94c-2.79-1.89-4.32-4.86-4.59-8.1-.27-3.33,1.08-6.48,3.51-8.64,2.43-2.25,5.67-3.24,8.91-2.79,3.24.63,6.03,2.43,7.74,5.31.72,1.35.36,2.97-.99,3.69-1.35.72-2.97.36-3.69-.99-.81-1.44-2.16-2.34-3.87-2.61-1.71-.27-3.24.18-4.5,1.35-1.26,1.17-1.8,2.61-1.71,4.32s.9,3.06,2.34,4.05l8.37,5.85c2.79,2.07,4.41,4.95,4.68,8.46.27,3.51-1.08,6.66-3.6,8.91-2.52,2.43-5.85,3.33-9.18,2.88-3.51-.63-6.3-2.52-8.01-5.49-.72-1.35-.36-2.97.99-3.69,1.35-.72,2.97-.36,3.69.99.99,1.53,2.34,2.52,4.14,2.79,1.71.27,3.33-.18,4.77-1.44,1.35-1.26,1.98-2.79,1.8-4.59Z"/>
      <path class="cls-18" d="M1049.83,187.96v-18c0-6.48,5.31-11.7,11.7-11.7s11.7,5.22,11.7,11.7v9c0,1.53-1.17,2.7-2.7,2.7h-15.3v6.3c0,2.52,1.44,4.86,3.87,5.85s5.13.45,6.93-1.35c.45-.54,1.08-.81,1.8-.81.81,0,1.44.27,1.98.81.54.45.81,1.08.81,1.89,0,.72-.27,1.35-.81,1.89-3.33,3.33-8.37,4.32-12.69,2.52-4.41-1.8-7.29-6.03-7.29-10.8ZM1068.1,141.16c.99,1.08.9,2.79-.27,3.78l-9,8.1c-1.08.99-2.79.9-3.78-.18s-.9-2.79.18-3.78l9-8.1c1.17-.99,2.79-.9,3.87.18ZM1055.23,169.96v6.3h12.6v-6.3c0-3.51-2.79-6.3-6.3-6.3s-6.3,2.79-6.3,6.3Z"/>
      <path class="cls-18" d="M1085.2,187.96v-18c0-6.48,5.22-11.7,11.7-11.7s11.7,5.22,11.7,11.7v9c0,1.53-1.17,2.7-2.7,2.7h-15.3v6.3c0,2.52,1.44,4.86,3.87,5.85s5.04.45,6.84-1.35c.54-.54,1.17-.81,1.89-.81.81,0,1.44.27,1.98.81.54.45.81,1.08.81,1.89,0,.72-.27,1.35-.81,1.89-3.33,3.33-8.37,4.32-12.78,2.52-4.41-1.8-7.2-6.03-7.2-10.8ZM1090.6,169.96v6.3h12.6v-6.3c0-3.51-2.79-6.3-6.3-6.3s-6.3,2.79-6.3,6.3Z"/>
      <path class="cls-18" d="M1135.33,188.14c-.09-1.8-.9-3.24-2.43-4.32l-8.37-5.94c-2.79-1.89-4.32-4.86-4.59-8.1-.27-3.33,1.08-6.48,3.51-8.64,2.43-2.25,5.67-3.24,8.91-2.79,3.24.63,6.03,2.43,7.74,5.31.72,1.35.36,2.97-.99,3.69-1.35.72-2.97.36-3.69-.99-.81-1.44-2.16-2.34-3.87-2.61-1.71-.27-3.24.18-4.5,1.35-1.26,1.17-1.8,2.61-1.71,4.32s.9,3.06,2.34,4.05l8.37,5.85c2.79,2.07,4.41,4.95,4.68,8.46.27,3.51-1.08,6.66-3.6,8.91-2.52,2.43-5.85,3.33-9.18,2.88-3.51-.63-6.3-2.52-8.01-5.49-.72-1.35-.36-2.97.99-3.69,1.35-.72,2.97-.36,3.69.99.99,1.53,2.34,2.52,4.14,2.79,1.71.27,3.33-.18,4.77-1.44,1.35-1.26,1.98-2.79,1.8-4.59Z"/>
      <path class="cls-18" d="M1171.96,187.96v-18c0-6.48,5.22-11.7,11.7-11.7s11.7,5.22,11.7,11.7v18c0,6.48-5.31,11.7-11.7,11.7s-11.7-5.22-11.7-11.7ZM1177.36,169.96v18c0,3.51,2.79,6.3,6.3,6.3s6.3-2.79,6.3-6.3v-18c0-3.51-2.79-6.3-6.3-6.3s-6.3,2.79-6.3,6.3Z"/>
      <path class="cls-18" d="M1208.41,187.6v-26.64c0-1.53,1.17-2.7,2.7-2.7s2.7,1.17,2.7,2.7v26.64c0,3.51,2.79,6.3,6.3,6.3h6.3v-32.94c0-1.53,1.17-2.7,2.7-2.7s2.7,1.17,2.7,2.7v35.64c0,1.53-1.17,2.7-2.7,2.7h-9c-6.48,0-11.7-5.22-11.7-11.7Z"/>
      <path class="cls-18" d="M1245.49,158.35c1.35-.36,2.88.45,3.33,1.8l2.97,9.99c1.71,5.67,3.69,12.42,5.22,17.46,1.44-5.04,3.51-11.79,5.22-17.46l2.97-9.99c.45-1.35,1.98-2.16,3.42-1.8,1.44.45,2.25,1.98,1.8,3.42l-10.8,36c-.36,1.08-1.44,1.89-2.61,1.89s-2.25-.81-2.61-1.89l-10.8-36c-.36-1.44.45-2.97,1.89-3.42Z"/>
      <path class="cls-18" d="M1280.23,187.96v-18c0-6.48,5.22-11.7,11.7-11.7s11.7,5.22,11.7,11.7v9c0,1.53-1.17,2.7-2.7,2.7h-15.3v6.3c0,2.52,1.44,4.86,3.87,5.85s5.04.45,6.84-1.35c.54-.54,1.17-.81,1.89-.81.81,0,1.44.27,1.98.81.54.45.81,1.08.81,1.89,0,.72-.27,1.35-.81,1.89-3.33,3.33-8.37,4.32-12.78,2.52-4.41-1.8-7.2-6.03-7.2-10.8ZM1285.63,169.96v6.3h12.6v-6.3c0-3.51-2.79-6.3-6.3-6.3s-6.3,2.79-6.3,6.3Z"/>
      <path class="cls-18" d="M1316.68,196.96v-35.64c0-1.53,1.17-2.7,2.7-2.7h9c2.07,0,3.96.54,5.85,1.53,1.35.81,1.71,2.34.99,3.69s-2.34,1.8-3.69.99c-.99-.54-2.07-.81-3.15-.81h-6.3v32.94c0,1.53-1.17,2.7-2.7,2.7s-2.7-1.17-2.7-2.7Z"/>
      <path class="cls-18" d="M1343.68,161.32c0-1.53,1.17-2.7,2.7-2.7h4.5v-15.66c0-1.53,1.17-2.7,2.7-2.7s2.7,1.17,2.7,2.7v15.66h6.3c1.53,0,2.7,1.17,2.7,2.7s-1.17,2.7-2.7,2.7h-6.3v23.94c0,3.51,2.79,6.3,6.3,6.3,1.53,0,2.7,1.17,2.7,2.7s-1.17,2.7-2.7,2.7c-6.48,0-11.7-5.22-11.7-11.7v-23.94h-4.5c-1.53,0-2.7-1.17-2.7-2.7Z"/>
      <path class="cls-18" d="M1390.21,188.14c-.09-1.8-.9-3.24-2.43-4.32l-8.37-5.94c-2.79-1.89-4.32-4.86-4.59-8.1-.27-3.33,1.08-6.48,3.51-8.64,2.43-2.25,5.67-3.24,8.91-2.79,3.24.63,6.03,2.43,7.74,5.31.72,1.35.36,2.97-.99,3.69-1.35.72-2.97.36-3.69-.99-.81-1.44-2.16-2.34-3.87-2.61-1.71-.27-3.24.18-4.5,1.35s-1.8,2.61-1.71,4.32c.09,1.71.9,3.06,2.34,4.05l8.37,5.85c2.79,2.07,4.41,4.95,4.68,8.46.27,3.51-1.08,6.66-3.6,8.91-2.52,2.43-5.85,3.33-9.18,2.88-3.51-.63-6.3-2.52-8.01-5.49-.72-1.35-.36-2.97.99-3.69,1.35-.72,2.97-.36,3.69.99.99,1.53,2.34,2.52,4.14,2.79,1.71.27,3.33-.18,4.77-1.44,1.35-1.26,1.98-2.79,1.8-4.59Z"/>
      <path class="cls-18" d="M1426.83,187.96v-18c0-6.48,5.22-11.7,11.7-11.7s11.7,5.22,11.7,11.7v9c0,1.53-1.17,2.7-2.7,2.7h-15.3v6.3c0,2.52,1.44,4.86,3.87,5.85s5.04.45,6.84-1.35c.54-.54,1.17-.81,1.89-.81.81,0,1.44.27,1.98.81.54.45.81,1.08.81,1.89,0,.72-.27,1.35-.81,1.89-3.33,3.33-8.37,4.32-12.78,2.52-4.41-1.8-7.2-6.03-7.2-10.8ZM1432.23,169.96v6.3h12.6v-6.3c0-3.51-2.79-6.3-6.3-6.3s-6.3,2.79-6.3,6.3Z"/>
      <path class="cls-18" d="M1463.28,196.96v-35.64c0-1.53,1.17-2.7,2.7-2.7h9c6.39,0,11.7,5.22,11.7,11.7v26.64c0,1.53-1.26,2.7-2.7,2.7-1.53,0-2.7-1.17-2.7-2.7v-26.64c0-3.51-2.79-6.3-6.3-6.3h-6.3v32.94c0,1.53-1.26,2.7-2.7,2.7-1.53,0-2.7-1.17-2.7-2.7Z"/>
      <path class="cls-18" d="M1520.16,196.6v-51.48c0-1.71,1.35-2.88,2.88-2.88h18c1.71,0,2.88,1.17,2.88,2.88s-1.17,2.88-2.88,2.88h-15.12v19.08h13.32c1.71,0,2.88,1.17,2.88,2.88s-1.17,2.88-2.88,2.88h-13.32v23.76c0,1.71-1.17,2.88-2.88,2.88-1.53,0-2.88-1.17-2.88-2.88Z"/>
      <path class="cls-18" d="M1554.09,196.96v-35.64c0-1.53,1.17-2.7,2.7-2.7h9c2.07,0,3.96.54,5.85,1.53,1.35.81,1.71,2.34.99,3.69s-2.34,1.8-3.69.99c-.99-.54-2.07-.81-3.15-.81h-6.3v32.94c0,1.53-1.17,2.7-2.7,2.7s-2.7-1.17-2.7-2.7Z"/>
      <path class="cls-18" d="M1596.75,169.78c0-2.52-1.53-4.68-3.78-5.67-2.43-.99-4.95-.45-6.66,1.35-.54.54-1.17.81-1.98.81-.72,0-1.35-.27-1.89-.81s-.81-1.17-.81-1.89c0-.81.27-1.44.81-1.89,3.33-3.33,8.28-4.32,12.6-2.52,4.32,1.8,7.11,5.94,7.11,10.62v26.82c0,1.53-1.26,2.7-2.7,2.7h-9c-6.48,0-11.7-5.22-11.7-11.7s5.22-11.7,11.7-11.7h6.3v-6.12ZM1590.45,193.9h6.3v-12.6h-6.3c-3.51,0-6.3,2.79-6.3,6.3s2.79,6.3,6.3,6.3Z"/>
      <path class="cls-18" d="M1616.28,196.96v-35.64c0-1.53,1.17-2.7,2.7-2.7h9c6.39,0,11.7,5.22,11.7,11.7v26.64c0,1.53-1.26,2.7-2.7,2.7-1.53,0-2.7-1.17-2.7-2.7v-26.64c0-3.51-2.79-6.3-6.3-6.3h-6.3v32.94c0,1.53-1.26,2.7-2.7,2.7-1.53,0-2.7-1.17-2.7-2.7Z"/>
      <path class="cls-18" d="M1652.73,187.96v-18c0-4.77,2.79-9,7.2-10.8,4.41-1.8,9.27-.81,12.78,2.52.45.54.72,1.17.72,1.98,0,.72-.27,1.35-.72,1.89-.54.45-1.17.72-1.98.72-.72,0-1.35-.27-1.89-.72-1.8-1.89-4.41-2.43-6.84-1.44-2.43.99-3.87,3.33-3.87,5.85v18c0,2.52,1.44,4.86,3.87,5.85s5.04.45,6.84-1.35c.54-.54,1.17-.81,1.89-.81.81,0,1.44.27,1.98.81.45.45.72,1.08.72,1.89,0,.72-.27,1.35-.72,1.89-3.51,3.33-8.37,4.32-12.78,2.52-4.41-1.8-7.2-6.03-7.2-10.8Z"/>
      <path class="cls-18" d="M1684.5,187.96v-18c0-6.48,5.22-11.7,11.7-11.7s11.7,5.22,11.7,11.7v9c0,1.53-1.17,2.7-2.7,2.7h-15.3v6.3c0,2.52,1.44,4.86,3.87,5.85s5.04.45,6.84-1.35c.54-.54,1.17-.81,1.89-.81.81,0,1.44.27,1.98.81.54.45.81,1.08.81,1.89,0,.72-.27,1.35-.81,1.89-3.33,3.33-8.37,4.32-12.78,2.52-4.41-1.8-7.2-6.03-7.2-10.8ZM1689.9,169.96v6.3h12.6v-6.3c0-3.51-2.79-6.3-6.3-6.3s-6.3,2.79-6.3,6.3Z"/>
    </g>
    <g>
      <path class="cls-33" d="M4177.05,163.22v13.28c0,3.36-2.72,6.08-6.08,6.08h-4.8c-.76,0-1.28-.52-1.28-1.28v-22.88c0-.76.52-1.28,1.28-1.28h4.8c3.36,0,6.08,2.72,6.08,6.08ZM4170.97,159.7h-3.52v20.32h3.52c1.96,0,3.52-1.56,3.52-3.52v-13.28c0-1.92-1.56-3.52-3.52-3.52Z"/>
      <path class="cls-33" d="M4182.61,177.46v-8c0-2.88,2.32-5.2,5.2-5.2s5.2,2.32,5.2,5.2v4c0,.68-.52,1.2-1.2,1.2h-6.8v2.8c0,1.12.64,2.16,1.72,2.6,1.08.44,2.24.2,3.04-.6.24-.24.52-.36.84-.36.36,0,.64.12.88.36.24.2.36.48.36.84,0,.32-.12.6-.36.84-1.48,1.48-3.72,1.92-5.68,1.12s-3.2-2.68-3.2-4.8ZM4185.01,169.46v2.8h5.6v-2.8c0-1.56-1.24-2.8-2.8-2.8s-2.8,1.24-2.8,2.8Z"/>
      <path class="cls-33" d="M4205.73,165.62c0-.68.52-1.2,1.2-1.2h2v-2.96c0-2.88,2.32-5.2,5.2-5.2.68,0,1.2.52,1.2,1.2s-.52,1.2-1.2,1.2c-1.56,0-2.8,1.24-2.8,2.8v2.96h2.8c.68,0,1.2.52,1.2,1.2s-.52,1.2-1.2,1.2h-2.8v14.64c0,.68-.52,1.2-1.2,1.2s-1.2-.52-1.2-1.2v-14.64h-2c-.68,0-1.2-.52-1.2-1.2Z"/>
      <path class="cls-33" d="M4220.33,181.46v-15.84c0-.68.52-1.2,1.2-1.2h4c.92,0,1.76.24,2.6.68.6.36.76,1.04.44,1.64-.32.6-1.04.8-1.64.44-.44-.24-.92-.36-1.4-.36h-2.8v14.64c0,.68-.52,1.2-1.2,1.2s-1.2-.52-1.2-1.2Z"/>
      <path class="cls-33" d="M4232.81,177.46v-8c0-2.88,2.36-5.2,5.2-5.2s5.2,2.32,5.2,5.2v4c0,.68-.52,1.2-1.2,1.2h-6.8v2.8c0,1.12.64,2.16,1.72,2.6,1.08.44,2.28.2,3.08-.6.2-.24.48-.36.8-.36.36,0,.64.12.88.36.24.2.36.48.36.84,0,.32-.12.6-.36.84-1.48,1.48-3.72,1.92-5.64,1.12-1.96-.8-3.24-2.68-3.24-4.8ZM4240.93,156.66c.44.48.4,1.24-.12,1.68l-4,3.6c-.48.44-1.24.4-1.68-.08-.44-.48-.4-1.24.08-1.68l4-3.6c.52-.44,1.24-.4,1.72.08ZM4235.21,169.46v2.8h5.6v-2.8c0-1.56-1.24-2.8-2.8-2.8s-2.8,1.24-2.8,2.8Z"/>
      <path class="cls-33" d="M4248.53,177.3v-7.68c0-2.88,2.32-5.2,5.2-5.2h4c.64,0,1.2.52,1.2,1.2v23.84c0,.68-.56,1.2-1.2,1.2-.68,0-1.2-.52-1.2-1.2v-6.96h-2.8c-2.88,0-5.2-2.32-5.2-5.2ZM4250.93,169.62v7.68c0,1.56,1.24,2.8,2.8,2.8h2.8v-13.28h-2.8c-1.56,0-2.8,1.24-2.8,2.8Z"/>
      <path class="cls-33" d="M4265.21,177.3v-11.84c0-.68.52-1.2,1.2-1.2s1.2.52,1.2,1.2v11.84c0,1.56,1.24,2.8,2.8,2.8h2.8v-14.64c0-.68.52-1.2,1.2-1.2s1.2.52,1.2,1.2v15.84c0,.68-.52,1.2-1.2,1.2h-4c-2.88,0-5.2-2.32-5.2-5.2Z"/>
      <path class="cls-33" d="M4281.73,177.46v-8c0-2.88,2.32-5.2,5.2-5.2s5.2,2.32,5.2,5.2v4c0,.68-.52,1.2-1.2,1.2h-6.8v2.8c0,1.12.64,2.16,1.72,2.6,1.08.44,2.24.2,3.04-.6.24-.24.52-.36.84-.36.36,0,.64.12.88.36.24.2.36.48.36.84,0,.32-.12.6-.36.84-1.48,1.48-3.72,1.92-5.68,1.12-1.96-.8-3.2-2.68-3.2-4.8ZM4284.13,169.46v2.8h5.6v-2.8c0-1.56-1.24-2.8-2.8-2.8s-2.8,1.24-2.8,2.8Z"/>
      <path class="cls-33" d="M4297.93,181.46v-15.84c0-.68.52-1.2,1.2-1.2h4c2.84,0,5.2,2.32,5.2,5.2v11.84c0,.68-.56,1.2-1.2,1.2-.68,0-1.2-.52-1.2-1.2v-11.84c0-1.56-1.24-2.8-2.8-2.8h-2.8v14.64c0,.68-.56,1.2-1.2,1.2-.68,0-1.2-.52-1.2-1.2Z"/>
      <path class="cls-33" d="M4312.85,165.62c0-.68.52-1.2,1.2-1.2h2v-6.96c0-.68.52-1.2,1.2-1.2s1.2.52,1.2,1.2v6.96h2.8c.68,0,1.2.52,1.2,1.2s-.52,1.2-1.2,1.2h-2.8v10.64c0,1.56,1.24,2.8,2.8,2.8.68,0,1.2.52,1.2,1.2s-.52,1.2-1.2,1.2c-2.88,0-5.2-2.32-5.2-5.2v-10.64h-2c-.68,0-1.2-.52-1.2-1.2Z"/>
      <path class="cls-33" d="M4333.85,169.38c0-1.12-.68-2.08-1.68-2.52-1.08-.44-2.2-.2-2.96.6-.24.24-.52.36-.88.36-.32,0-.6-.12-.84-.36s-.36-.52-.36-.84c0-.36.12-.64.36-.84,1.48-1.48,3.68-1.92,5.6-1.12s3.16,2.64,3.16,4.72v11.92c0,.68-.56,1.2-1.2,1.2h-4c-2.88,0-5.2-2.32-5.2-5.2s2.32-5.2,5.2-5.2h2.8v-2.72ZM4331.05,180.1h2.8v-5.6h-2.8c-1.56,0-2.8,1.24-2.8,2.8s1.24,2.8,2.8,2.8Z"/>
      <path class="cls-33" d="M4340.77,165.62c0-.68.52-1.2,1.2-1.2h2v-6.96c0-.68.52-1.2,1.2-1.2s1.2.52,1.2,1.2v6.96h2.8c.68,0,1.2.52,1.2,1.2s-.52,1.2-1.2,1.2h-2.8v10.64c0,1.56,1.24,2.8,2.8,2.8.68,0,1.2.52,1.2,1.2s-.52,1.2-1.2,1.2c-2.88,0-5.2-2.32-5.2-5.2v-10.64h-2c-.68,0-1.2-.52-1.2-1.2Z"/>
      <path class="cls-33" d="M4354.97,159.46c0-.92.68-1.6,1.6-1.6s1.6.68,1.6,1.6-.68,1.6-1.6,1.6-1.6-.68-1.6-1.6ZM4356.57,182.66c-.64,0-1.2-.52-1.2-1.2v-16c0-.68.56-1.2,1.2-1.2.68,0,1.2.52,1.2,1.2v16c0,.68-.52,1.2-1.2,1.2Z"/>
      <path class="cls-33" d="M4363.89,177.46v-8c0-2.88,2.32-5.2,5.2-5.2s5.2,2.32,5.2,5.2v8c0,2.88-2.36,5.2-5.2,5.2s-5.2-2.32-5.2-5.2ZM4366.29,169.46v8c0,1.56,1.24,2.8,2.8,2.8s2.8-1.24,2.8-2.8v-8c0-1.56-1.24-2.8-2.8-2.8s-2.8,1.24-2.8,2.8Z"/>
      <path class="cls-33" d="M4380.41,181.46v-15.84c0-.68.52-1.2,1.2-1.2h4c2.84,0,5.2,2.32,5.2,5.2v11.84c0,.68-.56,1.2-1.2,1.2-.68,0-1.2-.52-1.2-1.2v-11.84c0-1.56-1.24-2.8-2.8-2.8h-2.8v14.64c0,.68-.56,1.2-1.2,1.2-.68,0-1.2-.52-1.2-1.2Z"/>
      <path class="cls-33" d="M4405.29,177.46v-8c0-2.88,2.32-5.2,5.2-5.2s5.2,2.32,5.2,5.2v4c0,.68-.52,1.2-1.2,1.2h-6.8v2.8c0,1.12.64,2.16,1.72,2.6,1.08.44,2.24.2,3.04-.6.24-.24.52-.36.84-.36.36,0,.64.12.88.36.24.2.36.48.36.84,0,.32-.12.6-.36.84-1.48,1.48-3.72,1.92-5.68,1.12-1.96-.8-3.2-2.68-3.2-4.8ZM4407.69,169.46v2.8h5.6v-2.8c0-1.56-1.24-2.8-2.8-2.8s-2.8,1.24-2.8,2.8Z"/>
      <path class="cls-33" d="M4421.49,181.46v-15.84c0-.68.52-1.2,1.2-1.2h4c2.84,0,5.2,2.32,5.2,5.2v11.84c0,.68-.56,1.2-1.2,1.2-.68,0-1.2-.52-1.2-1.2v-11.84c0-1.56-1.24-2.8-2.8-2.8h-2.8v14.64c0,.68-.56,1.2-1.2,1.2-.68,0-1.2-.52-1.2-1.2Z"/>
      <path class="cls-33" d="M4446.61,160.02c.84-1.48,2.04-2.4,3.64-2.8,1.56-.44,3.16-.24,4.56.52,1.4.76,2.44,2,2.88,3.56.48,1.56.32,3.12-.44,4.6-1.12,2.12-2.16,4.08-3.12,5.96-1.68,3.2-3.52,6.72-4.28,8.16h6.84c.68,0,1.28.52,1.28,1.28s-.6,1.28-1.28,1.28h-8.96c-.52,0-.88-.2-1.08-.6-.28-.44-.28-.88-.04-1.28l8.4-16c.44-.84.52-1.72.24-2.64s-.84-1.64-1.68-2.08c-.84-.44-1.72-.56-2.64-.32-.92.28-1.64.84-2.08,1.64-.36.6-1.16.84-1.76.48-.6-.36-.84-1.16-.48-1.76Z"/>
      <path class="cls-33" d="M4463.93,176.66v-13.6c0-3.36,2.72-6.08,6.08-6.08s6.08,2.72,6.08,6.08v13.6c0,3.36-2.76,6.08-6.08,6.08s-6.08-2.72-6.08-6.08ZM4466.49,163.06v13.6c0,1.96,1.56,3.52,3.52,3.52s3.52-1.56,3.52-3.52v-13.6c0-1.92-1.6-3.52-3.52-3.52s-3.52,1.6-3.52,3.52Z"/>
      <path class="cls-33" d="M4483.81,164.34c-.36,0-.64-.12-.92-.36-.24-.28-.36-.56-.36-.92s.12-.64.36-.92l4.8-4.8c.36-.36.92-.44,1.4-.28.52.2.8.6.8,1.2v23.2c0,.76-.6,1.28-1.28,1.28-.76,0-1.28-.52-1.28-1.28v-20.12l-2.64,2.64c-.24.24-.52.36-.88.36Z"/>
      <path class="cls-33" d="M4498.85,167.06v-4c0-3.36,2.76-6.08,6.08-6.08s6.08,2.72,6.08,6.08v13.6c0,2.76-1.8,5.12-4.48,5.88-2.72.76-5.44-.44-6.84-2.84-.36-.6-.16-1.4.44-1.76.64-.32,1.4-.12,1.76.48.8,1.4,2.4,2.08,3.96,1.64,1.56-.44,2.6-1.8,2.6-3.4v-4.64c-1,.76-2.16,1.12-3.52,1.12-3.32,0-6.08-2.72-6.08-6.08ZM4501.41,163.06v4c0,1.96,1.6,3.52,3.52,3.52s3.52-1.56,3.52-3.52v-4c0-1.92-1.56-3.52-3.52-3.52s-3.52,1.6-3.52,3.52Z"/>
    </g>
    <g>
      <path class="cls-18" d="M557.39,92.84v-.98h33.45v350.83h-33.45V125.55h-10.01v-16.6c.81-.65,1.71-1.38,2.69-2.2.98-.81,1.87-1.79,2.69-2.93,2.93-4.39,4.47-8.06,4.64-10.99Z"/>
      <path class="cls-18" d="M671.69,97.96c3.42,3.26,6.02,7.08,7.81,11.47,1.95,4.56,2.93,9.28,2.93,14.16v112.3h-.24c-.33,3.58-1.22,7.08-2.69,10.5-1.79,4.39-4.39,8.22-7.81,11.47-2.44,2.44-4.15,3.91-5.13,4.39-3.26,2.28-10.42,7.81-21.48,16.6-.49.33-1.06,1.06-1.71,2.2l-.49,2.2-.24,128.42h6.35l-.24-126.95h33.45v157.71h-72.75l-.24-154.3h.24v-4.88c0-5.21.98-10.01,2.93-14.4.81-1.95,1.79-3.82,2.93-5.62l4.88-5.86c3.91-4.23,13.1-11.8,27.59-22.71.32-.16.57-.49.73-.98.32-.81.49-1.3.49-1.46v-108.64c0-1.79-.98-2.85-2.93-3.17-1.63,0-2.69,1.06-3.17,3.17v103.76h-33.45v-103.76c0-4.88.98-9.6,2.93-14.16,1.95-4.39,4.55-8.22,7.81-11.47,3.42-3.42,7.32-6.02,11.72-7.81,4.55-1.95,9.28-2.93,14.16-2.93s9.6.98,14.16,2.93c4.39,1.79,8.22,4.39,11.47,7.81Z"/>
      <path class="cls-18" d="M763.3,97.96c3.42,3.26,6.02,7.08,7.81,11.47,1.95,4.56,2.93,9.28,2.93,14.16v112.3h-.24c-.33,3.58-1.22,7.08-2.69,10.5-1.79,4.39-4.39,8.22-7.81,11.47-2.44,2.44-4.15,3.91-5.13,4.39-3.26,2.28-10.42,7.81-21.48,16.6-.49.33-1.06,1.06-1.71,2.2l-.49,2.2-.24,128.42h6.35l-.24-126.95h33.45v157.71h-72.75l-.24-154.3h.24v-4.88c0-5.21.98-10.01,2.93-14.4.81-1.95,1.79-3.82,2.93-5.62l4.88-5.86c3.91-4.23,13.1-11.8,27.59-22.71.32-.16.57-.49.73-.98.32-.81.49-1.3.49-1.46v-108.64c0-1.79-.98-2.85-2.93-3.17-1.63,0-2.69,1.06-3.17,3.17v103.76h-33.45v-103.76c0-4.88.98-9.6,2.93-14.16,1.95-4.39,4.55-8.22,7.81-11.47,3.42-3.42,7.32-6.02,11.72-7.81,4.55-1.95,9.28-2.93,14.16-2.93s9.6.98,14.16,2.93c4.39,1.79,8.22,4.39,11.47,7.81Z"/>
      <path class="cls-18" d="M854.9,97.96c3.42,3.26,6.02,7.08,7.81,11.47,1.95,4.56,2.93,9.28,2.93,14.16v112.3h-.24c-.33,3.58-1.22,7.08-2.69,10.5-1.79,4.39-4.39,8.22-7.81,11.47-2.44,2.44-4.15,3.91-5.13,4.39-3.26,2.28-10.42,7.81-21.48,16.6-.49.33-1.06,1.06-1.71,2.2l-.49,2.2-.24,128.42h6.35l-.24-126.95h33.45v157.71h-72.75l-.24-154.3h.24v-4.88c0-5.21.98-10.01,2.93-14.4.81-1.95,1.79-3.82,2.93-5.62l4.88-5.86c3.91-4.23,13.1-11.8,27.59-22.71.32-.16.57-.49.73-.98.32-.81.49-1.3.49-1.46v-108.64c0-1.79-.98-2.85-2.93-3.17-1.63,0-2.69,1.06-3.17,3.17v103.76h-33.45v-103.76c0-4.88.98-9.6,2.93-14.16,1.95-4.39,4.55-8.22,7.81-11.47,3.42-3.42,7.32-6.02,11.72-7.81,4.55-1.95,9.28-2.93,14.16-2.93s9.6.98,14.16,2.93c4.39,1.79,8.22,4.39,11.47,7.81Z"/>
    </g>
    <g>
      <path class="cls-33" d="M3799.88,339.65c2.2.9,3.92,2.69,5.19,5.37,1.26,2.69,1.89,5.82,1.89,9.4v72.27c0,.57-.12,1.91-.37,4.03-.24,1.06-.61,2.08-1.1,3.05-.9,2.2-2.2,4.15-3.91,5.86s-3.54,2.93-5.74,3.91c-2.28.98-4.64,1.46-7.08,1.46s-4.8-.49-7.08-1.46c-2.2-.98-4.15-2.28-5.86-3.91-1.63-1.71-2.93-3.66-3.91-5.86-.98-2.28-1.46-4.64-1.46-7.08v-142.7c0-.49.16-1.83.49-4.03.24-1.06.57-2.08.98-3.05.89-2.2,2.2-4.11,3.91-5.74,1.63-1.71,3.54-3.01,5.74-3.91,2.28-.98,4.64-1.46,7.08-1.46,2.6,0,5,.49,7.2,1.46,2.12.9,4.03,2.2,5.74,3.91,1.71,1.63,3.01,3.54,3.91,5.74.98,2.28,1.46,4.64,1.46,7.08v51.39h-16.72v-51.39c0-.89-.53-1.38-1.59-1.46-.81,0-1.3.49-1.46,1.46v65.31h.85v-1.22c1.06-4.72,3.42-7.65,7.08-8.79.65-.16,1.26-.24,1.83-.24.73,0,1.36.08,1.89.24.53.16.87.29,1.04.37ZM3790.36,426.93v-70.43c-.33-.89-.85-1.34-1.59-1.34-.73.08-1.22.49-1.46,1.22l-.12,70.56c.32.98.89,1.46,1.71,1.46.81-.16,1.3-.65,1.46-1.46Z"/>
      <path class="cls-33" d="M3821.66,284.72v-16.72h36.5v16.72l-19.78,158.69h-16.72l19.9-158.69h-19.9Z"/>
      <path class="cls-33" d="M3901.91,342.58c-1.55,1.55-3.3,2.73-5.25,3.54-2.12.9-4.27,1.34-6.47,1.34s-4.35-.45-6.47-1.34c-1.95-.81-3.7-1.99-5.25-3.54-1.55-1.54-2.73-3.3-3.54-5.25-.9-2.12-1.34-4.27-1.34-6.47v-48.58c0-2.2.45-4.35,1.34-6.47.81-1.95,1.99-3.7,3.54-5.25,1.54-1.46,3.3-2.64,5.25-3.54,2.12-.81,4.27-1.22,6.47-1.22s4.35.41,6.47,1.22c1.95.9,3.7,2.08,5.25,3.54,1.46,1.55,2.64,3.3,3.54,5.25.89,2.12,1.34,4.27,1.34,6.47v48.58c0,2.2-.45,4.35-1.34,6.47-.9,1.95-2.08,3.7-3.54,5.25ZM3891.53,330.86v-48.58c0-.73-.45-1.18-1.34-1.34-.81,0-1.3.45-1.46,1.34v48.58c0,.73.49,1.22,1.46,1.46.73,0,1.18-.49,1.34-1.46ZM3918.15,267.87h11.47l-23.93,175.42h-11.47l23.93-175.42ZM3945.37,368.83c1.54,1.55,2.73,3.3,3.54,5.25.89,2.12,1.34,4.27,1.34,6.47v48.58c0,2.2-.45,4.35-1.34,6.47-.81,1.95-2,3.7-3.54,5.25-1.46,1.46-3.22,2.64-5.25,3.54-2.12.89-4.27,1.34-6.47,1.34s-4.35-.45-6.47-1.34c-1.95-.9-3.7-2.08-5.25-3.54-1.46-1.54-2.65-3.3-3.54-5.25-.9-2.12-1.34-4.27-1.34-6.47v-48.58c0-2.2.45-4.35,1.34-6.47.89-1.95,2.08-3.7,3.54-5.25,1.54-1.46,3.3-2.64,5.25-3.54,2.12-.89,4.27-1.34,6.47-1.34s4.35.45,6.47,1.34c2.03.9,3.78,2.08,5.25,3.54ZM3935.11,429.13v-48.58c0-.73-.49-1.18-1.46-1.34-.73,0-1.22.45-1.46,1.34v48.58c0,.73.49,1.18,1.46,1.34.73,0,1.22-.45,1.46-1.34Z"/>
    </g>
  </g>
</svg>