<svg width="2081" height="1024" viewBox="0 0 2081 1024" fill="none" xmlns="http://www.w3.org/2000/svg">
<path d="M2080.36 0H0V1024H2080.36V0Z" fill="#B7E0EA"/>
<path d="M2080.36 758.519H0V1024H2080.36V758.519Z" fill="#979599"/>
<path d="M2080.36 724.385H0V758.519H2080.36V724.385Z" fill="white"/>
<path d="M356.478 175.407H330.474V286.341H356.478V175.407Z" fill="#FF7B7B"/>
<path d="M330.474 192.474H305.553V286.341H330.474V192.474Z" fill="#51A4C4"/>
<path d="M484.875 286.341H122.979C117.294 286.341 112.686 290.373 112.686 295.348C112.686 300.323 117.294 304.355 122.979 304.355H484.875C490.56 304.355 495.169 300.323 495.169 295.348C495.169 290.373 490.56 286.341 484.875 286.341Z" fill="#624A66"/>
<mask id="mask0_98_791" style="mask-type:luminance" maskUnits="userSpaceOnUse" x="193" y="236" width="42" height="51">
<path d="M234.426 236H193.176V286.432H234.426V236Z" fill="white"/>
</mask>
<g mask="url(#mask0_98_791)">
<path d="M224.165 263.013H227.036C231.121 263.013 234.437 260.121 234.437 256.546V253.266C234.437 249.691 231.121 246.799 227.036 246.799H224.165C220.08 246.799 216.764 249.691 216.764 253.266V256.546C216.764 260.121 220.08 263.013 224.165 263.013Z" fill="#8BC985"/>
<path d="M200.587 263.013H203.459C207.544 263.013 210.859 260.121 210.859 256.546V253.266C210.859 249.691 207.544 246.799 203.459 246.799H200.587C196.503 246.799 193.187 249.691 193.187 253.266V256.546C193.187 260.121 196.503 263.013 200.587 263.013Z" fill="#8BC985"/>
<path d="M212.387 263.013H215.258C219.343 263.013 222.659 260.121 222.659 256.546V242.457C222.659 238.882 219.343 235.99 215.258 235.99H212.387C208.302 235.99 204.987 238.882 204.987 242.457V256.546C204.987 260.121 208.302 263.013 212.387 263.013Z" fill="#8BC985"/>
<path d="M234.437 259.419V268.427C234.437 278.373 225.194 286.441 213.807 286.441C202.419 286.441 193.176 278.373 193.176 268.427V259.419H234.426H234.437Z" fill="#F6EEDA"/>
</g>
<path d="M729.795 556.601H1011.64C1034.42 556.601 1052.91 572.786 1052.91 592.716V713.699C1052.91 717.245 1049.62 720.128 1045.57 720.128H698.058C694.006 720.128 690.712 717.245 690.712 713.699V590.819C690.712 571.932 708.232 556.61 729.805 556.61L729.795 556.601Z" fill="#735F82"/>
<path d="M1087.51 556.601H1369.47C1390.84 556.601 1408.19 571.78 1408.19 590.478V718.298C1408.19 719.303 1407.26 720.118 1406.11 720.118H1054.99C1053.84 720.118 1052.91 719.303 1052.91 718.298V586.875C1052.91 570.159 1068.42 556.601 1087.51 556.601Z" fill="#735F82"/>
<path d="M745.159 710.494H1351.65C1358.66 710.494 1364.35 715.273 1364.35 721.18V776.277C1364.35 782.174 1358.66 786.963 1351.65 786.963H745.159C738.149 786.963 732.46 782.184 732.46 776.277V721.18C732.46 715.283 738.149 710.494 745.159 710.494Z" fill="#594868"/>
<path d="M1388.78 763.866H1339.91C1336.85 763.866 1334.36 766.043 1334.36 768.73V811.491C1334.36 814.177 1336.85 816.355 1339.91 816.355H1388.78C1391.85 816.355 1394.34 814.177 1394.34 811.491V768.73C1394.34 766.043 1391.85 763.866 1388.78 763.866Z" fill="#594868"/>
<path d="M755.431 763.866H706.564C703.494 763.866 701.005 766.043 701.005 768.73V811.491C701.005 814.177 703.494 816.355 706.564 816.355H755.431C758.501 816.355 760.989 814.177 760.989 811.491V768.73C760.989 766.043 758.501 763.866 755.431 763.866Z" fill="#594868"/>
<path d="M690.203 633.363L690.593 701.335C690.647 711.727 700.301 720.128 712.176 720.128H1393.7C1406.45 720.128 1416.43 710.494 1415.18 699.382L1410.12 654.525C1409.02 644.864 1399.74 637.496 1388.64 637.496H1381.12C1375.4 637.496 1369.91 639.488 1365.86 643.024L1315.64 686.971C1311.59 690.517 1306.11 692.499 1300.39 692.499H794.123C787.99 692.499 782.161 690.223 778.065 686.231L723.824 633.363" fill="#594868"/>
<path d="M659.864 774.504V641.593C659.864 637.022 664.393 633.315 669.984 633.315H722.503C728.094 633.315 732.623 637.022 732.623 641.593V774.504C732.623 779.074 728.094 782.781 722.503 782.781H669.984C664.393 782.781 659.864 779.074 659.864 774.504Z" fill="#735F82"/>
<path d="M1364.15 778.685V645.774C1364.15 641.204 1368.68 637.497 1374.27 637.497H1426.79C1432.38 637.497 1436.91 641.204 1436.91 645.774V778.685C1436.91 783.255 1432.38 786.963 1426.79 786.963H1374.27C1368.68 786.963 1364.15 783.255 1364.15 778.685Z" fill="#735F82"/>
<path d="M744.931 704.445H1351.65C1358.67 704.445 1364.35 707.953 1364.35 712.277V752.668C1364.35 756.992 1358.66 760.5 1351.65 760.5H744.931C737.91 760.5 732.232 756.992 732.232 752.668V712.277C732.232 707.953 737.921 704.445 744.931 704.445Z" fill="#735F82"/>
<path d="M1063.58 698.785H1052.1V591.967C1052.75 571.79 1062.5 555.652 1091.76 556.667C1049.96 561.692 1051.56 624.384 1063.58 698.785Z" fill="#594868"/>
<path d="M1040.61 698.785H1052.1V591.967C1051.45 571.79 1041.7 555.652 1012.44 556.667C1054.23 561.692 1052.64 624.384 1040.61 698.785Z" fill="#594868"/>
<path d="M1953.6 498.695C1953.6 530.885 1923.79 556.978 1887 556.978C1850.21 556.978 1820.4 530.885 1820.4 498.695C1820.4 466.506 1848.91 450.7 1885.69 450.7C1922.46 450.7 1953.6 466.506 1953.6 498.695Z" fill="#D67D3A"/>
<path d="M1978.42 580.985C1978.42 618.219 1937.12 638.12 1887 638.12C1836.88 638.12 1796.88 618.219 1796.88 580.985C1796.88 543.751 1837.52 513.562 1887.65 513.562C1937.78 513.562 1978.42 543.751 1978.42 580.985Z" fill="#D67D3A"/>
<path d="M1887.65 524.987C1902.44 524.987 1914.42 514.498 1914.42 501.559C1914.42 488.619 1902.44 478.13 1887.65 478.13C1872.86 478.13 1860.88 488.619 1860.88 501.559C1860.88 514.498 1872.86 524.987 1887.65 524.987Z" fill="#201814"/>
<path d="M1926.18 580.985H1847.82V594.695H1926.18V580.985Z" fill="#201814"/>
<path d="M1901.37 354.709H1873.94V483.847H1901.37V354.709Z" fill="#201814"/>
<path d="M1873.94 354.709C1873.94 354.709 1849.13 312.943 1873.94 297.915C1898.26 283.181 1909.2 306.269 1909.2 306.269C1909.2 306.269 1920.96 322.975 1901.37 354.709H1873.94Z" fill="#201814"/>
<path d="M1919.91 354.624H1858.15V363.157H1919.91V354.624Z" fill="#979599"/>
<path d="M1486.66 95H604.676V462.881H1486.66V95Z" fill="#342638"/>
<path d="M1454.16 121.548H639.349V437.281H1454.16V121.548Z" fill="#565656"/>
<path d="M1049.46 457.193C1052.75 457.193 1055.42 454.858 1055.42 451.978C1055.42 449.098 1052.75 446.763 1049.46 446.763C1046.17 446.763 1043.5 449.098 1043.5 451.978C1043.5 454.858 1046.17 457.193 1049.46 457.193Z" fill="#BF494B"/>
</svg>
